<svg width="24" height="24" viewBox="0 0 24 24" fill="none" xmlns="http://www.w3.org/2000/svg">
<path d="M12.4927 2.00006C12.2986 2.00163 12.1061 2.0819 11.9685 2.21889L7.71294 6.47169C7.4339 6.74967 7.4339 7.25694 7.71294 7.53494L9.96583 9.77872C10.1588 9.97329 10.4633 10.0485 10.7247 9.96631L2.20587 18.4796C1.93138 18.757 1.93138 19.2575 2.20587 19.535L4.46663 21.7943C4.74427 22.0686 5.24507 22.0686 5.52272 21.7943L14.034 13.2962C13.9608 13.5509 14.0352 13.8425 14.2217 14.031L16.4746 16.2824C16.7528 16.5613 17.2604 16.5613 17.5385 16.2824L21.7941 12.0296C22.0686 11.7522 22.0686 11.2517 21.7941 10.9742L19.5412 8.7228C19.3827 8.56208 19.1482 8.47902 18.9235 8.50415C18.7558 8.52422 18.5959 8.60274 18.4775 8.72297L18.0081 9.19204L14.8165 6.00249L15.2858 5.53343C15.5649 5.25544 15.5649 4.74817 15.2858 4.47017L13.033 2.21876C12.8917 2.07794 12.6922 1.99744 12.4927 2.00006ZM12.5006 3.81386L13.6898 5.00207L10.498 8.19179L9.30897 7.00341L12.5006 3.81386ZM13.7523 7.06608L16.9441 10.2556L15.7549 11.4438L12.5633 8.25429L13.7523 7.06608ZM12.5006 10.3103L13.6976 11.5065L4.99053 20.1998L3.80155 19.0116L12.5006 10.3103ZM19.0092 10.3103L20.1982 11.5065L17.0066 14.696L15.8174 13.5078L19.0092 10.3103Z" fill="#687684"/>
</svg>
