<svg width="20" height="20" viewBox="0 0 20 20" fill="none" xmlns="http://www.w3.org/2000/svg">
<path d="M12.7428 2.74408L13.4499 2.03697L13.4499 2.03697L12.7428 2.74408ZM16.4213 6.42259L17.1284 5.71548L17.1284 5.71548L16.4213 6.42259ZM8.33203 3.5H12.1535V1.5H8.33203V3.5ZM15.6654 7.01184V12.5H17.6654V7.01184H15.6654ZM12.0357 3.45118L15.7142 7.1297L17.1284 5.71548L13.4499 2.03697L12.0357 3.45118ZM17.6654 7.01184C17.6654 6.52562 17.4722 6.0593 17.1284 5.71548L15.7142 7.1297C15.6829 7.09844 15.6654 7.05605 15.6654 7.01184H17.6654ZM12.1535 3.5C12.1093 3.5 12.0669 3.48244 12.0357 3.45119L13.4499 2.03697C13.1061 1.69315 12.6398 1.5 12.1535 1.5V3.5ZM8.33203 13.1667C7.96384 13.1667 7.66536 12.8682 7.66536 12.5H5.66536C5.66536 13.9728 6.85927 15.1667 8.33203 15.1667V13.1667ZM14.9987 15.1667C16.4715 15.1667 17.6654 13.9728 17.6654 12.5H15.6654C15.6654 12.8682 15.3669 13.1667 14.9987 13.1667V15.1667ZM7.66536 4.16667C7.66536 3.79848 7.96384 3.5 8.33203 3.5V1.5C6.85927 1.5 5.66536 2.69391 5.66536 4.16667H7.66536ZM4.9987 18.5H11.332V16.5H4.9987V18.5ZM2.33203 7.83333V15.8333H4.33203V7.83333H2.33203ZM4.9987 16.5C4.63051 16.5 4.33203 16.2015 4.33203 15.8333H2.33203C2.33203 17.3061 3.52594 18.5 4.9987 18.5V16.5ZM7.66536 12.5V5.83333H5.66536V12.5H7.66536ZM7.66536 5.83333V4.16667H5.66536V5.83333H7.66536ZM5.33203 6.83333H6.66536V4.83333H5.33203V6.83333ZM14.9987 13.1667H13.332V15.1667H14.9987V13.1667ZM13.332 13.1667H8.33203V15.1667H13.332V13.1667ZM14.332 15.5V14.1667H12.332V15.5H14.332ZM4.33203 7.83333C4.33203 7.28105 4.77975 6.83333 5.33203 6.83333V4.83333C3.67518 4.83333 2.33203 6.17648 2.33203 7.83333H4.33203ZM11.332 18.5C12.9889 18.5 14.332 17.1569 14.332 15.5H12.332C12.332 16.0523 11.8843 16.5 11.332 16.5V18.5Z" fill="#687684"/>
</svg>
