<svg width="532" height="186" viewBox="0 0 532 186" fill="none" xmlns="http://www.w3.org/2000/svg">
<path d="M179 17.7139L252.34 52.7734L263.77 186L179 137.417V17.7139Z" fill="#288AF2"/>
<path d="M201.309 0L263.771 60.6522V186L201.309 133.435V0Z" fill="#2379D5"/>
<path d="M353 17.7139L275.8 52.7734L263.768 186L353 137.417V17.7139Z" fill="#25AAFF"/>
<path d="M321.77 0L263.769 60.6522V186L321.77 133.435V0Z" fill="#2A91FF"/>
<path d="M87.3047 164H115.332V138.902H133.691V115.27H115.332V23.082H73.7305C44.8242 65.6602 29.4922 90.3672 17.1875 113.805V138.902H87.3047V164ZM43.0664 115.367C54.4922 93.2969 66.7969 74.0586 87.3047 43.9805H87.8906V116.148H43.0664V115.367Z" fill="#1886FF"/>
<path d="M469.305 164H497.332V138.902H515.691V115.27H497.332V23.082H455.73C426.824 65.6602 411.492 90.3672 399.188 113.805V138.902H469.305V164ZM425.066 115.367C436.492 93.2969 448.797 74.0586 469.305 43.9805H469.891V116.148H425.066V115.367Z" fill="#1886FF"/>
</svg>
