<svg width="170" height="26" viewBox="0 0 170 26" fill="none" xmlns="http://www.w3.org/2000/svg">
<path d="M19.4893 3.9661L16.8086 6.47171C14.9851 4.58692 12.9336 3.64453 10.6541 3.64453C8.73028 3.64453 7.10732 4.28768 5.78524 5.57398C4.47228 6.86028 3.8158 8.44583 3.8158 10.3306C3.8158 11.6437 4.10756 12.8094 4.6911 13.8278C5.27464 14.8461 6.0998 15.6456 7.16658 16.2262C8.23336 16.8068 9.41868 17.0971 10.7225 17.0971C11.8349 17.0971 12.8515 16.8961 13.7724 16.4942C14.6933 16.0833 15.7054 15.3418 16.8086 14.2699L19.4072 16.9229C17.921 18.3432 16.5169 19.3303 15.1948 19.8841C13.8727 20.429 12.3637 20.7014 10.6678 20.7014C7.54041 20.7014 4.97831 19.7322 2.98152 17.7939C0.993839 15.8465 0 13.3543 0 10.3172C0 8.35204 0.451331 6.6057 1.35399 5.07822C2.26577 3.55073 3.56506 2.32249 5.25185 1.3935C6.94776 0.464498 8.77131 0 10.7225 0C12.382 0 13.9776 0.343907 15.5094 1.03172C17.0503 1.71954 18.3769 2.69766 19.4893 3.9661Z" fill="white"/>
<path d="M21.5681 5.62758H24.7685V7.46324C25.115 6.73969 25.5754 6.19033 26.1498 5.81516C26.7242 5.43999 27.3534 5.2524 28.0372 5.2524C28.5204 5.2524 29.0265 5.37746 29.5553 5.62758L28.3928 8.77634C27.9551 8.56196 27.595 8.45476 27.3123 8.45476C26.7379 8.45476 26.2501 8.80314 25.8489 9.49989C25.4569 10.1966 25.2608 11.5633 25.2608 13.6L25.2745 14.3101V20.2057H21.5681V5.62758Z" fill="white"/>
<path d="M29.7605 5.62758H33.5763L37.4468 14.7791L41.7139 5.62758H45.5434L36.2159 25.5385H32.359L35.4226 19.1204L29.7605 5.62758Z" fill="white"/>
<path d="M51.3696 5.62758V7.23546C52.0443 6.57444 52.7738 6.07868 53.5579 5.74817C54.342 5.41766 55.1809 5.2524 56.0744 5.2524C58.0165 5.2524 59.6668 5.97148 61.0254 7.40964C62.3839 8.8478 63.0632 10.6924 63.0632 12.9434C63.0632 15.1141 62.3611 16.9319 60.957 18.3968C59.5528 19.8528 57.8889 20.5809 55.965 20.5809C55.1079 20.5809 54.3101 20.4335 53.5716 20.1387C52.833 19.835 52.0991 19.3437 51.3696 18.6648V25.5385H47.6632V5.62758H51.3696ZM55.2948 8.62895C54.1186 8.62895 53.143 9.02199 52.368 9.80806C51.593 10.5941 51.2055 11.6214 51.2055 12.8898C51.2055 14.1851 51.593 15.2347 52.368 16.0386C53.143 16.8336 54.1186 17.2311 55.2948 17.2311C56.4346 17.2311 57.3919 16.8247 58.1669 16.0118C58.9511 15.1989 59.3431 14.1627 59.3431 12.9032C59.3431 11.6527 58.9602 10.6299 58.1943 9.83486C57.4284 9.03092 56.4619 8.62895 55.2948 8.62895Z" fill="white"/>
<path d="M66.6055 0.254581H70.3255V5.62758H72.5411V8.77634H70.3255V20.2057H66.6055V8.77634H64.6907V5.62758H66.6055V0.254581Z" fill="white"/>
<path d="M81.5404 5.2524C82.9445 5.2524 84.2621 5.59631 85.493 6.28413C86.733 6.97194 87.6995 7.9054 88.3924 9.08452C89.0854 10.2636 89.4318 11.5365 89.4318 12.9032C89.4318 14.2789 89.0808 15.5652 88.3787 16.7621C87.6858 17.9591 86.7375 18.897 85.534 19.5759C84.3304 20.2459 83.0038 20.5809 81.5541 20.5809C79.4205 20.5809 77.597 19.8394 76.0834 18.3566C74.579 16.8649 73.8267 15.056 73.8267 12.93C73.8267 10.6522 74.6793 8.75401 76.3843 7.23546C77.8796 5.91342 79.5983 5.2524 81.5404 5.2524ZM81.5951 8.69595C80.4371 8.69595 79.4707 9.09345 78.6956 9.88846C77.9297 10.6745 77.5468 11.6839 77.5468 12.9166C77.5468 14.1851 77.9252 15.2123 78.682 15.9984C79.4479 16.7845 80.4143 17.1775 81.5814 17.1775C82.7485 17.1775 83.7196 16.78 84.4946 15.985C85.2696 15.19 85.6571 14.1672 85.6571 12.9166C85.6571 11.6661 85.2741 10.6522 84.5082 9.87506C83.7515 9.08898 82.7804 8.69595 81.5951 8.69595Z" fill="white"/>
<path d="M94.8478 17.2579C95.3128 17.2579 95.7094 17.4187 96.0377 17.7403C96.3659 18.0618 96.53 18.4549 96.53 18.9194C96.53 19.3749 96.3659 19.768 96.0377 20.0985C95.7094 20.4201 95.3128 20.5809 94.8478 20.5809C94.3828 20.5809 93.9862 20.4201 93.6579 20.0985C93.3297 19.768 93.1656 19.3749 93.1656 18.9194C93.1656 18.4549 93.3297 18.0618 93.6579 17.7403C93.9862 17.4187 94.3828 17.2579 94.8478 17.2579Z" fill="white"/>
<path d="M100.811 0.495763H104.818C107.116 0.495763 108.666 0.594022 109.468 0.790541C110.617 1.06745 111.556 1.63914 112.286 2.50561C113.015 3.36315 113.38 4.444 113.38 5.74817C113.38 7.06127 113.024 8.14659 112.313 9.00412C111.602 9.85273 110.622 10.4244 109.372 10.7192C108.461 10.9336 106.756 11.0408 104.257 11.0408H102.821V20.2057H100.811V0.495763ZM102.821 2.41182V9.11131L106.227 9.15151C107.604 9.15151 108.611 9.03092 109.249 8.78974C109.888 8.53962 110.389 8.14212 110.754 7.59723C111.118 7.0434 111.301 6.42705 111.301 5.74817C111.301 5.08715 111.118 4.4842 110.754 3.9393C110.389 3.38548 109.906 2.99244 109.304 2.76019C108.711 2.52794 107.736 2.41182 106.377 2.41182H102.821Z" fill="white"/>
<path d="M131.912 5.62758V20.2057H130.024V17.7001C129.222 18.6559 128.319 19.3749 127.316 19.8573C126.322 20.3397 125.233 20.5809 124.048 20.5809C121.941 20.5809 120.141 19.835 118.645 18.3432C117.159 16.8425 116.416 15.0203 116.416 12.8764C116.416 10.7773 117.168 8.98179 118.673 7.49004C120.177 5.99828 121.987 5.2524 124.102 5.2524C125.324 5.2524 126.427 5.50699 127.412 6.01615C128.406 6.52531 129.277 7.28905 130.024 8.30737V5.62758H131.912ZM124.253 7.06127C123.186 7.06127 122.201 7.32032 121.299 7.83841C120.396 8.34757 119.676 9.06665 119.138 9.99565C118.609 10.9246 118.344 11.9072 118.344 12.9434C118.344 13.9707 118.613 14.9533 119.151 15.8912C119.689 16.8291 120.41 17.5616 121.312 18.0886C122.224 18.6067 123.2 18.8658 124.239 18.8658C125.288 18.8658 126.281 18.6067 127.221 18.0886C128.16 17.5705 128.88 16.8693 129.381 15.985C129.892 15.1007 130.147 14.1047 130.147 12.997C130.147 11.3087 129.577 9.89739 128.438 8.76294C127.307 7.62849 125.912 7.06127 124.253 7.06127Z" fill="white"/>
<path d="M149.049 5.62758H150.977V17.2445C150.977 19.2901 150.795 20.7863 150.43 21.7332C149.928 23.0731 149.058 24.1048 147.818 24.8283C146.578 25.5519 145.087 25.9136 143.345 25.9136C142.069 25.9136 140.92 25.735 139.899 25.3777C138.887 25.0293 138.062 24.5559 137.423 23.9574C136.785 23.3678 136.197 22.5014 135.659 21.358H137.738C138.303 22.3227 139.033 23.0373 139.926 23.5018C140.82 23.9663 141.928 24.1986 143.25 24.1986C144.553 24.1986 145.652 23.9574 146.546 23.475C147.448 23.0016 148.091 22.4031 148.474 21.6796C148.857 20.956 149.049 19.7903 149.049 18.1824V17.4321C148.328 18.3254 147.448 19.0132 146.409 19.4955C145.369 19.969 144.266 20.2057 143.099 20.2057C141.731 20.2057 140.446 19.8752 139.242 19.2142C138.039 18.5442 137.109 17.6465 136.452 16.521C135.796 15.3954 135.468 14.1583 135.468 12.8094C135.468 11.4606 135.809 10.2056 136.493 9.04432C137.177 7.87414 138.121 6.94961 139.324 6.27073C140.537 5.59185 141.814 5.2524 143.154 5.2524C144.266 5.2524 145.301 5.48019 146.258 5.93575C147.225 6.38239 148.155 7.1238 149.049 8.15999V5.62758ZM143.4 7.06127C142.315 7.06127 141.308 7.32032 140.377 7.83841C139.447 8.34757 138.718 9.05772 138.189 9.96885C137.66 10.871 137.396 11.8492 137.396 12.9032C137.396 14.5022 137.943 15.8242 139.037 16.8693C140.131 17.9145 141.549 18.437 143.291 18.437C145.05 18.437 146.464 17.9189 147.53 16.8827C148.606 15.8465 149.144 14.4843 149.144 12.796C149.144 11.6973 148.898 10.7192 148.406 9.86166C147.913 8.99519 147.216 8.31184 146.313 7.81161C145.411 7.31138 144.439 7.06127 143.4 7.06127Z" fill="white"/>
<path d="M167.608 15.3686L169.222 16.1994C168.693 17.2177 168.082 18.0395 167.389 18.6648C166.696 19.2901 165.916 19.768 165.05 20.0985C164.184 20.4201 163.204 20.5809 162.11 20.5809C159.684 20.5809 157.788 19.8037 156.42 18.2494C155.053 16.6862 154.369 14.922 154.369 12.9568C154.369 11.1078 154.948 9.45969 156.106 8.0126C157.574 6.17247 159.539 5.2524 162 5.2524C164.535 5.2524 166.559 6.1948 168.073 8.07959C169.149 9.41056 169.696 11.072 169.714 13.064H156.338C156.375 14.7612 156.926 16.1547 157.993 17.2445C159.06 18.3254 160.377 18.8658 161.946 18.8658C162.702 18.8658 163.436 18.7363 164.148 18.4772C164.868 18.2182 165.479 17.8743 165.98 17.4455C166.482 17.0167 167.024 16.3244 167.608 15.3686ZM167.608 11.4427C167.352 10.4423 166.979 9.64281 166.486 9.04432C166.003 8.44583 165.36 7.96347 164.558 7.59723C163.756 7.23099 162.912 7.04787 162.028 7.04787C160.569 7.04787 159.315 7.5079 158.267 8.42797C157.501 9.09792 156.922 10.1028 156.53 11.4427H167.608Z" fill="white"/>
</svg>
