<svg width="23" height="28" viewBox="0 0 23 28" fill="none" xmlns="http://www.w3.org/2000/svg">
<path d="M18.5894 14.7765C18.5592 11.4271 21.3371 9.79764 21.4641 9.72178C19.8909 7.43239 17.4524 7.11959 16.5955 7.09465C14.5474 6.87953 12.5608 8.3178 11.5176 8.3178C10.4535 8.3178 8.84689 7.11543 7.11537 7.15076C4.88721 7.18506 2.80273 8.47265 1.65949 10.4721C-0.699864 14.5489 1.05976 20.54 3.3202 23.8354C4.45095 25.4493 5.77223 27.2513 7.50166 27.1879C9.1936 27.1182 9.82561 26.1113 11.8674 26.1113C13.8905 26.1113 14.4839 27.1879 16.2477 27.1473C18.0636 27.1182 19.2068 25.5262 20.298 23.8977C21.6047 22.0479 22.1295 20.2262 22.1503 20.1326C22.1076 20.1181 18.6237 18.791 18.5894 14.7765Z" fill="#000000"/>
<path d="M15.2575 4.92684C16.1676 3.79098 16.7902 2.24567 16.6173 0.67749C15.3002 0.735686 13.6531 1.5868 12.7045 2.69773C11.8653 3.67667 11.1157 5.28122 11.3093 6.79016C12.7889 6.90031 14.308 6.04504 15.2575 4.92684Z" fill="#000000"/>
</svg>
