<svg width="24" height="24" viewBox="0 0 24 24" fill="none" xmlns="http://www.w3.org/2000/svg">
<mask id="path-1-inside-1_1022_6175" fill="white">
<path d="M17.3661 1.87439C17.1637 1.91778 16.9832 2.03138 16.8565 2.19508C16.7298 2.35878 16.6651 2.56203 16.6738 2.76885V20.3073C16.6532 20.4328 16.6602 20.5612 16.6942 20.6838C16.7283 20.8063 16.7885 20.9199 16.8709 21.0168C16.9532 21.1137 17.0556 21.1916 17.171 21.245C17.2864 21.2984 17.412 21.326 17.5392 21.326C17.6663 21.326 17.792 21.2984 17.9074 21.245C18.0228 21.1916 18.1252 21.1137 18.2075 21.0168C18.2898 20.9199 18.3501 20.8063 18.3841 20.6838C18.4181 20.5612 18.4251 20.4328 18.4046 20.3073V2.76885C18.4075 2.64557 18.3844 2.52306 18.3368 2.40931C18.2891 2.29556 18.218 2.19314 18.1281 2.10873C18.0383 2.02432 17.9316 1.95982 17.815 1.91944C17.6985 1.87906 17.5748 1.86371 17.452 1.87439C17.4234 1.87299 17.3947 1.87299 17.3661 1.87439ZM6.28918 2.79747C6.08678 2.84086 5.90625 2.95446 5.77955 3.11816C5.65284 3.28186 5.58814 3.48511 5.59688 3.69193V19.3842C5.57632 19.5097 5.58329 19.6382 5.61732 19.7607C5.65134 19.8832 5.71161 19.9969 5.79393 20.0938C5.87625 20.1907 5.97866 20.2685 6.09407 20.3219C6.20947 20.3753 6.33511 20.4029 6.46226 20.4029C6.58941 20.4029 6.71505 20.3753 6.83045 20.3219C6.94585 20.2685 7.04827 20.1907 7.13059 20.0938C7.21291 19.9969 7.27318 19.8832 7.3072 19.7607C7.34123 19.6382 7.3482 19.5097 7.32764 19.3842V3.69193C7.33057 3.56865 7.30747 3.44613 7.25984 3.33239C7.21221 3.21864 7.14113 3.11622 7.05123 3.03181C6.96133 2.9474 6.85464 2.8829 6.73812 2.84252C6.6216 2.80214 6.49788 2.78679 6.37503 2.79747C6.34643 2.79606 6.31778 2.79606 6.28918 2.79747ZM14.5969 5.5667C14.3945 5.61009 14.2139 5.72369 14.0872 5.88739C13.9605 6.05109 13.8958 6.25434 13.9046 6.46116V16.615C13.8836 16.7407 13.8902 16.8694 13.924 16.9922C13.9578 17.115 14.0179 17.229 14.1002 17.3262C14.1826 17.4235 14.2851 17.5016 14.4007 17.5552C14.5162 17.6087 14.6421 17.6365 14.7695 17.6365C14.8969 17.6365 15.0227 17.6087 15.1383 17.5552C15.2539 17.5016 15.3564 17.4235 15.4387 17.3262C15.5211 17.229 15.5812 17.115 15.615 16.9922C15.6488 16.8694 15.6554 16.7407 15.6344 16.615V6.46116C15.6373 6.33805 15.6143 6.2157 15.5667 6.1021C15.5192 5.98849 15.4483 5.88616 15.3586 5.80178C15.2689 5.7174 15.1625 5.65286 15.0462 5.61235C14.9299 5.57185 14.8063 5.55629 14.6836 5.5667C14.6544 5.56523 14.6252 5.56523 14.596 5.5667H14.5969ZM3.51995 6.48977C3.31755 6.53317 3.13702 6.64677 3.01031 6.81047C2.88361 6.97417 2.8189 7.17741 2.82764 7.38423V15.6919C2.80664 15.8176 2.81327 15.9463 2.84706 16.0691C2.88085 16.192 2.941 16.3059 3.02332 16.4032C3.10564 16.5004 3.20816 16.5785 3.32373 16.6321C3.43931 16.6857 3.56517 16.7134 3.69257 16.7134C3.81996 16.7134 3.94582 16.6857 4.0614 16.6321C4.17698 16.5785 4.27949 16.5004 4.36181 16.4032C4.44413 16.3059 4.50428 16.192 4.53807 16.0691C4.57187 15.9463 4.57849 15.8176 4.55749 15.6919V7.38423C4.56039 7.26112 4.53733 7.13878 4.48982 7.02517C4.4423 6.91156 4.37138 6.80924 4.28169 6.72486C4.192 6.64048 4.08554 6.57593 3.96924 6.53543C3.85295 6.49493 3.72943 6.47937 3.60672 6.48977C3.57751 6.48831 3.54824 6.48831 3.51903 6.48977H3.51995ZM9.05841 7.41285C8.85601 7.45625 8.67548 7.56985 8.54878 7.73355C8.42207 7.89725 8.35737 8.10049 8.36611 8.30731V14.7689C8.3451 14.8945 8.35173 15.0232 8.38552 15.146C8.41932 15.2689 8.47946 15.3829 8.56178 15.4801C8.6441 15.5773 8.74662 15.6554 8.8622 15.709C8.97777 15.7626 9.10364 15.7904 9.23103 15.7904C9.35842 15.7904 9.48428 15.7626 9.59986 15.709C9.71544 15.6554 9.81795 15.5773 9.90027 15.4801C9.98259 15.3829 10.0427 15.2689 10.0765 15.146C10.1103 15.0232 10.117 14.8945 10.096 14.7689V8.30731C10.0989 8.1842 10.0758 8.06186 10.0283 7.94825C9.98076 7.83464 9.90984 7.73232 9.82015 7.64793C9.73046 7.56355 9.624 7.49901 9.5077 7.45851C9.39141 7.418 9.26789 7.40245 9.14518 7.41285C9.11597 7.41139 9.0867 7.41139 9.05749 7.41285H9.05841ZM20.1353 7.41285C19.9329 7.45625 19.7524 7.56985 19.6257 7.73355C19.499 7.89725 19.4343 8.10049 19.443 8.30731V14.7689C19.4225 14.8943 19.4294 15.0228 19.4635 15.1453C19.4975 15.2678 19.5578 15.3815 19.6401 15.4784C19.7224 15.5753 19.8248 15.6531 19.9402 15.7065C20.0556 15.7599 20.1813 15.7876 20.3084 15.7876C20.4356 15.7876 20.5612 15.7599 20.6766 15.7065C20.792 15.6531 20.8944 15.5753 20.9767 15.4784C21.0591 15.3815 21.1193 15.2678 21.1534 15.1453C21.1874 15.0228 21.1944 14.8943 21.1738 14.7689V8.30731C21.1767 8.18403 21.1536 8.06152 21.106 7.94777C21.0584 7.83403 20.9873 7.7316 20.8974 7.64719C20.8075 7.56278 20.7008 7.49828 20.5843 7.4579C20.4678 7.41752 20.344 7.40217 20.2212 7.41285C20.1926 7.41145 20.1639 7.41145 20.1353 7.41285ZM0.750721 9.259C0.548315 9.3024 0.367787 9.416 0.241084 9.5797C0.114381 9.7434 0.0496737 9.94664 0.0584135 10.1535V12.9227C0.0378543 13.0482 0.0448296 13.1766 0.0788558 13.2991C0.112882 13.4217 0.173145 13.5353 0.255468 13.6322C0.337791 13.7291 0.440203 13.807 0.555607 13.8604C0.67101 13.9138 0.796644 13.9414 0.923798 13.9414C1.05095 13.9414 1.17659 13.9138 1.29199 13.8604C1.40739 13.807 1.50981 13.7291 1.59213 13.6322C1.67445 13.5353 1.73471 13.4217 1.76874 13.2991C1.80277 13.1766 1.80974 13.0482 1.78918 12.9227V10.1535C1.79211 10.0302 1.76901 9.90767 1.72138 9.79393C1.67375 9.68018 1.60266 9.57776 1.51277 9.49335C1.42287 9.40894 1.31618 9.34444 1.19966 9.30406C1.08314 9.26368 0.95942 9.24833 0.836567 9.259C0.807662 9.25757 0.778703 9.25757 0.749798 9.259H0.750721ZM11.8276 9.259C11.6252 9.3024 11.4447 9.416 11.318 9.5797C11.1913 9.7434 11.1266 9.94664 11.1353 10.1535V12.9227C11.1143 13.0483 11.121 13.1771 11.1548 13.2999C11.1885 13.4227 11.2487 13.5367 11.331 13.6339C11.4133 13.7312 11.5159 13.8093 11.6314 13.8629C11.747 13.9164 11.8729 13.9442 12.0003 13.9442C12.1277 13.9442 12.2535 13.9164 12.3691 13.8629C12.4847 13.8093 12.5872 13.7312 12.6695 13.6339C12.7518 13.5367 12.812 13.4227 12.8458 13.2999C12.8796 13.1771 12.8862 13.0483 12.8652 12.9227V10.1535C12.8681 10.0304 12.845 9.90801 12.7975 9.7944C12.75 9.6808 12.6791 9.57847 12.5894 9.49409C12.4997 9.40971 12.3932 9.34516 12.2769 9.30466C12.1606 9.26416 12.0371 9.2486 11.9144 9.259C11.8852 9.25754 11.8559 9.25754 11.8267 9.259H11.8276ZM22.9046 9.259C22.7022 9.3024 22.5216 9.416 22.3949 9.5797C22.2682 9.7434 22.2035 9.94664 22.2123 10.1535V12.9227C22.1917 13.0482 22.1987 13.1766 22.2327 13.2991C22.2667 13.4217 22.327 13.5353 22.4093 13.6322C22.4916 13.7291 22.594 13.807 22.7095 13.8604C22.8249 13.9138 22.9505 13.9414 23.0776 13.9414C23.2048 13.9414 23.3304 13.9138 23.4458 13.8604C23.5612 13.807 23.6637 13.7291 23.746 13.6322C23.8283 13.5353 23.8886 13.4217 23.9226 13.2991C23.9566 13.1766 23.9636 13.0482 23.943 12.9227V10.1535C23.946 10.0302 23.9229 9.90767 23.8752 9.79393C23.8276 9.68018 23.7565 9.57776 23.6666 9.49335C23.5767 9.40894 23.47 9.34444 23.3535 9.30406C23.237 9.26368 23.1133 9.24833 22.9904 9.259C22.9618 9.2576 22.9332 9.2576 22.9046 9.259Z"/>
</mask>
<path d="M17.3661 1.87439C17.1637 1.91778 16.9832 2.03138 16.8565 2.19508C16.7298 2.35878 16.6651 2.56203 16.6738 2.76885V20.3073C16.6532 20.4328 16.6602 20.5612 16.6942 20.6838C16.7283 20.8063 16.7885 20.9199 16.8709 21.0168C16.9532 21.1137 17.0556 21.1916 17.171 21.245C17.2864 21.2984 17.412 21.326 17.5392 21.326C17.6663 21.326 17.792 21.2984 17.9074 21.245C18.0228 21.1916 18.1252 21.1137 18.2075 21.0168C18.2898 20.9199 18.3501 20.8063 18.3841 20.6838C18.4181 20.5612 18.4251 20.4328 18.4046 20.3073V2.76885C18.4075 2.64557 18.3844 2.52306 18.3368 2.40931C18.2891 2.29556 18.218 2.19314 18.1281 2.10873C18.0383 2.02432 17.9316 1.95982 17.815 1.91944C17.6985 1.87906 17.5748 1.86371 17.452 1.87439C17.4234 1.87299 17.3947 1.87299 17.3661 1.87439ZM6.28918 2.79747C6.08678 2.84086 5.90625 2.95446 5.77955 3.11816C5.65284 3.28186 5.58814 3.48511 5.59688 3.69193V19.3842C5.57632 19.5097 5.58329 19.6382 5.61732 19.7607C5.65134 19.8832 5.71161 19.9969 5.79393 20.0938C5.87625 20.1907 5.97866 20.2685 6.09407 20.3219C6.20947 20.3753 6.33511 20.4029 6.46226 20.4029C6.58941 20.4029 6.71505 20.3753 6.83045 20.3219C6.94585 20.2685 7.04827 20.1907 7.13059 20.0938C7.21291 19.9969 7.27318 19.8832 7.3072 19.7607C7.34123 19.6382 7.3482 19.5097 7.32764 19.3842V3.69193C7.33057 3.56865 7.30747 3.44613 7.25984 3.33239C7.21221 3.21864 7.14113 3.11622 7.05123 3.03181C6.96133 2.9474 6.85464 2.8829 6.73812 2.84252C6.6216 2.80214 6.49788 2.78679 6.37503 2.79747C6.34643 2.79606 6.31778 2.79606 6.28918 2.79747ZM14.5969 5.5667C14.3945 5.61009 14.2139 5.72369 14.0872 5.88739C13.9605 6.05109 13.8958 6.25434 13.9046 6.46116V16.615C13.8836 16.7407 13.8902 16.8694 13.924 16.9922C13.9578 17.115 14.0179 17.229 14.1002 17.3262C14.1826 17.4235 14.2851 17.5016 14.4007 17.5552C14.5162 17.6087 14.6421 17.6365 14.7695 17.6365C14.8969 17.6365 15.0227 17.6087 15.1383 17.5552C15.2539 17.5016 15.3564 17.4235 15.4387 17.3262C15.5211 17.229 15.5812 17.115 15.615 16.9922C15.6488 16.8694 15.6554 16.7407 15.6344 16.615V6.46116C15.6373 6.33805 15.6143 6.2157 15.5667 6.1021C15.5192 5.98849 15.4483 5.88616 15.3586 5.80178C15.2689 5.7174 15.1625 5.65286 15.0462 5.61235C14.9299 5.57185 14.8063 5.55629 14.6836 5.5667C14.6544 5.56523 14.6252 5.56523 14.596 5.5667H14.5969ZM3.51995 6.48977C3.31755 6.53317 3.13702 6.64677 3.01031 6.81047C2.88361 6.97417 2.8189 7.17741 2.82764 7.38423V15.6919C2.80664 15.8176 2.81327 15.9463 2.84706 16.0691C2.88085 16.192 2.941 16.3059 3.02332 16.4032C3.10564 16.5004 3.20816 16.5785 3.32373 16.6321C3.43931 16.6857 3.56517 16.7134 3.69257 16.7134C3.81996 16.7134 3.94582 16.6857 4.0614 16.6321C4.17698 16.5785 4.27949 16.5004 4.36181 16.4032C4.44413 16.3059 4.50428 16.192 4.53807 16.0691C4.57187 15.9463 4.57849 15.8176 4.55749 15.6919V7.38423C4.56039 7.26112 4.53733 7.13878 4.48982 7.02517C4.4423 6.91156 4.37138 6.80924 4.28169 6.72486C4.192 6.64048 4.08554 6.57593 3.96924 6.53543C3.85295 6.49493 3.72943 6.47937 3.60672 6.48977C3.57751 6.48831 3.54824 6.48831 3.51903 6.48977H3.51995ZM9.05841 7.41285C8.85601 7.45625 8.67548 7.56985 8.54878 7.73355C8.42207 7.89725 8.35737 8.10049 8.36611 8.30731V14.7689C8.3451 14.8945 8.35173 15.0232 8.38552 15.146C8.41932 15.2689 8.47946 15.3829 8.56178 15.4801C8.6441 15.5773 8.74662 15.6554 8.8622 15.709C8.97777 15.7626 9.10364 15.7904 9.23103 15.7904C9.35842 15.7904 9.48428 15.7626 9.59986 15.709C9.71544 15.6554 9.81795 15.5773 9.90027 15.4801C9.98259 15.3829 10.0427 15.2689 10.0765 15.146C10.1103 15.0232 10.117 14.8945 10.096 14.7689V8.30731C10.0989 8.1842 10.0758 8.06186 10.0283 7.94825C9.98076 7.83464 9.90984 7.73232 9.82015 7.64793C9.73046 7.56355 9.624 7.49901 9.5077 7.45851C9.39141 7.418 9.26789 7.40245 9.14518 7.41285C9.11597 7.41139 9.0867 7.41139 9.05749 7.41285H9.05841ZM20.1353 7.41285C19.9329 7.45625 19.7524 7.56985 19.6257 7.73355C19.499 7.89725 19.4343 8.10049 19.443 8.30731V14.7689C19.4225 14.8943 19.4294 15.0228 19.4635 15.1453C19.4975 15.2678 19.5578 15.3815 19.6401 15.4784C19.7224 15.5753 19.8248 15.6531 19.9402 15.7065C20.0556 15.7599 20.1813 15.7876 20.3084 15.7876C20.4356 15.7876 20.5612 15.7599 20.6766 15.7065C20.792 15.6531 20.8944 15.5753 20.9767 15.4784C21.0591 15.3815 21.1193 15.2678 21.1534 15.1453C21.1874 15.0228 21.1944 14.8943 21.1738 14.7689V8.30731C21.1767 8.18403 21.1536 8.06152 21.106 7.94777C21.0584 7.83403 20.9873 7.7316 20.8974 7.64719C20.8075 7.56278 20.7008 7.49828 20.5843 7.4579C20.4678 7.41752 20.344 7.40217 20.2212 7.41285C20.1926 7.41145 20.1639 7.41145 20.1353 7.41285ZM0.750721 9.259C0.548315 9.3024 0.367787 9.416 0.241084 9.5797C0.114381 9.7434 0.0496737 9.94664 0.0584135 10.1535V12.9227C0.0378543 13.0482 0.0448296 13.1766 0.0788558 13.2991C0.112882 13.4217 0.173145 13.5353 0.255468 13.6322C0.337791 13.7291 0.440203 13.807 0.555607 13.8604C0.67101 13.9138 0.796644 13.9414 0.923798 13.9414C1.05095 13.9414 1.17659 13.9138 1.29199 13.8604C1.40739 13.807 1.50981 13.7291 1.59213 13.6322C1.67445 13.5353 1.73471 13.4217 1.76874 13.2991C1.80277 13.1766 1.80974 13.0482 1.78918 12.9227V10.1535C1.79211 10.0302 1.76901 9.90767 1.72138 9.79393C1.67375 9.68018 1.60266 9.57776 1.51277 9.49335C1.42287 9.40894 1.31618 9.34444 1.19966 9.30406C1.08314 9.26368 0.95942 9.24833 0.836567 9.259C0.807662 9.25757 0.778703 9.25757 0.749798 9.259H0.750721ZM11.8276 9.259C11.6252 9.3024 11.4447 9.416 11.318 9.5797C11.1913 9.7434 11.1266 9.94664 11.1353 10.1535V12.9227C11.1143 13.0483 11.121 13.1771 11.1548 13.2999C11.1885 13.4227 11.2487 13.5367 11.331 13.6339C11.4133 13.7312 11.5159 13.8093 11.6314 13.8629C11.747 13.9164 11.8729 13.9442 12.0003 13.9442C12.1277 13.9442 12.2535 13.9164 12.3691 13.8629C12.4847 13.8093 12.5872 13.7312 12.6695 13.6339C12.7518 13.5367 12.812 13.4227 12.8458 13.2999C12.8796 13.1771 12.8862 13.0483 12.8652 12.9227V10.1535C12.8681 10.0304 12.845 9.90801 12.7975 9.7944C12.75 9.6808 12.6791 9.57847 12.5894 9.49409C12.4997 9.40971 12.3932 9.34516 12.2769 9.30466C12.1606 9.26416 12.0371 9.2486 11.9144 9.259C11.8852 9.25754 11.8559 9.25754 11.8267 9.259H11.8276ZM22.9046 9.259C22.7022 9.3024 22.5216 9.416 22.3949 9.5797C22.2682 9.7434 22.2035 9.94664 22.2123 10.1535V12.9227C22.1917 13.0482 22.1987 13.1766 22.2327 13.2991C22.2667 13.4217 22.327 13.5353 22.4093 13.6322C22.4916 13.7291 22.594 13.807 22.7095 13.8604C22.8249 13.9138 22.9505 13.9414 23.0776 13.9414C23.2048 13.9414 23.3304 13.9138 23.4458 13.8604C23.5612 13.807 23.6637 13.7291 23.746 13.6322C23.8283 13.5353 23.8886 13.4217 23.9226 13.2991C23.9566 13.1766 23.9636 13.0482 23.943 12.9227V10.1535C23.946 10.0302 23.9229 9.90767 23.8752 9.79393C23.8276 9.68018 23.7565 9.57776 23.6666 9.49335C23.5767 9.40894 23.47 9.34444 23.3535 9.30406C23.237 9.26368 23.1133 9.24833 22.9904 9.259C22.9618 9.2576 22.9332 9.2576 22.9046 9.259Z" fill="#A7A7A7" stroke="#A7A7A7" stroke-width="2" mask="url(#path-1-inside-1_1022_6175)"/>
</svg>
