<svg width="160" height="46" viewBox="0 0 160 46" fill="none" xmlns="http://www.w3.org/2000/svg">
<path d="M154.074 46H5.92593C2.66815 46 0 43.4111 0 40.25V5.75C0 2.58894 2.66815 2.43107e-06 5.92593 2.43107e-06H154.074C157.332 2.43107e-06 160 2.58894 160 5.75V40.25C160 43.4111 157.332 46 154.074 46Z" fill="#1F1F1F"/>
<path d="M51.584 16.1172C53.1416 16.1172 54.1865 15.3408 54.5088 13.9492H53.6201C53.3662 14.8086 52.624 15.3066 51.5889 15.3066C50.1973 15.3066 49.3135 14.2031 49.3135 12.4746C49.3135 10.7607 50.207 9.64746 51.584 9.64746C52.5898 9.64746 53.3955 10.2529 53.6201 11.1758H54.5088C54.2842 9.76953 53.1172 8.83691 51.584 8.83691C49.6553 8.83691 48.4102 10.2627 48.4102 12.4746C48.4102 14.7061 49.6406 16.1172 51.584 16.1172ZM58.5225 8.83691C56.5254 8.83691 55.2754 10.2432 55.2754 12.4795C55.2754 14.7158 56.5254 16.1172 58.5225 16.1172C60.5195 16.1172 61.7695 14.7158 61.7695 12.4795C61.7695 10.2432 60.5195 8.83691 58.5225 8.83691ZM58.5225 9.64746C59.9629 9.64746 60.8662 10.7412 60.8662 12.4795C60.8662 14.2129 59.9629 15.3066 58.5225 15.3066C57.082 15.3066 56.1787 14.2129 56.1787 12.4795C56.1787 10.7412 57.082 9.64746 58.5225 9.64746ZM69.8066 16V8.9541H68.7861L66.3545 14.833H66.3154L63.8838 8.9541H62.8633V16H63.6836V10.5703H63.7178L65.9639 15.9512H66.7061L68.9521 10.5703H68.9863V16H69.8066ZM72.0527 16V8.9541H71.1738V16H72.0527ZM74.2891 16V10.4873H74.333L78.1904 16H79.0449V8.9541H78.1758V14.4863H78.1318L74.2744 8.9541H73.4199V16H74.2891ZM86.3545 13.085V12.416H83.4883V13.1875H85.4756V13.3145C85.4756 14.4961 84.6162 15.3066 83.3662 15.3066C81.9307 15.3066 81.042 14.208 81.042 12.4355C81.042 10.6924 81.916 9.64746 83.3662 9.64746C84.3574 9.64746 85.0947 10.1895 85.3877 11.1416H86.3105C86.0469 9.74023 84.8896 8.83691 83.3662 8.83691C81.3936 8.83691 80.1387 10.2383 80.1387 12.4404C80.1387 14.6816 81.3984 16.1172 83.3662 16.1172C85.2461 16.1172 86.3545 14.9893 86.3545 13.085ZM89.1963 14.0615C89.2793 15.3066 90.3145 16.1172 91.8086 16.1172C93.4297 16.1172 94.4453 15.3115 94.4453 14.0225C94.4453 13.0117 93.8545 12.4502 92.3945 12.084L91.6572 11.8887C90.7002 11.6396 90.3096 11.3223 90.3096 10.79C90.3096 10.1016 90.9443 9.62793 91.8574 9.62793C92.7754 9.62793 93.3857 10.0918 93.4639 10.8486H94.3428C94.3037 9.66699 93.2881 8.83691 91.8867 8.83691C90.4219 8.83691 89.3965 9.65723 89.3965 10.8291C89.3965 11.7861 89.9727 12.3574 91.2715 12.6895L92.1748 12.9238C93.1221 13.168 93.5371 13.5342 93.5371 14.1299C93.5371 14.8232 92.8438 15.3262 91.8916 15.3262C90.8857 15.3262 90.1631 14.8232 90.0801 14.0615H89.1963ZM98.4443 8.83691C96.4473 8.83691 95.1973 10.2432 95.1973 12.4795C95.1973 14.7158 96.4473 16.1172 98.4443 16.1172C100.441 16.1172 101.691 14.7158 101.691 12.4795C101.691 10.2432 100.441 8.83691 98.4443 8.83691ZM98.4443 9.64746C99.8848 9.64746 100.788 10.7412 100.788 12.4795C100.788 14.2129 99.8848 15.3066 98.4443 15.3066C97.0039 15.3066 96.1006 14.2129 96.1006 12.4795C96.1006 10.7412 97.0039 9.64746 98.4443 9.64746ZM105.759 8.83691C103.762 8.83691 102.512 10.2432 102.512 12.4795C102.512 14.7158 103.762 16.1172 105.759 16.1172C107.756 16.1172 109.006 14.7158 109.006 12.4795C109.006 10.2432 107.756 8.83691 105.759 8.83691ZM105.759 9.64746C107.199 9.64746 108.103 10.7412 108.103 12.4795C108.103 14.2129 107.199 15.3066 105.759 15.3066C104.318 15.3066 103.415 14.2129 103.415 12.4795C103.415 10.7412 104.318 9.64746 105.759 9.64746ZM110.969 16V10.4873H111.013L114.87 16H115.725V8.9541H114.855V14.4863H114.812L110.954 8.9541H110.1V16H110.969Z" fill="white"/>
<path d="M80.7522 25.0155C77.9685 25.0155 75.6945 27.0711 75.6945 29.9073C75.6945 32.7205 77.9685 34.7976 80.7522 34.7976C83.5419 34.7976 85.8159 32.7205 85.8159 29.9073C85.8159 27.0711 83.5419 25.0155 80.7522 25.0155ZM80.7522 32.8714C79.2248 32.8714 77.9108 31.6481 77.9108 29.9073C77.9108 28.1435 79.2248 26.9417 80.7522 26.9417C82.2796 26.9417 83.5996 28.1435 83.5996 29.9073C83.5996 31.6481 82.2796 32.8714 80.7522 32.8714ZM69.7167 25.0155C66.927 25.0155 64.6589 27.0711 64.6589 29.9073C64.6589 32.7205 66.927 34.7976 69.7167 34.7976C72.5048 34.7976 74.7745 32.7205 74.7745 29.9073C74.7745 27.0711 72.5048 25.0155 69.7167 25.0155ZM69.7167 32.8714C68.1878 32.8714 66.8693 31.6481 66.8693 29.9073C66.8693 28.1435 68.1878 26.9417 69.7167 26.9417C71.2441 26.9417 72.5582 28.1435 72.5582 29.9073C72.5582 31.6481 71.2441 32.8714 69.7167 32.8714ZM56.5848 26.5148V28.5934H61.7004C61.5508 29.7549 61.1508 30.6088 60.5374 31.2039C59.7908 31.9226 58.6278 32.7205 56.5848 32.7205C53.4367 32.7205 50.9715 30.2552 50.9715 27.2005C50.9715 24.1458 53.4367 21.6805 56.5848 21.6805C58.2871 21.6805 59.5256 22.3259 60.4396 23.1625L61.9493 21.6977C60.6708 20.5132 58.97 19.6033 56.5848 19.6033C52.2678 19.6033 48.6396 23.0116 48.6396 27.2005C48.6396 31.3893 52.2678 34.7976 56.5848 34.7976C58.9182 34.7976 60.6708 34.0559 62.0485 32.6644C63.4604 31.2945 63.9004 29.3682 63.9004 27.8128C63.9004 27.3298 63.8589 26.8856 63.7848 26.5148H56.5848ZM110.283 28.1262C109.866 27.0323 108.582 25.0155 105.966 25.0155C103.373 25.0155 101.214 26.9978 101.214 29.9073C101.214 32.6471 103.351 34.7976 106.214 34.7976C108.53 34.7976 109.866 33.4277 110.416 32.6299L108.697 31.5187C108.124 32.3323 107.343 32.8714 106.214 32.8714C105.093 32.8714 104.289 32.3726 103.773 31.3893L110.515 28.6825L110.283 28.1262ZM103.409 29.7549C103.351 27.8689 104.918 26.9029 106.041 26.9029C106.921 26.9029 107.668 27.3298 107.917 27.9408L103.409 29.7549ZM97.9285 34.5001H100.145V20.1251H97.9285V34.5001ZM94.2989 26.1051H94.2248C93.727 25.533 92.7774 25.0155 91.5745 25.0155C89.05 25.0155 86.7419 27.166 86.7419 29.9231C86.7419 32.6644 89.05 34.7976 91.5745 34.7976C92.7774 34.7976 93.727 34.2758 94.2248 33.6865H94.2989V34.388C94.2989 36.2581 93.2693 37.263 91.6085 37.263C90.2544 37.263 89.4145 36.3142 89.0678 35.5164L87.1404 36.297C87.6959 37.5936 89.167 39.1892 91.6085 39.1892C94.207 39.1892 96.3996 37.7057 96.3996 34.0961V25.313H94.2989V26.1051ZM91.7641 32.8714C90.2367 32.8714 88.9581 31.6308 88.9581 29.9231C88.9581 28.1995 90.2367 26.9417 91.7641 26.9417C93.2693 26.9417 94.4559 28.1995 94.4559 29.9231C94.4559 31.6308 93.2693 32.8714 91.7641 32.8714ZM120.659 20.1251H115.358V34.5001H117.569V29.0534H120.659C123.114 29.0534 125.521 27.3298 125.521 24.5885C125.521 21.8487 123.108 20.1251 120.659 20.1251ZM120.717 27.0538H117.569V22.1247H120.717C122.367 22.1247 123.309 23.4543 123.309 24.5885C123.309 25.7012 122.367 27.0538 120.717 27.0538ZM134.38 24.9882C132.783 24.9882 131.123 25.6724 130.44 27.189L132.401 27.9868C132.823 27.189 133.6 26.9302 134.42 26.9302C135.567 26.9302 136.73 27.5987 136.748 28.7788V28.9298C136.348 28.7055 135.491 28.3735 134.438 28.3735C132.326 28.3735 130.173 29.5019 130.173 31.6078C130.173 33.5341 131.903 34.7746 133.849 34.7746C135.336 34.7746 136.157 34.1235 136.672 33.3659H136.748V34.4771H138.883V28.9628C138.883 26.4142 136.921 24.9882 134.38 24.9882ZM134.114 32.8656C133.391 32.8656 132.383 32.5178 132.383 31.6481C132.383 30.5355 133.64 30.1085 134.727 30.1085C135.7 30.1085 136.157 30.317 136.748 30.5915C136.574 31.9226 135.394 32.8656 134.114 32.8656ZM146.66 25.303L144.12 31.5345H144.044L141.417 25.303H139.034L142.98 34.0113L140.729 38.8571H143.038L149.12 25.303H146.66ZM126.736 34.5001H128.952V20.1251H126.736V34.5001Z" fill="white"/>
<path d="M12.3675 8.66956C12.0194 9.02319 11.8179 9.57375 11.8179 10.2868V35.719C11.8179 36.432 12.0194 36.9826 12.3675 37.3362L12.4534 37.4138L27.1408 23.1682V22.8318L12.4534 8.58619L12.3675 8.66956Z" fill="url(#paint0_linear_218_6163)"/>
<path d="M32.031 27.9192L27.1406 23.1683V22.8319L32.0369 18.0809L32.1466 18.1428L37.9451 21.3441C39.5999 22.2526 39.5999 23.7476 37.9451 24.6618L32.1466 27.8574L32.031 27.9192Z" fill="url(#paint1_linear_218_6163)"/>
<path d="M32.1464 27.8573L27.1405 23L12.3672 37.3362C12.9168 37.8968 13.8131 37.9644 14.8324 37.4038L32.1464 27.8573Z" fill="url(#paint2_linear_218_6163)"/>
<path d="M32.1464 18.1427L14.8324 8.59625C13.8131 8.04138 12.9168 8.10894 12.3672 8.66956L27.1405 23L32.1464 18.1427Z" fill="url(#paint3_linear_218_6163)"/>
<defs>
<linearGradient id="paint0_linear_218_6163" x1="25.8368" y1="35.9839" x2="6.54577" y2="16.1026" gradientUnits="userSpaceOnUse">
<stop stop-color="#00A0FF"/>
<stop offset="0.0066" stop-color="#00A1FF"/>
<stop offset="0.2601" stop-color="#00BEFF"/>
<stop offset="0.5122" stop-color="#00D2FF"/>
<stop offset="0.7604" stop-color="#00DFFF"/>
<stop offset="1" stop-color="#00E3FF"/>
</linearGradient>
<linearGradient id="paint1_linear_218_6163" x1="40.0999" y1="22.9985" x2="11.4221" y2="22.9985" gradientUnits="userSpaceOnUse">
<stop stop-color="#FFE000"/>
<stop offset="0.4087" stop-color="#FFBD00"/>
<stop offset="0.7754" stop-color="#FFA500"/>
<stop offset="1" stop-color="#FF9C00"/>
</linearGradient>
<linearGradient id="paint2_linear_218_6163" x1="29.4244" y1="20.3595" x2="3.26421" y2="-6.60103" gradientUnits="userSpaceOnUse">
<stop stop-color="#FF3A44"/>
<stop offset="1" stop-color="#C31162"/>
</linearGradient>
<linearGradient id="paint3_linear_218_6163" x1="8.64843" y1="45.7974" x2="20.3301" y2="33.7584" gradientUnits="userSpaceOnUse">
<stop stop-color="#32A071"/>
<stop offset="0.0685" stop-color="#2DA771"/>
<stop offset="0.4762" stop-color="#15CF74"/>
<stop offset="0.8009" stop-color="#06E775"/>
<stop offset="1" stop-color="#00F076"/>
</linearGradient>
</defs>
</svg>
