<svg width="191" height="44" viewBox="0 0 191 44" fill="none" xmlns="http://www.w3.org/2000/svg">
<path d="M0 4.19043L17.1607 12.4841L19.8351 44L0 32.5073V4.19043Z" fill="#FFBC1A"/>
<path d="M5.21875 0L19.8341 14.3478V44L5.21875 31.5652V0Z" fill="#D8A321"/>
<path d="M40.7148 4.19043L22.6509 12.4841L19.8358 44L40.7148 32.5073V4.19043Z" fill="#F9D275"/>
<path d="M33.4062 0L19.8348 14.3478V44L33.4062 31.5652V0Z" fill="#F3BA2F"/>
<path d="M68.0238 17.8738L65.8473 19.8997C64.3666 18.3757 62.7008 17.6138 60.85 17.6138C59.2879 17.6138 57.9701 18.1338 56.8966 19.1738C55.8306 20.2138 55.2975 21.4958 55.2975 23.0198C55.2975 24.0815 55.5344 25.024 56.0082 25.8474C56.482 26.6707 57.1521 27.3171 58.0182 27.7866C58.8844 28.2561 59.8469 28.4908 60.9055 28.4908C61.8087 28.4908 62.6342 28.3283 63.382 28.0033C64.1297 27.671 64.9515 27.0716 65.8473 26.2049L67.9572 28.35C66.7505 29.4983 65.6104 30.2964 64.5369 30.7442C63.4634 31.1848 62.2381 31.4051 60.8611 31.4051C58.3218 31.4051 56.2414 30.6214 54.6201 29.0542C53.0062 27.4797 52.1992 25.4646 52.1992 23.0089C52.1992 21.42 52.5657 20.008 53.2986 18.773C54.0389 17.5379 55.0939 16.5448 56.4635 15.7937C57.8406 15.0426 59.3212 14.667 60.9055 14.667C62.2529 14.667 63.5485 14.9451 64.7923 15.5012C66.0435 16.0573 67.1206 16.8482 68.0238 17.8738Z" fill="black"/>
<path d="M69.7118 19.2171H72.3104V20.7014C72.5917 20.1163 72.9656 19.6722 73.432 19.3688C73.8984 19.0655 74.4092 18.9138 74.9645 18.9138C75.3569 18.9138 75.7677 19.0149 76.1971 19.2171L75.2532 21.7631C74.8978 21.5897 74.6054 21.5031 74.3759 21.5031C73.9095 21.5031 73.5134 21.7847 73.1877 22.3481C72.8693 22.9114 72.7102 24.0165 72.7102 25.6632L72.7213 26.2374V31.0042H69.7118V19.2171Z" fill="black"/>
<path d="M76.3637 19.2171H79.462L82.6047 26.6166L86.0695 19.2171H89.1789L81.6053 35.316H78.4737L80.9612 30.1267L76.3637 19.2171Z" fill="black"/>
<path d="M93.9096 19.2171V20.5172C94.4575 19.9827 95.0497 19.5819 95.6864 19.3147C96.3231 19.0474 97.0042 18.9138 97.7297 18.9138C99.3066 18.9138 100.647 19.4952 101.75 20.658C102.853 21.8208 103.404 23.3123 103.404 25.1323C103.404 26.8874 102.834 28.3572 101.694 29.5417C100.554 30.7189 99.203 31.3076 97.6409 31.3076C96.945 31.3076 96.2972 31.1884 95.6975 30.95C95.0978 30.7045 94.5019 30.3072 93.9096 29.7583V35.316H90.9002V19.2171H93.9096ZM97.0967 21.6439C96.1417 21.6439 95.3496 21.9617 94.7203 22.5973C94.091 23.2328 93.7763 24.0634 93.7763 25.089C93.7763 26.1363 94.091 26.9849 94.7203 27.6349C95.3496 28.2777 96.1417 28.5991 97.0967 28.5991C98.0222 28.5991 98.7995 28.2705 99.4288 27.6133C100.065 26.956 100.384 26.1182 100.384 25.0998C100.384 24.0887 100.073 23.2617 99.451 22.6189C98.8291 21.9689 98.0444 21.6439 97.0967 21.6439Z" fill="black"/>
<path d="M106.281 14.8728H109.301V19.2171H111.1V21.7631H109.301V31.0042H106.281V21.7631H104.726V19.2171H106.281V14.8728Z" fill="black"/>
<path d="M118.407 18.9138C119.547 18.9138 120.617 19.1919 121.617 19.748C122.623 20.3041 123.408 21.0589 123.971 22.0122C124.534 22.9656 124.815 23.9948 124.815 25.0998C124.815 26.2121 124.53 27.2521 123.96 28.22C123.397 29.1878 122.627 29.9461 121.65 30.495C120.673 31.0367 119.595 31.3076 118.418 31.3076C116.686 31.3076 115.205 30.7081 113.976 29.5092C112.755 28.303 112.144 26.8405 112.144 25.1215C112.144 23.2798 112.836 21.745 114.221 20.5172C115.435 19.4483 116.83 18.9138 118.407 18.9138ZM118.452 21.6981C117.511 21.6981 116.727 22.0195 116.097 22.6623C115.476 23.2978 115.165 24.114 115.165 25.1107C115.165 26.1363 115.472 26.9669 116.086 27.6024C116.708 28.238 117.493 28.5558 118.441 28.5558C119.388 28.5558 120.177 28.2344 120.806 27.5916C121.435 26.9488 121.75 26.1218 121.75 25.1107C121.75 24.0995 121.439 23.2798 120.817 22.6514C120.203 22.0159 119.414 21.6981 118.452 21.6981Z" fill="black"/>
<path d="M129.212 28.6208C129.59 28.6208 129.912 28.7508 130.179 29.0108C130.445 29.2708 130.578 29.5886 130.578 29.9642C130.578 30.3325 130.445 30.6503 130.179 30.9175C129.912 31.1776 129.59 31.3076 129.212 31.3076C128.835 31.3076 128.513 31.1776 128.246 30.9175C127.98 30.6503 127.846 30.3325 127.846 29.9642C127.846 29.5886 127.98 29.2708 128.246 29.0108C128.513 28.7508 128.835 28.6208 129.212 28.6208Z" fill="black"/>
<path d="M134.054 15.0678H137.308C139.174 15.0678 140.432 15.1473 141.084 15.3062C142.016 15.5301 142.779 15.9923 143.371 16.6929C143.964 17.3863 144.26 18.2602 144.26 19.3147C144.26 20.3764 143.971 21.2539 143.394 21.9472C142.816 22.6334 142.02 23.0956 141.006 23.334C140.266 23.5073 138.881 23.594 136.853 23.594H135.687V31.0042H134.054V15.0678ZM135.687 16.6171V22.0339L138.452 22.0664C139.57 22.0664 140.388 21.9689 140.906 21.7739C141.424 21.5717 141.831 21.2503 142.128 20.8097C142.424 20.3619 142.572 19.8636 142.572 19.3147C142.572 18.7802 142.424 18.2927 142.128 17.8521C141.831 17.4043 141.439 17.0865 140.95 16.8987C140.469 16.711 139.677 16.6171 138.574 16.6171H135.687Z" fill="black"/>
<path d="M159.307 19.2171V31.0042H157.774V28.9783C157.123 29.7511 156.39 30.3325 155.576 30.7225C154.769 31.1126 153.884 31.3076 152.922 31.3076C151.211 31.3076 149.749 30.7045 148.535 29.4983C147.328 28.285 146.725 26.8116 146.725 25.0782C146.725 23.3809 147.336 21.9292 148.557 20.723C149.779 19.5169 151.248 18.9138 152.966 18.9138C153.958 18.9138 154.854 19.1196 155.653 19.5313C156.46 19.943 157.167 20.5605 157.774 21.3839V19.2171H159.307ZM153.088 20.3764C152.222 20.3764 151.422 20.5858 150.689 21.0047C149.957 21.4164 149.372 21.9978 148.935 22.7489C148.506 23.5001 148.291 24.2945 148.291 25.1323C148.291 25.9629 148.509 26.7574 148.946 27.5158C149.383 28.2741 149.968 28.8664 150.701 29.2925C151.441 29.7114 152.233 29.9208 153.077 29.9208C153.928 29.9208 154.735 29.7114 155.498 29.2925C156.26 28.8736 156.845 28.3066 157.253 27.5916C157.667 26.8766 157.874 26.0713 157.874 25.1757C157.874 23.8106 157.412 22.6695 156.486 21.7522C155.568 20.835 154.436 20.3764 153.088 20.3764Z" fill="black"/>
<path d="M173.222 19.2171H174.787V28.61C174.787 30.2639 174.639 31.4737 174.343 32.2393C173.936 33.3226 173.229 34.1568 172.222 34.7418C171.215 35.3269 170.005 35.6194 168.591 35.6194C167.554 35.6194 166.621 35.4749 165.792 35.186C164.971 34.9044 164.301 34.5216 163.782 34.0377C163.264 33.561 162.787 32.8604 162.35 31.9359H164.038C164.497 32.7159 165.089 33.2937 165.814 33.6693C166.54 34.0449 167.44 34.2327 168.513 34.2327C169.572 34.2327 170.464 34.0377 171.189 33.6476C171.922 33.2649 172.444 32.7809 172.755 32.1959C173.066 31.6109 173.222 30.6684 173.222 29.3683V28.7616C172.637 29.4839 171.922 30.04 171.078 30.43C170.234 30.8128 169.338 31.0042 168.391 31.0042C167.28 31.0042 166.236 30.737 165.259 30.2025C164.282 29.6608 163.527 28.935 162.994 28.0249C162.461 27.1149 162.194 26.1146 162.194 25.024C162.194 23.9334 162.472 22.9187 163.027 21.9797C163.582 21.0336 164.349 20.2861 165.326 19.7372C166.311 19.1883 167.347 18.9138 168.435 18.9138C169.338 18.9138 170.179 19.098 170.956 19.4663C171.741 19.8274 172.496 20.4269 173.222 21.2647V19.2171ZM168.635 20.3764C167.754 20.3764 166.936 20.5858 166.181 21.0047C165.426 21.4164 164.834 21.9906 164.404 22.7273C163.975 23.4567 163.76 24.2476 163.76 25.0998C163.76 26.3927 164.204 27.4616 165.093 28.3066C165.981 29.1517 167.132 29.5742 168.546 29.5742C169.975 29.5742 171.123 29.1553 171.989 28.3175C172.862 27.4797 173.299 26.3782 173.299 25.0132C173.299 24.1248 173.099 23.334 172.7 22.6406C172.3 21.94 171.733 21.3875 171.001 20.983C170.268 20.5786 169.479 20.3764 168.635 20.3764Z" fill="black"/>
<path d="M188.291 27.0933L189.601 27.7649C189.172 28.5883 188.676 29.2528 188.113 29.7583C187.551 30.2639 186.918 30.6503 186.214 30.9175C185.511 31.1776 184.715 31.3076 183.827 31.3076C181.858 31.3076 180.318 30.6792 179.207 29.4225C178.097 28.1586 177.541 26.7321 177.541 25.1432C177.541 23.6481 178.011 22.3156 178.952 21.1455C180.144 19.6577 181.739 18.9138 183.738 18.9138C185.796 18.9138 187.44 19.6758 188.669 21.1997C189.542 22.2759 189.986 23.6192 190.001 25.2299H179.141C179.17 26.6021 179.618 27.7288 180.484 28.61C181.35 29.4839 182.42 29.9208 183.694 29.9208C184.308 29.9208 184.904 29.8161 185.481 29.6067C186.066 29.3972 186.562 29.1192 186.97 28.7725C187.377 28.4258 187.817 27.8661 188.291 27.0933ZM188.291 23.919C188.084 23.1101 187.78 22.4636 187.38 21.9797C186.988 21.4958 186.466 21.1058 185.815 20.8097C185.163 20.5136 184.478 20.3655 183.76 20.3655C182.576 20.3655 181.558 20.7375 180.706 21.4814C180.084 22.0231 179.614 22.8356 179.296 23.919H188.291Z" fill="black"/>
</svg>
