<svg width="190" height="44" viewBox="0 0 190 44" fill="none" xmlns="http://www.w3.org/2000/svg">
<path d="M0 4.19043L17.1607 12.4841L19.8351 44L0 32.5073V4.19043Z" fill="#288AF2"/>
<path d="M5.21973 0L19.8351 14.3478V44L5.21973 31.5652V0Z" fill="#2379D5"/>
<path d="M40.7139 4.19043L22.6499 12.4841L19.8348 44L40.7139 32.5073V4.19043Z" fill="#25AAFF"/>
<path d="M33.4067 0L19.8353 14.3478V44L33.4067 31.5652V0Z" fill="#2A91FF"/>
<path d="M68.0229 17.8738L65.8463 19.8997C64.3656 18.3757 62.6999 17.6138 60.849 17.6138C59.2869 17.6138 57.9691 18.1338 56.8957 19.1738C55.8296 20.2138 55.2965 21.4958 55.2965 23.0198C55.2965 24.0815 55.5334 25.024 56.0073 25.8474C56.4811 26.6707 57.1511 27.3171 58.0173 27.7866C58.8835 28.2561 59.8459 28.4908 60.9046 28.4908C61.8078 28.4908 62.6332 28.3283 63.381 28.0033C64.1287 27.671 64.9505 27.0716 65.8463 26.2049L67.9562 28.35C66.7495 29.4983 65.6094 30.2964 64.5359 30.7442C63.4624 31.1848 62.2372 31.4051 60.8601 31.4051C58.3208 31.4051 56.2405 30.6214 54.6191 29.0542C53.0052 27.4797 52.1982 25.4646 52.1982 23.0089C52.1982 21.42 52.5647 20.008 53.2976 18.773C54.038 17.5379 55.0929 16.5448 56.4626 15.7937C57.8396 15.0426 59.3203 14.667 60.9046 14.667C62.252 14.667 63.5476 14.9451 64.7913 15.5012C66.0425 16.0573 67.1197 16.8482 68.0229 17.8738Z" fill="black"/>
<path d="M69.7108 19.2171H72.3094V20.7014C72.5907 20.1163 72.9646 19.6722 73.431 19.3688C73.8974 19.0655 74.4082 18.9138 74.9635 18.9138C75.3559 18.9138 75.7668 19.0149 76.1962 19.2171L75.2522 21.7631C74.8969 21.5897 74.6044 21.5031 74.3749 21.5031C73.9085 21.5031 73.5124 21.7847 73.1867 22.3481C72.8684 22.9114 72.7092 24.0165 72.7092 25.6632L72.7203 26.2374V31.0042H69.7108V19.2171Z" fill="black"/>
<path d="M76.3627 19.2171H79.461L82.6037 26.6166L86.0685 19.2171H89.1779L81.6043 35.316H78.4727L80.9602 30.1267L76.3627 19.2171Z" fill="black"/>
<path d="M93.9086 19.2171V20.5172C94.4565 19.9827 95.0487 19.5819 95.6854 19.3147C96.3221 19.0474 97.0032 18.9138 97.7288 18.9138C99.3057 18.9138 100.646 19.4952 101.749 20.658C102.852 21.8208 103.403 23.3123 103.403 25.1323C103.403 26.8874 102.833 28.3572 101.693 29.5417C100.553 30.7189 99.202 31.3076 97.6399 31.3076C96.944 31.3076 96.2962 31.1884 95.6965 30.95C95.0969 30.7045 94.5009 30.3072 93.9086 29.7583V35.316H90.8992V19.2171H93.9086ZM97.0958 21.6439C96.1407 21.6439 95.3486 21.9617 94.7193 22.5973C94.09 23.2328 93.7754 24.0634 93.7754 25.089C93.7754 26.1363 94.09 26.9849 94.7193 27.6349C95.3486 28.2777 96.1407 28.5991 97.0958 28.5991C98.0212 28.5991 98.7985 28.2705 99.4278 27.6133C100.065 26.956 100.383 26.1182 100.383 25.0998C100.383 24.0887 100.072 23.2617 99.45 22.6189C98.8281 21.9689 98.0434 21.6439 97.0958 21.6439Z" fill="black"/>
<path d="M106.28 14.8728H109.3V19.2171H111.099V21.7631H109.3V31.0042H106.28V21.7631H104.725V19.2171H106.28V14.8728Z" fill="black"/>
<path d="M118.406 18.9138C119.546 18.9138 120.616 19.1919 121.616 19.748C122.622 20.3041 123.407 21.0589 123.97 22.0122C124.533 22.9656 124.814 23.9948 124.814 25.0998C124.814 26.2121 124.529 27.2521 123.959 28.22C123.396 29.1878 122.626 29.9461 121.649 30.495C120.672 31.0367 119.595 31.3076 118.417 31.3076C116.685 31.3076 115.204 30.7081 113.975 29.5092C112.754 28.303 112.143 26.8405 112.143 25.1215C112.143 23.2798 112.835 21.745 114.22 20.5172C115.434 19.4483 116.829 18.9138 118.406 18.9138ZM118.451 21.6981C117.51 21.6981 116.726 22.0195 116.096 22.6623C115.475 23.2978 115.164 24.114 115.164 25.1107C115.164 26.1363 115.471 26.9669 116.085 27.6024C116.707 28.238 117.492 28.5558 118.44 28.5558C119.387 28.5558 120.176 28.2344 120.805 27.5916C121.434 26.9488 121.749 26.1218 121.749 25.1107C121.749 24.0995 121.438 23.2798 120.816 22.6514C120.202 22.0159 119.413 21.6981 118.451 21.6981Z" fill="black"/>
<path d="M129.211 28.6208C129.589 28.6208 129.911 28.7508 130.178 29.0108C130.444 29.2708 130.577 29.5886 130.577 29.9642C130.577 30.3325 130.444 30.6503 130.178 30.9175C129.911 31.1776 129.589 31.3076 129.211 31.3076C128.834 31.3076 128.512 31.1776 128.245 30.9175C127.979 30.6503 127.846 30.3325 127.846 29.9642C127.846 29.5886 127.979 29.2708 128.245 29.0108C128.512 28.7508 128.834 28.6208 129.211 28.6208Z" fill="black"/>
<path d="M134.053 15.0678H137.307C139.173 15.0678 140.431 15.1473 141.083 15.3062C142.016 15.5301 142.778 15.9923 143.37 16.6929C143.963 17.3863 144.259 18.2602 144.259 19.3147C144.259 20.3764 143.97 21.2539 143.393 21.9472C142.815 22.6334 142.019 23.0956 141.005 23.334C140.265 23.5073 138.88 23.594 136.852 23.594H135.686V31.0042H134.053V15.0678ZM135.686 16.6171V22.0339L138.451 22.0664C139.569 22.0664 140.387 21.9689 140.905 21.7739C141.423 21.5717 141.83 21.2503 142.127 20.8097C142.423 20.3619 142.571 19.8636 142.571 19.3147C142.571 18.7802 142.423 18.2927 142.127 17.8521C141.83 17.4043 141.438 17.0865 140.949 16.8987C140.468 16.711 139.676 16.6171 138.573 16.6171H135.686Z" fill="black"/>
<path d="M159.306 19.2171V31.0042H157.774V28.9783C157.122 29.7511 156.389 30.3325 155.575 30.7225C154.768 31.1126 153.883 31.3076 152.921 31.3076C151.21 31.3076 149.748 30.7045 148.534 29.4983C147.327 28.285 146.724 26.8116 146.724 25.0782C146.724 23.3809 147.335 21.9292 148.556 20.723C149.778 19.5169 151.247 18.9138 152.965 18.9138C153.957 18.9138 154.853 19.1196 155.652 19.5313C156.459 19.943 157.166 20.5605 157.774 21.3839V19.2171H159.306ZM153.087 20.3764C152.221 20.3764 151.421 20.5858 150.689 21.0047C149.956 21.4164 149.371 21.9978 148.934 22.7489C148.505 23.5001 148.29 24.2945 148.29 25.1323C148.29 25.9629 148.508 26.7574 148.945 27.5158C149.382 28.2741 149.967 28.8664 150.7 29.2925C151.44 29.7114 152.232 29.9208 153.076 29.9208C153.927 29.9208 154.734 29.7114 155.497 29.2925C156.26 28.8736 156.844 28.3066 157.252 27.5916C157.666 26.8766 157.873 26.0713 157.873 25.1757C157.873 23.8106 157.411 22.6695 156.485 21.7522C155.567 20.835 154.435 20.3764 153.087 20.3764Z" fill="black"/>
<path d="M173.221 19.2171H174.786V28.61C174.786 30.2639 174.638 31.4737 174.342 32.2393C173.935 33.3226 173.228 34.1568 172.221 34.7418C171.214 35.3269 170.004 35.6194 168.59 35.6194C167.553 35.6194 166.62 35.4749 165.791 35.186C164.97 34.9044 164.3 34.5216 163.781 34.0377C163.263 33.561 162.786 32.8604 162.349 31.9359H164.037C164.496 32.7159 165.088 33.2937 165.814 33.6693C166.539 34.0449 167.439 34.2327 168.512 34.2327C169.571 34.2327 170.463 34.0377 171.188 33.6476C171.921 33.2649 172.443 32.7809 172.754 32.1959C173.065 31.6109 173.221 30.6684 173.221 29.3683V28.7616C172.636 29.4839 171.921 30.04 171.077 30.43C170.233 30.8128 169.338 31.0042 168.39 31.0042C167.279 31.0042 166.236 30.737 165.258 30.2025C164.281 29.6608 163.526 28.935 162.993 28.0249C162.46 27.1149 162.193 26.1146 162.193 25.024C162.193 23.9334 162.471 22.9187 163.026 21.9797C163.581 21.0336 164.348 20.2861 165.325 19.7372C166.31 19.1883 167.346 18.9138 168.434 18.9138C169.338 18.9138 170.178 19.098 170.955 19.4663C171.74 19.8274 172.495 20.4269 173.221 21.2647V19.2171ZM168.634 20.3764C167.753 20.3764 166.935 20.5858 166.18 21.0047C165.425 21.4164 164.833 21.9906 164.403 22.7273C163.974 23.4567 163.759 24.2476 163.759 25.0998C163.759 26.3927 164.203 27.4616 165.092 28.3066C165.98 29.1517 167.131 29.5742 168.545 29.5742C169.974 29.5742 171.122 29.1553 171.988 28.3175C172.861 27.4797 173.298 26.3782 173.298 25.0132C173.298 24.1248 173.098 23.334 172.699 22.6406C172.299 21.94 171.732 21.3875 171 20.983C170.267 20.5786 169.478 20.3764 168.634 20.3764Z" fill="black"/>
<path d="M188.29 27.0933L189.6 27.7649C189.171 28.5883 188.675 29.2528 188.112 29.7583C187.55 30.2639 186.917 30.6503 186.213 30.9175C185.51 31.1776 184.714 31.3076 183.826 31.3076C181.857 31.3076 180.317 30.6792 179.206 29.4225C178.096 28.1586 177.54 26.7321 177.54 25.1432C177.54 23.6481 178.011 22.3156 178.951 21.1455C180.143 19.6577 181.738 18.9138 183.737 18.9138C185.795 18.9138 187.439 19.6758 188.668 21.1997C189.541 22.2759 189.985 23.6192 190 25.2299H179.14C179.169 26.6021 179.617 27.7288 180.483 28.61C181.349 29.4839 182.419 29.9208 183.693 29.9208C184.307 29.9208 184.903 29.8161 185.48 29.6067C186.065 29.3972 186.561 29.1192 186.969 28.7725C187.376 28.4258 187.816 27.8661 188.29 27.0933ZM188.29 23.919C188.083 23.1101 187.779 22.4636 187.379 21.9797C186.987 21.4958 186.465 21.1058 185.814 20.8097C185.162 20.5136 184.477 20.3655 183.759 20.3655C182.575 20.3655 181.557 20.7375 180.705 21.4814C180.083 22.0231 179.613 22.8356 179.295 23.919H188.29Z" fill="black"/>
</svg>
