<svg width="28" height="24" viewBox="0 0 28 24" fill="none" xmlns="http://www.w3.org/2000/svg">
<g clip-path="url(#clip0_578_5168)">
<path fill-rule="evenodd" clip-rule="evenodd" d="M5.12686 0.117844L0.0214777 10.6845C0.0020502 10.7238 -0.00410623 10.7682 0.00390867 10.8111C0.0119236 10.8541 0.0336893 10.8935 0.0660229 10.9234L13.8544 23.9423C13.8936 23.9793 13.9458 24 14 24C14.0543 24 14.1065 23.9793 14.1456 23.9423L27.934 10.9242C27.9664 10.8943 27.9881 10.855 27.9962 10.812C28.0042 10.769 27.998 10.7246 27.9786 10.6853L22.8732 0.118656C22.8567 0.0831692 22.8302 0.0531071 22.7969 0.0320629C22.7635 0.0110186 22.7247 -0.000117569 22.6851 -1.47877e-05H5.31659C5.2768 -0.000502609 5.23771 0.0103653 5.20404 0.031278C5.17038 0.0521907 5.14357 0.0822548 5.12686 0.117844Z" fill="#50AF95"/>
<path fill-rule="evenodd" clip-rule="evenodd" d="M15.7716 11.7696C15.6726 11.7769 15.1611 11.807 14.0203 11.807C13.1129 11.807 12.4686 11.7801 12.2426 11.7696C8.73588 11.6176 6.11844 11.0161 6.11844 10.2959C6.11844 9.57578 8.73588 8.97511 12.2426 8.82068V11.1705C12.4719 11.1868 13.1285 11.225 14.0359 11.225C15.1248 11.225 15.6701 11.1803 15.7683 11.1713V8.8223C19.2675 8.97593 21.8792 9.57741 21.8792 10.2959C21.8792 11.0145 19.2684 11.616 15.7683 11.7688L15.7716 11.7696ZM15.7716 8.57927V6.47652H20.655V3.26996H7.3591V6.47652H12.2418V8.57846C8.27311 8.75809 5.28857 9.5327 5.28857 10.4609C5.28857 11.3892 8.27311 12.163 12.2418 12.3434V19.0817H15.7707V12.341C19.7303 12.1614 22.7099 11.3876 22.7099 10.4601C22.7099 9.53271 19.7328 8.7589 15.7707 8.57846L15.7716 8.57927Z" fill="white"/>
</g>
<defs>
<clipPath id="clip0_578_5168">
<rect width="28" height="24" fill="white"/>
</clipPath>
</defs>
</svg>
