<svg width="52" height="52" viewBox="0 0 52 52" fill="none" xmlns="http://www.w3.org/2000/svg">
<circle cx="26" cy="26" r="24.5" fill="#1886FF" stroke="#F5F9FD" stroke-width="3"/>
<path d="M36 24.0999C36.1 23.5999 35.7 22.9999 35.2 22.9999L29.5 22.1999L26.9 16.9999C26.8 16.7999 26.7 16.6999 26.5 16.5999C26 16.2999 25.4 16.4999 25.1 16.9999L22.6 22.1999L16.9 22.9999C16.6 22.9999 16.4 23.0999 16.3 23.2999C15.9 23.6999 15.9 24.2999 16.3 24.6999L20.4 28.6999L19.4 34.3999C19.4 34.5999 19.4 34.7999 19.5 34.9999C19.8 35.4999 20.4 35.6999 20.9 35.3999L26 32.6999L31.1 35.3999C31.2 35.4999 31.4 35.4999 31.6 35.4999C31.7 35.4999 31.7 35.4999 31.8 35.4999C32.3 35.3999 32.7 34.8999 32.6 34.2999L31.6 28.5999L35.7 24.5999C35.9 24.4999 36 24.2999 36 24.0999Z" fill="white"/>
</svg>
