<svg width="20" height="20" viewBox="0 0 20 20" fill="none" xmlns="http://www.w3.org/2000/svg">
<path d="M16.6668 14.1667V15.1667C17.0713 15.1667 17.4359 14.923 17.5907 14.5494C17.7455 14.1757 17.6599 13.7456 17.3739 13.4596L16.6668 14.1667ZM3.3335 14.1667L2.62639 13.4596C2.34039 13.7456 2.25484 14.1757 2.40962 14.5494C2.5644 14.923 2.92903 15.1667 3.3335 15.1667L3.3335 14.1667ZM4.50427 12.9959L5.21138 13.703L5.21138 13.703L4.50427 12.9959ZM8.3335 4.45118L8.66674 5.39402C9.06633 5.25278 9.3335 4.875 9.3335 4.45118H8.3335ZM11.6668 4.45118L10.6668 4.45118C10.6668 4.875 10.934 5.25278 11.3336 5.39402L11.6668 4.45118ZM4.0406 14.8738L5.21138 13.703L3.79717 12.2888L2.62639 13.4596L4.0406 14.8738ZM6.00016 11.7987L6.00016 9.16667H4.00016L4.00016 11.7987H6.00016ZM14.0002 9.16667V11.7987H16.0002V9.16667H14.0002ZM14.7889 13.703L15.9597 14.8738L17.3739 13.4596L16.2032 12.2888L14.7889 13.703ZM5.21138 13.703C5.71643 13.1979 6.00016 12.513 6.00016 11.7987H4.00016C4.00016 11.9825 3.92714 12.1588 3.79717 12.2888L5.21138 13.703ZM14.0002 11.7987C14.0002 12.513 14.2839 13.1979 14.7889 13.703L16.2032 12.2888C16.0732 12.1588 16.0002 11.9825 16.0002 11.7987H14.0002ZM8.00025 3.50834C5.67121 4.33154 4.00016 6.55267 4.00016 9.16667H6.00016C6.00016 7.42661 7.1118 5.94361 8.66674 5.39402L8.00025 3.50834ZM11.3336 5.39402C12.8885 5.94361 14.0002 7.42661 14.0002 9.16667H16.0002C16.0002 6.55267 14.3291 4.33154 12.0001 3.50834L11.3336 5.39402ZM12.6668 4.45118V4.16667L10.6668 4.16667V4.45118L12.6668 4.45118ZM7.3335 4.16667V4.45118H9.3335V4.16667H7.3335ZM10.0002 1.5C8.5274 1.5 7.3335 2.69391 7.3335 4.16667H9.3335C9.3335 3.79848 9.63197 3.5 10.0002 3.5V1.5ZM12.6668 4.16667C12.6668 2.69391 11.4729 1.5 10.0002 1.5V3.5C10.3684 3.5 10.6668 3.79848 10.6668 4.16667L12.6668 4.16667ZM11.5002 15C11.5002 15.8284 10.8286 16.5 10.0002 16.5V18.5C11.9332 18.5 13.5002 16.933 13.5002 15H11.5002ZM10.0002 16.5C9.17174 16.5 8.50016 15.8284 8.50016 15H6.50016C6.50016 16.933 8.06717 18.5 10.0002 18.5V16.5ZM16.6668 13.1667H12.5002V15.1667H16.6668V13.1667ZM13.5002 15V14.1667H11.5002V15H13.5002ZM12.5002 13.1667L7.50016 13.1667V15.1667L12.5002 15.1667V13.1667ZM7.50016 13.1667H3.3335L3.3335 15.1667H7.50016V13.1667ZM8.50016 15V14.1667H6.50016V15H8.50016Z" fill="#687684"/>
</svg>
