<svg width="24" height="24" viewBox="0 0 24 24" fill="none" xmlns="http://www.w3.org/2000/svg">
<path d="M16.1667 4H7.83333C6.28628 4 4.80248 4.57344 3.70852 5.59418C2.61457 6.61491 2 7.99941 2 9.44292V16.1083C1.99851 17.4053 2.69048 18.6177 3.84486 19.3405C4.99924 20.0633 6.46371 20.2012 7.74962 19.7085C9.03552 19.2157 9.97337 18.157 10.25 16.8859H13.75C14.0266 18.157 14.9645 19.2158 16.2504 19.7085C17.5363 20.2012 19.0007 20.0632 20.1551 19.3405C21.3095 18.6176 22.0015 17.4053 22 16.1083V9.44292C22 7.99941 21.3854 6.61491 20.2915 5.59418C19.1975 4.57344 17.7137 4 16.1667 4ZM20.3333 16.1083C20.3333 16.9417 19.8567 17.7118 19.0833 18.1284C18.3099 18.5451 17.3567 18.5451 16.5833 18.1284C15.8099 17.7118 15.3333 16.9417 15.3333 16.1083C15.3333 15.9021 15.2455 15.7042 15.0893 15.5584C14.933 15.4126 14.721 15.3307 14.5 15.3307H9.49999C9.27901 15.3307 9.06696 15.4126 8.91071 15.5584C8.75446 15.7042 8.66666 15.9021 8.66666 16.1083C8.66666 16.9417 8.19009 17.7118 7.41666 18.1284C6.64324 18.5451 5.69009 18.5451 4.91667 18.1284C4.14324 17.7118 3.66667 16.9417 3.66667 16.1083V9.44292C3.66667 8.41179 4.10566 7.423 4.88709 6.69387C5.66853 5.96474 6.72824 5.55512 7.83333 5.55512H16.1667C17.2717 5.55512 18.3315 5.96473 19.1129 6.69387C19.8943 7.42301 20.3333 8.41179 20.3333 9.44292V16.1083Z" fill="#687684"/>
<path d="M19 10C19 10.5522 18.5522 11 18 11C17.4478 11 17 10.5522 17 10C17 9.44777 17.4478 9 18 9C18.5522 9 19 9.44777 19 10Z" fill="#687684"/>
<path d="M17 8C17 8.55223 16.5522 9 16 9C15.4478 9 15 8.55223 15 8C15 7.44777 15.4478 7 16 7C16.5522 7 17 7.44777 17 8Z" fill="#687684"/>
<path d="M17 12C17 12.5522 16.5522 13 16 13C15.4478 13 15 12.5522 15 12C15 11.4478 15.4478 11 16 11C16.5522 11 17 11.4478 17 12Z" fill="#687684"/>
<path d="M15 10C15 10.5522 14.5522 11 14 11C13.4478 11 13 10.5522 13 10C13 9.44777 13.4478 9 14 9C14.5522 9 15 9.44777 15 10Z" fill="#687684"/>
<path fill-rule="evenodd" clip-rule="evenodd" d="M7 8C7 7.44772 7.44772 7 8 7C8.55228 7 9 7.44772 9 8V9H10C10.5523 9 11 9.44772 11 10C11 10.5523 10.5523 11 10 11H9V12C9 12.5523 8.55228 13 8 13C7.44772 13 7 12.5523 7 12V11H6C5.44772 11 5 10.5523 5 10C5 9.44772 5.44772 9 6 9H7V8ZM8 11C8.55223 11 9 10.5522 9 10C9 9.44777 8.55223 9 8 9C7.44777 9 7 9.44777 7 10C7 10.5522 7.44777 11 8 11Z" fill="#687684"/>
</svg>
