<svg width="24" height="18" viewBox="0 0 24 18" fill="none" xmlns="http://www.w3.org/2000/svg">
<g clip-path="url(#clip0_575_3156)">
<path d="M3.89866 13.738C4.04349 13.5994 4.24264 13.5186 4.45385 13.5186H23.608C23.958 13.5186 24.133 13.9228 23.8856 14.1596L20.1018 17.7803C19.957 17.9189 19.7579 17.9998 19.5466 17.9998H0.392496C0.0424828 17.9998 -0.132524 17.5956 0.114899 17.3588L3.89866 13.738Z" fill="url(#paint0_linear_575_3156)"/>
<path d="M3.89866 0.219442C4.04953 0.080847 4.24867 0 4.45385 0H23.608C23.958 0 24.133 0.404235 23.8856 0.641001L20.1018 4.26179C19.957 4.40039 19.7579 4.48123 19.5466 4.48123H0.392496C0.0424828 4.48123 -0.132524 4.077 0.114899 3.84023L3.89866 0.219442Z" fill="url(#paint1_linear_575_3156)"/>
<path d="M20.1018 6.93575C19.957 6.79716 19.7579 6.71631 19.5466 6.71631H0.392496C0.0424828 6.71631 -0.132524 7.12054 0.114899 7.35731L3.89866 10.9781C4.04349 11.1167 4.24264 11.1975 4.45385 11.1975H23.608C23.958 11.1975 24.133 10.7933 23.8856 10.5565L20.1018 6.93575Z" fill="url(#paint2_linear_575_3156)"/>
</g>
<defs>
<linearGradient id="paint0_linear_575_3156" x1="21.7782" y1="-2.16318" x2="9.41616" y2="22.5809" gradientUnits="userSpaceOnUse">
<stop stop-color="#00FFA3"/>
<stop offset="1" stop-color="#DC1FFF"/>
</linearGradient>
<linearGradient id="paint1_linear_575_3156" x1="15.9819" y1="-5.05879" x2="3.61983" y2="19.6853" gradientUnits="userSpaceOnUse">
<stop stop-color="#00FFA3"/>
<stop offset="1" stop-color="#DC1FFF"/>
</linearGradient>
<linearGradient id="paint2_linear_575_3156" x1="18.8616" y1="-3.61986" x2="6.49955" y2="21.1242" gradientUnits="userSpaceOnUse">
<stop stop-color="#00FFA3"/>
<stop offset="1" stop-color="#DC1FFF"/>
</linearGradient>
<clipPath id="clip0_575_3156">
<rect width="24" height="18" fill="white"/>
</clipPath>
</defs>
</svg>
