<svg width="26" height="26" viewBox="0 0 26 26" fill="none" xmlns="http://www.w3.org/2000/svg">
<path d="M20.5827 7.04177H19.196L18.8493 5.95844C18.6246 5.32277 18.2077 4.77273 17.6565 4.38453C17.1052 3.99633 16.4469 3.78917 15.7727 3.79177H10.226C9.54519 3.79305 8.88196 4.0081 8.32993 4.40657C7.7779 4.80504 7.36494 5.36682 7.14935 6.01261L6.80268 7.09594H5.41602C4.55406 7.09594 3.72741 7.43835 3.11792 8.04784C2.50843 8.65733 2.16602 9.48399 2.16602 10.3459V19.0126C2.16602 19.8746 2.50843 20.7012 3.11792 21.3107C3.72741 21.9202 4.55406 22.2626 5.41602 22.2626H20.5827C21.4446 22.2626 22.2713 21.9202 22.8808 21.3107C23.4903 20.7012 23.8327 19.8746 23.8327 19.0126V10.3459C23.8399 9.91461 23.7611 9.48616 23.601 9.08558C23.4409 8.685 23.2027 8.3203 22.9001 8.01275C22.5976 7.70519 22.2369 7.46095 21.839 7.29424C21.4412 7.12754 21.0141 7.04171 20.5827 7.04177ZM21.666 18.9584C21.666 19.2458 21.5519 19.5213 21.3487 19.7245C21.1456 19.9276 20.87 20.0418 20.5827 20.0418H5.41602C5.1287 20.0418 4.85315 19.9276 4.64998 19.7245C4.44682 19.5213 4.33268 19.2458 4.33268 18.9584V10.2918C4.33268 10.0045 4.44682 9.7289 4.64998 9.52574C4.85315 9.32258 5.1287 9.20844 5.41602 9.20844H7.58268C7.81892 9.22077 8.0527 9.15544 8.24832 9.02242C8.44394 8.8894 8.59064 8.696 8.66602 8.47177L9.25102 6.69511C9.32369 6.47993 9.46215 6.29304 9.64683 6.16085C9.83151 6.02866 10.0531 5.95785 10.2802 5.95844H15.8268C16.054 5.95785 16.2755 6.02866 16.4602 6.16085C16.6449 6.29304 16.7833 6.47993 16.856 6.69511L17.441 8.47177C17.5105 8.67841 17.6408 8.85927 17.8147 8.9907C17.9887 9.12213 18.1982 9.19802 18.416 9.20844H20.5827C20.87 9.20844 21.1456 9.32258 21.3487 9.52574C21.5519 9.7289 21.666 10.0045 21.666 10.2918V18.9584ZM12.9993 9.20844C12.1423 9.20844 11.3045 9.46258 10.5919 9.93874C9.87927 10.4149 9.32385 11.0917 8.99587 11.8835C8.66789 12.6753 8.58208 13.5466 8.74928 14.3872C8.91648 15.2277 9.32919 15.9999 9.93522 16.6059C10.5412 17.2119 11.3134 17.6246 12.154 17.7918C12.9945 17.959 13.8658 17.8732 14.6576 17.5452C15.4495 17.2173 16.1262 16.6619 16.6024 15.9492C17.0785 15.2366 17.3327 14.3988 17.3327 13.5418C17.3327 12.3925 16.8761 11.2903 16.0635 10.4776C15.2508 9.66498 14.1486 9.20844 12.9993 9.20844V9.20844ZM12.9993 15.7084C12.5708 15.7084 12.1519 15.5814 11.7956 15.3433C11.4393 15.1052 11.1616 14.7668 10.9976 14.3709C10.8336 13.975 10.7907 13.5394 10.8743 13.1191C10.9579 12.6988 11.1643 12.3127 11.4673 12.0097C11.7703 11.7067 12.1564 11.5003 12.5767 11.4167C12.9969 11.3331 13.4326 11.376 13.8285 11.54C14.2244 11.704 14.5628 11.9817 14.8009 12.338C15.0389 12.6943 15.166 13.1132 15.166 13.5418C15.166 14.1164 14.9377 14.6675 14.5314 15.0738C14.1251 15.4802 13.574 15.7084 12.9993 15.7084Z" fill="#7B7B7B"/>
</svg>
