<svg width="14" height="14" viewBox="0 0 14 14" fill="none" xmlns="http://www.w3.org/2000/svg">
<path d="M6.98583 7.42575L4.92083 5.36075C4.81154 5.2521 4.66369 5.19112 4.50958 5.19112C4.35547 5.19112 4.20762 5.2521 4.09833 5.36075C4.04366 5.41497 4.00026 5.47949 3.97064 5.55058C3.94103 5.62166 3.92578 5.6979 3.92578 5.77491C3.92578 5.85192 3.94103 5.92816 3.97064 5.99925C4.00026 6.07033 4.04366 6.13485 4.09833 6.18908L6.57166 8.66241C6.62589 8.71709 6.69041 8.76048 6.76149 8.7901C6.83258 8.81971 6.90882 8.83496 6.98583 8.83496C7.06284 8.83496 7.13908 8.81971 7.21017 8.7901C7.28125 8.76048 7.34577 8.71709 7.4 8.66241L9.9025 6.18908C9.95656 6.13457 9.99933 6.06993 10.0284 5.99886C10.0574 5.92779 10.0721 5.85168 10.0717 5.77491C10.0721 5.69814 10.0574 5.62204 10.0284 5.55097C9.99933 5.47989 9.95656 5.41525 9.9025 5.36074C9.7932 5.2521 9.64536 5.19112 9.49125 5.19112C9.33714 5.19112 9.18929 5.2521 9.08 5.36074L6.98583 7.42575Z" fill="#1886FF"/>
</svg>
