<svg width="20" height="20" viewBox="0 0 20 20" fill="none" xmlns="http://www.w3.org/2000/svg">
<path d="M11.5404 5.9594C11.1499 5.56887 10.5168 5.56887 10.1262 5.9594C9.7357 6.34992 9.7357 6.98309 10.1262 7.37361L11.5404 5.9594ZM14.1667 9.99984L14.8738 10.7069C15.2643 10.3164 15.2643 9.68326 14.8738 9.29273L14.1667 9.99984ZM10.1262 12.6261C9.7357 13.0166 9.7357 13.6498 10.1262 14.0403C10.5168 14.4308 11.1499 14.4308 11.5404 14.0403L10.1262 12.6261ZM2.5 8.99984C1.94771 8.99984 1.5 9.44755 1.5 9.99984C1.5 10.5521 1.94772 10.9998 2.5 10.9998L2.5 8.99984ZM5.66667 6.66651C5.66667 7.21879 6.11438 7.66651 6.66667 7.66651C7.21895 7.66651 7.66667 7.21879 7.66667 6.66651L5.66667 6.66651ZM7.66667 13.3332C7.66667 12.7809 7.21895 12.3332 6.66667 12.3332C6.11438 12.3332 5.66667 12.7809 5.66667 13.3332L7.66667 13.3332ZM16.5 5.83317L16.5 14.1665L18.5 14.1665L18.5 5.83317L16.5 5.83317ZM18.5 5.83317C18.5 3.90017 16.933 2.33317 15 2.33317L15 4.33317C15.8284 4.33317 16.5 5.00474 16.5 5.83317L18.5 5.83317ZM16.5 14.1665C16.5 14.9949 15.8284 15.6665 15 15.6665L15 17.6665C16.933 17.6665 18.5 16.0995 18.5 14.1665L16.5 14.1665ZM10.1262 7.37361L13.4596 10.7069L14.8738 9.29273L11.5404 5.9594L10.1262 7.37361ZM13.4596 9.29273L10.1262 12.6261L11.5404 14.0403L14.8738 10.7069L13.4596 9.29273ZM14.1667 8.99984L2.5 8.99984L2.5 10.9998L14.1667 10.9998L14.1667 8.99984ZM15 2.33317L9.16667 2.33317L9.16667 4.33317L15 4.33317L15 2.33317ZM5.66667 5.83317L5.66667 6.66651L7.66667 6.66651L7.66667 5.83317L5.66667 5.83317ZM15 15.6665L9.16667 15.6665L9.16667 17.6665L15 17.6665L15 15.6665ZM7.66667 14.1665L7.66667 13.3332L5.66667 13.3332L5.66667 14.1665L7.66667 14.1665ZM9.16667 15.6665C8.33824 15.6665 7.66667 14.9949 7.66667 14.1665L5.66667 14.1665C5.66667 16.0995 7.23367 17.6665 9.16667 17.6665L9.16667 15.6665ZM9.16667 2.33317C7.23367 2.33317 5.66667 3.90017 5.66667 5.83317L7.66667 5.83317C7.66667 5.00474 8.33824 4.33317 9.16667 4.33317L9.16667 2.33317Z" fill="#A7A7A7"/>
</svg>
