<svg width="28" height="24" viewBox="0 0 28 24" fill="none" xmlns="http://www.w3.org/2000/svg">
<path d="M9.33268 16.5C9.10194 16.5 8.87637 16.5586 8.68452 16.6685C8.49266 16.7784 8.34312 16.9346 8.25482 17.1173C8.16652 17.3 8.14342 17.5011 8.18843 17.6951C8.23345 17.8891 8.34456 18.0673 8.50772 18.2071C8.67089 18.347 8.87877 18.4422 9.10508 18.4808C9.33139 18.5194 9.56597 18.4996 9.77915 18.4239C9.99233 18.3482 10.1745 18.22 10.3027 18.0556C10.4309 17.8911 10.4993 17.6978 10.4993 17.5C10.4993 17.2348 10.3764 16.9804 10.1576 16.7929C9.93885 16.6054 9.6421 16.5 9.33268 16.5V16.5ZM13.9993 2C9.33268 2 4.66602 3.37 4.66602 6V18C4.66602 20.63 9.33268 22 13.9993 22C18.666 22 23.3327 20.63 23.3327 18V6C23.3327 3.37 18.666 2 13.9993 2ZM20.9993 18C20.9993 18.71 18.3393 20 13.9993 20C9.65935 20 6.99935 18.71 6.99935 18V14.73C9.18343 15.62 11.5819 16.0551 13.9993 16C16.4168 16.0551 18.8153 15.62 20.9993 14.73V18ZM20.9993 12C20.9993 12.71 18.3393 14 13.9993 14C9.65935 14 6.99935 12.71 6.99935 12V8.73C9.18343 9.61996 11.5819 10.0551 13.9993 10C16.4168 10.0551 18.8153 9.61996 20.9993 8.73V12ZM13.9993 8C9.65935 8 6.99935 6.71 6.99935 6C6.99935 5.29 9.65935 4 13.9993 4C18.3393 4 20.9993 5.29 20.9993 6C20.9993 6.71 18.3393 8 13.9993 8ZM9.33268 10.5C9.10194 10.5 8.87637 10.5586 8.68452 10.6685C8.49266 10.7784 8.34312 10.9346 8.25482 11.1173C8.16652 11.3 8.14342 11.5011 8.18843 11.6951C8.23345 11.8891 8.34456 12.0673 8.50772 12.2071C8.67089 12.347 8.87877 12.4422 9.10508 12.4808C9.33139 12.5194 9.56597 12.4996 9.77915 12.4239C9.99233 12.3482 10.1745 12.22 10.3027 12.0556C10.4309 11.8911 10.4993 11.6978 10.4993 11.5C10.4993 11.2348 10.3764 10.9804 10.1576 10.7929C9.93885 10.6054 9.6421 10.5 9.33268 10.5V10.5Z" fill="#1886FF"/>
</svg>
