<svg width="30" height="30" viewBox="0 0 30 30" fill="none" xmlns="http://www.w3.org/2000/svg">
<rect x="0.5" y="29.5" width="29" height="29" rx="4.5" transform="rotate(-90 0.5 29.5)" fill="white" stroke="#1886FF"/>
<path d="M14.3921 14.9794L17.3421 12.0294C17.4973 11.8733 17.5844 11.6621 17.5844 11.4419C17.5844 11.2218 17.4973 11.0105 17.3421 10.8544C17.2646 10.7763 17.1724 10.7143 17.0709 10.672C16.9693 10.6297 16.8604 10.6079 16.7504 10.6079C16.6404 10.6079 16.5315 10.6297 16.4299 10.672C16.3284 10.7143 16.2362 10.7763 16.1587 10.8544L12.6254 14.3877C12.5473 14.4652 12.4853 14.5574 12.443 14.6589C12.4007 14.7605 12.3789 14.8694 12.3789 14.9794C12.3789 15.0894 12.4007 15.1983 12.443 15.2999C12.4853 15.4014 12.5473 15.4936 12.6254 15.5711L16.1587 19.1461C16.2366 19.2233 16.329 19.2844 16.4305 19.3259C16.532 19.3674 16.6407 19.3884 16.7504 19.3877C16.8601 19.3884 16.9688 19.3674 17.0703 19.3259C17.1719 19.2844 17.2642 19.2233 17.3421 19.1461C17.4973 18.9899 17.5844 18.7787 17.5844 18.5586C17.5844 18.3384 17.4973 18.1272 17.3421 17.9711L14.3921 14.9794Z" fill="#1886FF"/>
</svg>
