<svg width="21" height="21" viewBox="0 0 21 21" fill="none" xmlns="http://www.w3.org/2000/svg">
<path d="M17.7923 0.083252H3.20898C2.38018 0.083252 1.58533 0.412492 0.999276 0.998543C0.413225 1.58459 0.0839846 2.37945 0.0839846 3.20825V4.427C0.0838352 4.85715 0.172491 5.2827 0.344401 5.677V5.7395C0.491567 6.07385 0.700018 6.37769 0.958984 6.63533L7.37565 13.0103V19.8749C7.3753 20.0519 7.42006 20.2261 7.50572 20.3811C7.59139 20.536 7.71512 20.6665 7.86523 20.7603C8.03101 20.8631 8.22229 20.9172 8.41732 20.9166C8.58038 20.9156 8.74094 20.8764 8.88607 20.802L13.0527 18.7187C13.2245 18.6321 13.369 18.4997 13.4701 18.336C13.5712 18.1724 13.6251 17.9839 13.6257 17.7916V13.0103L20.0007 6.63533C20.2596 6.37769 20.4681 6.07385 20.6152 5.7395V5.677C20.8015 5.28578 20.9044 4.86011 20.9173 4.427V3.20825C20.9173 2.37945 20.5881 1.58459 20.002 0.998543C19.416 0.412492 18.6211 0.083252 17.7923 0.083252ZM11.8444 11.8437C11.7479 11.941 11.6715 12.0564 11.6196 12.1833C11.5678 12.3103 11.5415 12.4462 11.5423 12.5833V17.1458L9.45898 18.1874V12.5833C9.45978 12.4462 9.4335 12.3103 9.38166 12.1833C9.32982 12.0564 9.25344 11.941 9.1569 11.8437L3.63607 6.33325H17.3652L11.8444 11.8437ZM18.834 4.24992H2.16732V3.20825C2.16732 2.93198 2.27706 2.66703 2.47242 2.47168C2.66777 2.27633 2.93272 2.16659 3.20898 2.16659H17.7923C18.0686 2.16659 18.3335 2.27633 18.5289 2.47168C18.7242 2.66703 18.834 2.93198 18.834 3.20825V4.24992Z" fill="#7C8FA0"/>
</svg>
