<svg width="24" height="24" viewBox="0 0 24 24" fill="none" xmlns="http://www.w3.org/2000/svg">
<path d="M19.7481 7.05344C19.7776 6.64027 19.4666 6.28142 19.0534 6.25191C18.6403 6.22239 18.2814 6.5334 18.2519 6.94656L19.7481 7.05344ZM18.1327 19.1425L17.3846 19.0891L18.1327 19.1425ZM5.86732 19.1425L6.61542 19.0891L5.86732 19.1425ZM5.74809 6.94656C5.71858 6.5334 5.35973 6.22239 4.94656 6.25191C4.5334 6.28142 4.22239 6.64027 4.25191 7.05344L5.74809 6.94656ZM10.75 11C10.75 10.5858 10.4142 10.25 10 10.25C9.58579 10.25 9.25 10.5858 9.25 11H10.75ZM9.25 17C9.25 17.4142 9.58579 17.75 10 17.75C10.4142 17.75 10.75 17.4142 10.75 17H9.25ZM14.75 11C14.75 10.5858 14.4142 10.25 14 10.25C13.5858 10.25 13.25 10.5858 13.25 11H14.75ZM13.25 17C13.25 17.4142 13.5858 17.75 14 17.75C14.4142 17.75 14.75 17.4142 14.75 17H13.25ZM14.25 7C14.25 7.41421 14.5858 7.75 15 7.75C15.4142 7.75 15.75 7.41421 15.75 7H14.25ZM8.25 7C8.25 7.41421 8.58579 7.75 9 7.75C9.41421 7.75 9.75 7.41421 9.75 7H8.25ZM4 6.25C3.58579 6.25 3.25 6.58579 3.25 7C3.25 7.41421 3.58579 7.75 4 7.75V6.25ZM20 7.75C20.4142 7.75 20.75 7.41421 20.75 7C20.75 6.58579 20.4142 6.25 20 6.25V7.75ZM18.2519 6.94656L17.3846 19.0891L18.8808 19.1959L19.7481 7.05344L18.2519 6.94656ZM16.1378 20.25H7.86224V21.75H16.1378V20.25ZM6.61542 19.0891L5.74809 6.94656L4.25191 7.05344L5.11923 19.1959L6.61542 19.0891ZM7.86224 20.25C7.20644 20.25 6.66214 19.7432 6.61542 19.0891L5.11923 19.1959C5.22202 20.635 6.41948 21.75 7.86224 21.75V20.25ZM17.3846 19.0891C17.3379 19.7432 16.7936 20.25 16.1378 20.25V21.75C17.5805 21.75 18.778 20.635 18.8808 19.1959L17.3846 19.0891ZM9.25 11V17H10.75V11H9.25ZM13.25 11V17H14.75V11H13.25ZM10 3.75H14V2.25H10V3.75ZM14.25 4V7H15.75V4H14.25ZM9.75 7V4H8.25V7H9.75ZM14 3.75C14.1381 3.75 14.25 3.86193 14.25 4H15.75C15.75 3.0335 14.9665 2.25 14 2.25V3.75ZM10 2.25C9.0335 2.25 8.25 3.0335 8.25 4H9.75C9.75 3.86193 9.86193 3.75 10 3.75V2.25ZM4 7.75H20V6.25H4V7.75Z" fill="#687684"/>
</svg>
