<svg width="160" height="46" viewBox="0 0 160 46" fill="none" xmlns="http://www.w3.org/2000/svg">
<path d="M154.074 46H5.92593C2.66815 46 0 43.4111 0 40.25V5.75C0 2.58894 2.66815 2.43107e-06 5.92593 2.43107e-06H154.074C157.332 2.43107e-06 160 2.58894 160 5.75V40.25C160 43.4111 157.332 46 154.074 46Z" fill="#687684"/>
<path d="M51.584 16.1172C53.1416 16.1172 54.1865 15.3408 54.5088 13.9492H53.6201C53.3662 14.8086 52.624 15.3066 51.5889 15.3066C50.1973 15.3066 49.3135 14.2031 49.3135 12.4746C49.3135 10.7607 50.207 9.64746 51.584 9.64746C52.5898 9.64746 53.3955 10.2529 53.6201 11.1758H54.5088C54.2842 9.76953 53.1172 8.83691 51.584 8.83691C49.6553 8.83691 48.4102 10.2627 48.4102 12.4746C48.4102 14.7061 49.6406 16.1172 51.584 16.1172ZM58.5225 8.83691C56.5254 8.83691 55.2754 10.2432 55.2754 12.4795C55.2754 14.7158 56.5254 16.1172 58.5225 16.1172C60.5195 16.1172 61.7695 14.7158 61.7695 12.4795C61.7695 10.2432 60.5195 8.83691 58.5225 8.83691ZM58.5225 9.64746C59.9629 9.64746 60.8662 10.7412 60.8662 12.4795C60.8662 14.2129 59.9629 15.3066 58.5225 15.3066C57.082 15.3066 56.1787 14.2129 56.1787 12.4795C56.1787 10.7412 57.082 9.64746 58.5225 9.64746ZM69.8066 16V8.9541H68.7861L66.3545 14.833H66.3154L63.8838 8.9541H62.8633V16H63.6836V10.5703H63.7178L65.9639 15.9512H66.7061L68.9521 10.5703H68.9863V16H69.8066ZM72.0527 16V8.9541H71.1738V16H72.0527ZM74.2891 16V10.4873H74.333L78.1904 16H79.0449V8.9541H78.1758V14.4863H78.1318L74.2744 8.9541H73.4199V16H74.2891ZM86.3545 13.085V12.416H83.4883V13.1875H85.4756V13.3145C85.4756 14.4961 84.6162 15.3066 83.3662 15.3066C81.9307 15.3066 81.042 14.208 81.042 12.4355C81.042 10.6924 81.916 9.64746 83.3662 9.64746C84.3574 9.64746 85.0947 10.1895 85.3877 11.1416H86.3105C86.0469 9.74023 84.8896 8.83691 83.3662 8.83691C81.3936 8.83691 80.1387 10.2383 80.1387 12.4404C80.1387 14.6816 81.3984 16.1172 83.3662 16.1172C85.2461 16.1172 86.3545 14.9893 86.3545 13.085ZM89.1963 14.0615C89.2793 15.3066 90.3145 16.1172 91.8086 16.1172C93.4297 16.1172 94.4453 15.3115 94.4453 14.0225C94.4453 13.0117 93.8545 12.4502 92.3945 12.084L91.6572 11.8887C90.7002 11.6396 90.3096 11.3223 90.3096 10.79C90.3096 10.1016 90.9443 9.62793 91.8574 9.62793C92.7754 9.62793 93.3857 10.0918 93.4639 10.8486H94.3428C94.3037 9.66699 93.2881 8.83691 91.8867 8.83691C90.4219 8.83691 89.3965 9.65723 89.3965 10.8291C89.3965 11.7861 89.9727 12.3574 91.2715 12.6895L92.1748 12.9238C93.1221 13.168 93.5371 13.5342 93.5371 14.1299C93.5371 14.8232 92.8438 15.3262 91.8916 15.3262C90.8857 15.3262 90.1631 14.8232 90.0801 14.0615H89.1963ZM98.4443 8.83691C96.4473 8.83691 95.1973 10.2432 95.1973 12.4795C95.1973 14.7158 96.4473 16.1172 98.4443 16.1172C100.441 16.1172 101.691 14.7158 101.691 12.4795C101.691 10.2432 100.441 8.83691 98.4443 8.83691ZM98.4443 9.64746C99.8848 9.64746 100.788 10.7412 100.788 12.4795C100.788 14.2129 99.8848 15.3066 98.4443 15.3066C97.0039 15.3066 96.1006 14.2129 96.1006 12.4795C96.1006 10.7412 97.0039 9.64746 98.4443 9.64746ZM105.759 8.83691C103.762 8.83691 102.512 10.2432 102.512 12.4795C102.512 14.7158 103.762 16.1172 105.759 16.1172C107.756 16.1172 109.006 14.7158 109.006 12.4795C109.006 10.2432 107.756 8.83691 105.759 8.83691ZM105.759 9.64746C107.199 9.64746 108.103 10.7412 108.103 12.4795C108.103 14.2129 107.199 15.3066 105.759 15.3066C104.318 15.3066 103.415 14.2129 103.415 12.4795C103.415 10.7412 104.318 9.64746 105.759 9.64746ZM110.969 16V10.4873H111.013L114.87 16H115.725V8.9541H114.855V14.4863H114.812L110.954 8.9541H110.1V16H110.969Z" fill="white"/>
<path d="M80.7532 25.0155C77.9695 25.0155 75.6954 27.0711 75.6954 29.9073C75.6954 32.7205 77.9695 34.7976 80.7532 34.7976C83.5428 34.7976 85.8169 32.7205 85.8169 29.9073C85.8169 27.0711 83.5428 25.0155 80.7532 25.0155ZM80.7532 32.8714C79.2258 32.8714 77.9117 31.6481 77.9117 29.9073C77.9117 28.1435 79.2258 26.9417 80.7532 26.9417C82.2806 26.9417 83.6006 28.1435 83.6006 29.9073C83.6006 31.6481 82.2806 32.8714 80.7532 32.8714ZM69.7177 25.0155C66.928 25.0155 64.6599 27.0711 64.6599 29.9073C64.6599 32.7205 66.928 34.7976 69.7177 34.7976C72.5058 34.7976 74.7754 32.7205 74.7754 29.9073C74.7754 27.0711 72.5058 25.0155 69.7177 25.0155ZM69.7177 32.8714C68.1888 32.8714 66.8703 31.6481 66.8703 29.9073C66.8703 28.1435 68.1888 26.9417 69.7177 26.9417C71.2451 26.9417 72.5591 28.1435 72.5591 29.9073C72.5591 31.6481 71.2451 32.8714 69.7177 32.8714ZM56.5858 26.5148V28.5934H61.7014C61.5517 29.7549 61.1517 30.6088 60.5384 31.2039C59.7917 31.9226 58.6288 32.7205 56.5858 32.7205C53.4377 32.7205 50.9725 30.2552 50.9725 27.2005C50.9725 24.1458 53.4377 21.6805 56.5858 21.6805C58.288 21.6805 59.5265 22.3259 60.4406 23.1625L61.9503 21.6977C60.6717 20.5132 58.971 19.6033 56.5858 19.6033C52.2688 19.6033 48.6406 23.0116 48.6406 27.2005C48.6406 31.3893 52.2688 34.7976 56.5858 34.7976C58.9191 34.7976 60.6717 34.0559 62.0495 32.6644C63.4614 31.2945 63.9014 29.3682 63.9014 27.8128C63.9014 27.3298 63.8599 26.8856 63.7858 26.5148H56.5858ZM110.284 28.1262C109.867 27.0323 108.583 25.0155 105.967 25.0155C103.374 25.0155 101.215 26.9978 101.215 29.9073C101.215 32.6471 103.352 34.7976 106.215 34.7976C108.531 34.7976 109.867 33.4277 110.417 32.6299L108.698 31.5187C108.125 32.3323 107.344 32.8714 106.215 32.8714C105.094 32.8714 104.289 32.3726 103.774 31.3893L110.516 28.6825L110.284 28.1262ZM103.41 29.7549C103.352 27.8689 104.919 26.9029 106.042 26.9029C106.922 26.9029 107.669 27.3298 107.918 27.9408L103.41 29.7549ZM97.9295 34.5001H100.146V20.1251H97.9295V34.5001ZM94.2999 26.1051H94.2258C93.728 25.533 92.7784 25.0155 91.5754 25.0155C89.051 25.0155 86.7428 27.166 86.7428 29.9231C86.7428 32.6644 89.051 34.7976 91.5754 34.7976C92.7784 34.7976 93.728 34.2758 94.2258 33.6865H94.2999V34.388C94.2999 36.2581 93.2702 37.263 91.6095 37.263C90.2554 37.263 89.4154 36.3142 89.0688 35.5164L87.1414 36.297C87.6969 37.5936 89.168 39.1892 91.6095 39.1892C94.208 39.1892 96.4006 37.7057 96.4006 34.0961V25.313H94.2999V26.1051ZM91.7651 32.8714C90.2377 32.8714 88.9591 31.6308 88.9591 29.9231C88.9591 28.1995 90.2377 26.9417 91.7651 26.9417C93.2702 26.9417 94.4569 28.1995 94.4569 29.9231C94.4569 31.6308 93.2702 32.8714 91.7651 32.8714ZM120.66 20.1251H115.359V34.5001H117.569V29.0534H120.66C123.115 29.0534 125.522 27.3298 125.522 24.5885C125.522 21.8487 123.109 20.1251 120.66 20.1251ZM120.718 27.0538H117.569V22.1247H120.718C122.368 22.1247 123.31 23.4543 123.31 24.5885C123.31 25.7012 122.368 27.0538 120.718 27.0538ZM134.381 24.9882C132.784 24.9882 131.124 25.6724 130.441 27.189L132.402 27.9868C132.824 27.189 133.601 26.9302 134.421 26.9302C135.568 26.9302 136.731 27.5987 136.749 28.7788V28.9298C136.349 28.7055 135.492 28.3735 134.439 28.3735C132.327 28.3735 130.174 29.5019 130.174 31.6078C130.174 33.5341 131.904 34.7746 133.849 34.7746C135.337 34.7746 136.158 34.1235 136.673 33.3659H136.749V34.4771H138.884V28.9628C138.884 26.4142 136.922 24.9882 134.381 24.9882ZM134.115 32.8656C133.392 32.8656 132.384 32.5178 132.384 31.6481C132.384 30.5355 133.641 30.1085 134.728 30.1085C135.701 30.1085 136.158 30.317 136.749 30.5915C136.575 31.9226 135.395 32.8656 134.115 32.8656ZM146.661 25.303L144.121 31.5345H144.045L141.418 25.303H139.035L142.981 34.0113L140.729 38.8571H143.039L149.121 25.303H146.661ZM126.737 34.5001H128.953V20.1251H126.737V34.5001Z" fill="white"/>
<path d="M12.368 8.66956C12.0198 9.02319 11.8184 9.57375 11.8184 10.2868V35.719C11.8184 36.432 12.0198 36.9826 12.368 37.3362L12.4539 37.4138L27.1413 23.1682V22.8318L12.4539 8.58619L12.368 8.66956Z" fill="url(#paint0_linear_148_11487)"/>
<path d="M32.031 27.9192L27.1406 23.1683V22.8319L32.0369 18.0809L32.1466 18.1428L37.9451 21.3441C39.5999 22.2526 39.5999 23.7476 37.9451 24.6618L32.1466 27.8574L32.031 27.9192Z" fill="url(#paint1_linear_148_11487)"/>
<path d="M32.1464 27.8573L27.1405 23L12.3672 37.3362C12.9168 37.8968 13.8131 37.9644 14.8324 37.4038L32.1464 27.8573Z" fill="url(#paint2_linear_148_11487)"/>
<path d="M32.1464 18.1427L14.8324 8.59625C13.8131 8.04138 12.9168 8.10894 12.3672 8.66956L27.1405 23L32.1464 18.1427Z" fill="url(#paint3_linear_148_11487)"/>
<defs>
<linearGradient id="paint0_linear_148_11487" x1="25.8373" y1="35.9839" x2="6.54625" y2="16.1026" gradientUnits="userSpaceOnUse">
<stop stop-color="#00A0FF"/>
<stop offset="0.0066" stop-color="#00A1FF"/>
<stop offset="0.2601" stop-color="#00BEFF"/>
<stop offset="0.5122" stop-color="#00D2FF"/>
<stop offset="0.7604" stop-color="#00DFFF"/>
<stop offset="1" stop-color="#00E3FF"/>
</linearGradient>
<linearGradient id="paint1_linear_148_11487" x1="40.0999" y1="22.9985" x2="11.4221" y2="22.9985" gradientUnits="userSpaceOnUse">
<stop stop-color="#FFE000"/>
<stop offset="0.4087" stop-color="#FFBD00"/>
<stop offset="0.7754" stop-color="#FFA500"/>
<stop offset="1" stop-color="#FF9C00"/>
</linearGradient>
<linearGradient id="paint2_linear_148_11487" x1="29.4244" y1="20.3595" x2="3.26421" y2="-6.60103" gradientUnits="userSpaceOnUse">
<stop stop-color="#FF3A44"/>
<stop offset="1" stop-color="#C31162"/>
</linearGradient>
<linearGradient id="paint3_linear_148_11487" x1="8.64843" y1="45.7974" x2="20.3301" y2="33.7584" gradientUnits="userSpaceOnUse">
<stop stop-color="#32A071"/>
<stop offset="0.0685" stop-color="#2DA771"/>
<stop offset="0.4762" stop-color="#15CF74"/>
<stop offset="0.8009" stop-color="#06E775"/>
<stop offset="1" stop-color="#00F076"/>
</linearGradient>
</defs>
</svg>
