<svg width="30" height="30" viewBox="0 0 30 30" fill="none" xmlns="http://www.w3.org/2000/svg">
<mask id="mask0_106_3156" style="mask-type:alpha" maskUnits="userSpaceOnUse" x="0" y="0" width="30" height="30">
<path d="M0 11C0 4.92487 4.92487 0 11 0H19C25.0751 0 30 4.92487 30 11V19C30 25.0751 25.0751 30 19 30H11C4.92487 30 0 25.0751 0 19V11Z" fill="#7B7B7B"/>
</mask>
<g mask="url(#mask0_106_3156)">
</g>
<g clip-path="url(#clip0_106_3156)">
<path d="M22.6562 9.13453C22.1094 8.77632 21.4062 8.77632 20.7812 9.13453L16.4062 12.0897L13.4375 13.9703L9.14062 16.9256C8.59375 17.2838 7.89062 17.2838 7.26562 16.9256L3.90625 14.5972C3.35937 14.239 2.96875 13.5226 2.96875 12.7166V8.239C2.96875 7.52258 3.28125 6.80617 3.90625 6.35841L7.26562 4.1196C7.8125 3.76139 8.51562 3.76139 9.14062 4.1196L12.5 6.44796C13.0469 6.80617 13.4375 7.52258 13.4375 8.32856V11.2838L16.4062 9.31363V6.26885C16.4062 5.55244 16.0937 4.83602 15.4687 4.38826L9.21875 0.179301C8.67187 -0.178908 7.96875 -0.178908 7.34375 0.179301L0.9375 4.47781C0.3125 4.83602 0 5.55244 0 6.26885V14.6868C0 15.4032 0.3125 16.1196 0.9375 16.5674L7.26562 20.7763C7.8125 21.1345 8.51562 21.1345 9.14062 20.7763L13.4375 17.9106L16.4062 15.9405L20.7031 13.0748C21.25 12.7166 21.9531 12.7166 22.5781 13.0748L25.9375 15.3136C26.4844 15.6718 26.875 16.3883 26.875 17.1942V21.6718C26.875 22.3883 26.5625 23.1047 25.9375 23.5524L22.6562 25.7912C22.1094 26.1494 21.4062 26.1494 20.7812 25.7912L17.4219 23.5524C16.875 23.1942 16.4844 22.4778 16.4844 21.6718V18.8062L13.5156 20.7763V23.7315C13.5156 24.448 13.8281 25.1644 14.4531 25.6121L20.7812 29.8211C21.3281 30.1793 22.0312 30.1793 22.6562 29.8211L28.9844 25.6121C29.5312 25.2539 29.9219 24.5375 29.9219 23.7315V15.2241C29.9219 14.5077 29.6094 13.7912 28.9844 13.3435L22.6562 9.13453Z" fill="#8247E5"/>
</g>
<defs>
<clipPath id="clip0_106_3156">
<rect width="30" height="30" fill="white"/>
</clipPath>
</defs>
</svg>
