<svg width="24" height="24" viewBox="0 0 24 24" fill="none" xmlns="http://www.w3.org/2000/svg">
<path d="M18.8959 4H14.1678C14.0208 3.99989 13.8797 4.05797 13.7754 4.16154L4.32316 13.6115C4.11619 13.8195 4 14.1009 4 14.3942C4 14.6876 4.11619 14.969 4.32316 15.1769L8.82423 19.6769C9.03222 19.8838 9.3137 20 9.60711 20C9.90053 20 10.182 19.8838 10.39 19.6769L19.8384 10.2308C19.942 10.1265 20.0001 9.98544 20 9.83846V5.10769C20.0007 4.96235 19.9727 4.81831 19.9175 4.68385C19.8623 4.54939 19.781 4.42717 19.6784 4.32422C19.5758 4.22127 19.4538 4.13962 19.3195 4.08398C19.1852 4.02834 19.0413 3.9998 18.8959 4V4Z" stroke="#1886FF" stroke-width="2" stroke-linecap="round" stroke-linejoin="round"/>
<path d="M17 8C16.8022 8 16.6089 7.94135 16.4444 7.83147C16.28 7.72159 16.1518 7.56541 16.0761 7.38268C16.0004 7.19996 15.9806 6.99889 16.0192 6.80491C16.0578 6.61093 16.153 6.43275 16.2929 6.29289C16.4327 6.15304 16.6109 6.0578 16.8049 6.01922C16.9989 5.98063 17.2 6.00043 17.3827 6.07612C17.5654 6.15181 17.7216 6.27998 17.8315 6.44443C17.9414 6.60888 18 6.80222 18 7C18 7.26522 17.8946 7.51957 17.7071 7.70711C17.5196 7.89464 17.2652 8 17 8Z" fill="#1886FF"/>
</svg>
