<svg width="24" height="24" viewBox="0 0 24 24" fill="none" xmlns="http://www.w3.org/2000/svg">
<path d="M3.33929 16L2.47327 15.5L3.33929 16ZM20.6598 16L21.5258 15.5L20.6598 16ZM13.7316 4L12.8656 4.5V4.5L13.7316 4ZM10.2675 4L11.1335 4.5V4.5L10.2675 4ZM12.9995 9C12.9995 8.44771 12.5518 8 11.9995 8C11.4473 8 10.9995 8.44771 10.9995 9H12.9995ZM10.9995 11C10.9995 11.5523 11.4473 12 11.9995 12C12.5518 12 12.9995 11.5523 12.9995 11H10.9995ZM11.9995 14C11.4473 14 10.9995 14.4477 10.9995 15C10.9995 15.5523 11.4473 16 11.9995 16V14ZM12.0095 16C12.5618 16 13.0095 15.5523 13.0095 15C13.0095 14.4477 12.5618 14 12.0095 14V16ZM12.8656 4.5L19.7938 16.5L21.5258 15.5L14.5976 3.5L12.8656 4.5ZM18.9277 18H5.07134V20H18.9277V18ZM4.20532 16.5L11.1335 4.5L9.40147 3.5L2.47327 15.5L4.20532 16.5ZM5.07134 18C4.30154 18 3.82042 17.1667 4.20532 16.5L2.47327 15.5C1.31857 17.5 2.76194 20 5.07134 20V18ZM19.7938 16.5C20.1787 17.1667 19.6975 18 18.9277 18V20C21.2371 20 22.6805 17.5 21.5258 15.5L19.7938 16.5ZM14.5976 3.5C13.4429 1.5 10.5562 1.5 9.40147 3.5L11.1335 4.5C11.5184 3.83333 12.4807 3.83333 12.8656 4.5L14.5976 3.5ZM10.9995 9V11H12.9995V9H10.9995ZM11.9995 16H12.0095V14H11.9995V16Z" fill="#1886FF"/>
</svg>
