<svg width="20" height="20" viewBox="0 0 20 20" fill="none" xmlns="http://www.w3.org/2000/svg">
<g clip-path="url(#clip0_1324_7564)">
<path d="M16.9312 3.24413C15.6562 2.66913 14.2896 2.24413 12.8604 2.00246C12.8477 2.00002 12.8345 2.00159 12.8227 2.00696C12.8109 2.01234 12.8011 2.02125 12.7946 2.03246C12.6196 2.33996 12.4246 2.74079 12.2879 3.05746C10.7721 2.83099 9.23116 2.83099 7.7154 3.05746C7.56318 2.70651 7.39152 2.36431 7.20123 2.03246C7.19478 2.02111 7.18503 2.012 7.17326 2.00634C7.1615 2.00068 7.14829 1.99875 7.1354 2.00079C5.70707 2.24246 4.3404 2.66746 3.06457 3.24329C3.05359 3.2479 3.04429 3.25575 3.0379 3.26579C0.444567 7.07829 -0.266266 11.7966 0.0829005 15.4683C0.0838721 15.4773 0.0866635 15.486 0.0911046 15.4939C0.0955458 15.5017 0.101544 15.5086 0.108734 15.5141C1.62239 16.6161 3.31068 17.4556 5.1029 17.9975C5.11539 18.0013 5.12876 18.0013 5.14124 17.9974C5.15373 17.9936 5.16476 17.986 5.1729 17.9758C5.5579 17.4591 5.90123 16.9133 6.19457 16.34C6.21207 16.3066 6.1954 16.2666 6.1604 16.2533C5.62207 16.0506 5.10047 15.8059 4.6004 15.5216C4.59142 15.5165 4.58384 15.5092 4.57836 15.5004C4.57289 15.4917 4.56967 15.4817 4.56901 15.4713C4.56835 15.461 4.57026 15.4507 4.57458 15.4413C4.57889 15.4319 4.58548 15.4237 4.59373 15.4175C4.69873 15.34 4.80373 15.2591 4.90373 15.1783C4.91273 15.171 4.92358 15.1664 4.93505 15.1649C4.94653 15.1635 4.95819 15.1652 4.96873 15.17C8.24123 16.64 11.7854 16.64 15.0196 15.17C15.0301 15.1649 15.0419 15.1629 15.0536 15.1643C15.0652 15.1656 15.0762 15.1702 15.0854 15.1775C15.1854 15.2591 15.2896 15.34 15.3954 15.4175C15.4037 15.4236 15.4104 15.4316 15.4149 15.441C15.4193 15.4503 15.4214 15.4606 15.4209 15.4709C15.4204 15.4812 15.4174 15.4912 15.412 15.5001C15.4067 15.509 15.3993 15.5163 15.3904 15.5216C14.8921 15.8083 14.3737 16.0508 13.8296 16.2525C13.8212 16.2555 13.8136 16.2603 13.8072 16.2665C13.8009 16.2727 13.7959 16.2802 13.7927 16.2885C13.7894 16.2968 13.788 16.3056 13.7885 16.3145C13.789 16.3234 13.7913 16.3321 13.7954 16.34C14.0954 16.9125 14.4387 17.4575 14.8162 17.975C14.8241 17.9856 14.835 17.9935 14.8475 17.9977C14.8601 18.0019 14.8736 18.0021 14.8862 17.9983C16.6815 17.458 18.3726 16.6181 19.8879 15.5141C19.8953 15.509 19.9015 15.5023 19.9061 15.4945C19.9107 15.4867 19.9136 15.4781 19.9146 15.4691C20.3312 11.2241 19.2162 6.53579 16.9571 3.26746C16.9515 3.25684 16.9424 3.24856 16.9312 3.24413ZM6.68373 12.2325C5.69873 12.2325 4.88623 11.3416 4.88623 10.2491C4.88623 9.15579 5.6829 8.26579 6.68373 8.26579C7.69207 8.26579 8.49707 9.16329 8.48123 10.2491C8.48123 11.3425 7.68457 12.2325 6.68373 12.2325ZM13.3296 12.2325C12.3437 12.2325 11.5321 11.3416 11.5321 10.2491C11.5321 9.15579 12.3279 8.26579 13.3296 8.26579C14.3379 8.26579 15.1429 9.16329 15.1271 10.2491C15.1271 11.3425 14.3387 12.2325 13.3296 12.2325Z" fill="#7C8FA0"/>
</g>
<defs>
<clipPath id="clip0_1324_7564">
<rect width="20" height="20" fill="white"/>
</clipPath>
</defs>
</svg>
