<svg width="24" height="24" viewBox="0 0 24 24" fill="none" xmlns="http://www.w3.org/2000/svg">
<path d="M12 4.8C13.4473 4.8 14.625 6.0114 14.625 7.5H16.375C16.375 5.0187 14.4124 3 12 3C9.58763 3 7.625 5.0187 7.625 7.5V9.3H6.75C5.78487 9.3 5 10.1073 5 11.1V19.2C5 20.1927 5.78487 21 6.75 21H17.25C18.2151 21 19 20.1927 19 19.2V11.1C19 10.1073 18.2151 9.3 17.25 9.3H9.375V7.5C9.375 6.0114 10.5528 4.8 12 4.8ZM17.2518 19.2H12.875V17.1498C13.3956 16.8375 13.75 16.2633 13.75 15.6C13.75 14.6073 12.9651 13.8 12 13.8C11.0349 13.8 10.25 14.6073 10.25 15.6C10.25 16.2624 10.6044 16.8375 11.125 17.1498V19.2H6.75V11.1H17.25L17.2518 19.2Z" fill="#1886FF"/>
</svg>
