<svg width="18" height="18" viewBox="0 0 18 18" fill="none" xmlns="http://www.w3.org/2000/svg">
<path d="M7.11565 10.8881L9.57722 12.5387L8.81821 15.75C7.875 15.375 6.71697 14.8376 6 14.25C3.75 12.75 1.5 10.5 1.5 7.19991C1.5 4.92351 3.50023 3 5.65254 3C6.63543 3 8.05383 3.13856 9 4.125L6.75451 6.28364C6.52407 6.50518 6.60923 6.892 6.9114 6.99628V6.99628L8.90537 7.77045L7.0309 10.2693V10.2693C6.87825 10.462 6.91637 10.7441 7.11565 10.8881V10.8881ZM12.5304 3.0002C11.8289 3.0002 10.8564 3.32249 9.75 4.875L8.6262 6.19057L10.5613 7.01276C10.8718 7.1447 10.9659 7.53963 10.7481 7.79738V7.79738L8.6262 10.479L10.4595 12.0618L10.4676 12.0684C10.5839 12.1617 10.6296 12.3177 10.582 12.459V12.459L9 15.75C9.57722 15.75 11.423 14.723 12 14.25C14.3865 12.5387 16.5 10.5 16.5 7.20023C16.5 4.92383 14.6823 3.0002 12.5304 3.0002Z" fill="#FF1818"/>
</svg>
