<svg width="24" height="23" viewBox="0 0 24 23" fill="none" xmlns="http://www.w3.org/2000/svg">
<path d="M4.9999 1.29999L23.5999 14L18.9999 20.8L0.399902 7.99999L4.9999 1.29999Z" fill="url(#paint0_linear_578_5125)"/>
<path d="M23.6003 14C22.0003 16.3 16.6003 15.4 11.5003 11.8C6.30032 8.29998 3.50032 3.59998 5.00032 1.29998C6.60032 -1.00002 12.0003 -0.100025 17.1003 3.49998C22.3003 6.89998 25.1003 11.7 23.6003 14Z" fill="url(#paint1_linear_578_5125)"/>
<path d="M19.0001 20.7C17.4001 23 12.0001 22.1 6.90013 18.5C1.80013 14.9 -1.09987 10.3 0.50013 7.89998C2.10013 5.59998 7.50013 6.49998 12.6001 10.1C17.7001 13.7 20.5001 18.4 19.0001 20.7Z" fill="url(#paint2_linear_578_5125)"/>
<path d="M23.6001 14L19.0001 20.8C17.4001 23.1 12.0001 22.1 6.9001 18.6C5.9001 17.9 5.0001 17.2 4.1001 16.4C4.8001 16.3 5.7001 15.9 6.6001 14.9C8.2001 13.2 9.0001 12.8 9.7001 12.9C10.4001 12.9 11.2001 13.6 12.5001 15.3C13.8001 17 15.6001 17.5 16.7001 16.6C16.8001 16.5 16.9001 16.5 17.0001 16.4C17.9001 15.7 18.2001 15.4 19.9001 12.2C20.3001 11.4 21.7001 10.1 23.6001 10.7C24.1001 12 24.1001 13.1 23.6001 14Z" fill="#0E0F23"/>
<path fill-rule="evenodd" clip-rule="evenodd" d="M22.9003 13.6C21.5003 15.6 16.6003 14.6 11.9003 11.3C7.10027 7.99997 4.30027 3.79997 5.70027 1.79997C7.10027 -0.200032 12.0003 0.799968 16.7003 4.09997C21.4003 7.39997 24.2003 11.6 22.9003 13.6ZM18.5003 10.6C17.8003 11.6 15.4003 11.1 13.0003 9.49997C10.7003 7.89997 9.30027 5.79997 10.0003 4.79997C10.7003 3.79997 13.1003 4.29997 15.5003 5.89997C17.8003 7.49997 19.2003 9.59997 18.5003 10.6Z" fill="white"/>
<path d="M4.6002 3.59998C4.6002 3.49998 4.5002 3.39998 4.4002 3.49998C4.3002 3.59998 4.2002 3.59998 4.2002 3.69998C4.3002 3.99998 4.4002 4.19998 4.4002 4.39998C4.4002 4.49998 4.5002 4.59998 4.6002 4.49998C4.7002 4.49998 4.8002 4.39998 4.7002 4.29998C4.7002 4.09998 4.7002 3.89998 4.6002 3.59998Z" fill="white"/>
<path d="M5.10029 5.19995C5.10029 5.09995 5.00029 4.99995 4.90029 5.09995C4.80029 5.19995 4.80029 5.19995 4.80029 5.29995C5.90029 7.79995 8.20029 10.5 11.2003 12.5C11.3003 12.6 11.4003 12.5 11.5003 12.5C11.6003 12.4 11.5003 12.3 11.5003 12.2C8.40029 10.2 6.20029 7.59995 5.10029 5.19995Z" fill="white"/>
<path d="M17.2 15C17.1 15 17 15 17 15.1C17 15.2 17 15.3 17.1 15.3C17.4 15.4 17.8 15.5 18.1 15.6C18.2 15.6 18.3 15.6 18.3 15.5C18.3 15.4 18.3 15.3 18.2 15.3C17.9 15.2 17.5 15.1 17.2 15Z" fill="white"/>
<path d="M19.0003 15.4C18.9003 15.4 18.8003 15.5 18.8003 15.6C18.8003 15.7 18.9003 15.8 19.0003 15.8C19.8003 15.9 20.7003 16 21.4003 15.9C21.5003 15.9 21.6003 15.8 21.6003 15.7C21.6003 15.6 21.5003 15.5 21.4003 15.5C20.6003 15.6 19.8003 15.5 19.0003 15.4Z" fill="white"/>
<defs>
<linearGradient id="paint0_linear_578_5125" x1="8.6441" y1="-0.505712" x2="12.3327" y2="12.1605" gradientUnits="userSpaceOnUse">
<stop stop-color="#03B8FF"/>
<stop offset="1" stop-color="#FA52A0"/>
</linearGradient>
<linearGradient id="paint1_linear_578_5125" x1="11.6821" y1="-1.39042" x2="15.3708" y2="11.2759" gradientUnits="userSpaceOnUse">
<stop stop-color="#03B8FF"/>
<stop offset="1" stop-color="#FA52A0"/>
</linearGradient>
<linearGradient id="paint2_linear_578_5125" x1="5.61613" y1="0.376081" x2="9.30483" y2="13.0424" gradientUnits="userSpaceOnUse">
<stop stop-color="#03B8FF"/>
<stop offset="1" stop-color="#FA52A0"/>
</linearGradient>
</defs>
</svg>
