<svg width="18" height="18" viewBox="0 0 18 18" fill="none" xmlns="http://www.w3.org/2000/svg">
<path d="M4.5 10.5C4.5 10.9142 4.83579 11.25 5.25 11.25C5.66421 11.25 6 10.9142 6 10.5H4.5ZM6.75 8.25C6.75 8.66421 7.08579 9 7.5 9C7.91421 9 8.25 8.66421 8.25 8.25H6.75ZM9 8.25C9 8.66421 9.33579 9 9.75 9C10.1642 9 10.5 8.66421 10.5 8.25H9ZM11.25 8.25C11.25 8.66421 11.5858 9 12 9C12.4142 9 12.75 8.66421 12.75 8.25H11.25ZM13.5 10.125C13.5 12.8174 11.3174 15 8.625 15V16.5C12.1458 16.5 15 13.6458 15 10.125H13.5ZM8.625 15C5.93261 15 3.75 12.8174 3.75 10.125H2.25C2.25 13.6458 5.10418 16.5 8.625 16.5V15ZM3.75 10.125V8.625H2.25V10.125H3.75ZM4.5 8.625V10.5H6V8.625H4.5ZM6 8.625V4.125H4.5V8.625H6ZM6.75 4.125V8.25H8.25V4.125H6.75ZM8.25 4.125V3.375H6.75V4.125H8.25ZM9 4.125V8.25H10.5V4.125H9ZM10.5 4.125V3.375H9V4.125H10.5ZM11.25 6.375V8.25H12.75V6.375H11.25ZM12.75 6.375V4.125H11.25V6.375H12.75ZM10.875 2.25C9.83947 2.25 9 3.08947 9 4.125H10.5C10.5 3.91789 10.6679 3.75 10.875 3.75V2.25ZM15 6.375C15 5.33947 14.1605 4.5 13.125 4.5V6C13.3321 6 13.5 6.16789 13.5 6.375H15ZM10.875 3.75C11.0821 3.75 11.25 3.91789 11.25 4.125H12.75C12.75 3.08947 11.9105 2.25 10.875 2.25V3.75ZM8.625 3C8.83211 3 9 3.16789 9 3.375H10.5C10.5 2.33947 9.66053 1.5 8.625 1.5V3ZM6.375 3.75C6.58211 3.75 6.75 3.91789 6.75 4.125H8.25C8.25 3.08947 7.41053 2.25 6.375 2.25V3.75ZM6 4.125C6 3.91789 6.16789 3.75 6.375 3.75V2.25C5.33947 2.25 4.5 3.08947 4.5 4.125H6ZM8.25 3.375C8.25 3.16789 8.41789 3 8.625 3V1.5C7.58947 1.5 6.75 2.33947 6.75 3.375H8.25ZM13.125 4.5C12.0895 4.5 11.25 5.33947 11.25 6.375H12.75C12.75 6.16789 12.9179 6 13.125 6V4.5ZM4.125 8.25C4.33211 8.25 4.5 8.41789 4.5 8.625H6C6 7.58947 5.16053 6.75 4.125 6.75V8.25ZM3.75 8.625C3.75 8.41789 3.91789 8.25 4.125 8.25V6.75C3.08947 6.75 2.25 7.58947 2.25 8.625H3.75ZM15 10.125V6.375H13.5V10.125H15Z" fill="#1F1F1F"/>
</svg>
