<svg width="22" height="22" viewBox="0 0 22 22" fill="none" xmlns="http://www.w3.org/2000/svg">
<path d="M8.37377 10.2929C7.98325 9.90237 7.35008 9.90237 6.95956 10.2929C6.56904 10.6834 6.56904 11.3166 6.95956 11.7071L8.37377 10.2929ZM9.88889 13.2222L9.18178 13.9293C9.57231 14.3199 10.2055 14.3199 10.596 13.9293L9.88889 13.2222ZM15.0404 9.48489C15.431 9.09436 15.431 8.4612 15.0404 8.07067C14.6499 7.68015 14.0168 7.68015 13.6262 8.07067L15.0404 9.48489ZM20 11C20 15.9706 15.9706 20 11 20V22C17.0751 22 22 17.0751 22 11H20ZM11 20C6.02944 20 2 15.9706 2 11H0C0 17.0751 4.92487 22 11 22V20ZM2 11C2 6.02944 6.02944 2 11 2V0C4.92487 0 0 4.92487 0 11H2ZM11 2C15.9706 2 20 6.02944 20 11H22C22 4.92487 17.0751 0 11 0V2ZM6.95956 11.7071L9.18178 13.9293L10.596 12.5151L8.37377 10.2929L6.95956 11.7071ZM10.596 13.9293L15.0404 9.48489L13.6262 8.07067L9.18178 12.5151L10.596 13.9293Z" fill="#27BC6A"/>
</svg>
