<svg width="20" height="20" viewBox="0 0 20 20" fill="none" xmlns="http://www.w3.org/2000/svg">
<path d="M3.33325 4C2.78097 4 2.33325 4.44772 2.33325 5C2.33325 5.55228 2.78097 6 3.33325 6V4ZM16.6666 6C17.2189 6 17.6666 5.55228 17.6666 5C17.6666 4.44772 17.2189 4 16.6666 4V6ZM4.99992 9C4.44763 9 3.99992 9.44772 3.99992 10C3.99992 10.5523 4.44763 11 4.99992 11V9ZM14.9999 11C15.5522 11 15.9999 10.5523 15.9999 10C15.9999 9.44772 15.5522 9 14.9999 9V11ZM6.66658 14C6.1143 14 5.66658 14.4477 5.66658 15C5.66658 15.5523 6.1143 16 6.66658 16V14ZM13.3333 16C13.8855 16 14.3333 15.5523 14.3333 15C14.3333 14.4477 13.8855 14 13.3333 14V16ZM3.33325 6H16.6666V4H3.33325V6ZM4.99992 11H14.9999V9H4.99992V11ZM6.66658 16H13.3333V14H6.66658V16Z" fill="#1886FF"/>
</svg>
