<svg width="20" height="20" viewBox="0 0 20 20" fill="none" xmlns="http://www.w3.org/2000/svg">
<path d="M13.4592 14.8736C13.8498 15.2641 14.4829 15.2641 14.8734 14.8736C15.264 14.4831 15.264 13.8499 14.8734 13.4594L13.4592 14.8736ZM6.54011 5.12606C6.14959 4.73554 5.51643 4.73554 5.1259 5.12606C4.73538 5.51659 4.73538 6.14975 5.1259 6.54028L6.54011 5.12606ZM5.1259 13.4594C4.73538 13.8499 4.73538 14.4831 5.1259 14.8736C5.51643 15.2641 6.14959 15.2641 6.54011 14.8736L5.1259 13.4594ZM14.8734 6.54028C15.264 6.14975 15.264 5.51659 14.8734 5.12606C14.4829 4.73554 13.8498 4.73554 13.4592 5.12606L14.8734 6.54028ZM14.8734 13.4594L6.54011 5.12606L5.1259 6.54028L13.4592 14.8736L14.8734 13.4594ZM6.54011 14.8736L14.8734 6.54028L13.4592 5.12606L5.1259 13.4594L6.54011 14.8736Z" fill="#687684"/>
</svg>
