<svg width="30" height="30" viewBox="0 0 30 30" fill="none" xmlns="http://www.w3.org/2000/svg">
<path fill-rule="evenodd" clip-rule="evenodd" d="M15 0C23.2849 0 30 6.71514 30 15C30 23.2849 23.2849 30 15 30C6.71514 30 0 23.2849 0 15C0 6.71514 6.71514 0 15 0Z" fill="#F0B90B"/>
<path d="M8.24399 15L8.25481 18.9663L11.625 20.9495V23.2716L6.28245 20.1382V13.8401L8.24399 15ZM8.24399 11.0337V13.3449L6.28125 12.1839V9.8726L8.24399 8.71155L10.2163 9.8726L8.24399 11.0337ZM13.0325 9.8726L14.9952 8.71155L16.9675 9.8726L14.9952 11.0337L13.0325 9.8726Z" fill="white"/>
<path d="M9.66406 18.1442V15.8221L11.6268 16.9832V19.2944L9.66406 18.1442ZM13.0342 21.7812L14.9969 22.9423L16.9693 21.7812V24.0925L14.9969 25.2536L13.0342 24.0925V21.7812ZM19.7842 9.8726L21.7469 8.71155L23.7192 9.8726V12.1839L21.7469 13.3449V11.0337L19.7842 9.8726ZM21.7469 18.9663L21.7577 15L23.7204 13.8389V20.137L18.3779 23.2704V20.9483L21.7469 18.9663Z" fill="white"/>
<path d="M20.3377 18.1443L18.375 19.2945V16.9833L20.3377 15.8223V18.1443Z" fill="white"/>
<path d="M20.3395 11.8558L20.3504 14.1779L16.9706 16.161V20.137L15.0078 21.2872L13.0451 20.137V16.161L9.66526 14.1779V11.8558L11.6364 10.6947L14.9958 12.6875L18.3756 10.6947L20.348 11.8558H20.3395ZM9.66406 7.89062L14.997 4.7464L20.3395 7.89062L18.3768 9.05168L14.997 7.05889L11.6268 9.05168L9.66406 7.89062Z" fill="white"/>
</svg>
