<svg width="30" height="26" viewBox="0 0 30 26" fill="none" xmlns="http://www.w3.org/2000/svg">
<g clip-path="url(#clip0_811_6330)">
<path d="M25.7658 3.40083L22.1535 5.28583L4.71019 14.3858C4.6512 13.9251 4.62153 13.4608 4.62134 12.9961C4.62373 11.1419 5.09902 9.32054 6.00015 7.71237C6.90129 6.1042 8.19698 4.76505 9.7589 3.82758C11.3208 2.89011 13.0948 2.38684 14.905 2.36763C16.7152 2.34841 18.499 2.81392 20.0795 3.71803L22.1472 2.63903L22.4556 2.47783C20.5615 1.06979 18.3242 0.225536 15.991 0.0383781C13.6578 -0.148779 11.3194 0.328449 9.23445 1.41732C7.14946 2.50619 5.39901 4.1643 4.17656 6.20839C2.95411 8.25248 2.30726 10.603 2.3075 13C2.3075 13.3311 2.31977 13.6609 2.34431 13.9893C2.37867 14.4545 2.27795 14.9197 2.05481 15.3263C1.83168 15.733 1.49609 16.063 1.09029 16.2747L0 16.8441V19.5L3.20993 17.8243L4.24945 17.2809L5.27374 16.7466L23.6626 7.15003L25.729 6.07233L30 3.84283V1.18824L25.7658 3.40083Z" fill="black"/>
<path d="M30 6.5L6.31833 18.85L4.25199 19.9303L0 22.1494V24.8027L4.2228 22.5992L7.83508 20.7142L25.2962 11.6012C25.3552 12.065 25.3849 12.5323 25.385 13C25.3839 14.8563 24.9087 16.6801 24.0067 18.2902C23.1047 19.9004 21.8072 21.2408 20.243 22.1786C18.6789 23.1164 16.9024 23.6188 15.0901 23.636C13.2777 23.6533 11.4925 23.1847 9.91158 22.2768L9.78465 22.3457L7.54315 23.5157C9.43678 24.9238 11.6736 25.7683 14.0065 25.9559C16.3393 26.1435 18.6775 25.6669 20.7624 24.5788C22.8474 23.4907 24.5981 21.8333 25.8211 19.79C27.0441 17.7466 27.6917 15.3967 27.6925 13C27.6925 12.6659 27.6798 12.3318 27.6557 12.0016C27.6214 11.5366 27.722 11.0716 27.9449 10.665C28.1678 10.2584 28.503 9.9283 28.9084 9.7162L30 9.1468V6.5Z" fill="black"/>
</g>
<defs>
<clipPath id="clip0_811_6330">
<rect width="30" height="26" fill="white"/>
</clipPath>
</defs>
</svg>
