<svg width="24" height="24" viewBox="0 0 24 24" fill="none" xmlns="http://www.w3.org/2000/svg">
<path fill-rule="evenodd" clip-rule="evenodd" d="M3.68682 8.38219C2.75615 8.69274 2.77625 10.0163 3.71697 10.2977L11.2477 12.551L13.7071 20.2996C14.0015 21.2262 15.3111 21.2363 15.6187 20.3127L20.9484 4.32296C21.0074 4.14588 21.016 3.95585 20.9731 3.77418C20.9303 3.5925 20.8376 3.42635 20.7056 3.29436C20.5736 3.16237 20.4075 3.06974 20.2258 3.02687C20.0441 2.98399 19.8541 2.99256 19.677 3.05162L3.68682 8.3832V8.38219ZM7.33813 9.28369L18.4056 5.5953L14.689 16.7469L13.0035 11.4364C12.9539 11.2804 12.8669 11.1389 12.75 11.0241C12.6332 10.9094 12.4901 10.825 12.3332 10.7781L7.33813 9.28369Z" fill="#1F1F1F"/>
<path d="M19.8491 3.13672L20.8983 4.21911L12.0258 12.8049L10.9766 11.7225L19.8491 3.13672Z" fill="#1F1F1F"/>
</svg>
