<svg width="24" height="24" viewBox="0 0 24 24" fill="none" xmlns="http://www.w3.org/2000/svg">
<path d="M17.0009 9.50019H7.41087L8.71087 8.21019C8.89918 8.02188 9.00496 7.76649 9.00496 7.50019C9.00496 7.23388 8.89918 6.97849 8.71087 6.79019C8.52257 6.60188 8.26717 6.49609 8.00087 6.49609C7.73457 6.49609 7.47918 6.60188 7.29087 6.79019L4.29087 9.79019C4.19983 9.88529 4.12847 9.99743 4.08087 10.1202C3.98085 10.3636 3.98085 10.6367 4.08087 10.8802C4.12847 11.0029 4.19983 11.1151 4.29087 11.2102L7.29087 14.2102C7.38384 14.3039 7.49444 14.3783 7.6163 14.4291C7.73816 14.4798 7.86886 14.506 8.00087 14.506C8.13288 14.506 8.26359 14.4798 8.38545 14.4291C8.50731 14.3783 8.61791 14.3039 8.71087 14.2102C8.8046 14.1172 8.879 14.0066 8.92976 13.8848C8.98053 13.7629 9.00667 13.6322 9.00667 13.5002C9.00667 13.3682 8.98053 13.2375 8.92976 13.1156C8.879 12.9938 8.8046 12.8831 8.71087 12.7902L7.41087 11.5002H17.0009C17.2661 11.5002 17.5204 11.6055 17.708 11.7931C17.8955 11.9806 18.0009 12.235 18.0009 12.5002V16.5002C18.0009 16.7654 18.1062 17.0198 18.2938 17.2073C18.4813 17.3948 18.7357 17.5002 19.0009 17.5002C19.2661 17.5002 19.5204 17.3948 19.708 17.2073C19.8955 17.0198 20.0009 16.7654 20.0009 16.5002V12.5002C20.0009 11.7045 19.6848 10.9415 19.1222 10.3789C18.5596 9.81626 17.7965 9.50019 17.0009 9.50019Z" fill="#1F1F1F"/>
</svg>
