<svg width="18" height="18" viewBox="0 0 18 18" fill="none" xmlns="http://www.w3.org/2000/svg">
<path d="M2.46967 11.4697C2.17678 11.7626 2.17678 12.2374 2.46967 12.5303C2.76256 12.8232 3.23744 12.8232 3.53033 12.5303L2.46967 11.4697ZM6.43934 8.56066L6.96967 9.09099L6.43934 8.56066ZM8.56066 8.56066L9.09099 8.03033H9.09099L8.56066 8.56066ZM11.4697 12.5303C11.7626 12.8232 12.2374 12.8232 12.5303 12.5303C12.8232 12.2374 12.8232 11.7626 12.5303 11.4697L11.4697 12.5303ZM9.96967 9.96967C9.67678 10.2626 9.67678 10.7374 9.96967 11.0303C10.2626 11.3232 10.7374 11.3232 11.0303 11.0303L9.96967 9.96967ZM13.8107 9.31066L13.2803 9.84099L13.8107 9.31066ZM14.4697 11.0303C14.7626 11.3232 15.2374 11.3232 15.5303 11.0303C15.8232 10.7374 15.8232 10.2626 15.5303 9.96967L14.4697 11.0303ZM10.5 5.25C10.0858 5.25 9.75 5.58579 9.75 6C9.75 6.41421 10.0858 6.75 10.5 6.75V5.25ZM10.5075 6.75C10.9217 6.75 11.2575 6.41421 11.2575 6C11.2575 5.58579 10.9217 5.25 10.5075 5.25V6.75ZM4.5 3.75H13.5V2.25H4.5V3.75ZM14.25 4.5V13.5H15.75V4.5H14.25ZM13.5 14.25H4.5V15.75H13.5V14.25ZM3.75 13.5V4.5H2.25V13.5H3.75ZM4.5 14.25C4.08579 14.25 3.75 13.9142 3.75 13.5H2.25C2.25 14.7426 3.25736 15.75 4.5 15.75V14.25ZM14.25 13.5C14.25 13.9142 13.9142 14.25 13.5 14.25V15.75C14.7426 15.75 15.75 14.7426 15.75 13.5H14.25ZM13.5 3.75C13.9142 3.75 14.25 4.08579 14.25 4.5H15.75C15.75 3.25736 14.7426 2.25 13.5 2.25V3.75ZM4.5 2.25C3.25736 2.25 2.25 3.25736 2.25 4.5H3.75C3.75 4.08579 4.08579 3.75 4.5 3.75V2.25ZM3.53033 12.5303L6.96967 9.09099L5.90901 8.03033L2.46967 11.4697L3.53033 12.5303ZM8.03033 9.09099L11.4697 12.5303L12.5303 11.4697L9.09099 8.03033L8.03033 9.09099ZM6.96967 9.09099C7.26256 8.7981 7.73744 8.7981 8.03033 9.09099L9.09099 8.03033C8.21231 7.15165 6.78769 7.15165 5.90901 8.03033L6.96967 9.09099ZM11.0303 11.0303L12.2197 9.84099L11.159 8.78033L9.96967 9.96967L11.0303 11.0303ZM13.2803 9.84099L14.4697 11.0303L15.5303 9.96967L14.341 8.78033L13.2803 9.84099ZM12.2197 9.84099C12.5126 9.5481 12.9874 9.5481 13.2803 9.84099L14.341 8.78033C13.4623 7.90165 12.0377 7.90165 11.159 8.78033L12.2197 9.84099ZM10.5 6.75H10.5075V5.25H10.5V6.75Z" fill="#1F1F1F"/>
</svg>
