<svg width="24" height="24" viewBox="0 0 24 24" fill="none" xmlns="http://www.w3.org/2000/svg">
<path d="M12.0247 12.7292L15.5647 9.18922C15.7521 9.00297 16.0055 8.89843 16.2697 8.89843C16.5339 8.89843 16.7873 9.00297 16.9747 9.18922C17.0684 9.28218 17.1428 9.39279 17.1936 9.51464C17.2444 9.6365 17.2705 9.76721 17.2705 9.89922C17.2705 10.0312 17.2444 10.1619 17.1936 10.2838C17.1428 10.4057 17.0684 10.5163 16.9747 10.6092L12.7347 14.8492C12.6417 14.9429 12.5311 15.0173 12.4093 15.0681C12.2874 15.1189 12.1567 15.145 12.0247 15.145C11.8927 15.145 11.762 15.1189 11.6401 15.0681C11.5183 15.0173 11.4077 14.9429 11.3147 14.8492L7.02471 10.6092C6.93203 10.5158 6.8587 10.405 6.80894 10.2831C6.75917 10.1613 6.73395 10.0308 6.73471 9.89922C6.73395 9.76761 6.75917 9.63715 6.80894 9.51531C6.8587 9.39348 6.93203 9.28266 7.02471 9.18922C7.21207 9.00297 7.46552 8.89843 7.72971 8.89843C7.9939 8.89843 8.24735 9.00297 8.43471 9.18922L12.0247 12.7292Z" fill="#687684"/>
</svg>
