<svg width="24" height="24" viewBox="0 0 24 24" fill="none" xmlns="http://www.w3.org/2000/svg">
<path d="M6 5H8V3H6V5ZM9 6V8H11V6H9ZM8 9H6V11H8V9ZM5 8V6H3V8H5ZM6 9C5.44772 9 5 8.55228 5 8H3C3 9.65685 4.34315 11 6 11V9ZM9 8C9 8.55228 8.55228 9 8 9V11C9.65685 11 11 9.65685 11 8H9ZM8 5C8.55228 5 9 5.44772 9 6H11C11 4.34315 9.65685 3 8 3V5ZM6 3C4.34315 3 3 4.34315 3 6H5C5 5.44772 5.44772 5 6 5V3ZM16 5H18V3H16V5ZM19 6V8H21V6H19ZM18 9H16V11H18V9ZM15 8V6H13V8H15ZM16 9C15.4477 9 15 8.55228 15 8H13C13 9.65685 14.3431 11 16 11V9ZM19 8C19 8.55228 18.5523 9 18 9V11C19.6569 11 21 9.65685 21 8H19ZM18 5C18.5523 5 19 5.44772 19 6H21C21 4.34315 19.6569 3 18 3V5ZM16 3C14.3431 3 13 4.34315 13 6H15C15 5.44772 15.4477 5 16 5V3ZM6 15H8V13H6V15ZM9 16V18H11V16H9ZM8 19H6V21H8V19ZM5 18V16H3V18H5ZM6 19C5.44772 19 5 18.5523 5 18H3C3 19.6569 4.34315 21 6 21V19ZM9 18C9 18.5523 8.55228 19 8 19V21C9.65685 21 11 19.6569 11 18H9ZM8 15C8.55228 15 9 15.4477 9 16H11C11 14.3431 9.65685 13 8 13V15ZM6 13C4.34315 13 3 14.3431 3 16H5C5 15.4477 5.44772 15 6 15V13ZM16 15H18V13H16V15ZM19 16V18H21V16H19ZM18 19H16V21H18V19ZM15 18V16H13V18H15ZM16 19C15.4477 19 15 18.5523 15 18H13C13 19.6569 14.3431 21 16 21V19ZM19 18C19 18.5523 18.5523 19 18 19V21C19.6569 21 21 19.6569 21 18H19ZM18 15C18.5523 15 19 15.4477 19 16H21C21 14.3431 19.6569 13 18 13V15ZM16 13C14.3431 13 13 14.3431 13 16H15C15 15.4477 15.4477 15 16 15V13Z" fill="#1F1F1F"/>
</svg>
