<svg width="24" height="24" viewBox="0 0 24 24" fill="none" xmlns="http://www.w3.org/2000/svg">
<path d="M12 20L11.2929 20.7071C11.6834 21.0976 12.3166 21.0976 12.7071 20.7071L12 20ZM8 16L8.70711 15.2929C8.51957 15.1054 8.26522 15 8 15V16ZM16 16V15C15.7348 15 15.4804 15.1054 15.2929 15.2929L16 16ZM5 5H19V3H5V5ZM20 6V14H22V6H20ZM4 14V6H2V14H4ZM12.7071 19.2929L8.70711 15.2929L7.29289 16.7071L11.2929 20.7071L12.7071 19.2929ZM8 15H5V17H8V15ZM19 15H16V17H19V15ZM15.2929 15.2929L11.2929 19.2929L12.7071 20.7071L16.7071 16.7071L15.2929 15.2929ZM2 14C2 15.6569 3.34315 17 5 17V15C4.44772 15 4 14.5523 4 14H2ZM20 14C20 14.5523 19.5523 15 19 15V17C20.6569 17 22 15.6569 22 14H20ZM19 5C19.5523 5 20 5.44772 20 6H22C22 4.34315 20.6569 3 19 3V5ZM5 3C3.34315 3 2 4.34315 2 6H4C4 5.44772 4.44772 5 5 5V3Z" fill="#1F1F1F"/>
<path d="M9.17157 9.0003C8.61929 9.0003 8.17157 9.44802 8.17157 10.0003C8.17157 10.5526 8.61929 11.0003 9.17157 11.0003L9.17157 9.0003ZM14.8284 11.0003C15.3807 11.0003 15.8284 10.5526 15.8284 10.0003C15.8284 9.44802 15.3807 9.0003 14.8284 9.0003L14.8284 11.0003ZM13 7.17188C13 6.61959 12.5523 6.17188 12 6.17188C11.4477 6.17187 11 6.61959 11 7.17187L13 7.17188ZM11 12.8287C11 13.381 11.4477 13.8287 12 13.8287C12.5523 13.8287 13 13.381 13 12.8287H11ZM9.17157 11.0003L12 11.0003L12 9.0003L9.17157 9.0003L9.17157 11.0003ZM12 11.0003L14.8284 11.0003L14.8284 9.0003L12 9.0003V11.0003ZM11 7.17187L11 10.0003L13 10.0003L13 7.17188L11 7.17187ZM11 10.0003L11 12.8287H13L13 10.0003H11Z" fill="#1F1F1F"/>
</svg>
