<svg width="52" height="52" viewBox="0 0 52 52" fill="none" xmlns="http://www.w3.org/2000/svg">
<circle cx="26" cy="26" r="24.5" stroke="#F5F9FD" stroke-width="3"/>
<path d="M49 26C49 32.1 46.5768 37.9501 42.2635 42.2635C37.9501 46.5768 32.1 49 26 49C19.9 49 14.0499 46.5768 9.73655 42.2635C5.42321 37.9501 3 32.1 3 26L26 26H49Z" fill="#1886FF"/>
<path d="M36 24.0999C36.1 23.5999 35.7 22.9999 35.2 22.9999L29.5 22.1999L26.9 16.9999C26.8 16.7999 26.7 16.6999 26.5 16.5999C26 16.2999 25.4 16.4999 25.1 16.9999L22.6 22.1999L16.9 22.9999C16.6 22.9999 16.4 23.0999 16.3 23.2999C15.9 23.6999 15.9 24.2999 16.3 24.6999L20.4 28.6999L19.4 34.3999C19.4 34.5999 19.4 34.7999 19.5 34.9999C19.8 35.4999 20.4 35.6999 20.9 35.3999L26 32.6999L31.1 35.3999C31.2 35.4999 31.4 35.4999 31.6 35.4999C31.7 35.4999 31.7 35.4999 31.8 35.4999C32.3 35.3999 32.7 34.8999 32.6 34.2999L31.6 28.5999L35.7 24.5999C35.9 24.4999 36 24.2999 36 24.0999Z" fill="white"/>
<path fill-rule="evenodd" clip-rule="evenodd" d="M35.2 22.9999C35.7 22.9999 36.1 23.5999 36 24.0999C36 24.2999 35.9 24.4999 35.7 24.5999L34.265 25.9999H17.6325L16.3 24.6999C15.9 24.2999 15.9 23.6999 16.3 23.2999C16.4 23.0999 16.6 22.9999 16.9 22.9999L22.6 22.1999L25.1 16.9999C25.4 16.4999 26 16.2999 26.5 16.5999C26.7 16.6999 26.8 16.7999 26.9 16.9999L29.5 22.1999L35.2 22.9999Z" fill="#1886FF"/>
</svg>
