<svg width="14" height="14" viewBox="0 0 14 14" fill="none" xmlns="http://www.w3.org/2000/svg">
<path d="M13.999 7.132C13.999 7.789 13.467 8.322 12.81 8.322H8.056V12.812C8.056 13.1273 7.93073 13.4298 7.70775 13.6528C7.48477 13.8757 7.18234 14.001 6.867 14.001C6.55166 14.001 6.24923 13.8757 6.02625 13.6528C5.80327 13.4298 5.678 13.1273 5.678 12.812V8.321H1.189C0.873658 8.321 0.571231 8.19573 0.34825 7.97275C0.125269 7.74977 0 7.44734 0 7.132C0 6.81666 0.125269 6.51423 0.34825 6.29125C0.571231 6.06827 0.873658 5.943 1.189 5.943H5.679V1.189C5.679 0.873658 5.80427 0.571231 6.02725 0.34825C6.25023 0.125269 6.55266 0 6.868 0C7.18334 0 7.48577 0.125269 7.70875 0.34825C7.93173 0.571231 8.057 0.873658 8.057 1.189V5.943H12.811C13.468 5.943 14 6.476 14 7.133L13.999 7.132Z" fill="white"/>
</svg>
