<svg width="24" height="24" viewBox="0 0 24 24" fill="none" xmlns="http://www.w3.org/2000/svg">
<path d="M3.70589 2.29289C3.31536 1.90237 2.6822 1.90237 2.29167 2.29289C1.90115 2.68342 1.90115 3.31658 2.29167 3.70711L3.70589 2.29289ZM20.2917 21.7071C20.6822 22.0976 21.3154 22.0976 21.7059 21.7071C22.0964 21.3166 22.0964 20.6834 21.7059 20.2929L20.2917 21.7071ZM2.45703 12L1.50298 11.7003C1.44171 11.8954 1.44171 12.1045 1.50298 12.2996L2.45703 12ZM21.5414 12L22.4955 12.2997C22.5567 12.1046 22.5567 11.8955 22.4955 11.7004L21.5414 12ZM14.06 19.8071C14.6026 19.7042 14.959 19.1809 14.8561 18.6383C14.7532 18.0957 14.23 17.7392 13.6873 17.8421L14.06 19.8071ZM4.81762 9.57463C5.15089 9.13424 5.06405 8.50706 4.62366 8.17378C4.18327 7.8405 3.55609 7.92734 3.22281 8.36773L4.81762 9.57463ZM9.87746 9.87868L9.17035 10.5858L9.87746 9.87868ZM14.1201 14.1213L13.413 14.8284L14.1201 14.1213ZM11.9988 10C13.1033 10 13.9988 10.8954 13.9988 12H15.9988C15.9988 9.79086 14.2079 8 11.9988 8V10ZM11.9992 6C16.0276 6 19.4403 8.64737 20.5874 12.2997L22.4955 11.7004C21.0941 7.23846 16.9261 4 11.9992 4V6ZM11.9992 18C7.97086 18 4.55819 15.3526 3.41108 11.7003L1.50298 12.2996C2.90438 16.7615 7.07231 20 11.9992 20V18ZM13.6873 17.8421C13.1413 17.9457 12.5771 18 11.9992 18V20C12.7027 20 13.3917 19.9338 14.06 19.8071L13.6873 17.8421ZM3.41108 12.2996C3.72296 11.3066 4.20269 10.3872 4.81762 9.57463L3.22281 8.36773C2.47188 9.36002 1.88489 10.4844 1.50298 11.7003L3.41108 12.2996ZM10.5846 10.5858C10.9476 10.2228 11.4462 10 11.9988 10V8C10.8945 8 9.89312 8.44881 9.17035 9.17157L10.5846 10.5858ZM9.17035 10.5858L13.413 14.8284L14.8272 13.4142L10.5846 9.17157L9.17035 10.5858ZM13.9988 12C13.9988 12.5526 13.776 13.0512 13.413 13.4142L14.8272 14.8284C15.55 14.1057 15.9988 13.1043 15.9988 12H13.9988ZM2.29167 3.70711L5.88083 7.29627L7.29504 5.88205L3.70589 2.29289L2.29167 3.70711ZM5.88083 7.29627L9.17035 10.5858L10.5846 9.17157L7.29504 5.88205L5.88083 7.29627ZM7.12979 7.42963C8.53294 6.52502 10.2032 6 11.9992 6V4C9.80744 4 7.76258 4.64206 6.04609 5.74869L7.12979 7.42963ZM14.8272 13.4142L7.29504 5.88205L5.88083 7.29627L13.413 14.8284L14.8272 13.4142ZM13.413 14.8284L16.7029 18.1183L18.1171 16.7041L14.8272 13.4142L13.413 14.8284ZM16.7029 18.1183L20.2917 21.7071L21.7059 20.2929L18.1171 16.7041L16.7029 18.1183ZM20.5874 11.7004C19.9517 13.7242 18.6186 15.4423 16.8682 16.5707L17.9518 18.2517C20.088 16.8747 21.7173 14.7772 22.4955 12.2997L20.5874 11.7004Z" fill="#1F1F1F"/>
</svg>
