<svg width="36" height="36" viewBox="0 0 36 36" fill="none" xmlns="http://www.w3.org/2000/svg">
<circle cx="18" cy="18" r="17.5" stroke="#A7A7A7"/>
<path d="M17.6227 19.0833L17.9738 19.4343L18.3273 19.0857L21.9173 15.5457L21.9188 15.5443C22.0124 15.4512 22.1392 15.3989 22.2713 15.3989C22.4028 15.3989 22.5289 15.4507 22.6225 15.5431C22.6683 15.5895 22.7045 15.6445 22.7292 15.7049C22.754 15.7658 22.7667 15.831 22.7663 15.8968L22.7662 15.8968L22.7663 15.9026C22.7667 15.9684 22.754 16.0336 22.7292 16.0946C22.7045 16.1548 22.6684 16.2097 22.6227 16.2561L18.3348 20.4941L18.3348 20.4941L18.3313 20.4976C18.2848 20.5445 18.2295 20.5817 18.1686 20.6071C18.1076 20.6324 18.0423 20.6455 17.9763 20.6455C17.9103 20.6455 17.8449 20.6324 17.784 20.6071C17.723 20.5817 17.6677 20.5445 17.6213 20.4976L17.6213 20.4976L17.6198 20.4962L13.3798 16.2562L13.3798 16.2562L13.3784 16.2547C13.3315 16.2082 13.2943 16.1529 13.2689 16.092C13.2435 16.0311 13.2305 15.9657 13.2305 15.8997C13.2305 15.8337 13.2435 15.7684 13.2689 15.7074C13.2943 15.6465 13.3315 15.5912 13.3784 15.5447L13.3788 15.5443C13.4724 15.4512 13.5992 15.3989 13.7313 15.3989C13.8632 15.3989 13.9897 15.451 14.0833 15.5439C14.0835 15.544 14.0836 15.5442 14.0838 15.5443L17.6227 19.0833Z" fill="#1F1F1F" stroke="#687684"/>
</svg>
