<svg width="24" height="24" viewBox="0 0 24 24" fill="none" xmlns="http://www.w3.org/2000/svg">
<path d="M5.58579 15.0001L6.29289 14.2929C6.10536 14.1054 5.851 14.0001 5.58579 14.0001V15.0001ZM5.58579 9.00005V10.0001C5.851 10.0001 6.10536 9.89469 6.29289 9.70716L5.58579 9.00005ZM10.2929 4.29294L11 5.00005L10.2929 4.29294ZM10.2929 19.7072L9.58579 20.4143L10.2929 19.7072ZM16.2929 13.2929C15.9024 13.6834 15.9024 14.3166 16.2929 14.7071C16.6834 15.0976 17.3166 15.0976 17.7071 14.7071L16.2929 13.2929ZM21.7071 10.7071C22.0976 10.3166 22.0976 9.68342 21.7071 9.29289C21.3166 8.90237 20.6834 8.90237 20.2929 9.29289L21.7071 10.7071ZM17.7071 9.29289C17.3166 8.90237 16.6834 8.90237 16.2929 9.29289C15.9024 9.68342 15.9024 10.3166 16.2929 10.7071L17.7071 9.29289ZM20.2929 14.7071C20.6834 15.0976 21.3166 15.0976 21.7071 14.7071C22.0976 14.3166 22.0976 13.6834 21.7071 13.2929L20.2929 14.7071ZM5.58579 14.0001H4V16.0001H5.58579V14.0001ZM4 14.0001H2C2 15.1046 2.89543 16.0001 4 16.0001V14.0001ZM4 14.0001V10.0001H2V14.0001H4ZM4 10.0001V8.00005C2.89543 8.00005 2 8.89548 2 10.0001H4ZM4 10.0001H5.58579V8.00005H4V10.0001ZM6.29289 9.70716L11 5.00005L9.58579 3.58584L4.87868 8.29294L6.29289 9.70716ZM11 5.00005V5.00005H13C13 3.21824 10.8457 2.32591 9.58579 3.58584L11 5.00005ZM11 5.00005V19.0001H13V5.00005H11ZM11 19.0001V19.0001L9.58579 20.4143C10.8457 21.6742 13 20.7819 13 19.0001H11ZM11 19.0001L6.29289 14.2929L4.87868 15.7072L9.58579 20.4143L11 19.0001ZM17.7071 14.7071L19.7071 12.7071L18.2929 11.2929L16.2929 13.2929L17.7071 14.7071ZM19.7071 12.7071L21.7071 10.7071L20.2929 9.29289L18.2929 11.2929L19.7071 12.7071ZM16.2929 10.7071L18.2929 12.7071L19.7071 11.2929L17.7071 9.29289L16.2929 10.7071ZM18.2929 12.7071L20.2929 14.7071L21.7071 13.2929L19.7071 11.2929L18.2929 12.7071Z" fill="#1F1F1F"/>
</svg>
