<svg width="20" height="20" viewBox="0 0 20 20" fill="none" xmlns="http://www.w3.org/2000/svg">
<path d="M5.12688 13.4595C4.73635 13.85 4.73635 14.4832 5.12688 14.8737C5.5174 15.2642 6.15057 15.2642 6.54109 14.8737L5.12688 13.4595ZM14.8744 6.54036C15.2649 6.14983 15.2649 5.51667 14.8744 5.12615C14.4839 4.73562 13.8507 4.73562 13.4602 5.12615L14.8744 6.54036ZM6.54109 5.12615C6.15057 4.73562 5.5174 4.73562 5.12688 5.12615C4.73635 5.51667 4.73635 6.14983 5.12688 6.54036L6.54109 5.12615ZM13.4602 14.8737C13.8507 15.2642 14.4839 15.2642 14.8744 14.8737C15.2649 14.4832 15.2649 13.85 14.8744 13.4595L13.4602 14.8737ZM6.54109 14.8737L14.8744 6.54036L13.4602 5.12615L5.12688 13.4595L6.54109 14.8737ZM5.12688 6.54036L13.4602 14.8737L14.8744 13.4595L6.54109 5.12615L5.12688 6.54036Z" fill="#687684"/>
</svg>
