<svg width="40" height="40" viewBox="0 0 40 40" fill="none" xmlns="http://www.w3.org/2000/svg">
<path d="M7.66699 26.6666C7.66699 26.1143 7.21928 25.6666 6.66699 25.6666C6.11471 25.6666 5.66699 26.1143 5.66699 26.6666L7.66699 26.6666ZM34.3337 26.6666C34.3337 26.1143 33.8859 25.6666 33.3337 25.6666C32.7814 25.6666 32.3337 26.1143 32.3337 26.6666L34.3337 26.6666ZM27.3741 20.707C27.7646 20.3165 27.7646 19.6833 27.3741 19.2928C26.9836 18.9023 26.3504 18.9023 25.9599 19.2928L27.3741 20.707ZM20.0003 26.6666L19.2932 27.3737C19.6837 27.7642 20.3169 27.7642 20.7074 27.3737L20.0003 26.6666ZM14.0408 19.2928C13.6502 18.9023 13.0171 18.9023 12.6266 19.2928C12.236 19.6833 12.236 20.3165 12.6266 20.707L14.0408 19.2928ZM21.0003 6.66659C21.0003 6.1143 20.5526 5.66659 20.0003 5.66659C19.448 5.66659 19.0003 6.1143 19.0003 6.66659L21.0003 6.66659ZM28.3337 32.3333L11.667 32.3333L11.667 34.3333L28.3337 34.3333L28.3337 32.3333ZM7.66699 28.3333L7.66699 26.6666L5.66699 26.6666L5.66699 28.3333L7.66699 28.3333ZM32.3337 26.6666L32.3337 28.3333L34.3337 28.3333L34.3337 26.6666L32.3337 26.6666ZM28.3337 34.3333C31.6474 34.3333 34.3337 31.647 34.3337 28.3333L32.3337 28.3333C32.3337 30.5424 30.5428 32.3333 28.3337 32.3333L28.3337 34.3333ZM11.667 32.3333C9.45785 32.3333 7.66699 30.5424 7.66699 28.3333L5.66699 28.3333C5.66699 31.647 8.35328 34.3333 11.667 34.3333L11.667 32.3333ZM25.9599 19.2928L19.2932 25.9595L20.7074 27.3737L27.3741 20.707L25.9599 19.2928ZM20.7074 25.9595L14.0408 19.2928L12.6266 20.707L19.2932 27.3737L20.7074 25.9595ZM21.0003 26.6666L21.0003 6.66659L19.0003 6.66659L19.0003 26.6666L21.0003 26.6666Z" fill="#687684"/>
</svg>
