<svg width="24" height="25" viewBox="0 0 24 25" fill="none" xmlns="http://www.w3.org/2000/svg">
<path d="M11.9763 13.5632L8.43627 10.0232C8.2489 9.83695 7.99545 9.73241 7.73127 9.73241C7.46708 9.73241 7.21363 9.83695 7.02627 10.0232C6.93254 10.1162 6.85814 10.2268 6.80738 10.3486C6.75661 10.4705 6.73047 10.6012 6.73047 10.7332C6.73047 10.8652 6.75661 10.9959 6.80738 11.1178C6.85814 11.2396 6.93254 11.3502 7.02627 11.4432L11.2663 15.6832C11.3592 15.7769 11.4698 15.8513 11.5917 15.9021C11.7135 15.9529 11.8443 15.979 11.9763 15.979C12.1083 15.979 12.239 15.9529 12.3608 15.9021C12.4827 15.8513 12.5933 15.7769 12.6863 15.6832L16.9763 11.4432C17.0689 11.3498 17.1423 11.2389 17.192 11.1171C17.2418 10.9953 17.267 10.8648 17.2663 10.7332C17.267 10.6016 17.2418 10.4711 17.192 10.3493C17.1423 10.2275 17.0689 10.1166 16.9763 10.0232C16.7889 9.83695 16.5355 9.73241 16.2713 9.73241C16.0071 9.73241 15.7536 9.83695 15.5663 10.0232L11.9763 13.5632Z" fill="#e4e4e4"/>
</svg>