<svg width="24" height="24" viewBox="0 0 24 24" fill="none" xmlns="http://www.w3.org/2000/svg">
<path d="M11.2393 1.89138C11.6385 1.42356 12.3615 1.42356 12.7607 1.89138L14.439 3.8581C14.6671 4.12535 15.0186 4.25331 15.3651 4.19518L17.915 3.7674C18.5215 3.66564 19.0753 4.13031 19.0804 4.7453L19.1019 7.3307C19.1048 7.68202 19.2919 8.00604 19.5947 8.18423L21.823 9.49554C22.353 9.80746 22.4785 10.5194 22.0871 10.9938L20.4417 12.9881C20.2182 13.2591 20.1532 13.6276 20.2706 13.9587L21.1347 16.3955C21.3402 16.9752 20.9787 17.6012 20.374 17.7131L17.8316 18.1832C17.4861 18.2471 17.1995 18.4876 17.0766 18.8167L16.1722 21.2388C15.957 21.815 15.2777 22.0622 14.7425 21.7592L12.4928 20.4851C12.1871 20.3119 11.8129 20.3119 11.5072 20.4851L9.25745 21.7592C8.7223 22.0622 8.04299 21.815 7.82785 21.2388L6.92339 18.8167C6.80049 18.4876 6.51388 18.2471 6.16841 18.1832L3.62602 17.7131C3.02126 17.6012 2.65981 16.9752 2.86534 16.3955L3.72941 13.9587C3.84682 13.6276 3.78185 13.2591 3.55826 12.9881L1.91287 10.9938C1.52147 10.5194 1.64701 9.80746 2.17704 9.49554L4.40532 8.18423C4.70811 8.00604 4.89518 7.68202 4.8981 7.3307L4.9196 4.7453C4.92471 4.13031 5.47848 3.66564 6.08502 3.7674L8.63487 4.19518C8.98136 4.25331 9.33294 4.12535 9.561 3.8581L11.2393 1.89138Z" fill="#1886FF"/>
<path d="M16.0063 8.58991C16.064 8.53099 16.1329 8.48418 16.209 8.45222C16.2851 8.42027 16.3667 8.40381 16.4492 8.40381C16.5317 8.40381 16.6134 8.42027 16.6895 8.45222C16.7655 8.48418 16.8345 8.53099 16.8922 8.58991C17.1342 8.83445 17.1376 9.2296 16.9007 9.47837L11.8974 15.393C11.8405 15.4554 11.7716 15.5055 11.6948 15.5403C11.6179 15.5751 11.5348 15.5939 11.4504 15.5955C11.3661 15.5971 11.2823 15.5814 11.2042 15.5495C11.1261 15.5176 11.0553 15.4701 10.9962 15.4099L7.95174 12.3248C7.83433 12.2051 7.76855 12.0441 7.76855 11.8764C7.76855 11.7087 7.83433 11.5476 7.95174 11.4279C8.00949 11.369 8.07841 11.3222 8.15447 11.2902C8.23053 11.2583 8.3122 11.2418 8.3947 11.2418C8.4772 11.2418 8.55887 11.2583 8.63493 11.2902C8.711 11.3222 8.77992 11.369 8.83766 11.4279L11.4201 14.0451L15.9894 8.60852C15.9946 8.60198 16.0003 8.59577 16.0063 8.58991Z" fill="white"/>
</svg>
