<svg width="16" height="16" viewBox="0 0 16 16" fill="none" xmlns="http://www.w3.org/2000/svg">
<path d="M7.23933 0.891383C7.63855 0.423561 8.36145 0.42356 8.76067 0.891383L9.67356 1.96113C9.90162 2.22838 10.2532 2.35634 10.5997 2.29821L11.9866 2.06553C12.5932 1.96377 13.1469 2.42845 13.152 3.04344L13.1637 4.4497C13.1667 4.80102 13.3537 5.12504 13.6565 5.30323L14.8685 6.01648C15.3986 6.3284 15.5241 7.04033 15.1327 7.51472L14.2377 8.59949C14.0141 8.8705 13.9492 9.23896 14.0666 9.57009L14.5366 10.8955C14.7421 11.4752 14.3807 12.1012 13.7759 12.2131L12.393 12.4688C12.0476 12.5327 11.761 12.7732 11.638 13.1023L11.1461 14.4197C10.9309 14.9959 10.2516 15.2431 9.71649 14.9401L8.49278 14.2471C8.18707 14.0739 7.81293 14.0739 7.50722 14.2471L6.28351 14.9401C5.74836 15.2431 5.06905 14.9959 4.85391 14.4197L4.36195 13.1023C4.23905 12.7732 3.95244 12.5327 3.60696 12.4688L2.22409 12.2131C1.61934 12.1012 1.25789 11.4752 1.46342 10.8955L1.93341 9.57009C2.05082 9.23896 1.98585 8.8705 1.76226 8.59949L0.867289 7.51472C0.475898 7.04033 0.601429 6.3284 1.13147 6.01648L2.34348 5.30323C2.64628 5.12504 2.83335 4.80102 2.83627 4.4497L2.84796 3.04344C2.85307 2.42845 3.40685 1.96377 4.01338 2.06553L5.40031 2.29821C5.7468 2.35634 6.09838 2.22838 6.32644 1.96113L7.23933 0.891383Z" fill="#1886FF"/>
<path d="M10.9139 5.51962C10.9559 5.47677 11.006 5.44273 11.0614 5.41949C11.1167 5.39625 11.1761 5.38428 11.2361 5.38428C11.2961 5.38428 11.3555 5.39625 11.4108 5.41949C11.4661 5.44273 11.5162 5.47677 11.5582 5.51962C11.7342 5.69747 11.7367 5.98485 11.5644 6.16578L7.92562 10.4673C7.8843 10.5127 7.83417 10.5491 7.77828 10.5745C7.72239 10.5998 7.66192 10.6134 7.60057 10.6146C7.53923 10.6158 7.47829 10.6044 7.42149 10.5812C7.36469 10.558 7.31322 10.5234 7.27023 10.4796L5.05608 8.23593C4.97068 8.14884 4.92285 8.03174 4.92285 7.90978C4.92285 7.78781 4.97068 7.67071 5.05608 7.58362C5.09807 7.54077 5.1482 7.50673 5.20352 7.48349C5.25883 7.46025 5.31823 7.44828 5.37823 7.44828C5.43823 7.44828 5.49763 7.46025 5.55295 7.48349C5.60826 7.50673 5.65839 7.54077 5.70039 7.58362L7.57854 9.48701L10.9016 5.53316C10.9054 5.5284 10.9096 5.52388 10.9139 5.51962Z" fill="white"/>
</svg>
