<svg width="24" height="24" viewBox="0 0 24 24" fill="none" xmlns="http://www.w3.org/2000/svg">
<path d="M14.9986 3.23002C14.8325 3.08368 14.6073 3 14.3704 3H9.62975C9.39265 3 9.16745 3.08368 9.00159 3.23002L4.26091 7.41258C4.09484 7.55893 4 7.75761 4 7.9668V20.2158C4 20.6497 4.39702 21 4.88889 21H19.1111C19.603 21 20 20.6497 20 20.2158V7.9668C20 7.75761 19.9052 7.55892 19.7393 7.41258L14.9986 3.23002ZM18 19H6V9L10 5H14L18 9V19Z" fill="#ffffff"/>
<path d="M12 7C10.3466 7 9 8.34663 9 10C9 11.6534 10.3466 13 12 13C13.6534 13 15 11.6534 15 10C15 8.34663 13.6534 7 12 7ZM12 11C11.4467 11 11 10.5533 11 10C11 9.44665 11.4467 9 12 9C12.5533 9 13 9.44665 13 10C13 10.5533 12.5533 11 12 11Z" fill="#ffffff"/>
</svg>