<svg width="24" height="24" viewBox="0 0 24 24" fill="none" xmlns="http://www.w3.org/2000/svg">
<path d="M23.082 7.22983C21.957 6.19108 20.4008 4.60483 19.1333 3.47983L19.0583 3.42733C18.9335 3.32712 18.7928 3.24853 18.642 3.19483C15.5858 2.62483 1.36203 -0.0339198 1.08453 -0.000169807C1.00677 0.0107202 0.93245 0.0389122 0.867031 0.0823302L0.795781 0.13858C0.708048 0.22768 0.641413 0.335322 0.600781 0.45358L0.582031 0.50233V0.76858V0.80983C2.18328 5.26858 8.50578 19.8748 9.75078 23.3023C9.82578 23.5348 9.96828 23.9773 10.2345 23.9998H10.2945C10.437 23.9998 11.0445 23.1973 11.0445 23.1973C11.0445 23.1973 21.9045 10.0273 23.0033 8.62483C23.1455 8.45207 23.2711 8.26624 23.3783 8.06983C23.4056 7.91615 23.3927 7.75801 23.3408 7.6108C23.2889 7.46359 23.1998 7.33234 23.082 7.22983ZM13.8308 8.76358L18.4658 4.91983L21.1845 7.42483L13.8308 8.76358ZM12.0308 8.51233L4.05078 1.97233L16.962 4.35358L12.0308 8.51233ZM12.7508 10.2261L20.9183 8.90983L11.5808 20.1598L12.7508 10.2261ZM2.96703 2.62483L11.3633 9.74983L10.1483 20.1673L2.96703 2.62483Z" fill="#FF060A"/>
</svg>
