<svg width="24" height="24" viewBox="0 0 24 24" fill="none" xmlns="http://www.w3.org/2000/svg">
<path d="M19 21L18.5039 21.8682C18.8134 22.0451 19.1936 22.0438 19.5019 21.8649C19.8102 21.686 20 21.3565 20 21H19ZM5 21H4C4 21.3565 4.18976 21.686 4.49807 21.8649C4.80639 22.0438 5.18664 22.0451 5.49614 21.8682L5 21ZM12 21L11.5039 21.8682C11.8113 22.0439 12.1887 22.0439 12.4961 21.8682L12 21ZM8.5 19L8.99614 18.1318C8.68871 17.9561 8.31129 17.9561 8.00386 18.1318L8.5 19ZM15.5 19L15.9961 18.1318C15.6887 17.9561 15.3113 17.9561 15.0039 18.1318L15.5 19ZM8.29289 13.2929C7.90237 13.6834 7.90237 14.3166 8.29289 14.7071C8.68342 15.0976 9.31658 15.0976 9.70711 14.7071L8.29289 13.2929ZM15.7071 8.70711C16.0976 8.31658 16.0976 7.68342 15.7071 7.29289C15.3166 6.90237 14.6834 6.90237 14.2929 7.29289L15.7071 8.70711ZM9.50003 7.5C8.94774 7.5 8.50003 7.94772 8.50003 8.5C8.50003 9.05228 8.94774 9.5 9.50003 9.5V7.5ZM9.51003 9.5C10.0623 9.5 10.51 9.05228 10.51 8.5C10.51 7.94772 10.0623 7.5 9.51003 7.5V9.5ZM14.5 12.5C13.9477 12.5 13.5 12.9477 13.5 13.5C13.5 14.0523 13.9477 14.5 14.5 14.5V12.5ZM14.51 14.5C15.0623 14.5 15.51 14.0523 15.51 13.5C15.51 12.9477 15.0623 12.5 14.51 12.5V14.5ZM7 4H17V2H7V4ZM18 5V21H20V5H18ZM6 21V5H4V21H6ZM12.4961 20.1318L8.99614 18.1318L8.00386 19.8682L11.5039 21.8682L12.4961 20.1318ZM8.00386 18.1318L4.50386 20.1318L5.49614 21.8682L8.99614 19.8682L8.00386 18.1318ZM19.4961 20.1318L15.9961 18.1318L15.0039 19.8682L18.5039 21.8682L19.4961 20.1318ZM15.0039 18.1318L11.5039 20.1318L12.4961 21.8682L15.9961 19.8682L15.0039 18.1318ZM17 4C17.5523 4 18 4.44772 18 5H20C20 3.34315 18.6569 2 17 2V4ZM7 2C5.34315 2 4 3.34315 4 5H6C6 4.44772 6.44772 4 7 4V2ZM9.70711 14.7071L15.7071 8.70711L14.2929 7.29289L8.29289 13.2929L9.70711 14.7071ZM9 8.5C9 8.22386 9.22386 8 9.5 8V10C10.3284 10 11 9.32843 11 8.5H9ZM9.5 8C9.77614 8 10 8.22386 10 8.5H8C8 9.32843 8.67157 10 9.5 10V8ZM10 8.5C10 8.77614 9.77614 9 9.5 9V7C8.67157 7 8 7.67157 8 8.5H10ZM9.5 9C9.22386 9 9 8.77614 9 8.5H11C11 7.67157 10.3284 7 9.5 7V9ZM9.50003 9.5H9.51003V7.5H9.50003V9.5ZM14.5 14.5H14.51V12.5H14.5V14.5ZM14 13.5C14 13.2239 14.2239 13 14.5 13V15C15.3284 15 16 14.3284 16 13.5H14ZM14.5 13C14.7761 13 15 13.2239 15 13.5H13C13 14.3284 13.6716 15 14.5 15V13ZM15 13.5C15 13.7761 14.7761 14 14.5 14V12C13.6716 12 13 12.6716 13 13.5H15ZM14.5 14C14.2239 14 14 13.7761 14 13.5H16C16 12.6716 15.3284 12 14.5 12V14Z" fill="#ffffff"/>
</svg>
