<svg width="139" height="40" viewBox="0 0 139 40" fill="none" xmlns="http://www.w3.org/2000/svg">
<path d="M133.852 40H5.14815C2.31795 40 0 37.7487 0 35V5C0 2.25125 2.31795 2.11397e-06 5.14815 2.11397e-06H133.852C136.682 2.11397e-06 139 2.25125 139 5V35C139 37.7487 136.682 40 133.852 40Z" fill="#1F1F1F"/>
<path d="M44.6058 13.9129H42.2939V7.78598H44.6143C45.1375 7.78598 45.5602 7.9261 45.8826 8.20633C46.2078 8.48656 46.3705 8.85596 46.3705 9.31452C46.3705 9.63438 46.2672 9.92451 46.0608 10.1849C45.8572 10.4425 45.6083 10.5982 45.3142 10.652V10.686C45.7299 10.7397 46.0608 10.9025 46.3068 11.1742C46.5557 11.446 46.6801 11.7856 46.6801 12.1933C46.6801 12.7339 46.4963 13.1557 46.1287 13.4585C45.7639 13.7614 45.2562 13.9129 44.6058 13.9129ZM43.0575 8.46109V10.4269H44.2028C44.6553 10.4269 45.0003 10.3392 45.2379 10.1637C45.4782 9.9882 45.5984 9.73486 45.5984 9.40368C45.5984 9.10081 45.498 8.86869 45.2972 8.70735C45.0965 8.54317 44.8108 8.46109 44.4404 8.46109H43.0575ZM43.0575 13.2378H44.4913C44.9522 13.2378 45.3015 13.1458 45.539 12.9618C45.7766 12.7778 45.8954 12.5089 45.8954 12.155C45.8954 11.4417 45.4033 11.0851 44.4192 11.0851H43.0575V13.2378Z" fill="white"/>
<path d="M51.3378 13.225V13.9129H47.5455V7.78598H51.3378V8.47382H48.309V10.4397H51.1808V11.119H48.309V13.225H51.3378Z" fill="white"/>
<path d="M54.8671 14.0148C54.0215 14.0148 53.3499 13.7303 52.8521 13.1613C52.3572 12.5895 52.1098 11.8182 52.1098 10.8473C52.1098 9.88489 52.3601 9.11779 52.8606 8.546C53.3612 7.97139 54.03 7.68408 54.8671 7.68408C55.5345 7.68408 56.1001 7.8709 56.5638 8.24454C57.0305 8.61535 57.3118 9.10647 57.408 9.71788H56.636C56.537 9.31593 56.3263 8.99466 56.0039 8.75405C55.6815 8.51062 55.3026 8.38891 54.8671 8.38891C54.2704 8.38891 53.7924 8.61252 53.4333 9.05976C53.0741 9.507 52.8946 10.1028 52.8946 10.8473C52.8946 11.6002 53.0727 12.1989 53.429 12.6433C53.7854 13.0877 54.2661 13.3099 54.8713 13.3099C55.321 13.3099 55.6999 13.2066 56.0081 13C56.3164 12.7933 56.5257 12.5032 56.636 12.1296H57.408C57.2666 12.7353 56.9767 13.201 56.5384 13.5265C56.1001 13.852 55.5429 14.0148 54.8671 14.0148Z" fill="white"/>
<path d="M58.8333 8.53751C59.3395 7.96856 60.0267 7.68408 60.8949 7.68408C61.7631 7.68408 62.4502 7.96856 62.9565 8.53751C63.4627 9.10647 63.7158 9.87781 63.7158 10.8515C63.7158 11.8253 63.4627 12.5966 62.9565 13.1656C62.4502 13.7317 61.7631 14.0148 60.8949 14.0148C60.0267 14.0148 59.3395 13.7317 58.8333 13.1656C58.3271 12.5966 58.074 11.8253 58.074 10.8515C58.074 9.87781 58.3271 9.10647 58.8333 8.53751ZM62.3795 9.05552C62.0147 8.61111 61.5198 8.38891 60.8949 8.38891C60.2699 8.38891 59.7736 8.61111 59.4059 9.05552C59.0411 9.49709 58.8587 10.0958 58.8587 10.8515C58.8587 11.6045 59.0411 12.2032 59.4059 12.6476C59.7736 13.0891 60.2699 13.3099 60.8949 13.3099C61.5198 13.3099 62.0147 13.0891 62.3795 12.6476C62.7472 12.2032 62.931 11.6045 62.931 10.8515C62.931 10.0958 62.7472 9.49709 62.3795 9.05552Z" fill="white"/>
<path d="M70.698 13.9129H69.9854V9.19138H69.9557L68.0044 13.8704H67.3596L65.4083 9.19138H65.3786V13.9129H64.666V7.78598H65.5525L67.665 12.8981H67.6989L69.8114 7.78598H70.698V13.9129Z" fill="white"/>
<path d="M75.678 13.225V13.9129H71.8857V7.78598H75.678V8.47382H72.6493V10.4397H75.5211V11.119H72.6493V13.225H75.678Z" fill="white"/>
<path d="M80.7811 13.9129H80.0175V8.47382H78.0875V7.78598H82.7112V8.47382H80.7811V13.9129Z" fill="white"/>
<path d="M83.6571 8.53751C84.1633 7.96856 84.8505 7.68408 85.7187 7.68408C86.5869 7.68408 87.2741 7.96856 87.7803 8.53751C88.2865 9.10647 88.5396 9.87781 88.5396 10.8515C88.5396 11.8253 88.2865 12.5966 87.7803 13.1656C87.2741 13.7317 86.5869 14.0148 85.7187 14.0148C84.8505 14.0148 84.1633 13.7317 83.6571 13.1656C83.1509 12.5966 82.8978 11.8253 82.8978 10.8515C82.8978 9.87781 83.1509 9.10647 83.6571 8.53751ZM87.2034 9.05552C86.8386 8.61111 86.3437 8.38891 85.7187 8.38891C85.0937 8.38891 84.5974 8.61111 84.2298 9.05552C83.865 9.49709 83.6826 10.0958 83.6826 10.8515C83.6826 11.6045 83.865 12.2032 84.2298 12.6476C84.5974 13.0891 85.0937 13.3099 85.7187 13.3099C86.3437 13.3099 86.8386 13.0891 87.2034 12.6476C87.571 12.2032 87.7549 11.6045 87.7549 10.8515C87.7549 10.0958 87.571 9.49709 87.2034 9.05552Z" fill="white"/>
<path d="M93.5833 13.9129H92.8197V8.47382H90.8896V7.78598H95.5134V8.47382H93.5833V13.9129Z" fill="white"/>
<path d="M100.112 13.225V13.9129H96.3193V7.78598H100.112V8.47382H97.0829V10.4397H99.9547V11.119H97.0829V13.225H100.112Z" fill="white"/>
<path d="M100.829 12.2272H101.596C101.633 12.5584 101.794 12.8245 102.08 13.0255C102.368 13.2264 102.732 13.3269 103.17 13.3269C103.583 13.3269 103.924 13.2293 104.192 13.0339C104.464 12.8358 104.6 12.5867 104.6 12.2867C104.6 12.0291 104.505 11.8168 104.315 11.6498C104.129 11.4828 103.829 11.3455 103.416 11.2379L102.631 11.0341C102.066 10.8898 101.653 10.6888 101.393 10.4312C101.133 10.1708 101.002 9.83252 101.002 9.41642C101.002 8.90691 101.203 8.49081 101.605 8.16812C102.009 7.84543 102.53 7.68408 103.166 7.68408C103.774 7.68408 104.277 7.84826 104.676 8.17661C105.075 8.50213 105.283 8.92106 105.3 9.4334H104.536C104.502 9.10505 104.361 8.84605 104.112 8.6564C103.863 8.46675 103.539 8.37192 103.14 8.37192C102.744 8.37192 102.421 8.46533 102.169 8.65215C101.92 8.83897 101.796 9.08241 101.796 9.38245C101.796 9.61456 101.886 9.80563 102.067 9.95565C102.251 10.1028 102.551 10.2302 102.966 10.3378L103.607 10.5076C104.24 10.6661 104.696 10.877 104.973 11.1403C105.25 11.4035 105.389 11.7545 105.389 12.1933C105.389 12.7537 105.182 13.1981 104.769 13.5265C104.359 13.852 103.802 14.0148 103.098 14.0148C102.448 14.0148 101.916 13.852 101.503 13.5265C101.09 13.201 100.865 12.7679 100.829 12.2272Z" fill="white"/>
<path d="M108.591 13.9129H107.828V8.47382H105.898V7.78598H110.521V8.47382H108.591V13.9129Z" fill="white"/>
<path d="M70.1527 21.7526C67.7343 21.7526 65.7587 23.5401 65.7587 26.0064C65.7587 28.4526 67.7343 30.2589 70.1527 30.2589C72.5762 30.2589 74.5518 28.4526 74.5518 26.0064C74.5518 23.5401 72.5762 21.7526 70.1527 21.7526ZM70.1527 28.5839C68.8258 28.5839 67.6842 27.5201 67.6842 26.0064C67.6842 24.4726 68.8258 23.4276 70.1527 23.4276C71.4796 23.4276 72.6264 24.4726 72.6264 26.0064C72.6264 27.5201 71.4796 28.5839 70.1527 28.5839ZM60.5655 21.7526C58.1421 21.7526 56.1716 23.5401 56.1716 26.0064C56.1716 28.4526 58.1421 30.2589 60.5655 30.2589C62.9878 30.2589 64.9595 28.4526 64.9595 26.0064C64.9595 23.5401 62.9878 21.7526 60.5655 21.7526ZM60.5655 28.5839C59.2373 28.5839 58.0919 27.5201 58.0919 26.0064C58.0919 24.4726 59.2373 23.4276 60.5655 23.4276C61.8925 23.4276 63.0341 24.4726 63.0341 26.0064C63.0341 27.5201 61.8925 28.5839 60.5655 28.5839ZM49.1573 23.0564V24.8639H53.6014C53.4714 25.8739 53.1239 26.6164 52.5911 27.1339C51.9424 27.7589 50.9321 28.4526 49.1573 28.4526C46.4223 28.4526 44.2807 26.3089 44.2807 23.6526C44.2807 20.9964 46.4223 18.8526 49.1573 18.8526C50.6361 18.8526 51.712 19.4139 52.5061 20.1414L53.8176 18.8676C52.7069 17.8376 51.2294 17.0464 49.1573 17.0464C45.4068 17.0464 42.2549 20.0101 42.2549 23.6526C42.2549 27.2951 45.4068 30.2589 49.1573 30.2589C51.1843 30.2589 52.7069 29.6139 53.9038 28.4039C55.1304 27.2126 55.5126 25.5376 55.5126 24.1851C55.5126 23.7651 55.4766 23.3789 55.4123 23.0564H49.1573ZM95.8072 24.4576C95.4455 23.5064 94.3297 21.7526 92.0568 21.7526C89.8044 21.7526 87.9292 23.4764 87.9292 26.0064C87.9292 28.3889 89.7851 30.2589 92.273 30.2589C94.2846 30.2589 95.4455 29.0676 95.923 28.3739L94.4301 27.4076C93.932 28.1151 93.2537 28.5839 92.273 28.5839C91.2987 28.5839 90.5998 28.1501 90.1519 27.2951L96.0093 24.9414L95.8072 24.4576ZM89.8353 25.8739C89.7851 24.2339 91.1468 23.3939 92.1224 23.3939C92.8869 23.3939 93.5356 23.7651 93.7518 24.2964L89.8353 25.8739ZM85.0746 30.0001H87V17.5001H85.0746V30.0001ZM81.9214 22.7001H81.857C81.4245 22.2026 80.5996 21.7526 79.5545 21.7526C77.3614 21.7526 75.3562 23.6226 75.3562 26.0201C75.3562 28.4039 77.3614 30.2589 79.5545 30.2589C80.5996 30.2589 81.4245 29.8051 81.857 29.2926H81.9214V29.9026C81.9214 31.5289 81.0269 32.4026 79.5841 32.4026C78.4077 32.4026 77.678 31.5776 77.3768 30.8839L75.7024 31.5626C76.185 32.6901 77.4631 34.0776 79.5841 34.0776C81.8416 34.0776 83.7464 32.7876 83.7464 29.6489V22.0114H81.9214V22.7001ZM79.7192 28.5839C78.3923 28.5839 77.2816 27.5051 77.2816 26.0201C77.2816 24.5214 78.3923 23.4276 79.7192 23.4276C81.0269 23.4276 82.0578 24.5214 82.0578 26.0201C82.0578 27.5051 81.0269 28.5839 79.7192 28.5839ZM104.822 17.5001H100.217V30.0001H102.137V25.2639H104.822C106.954 25.2639 109.046 23.7651 109.046 21.3814C109.046 18.9989 106.949 17.5001 104.822 17.5001ZM104.872 23.5251H102.137V19.2389H104.872C106.306 19.2389 107.124 20.3951 107.124 21.3814C107.124 22.3489 106.306 23.5251 104.872 23.5251ZM116.742 21.7289C115.355 21.7289 113.912 22.3239 113.319 23.6426L115.023 24.3364C115.389 23.6426 116.064 23.4176 116.777 23.4176C117.773 23.4176 118.783 23.9989 118.799 25.0251V25.1564C118.451 24.9614 117.707 24.6726 116.792 24.6726C114.957 24.6726 113.087 25.6539 113.087 27.4851C113.087 29.1601 114.59 30.2389 116.28 30.2389C117.572 30.2389 118.285 29.6726 118.733 29.0139H118.799V29.9801H120.653V25.1851C120.653 22.9689 118.949 21.7289 116.742 21.7289ZM116.51 28.5789C115.882 28.5789 115.007 28.2764 115.007 27.5201C115.007 26.5526 116.099 26.1814 117.043 26.1814C117.889 26.1814 118.285 26.3626 118.799 26.6014C118.648 27.7589 117.622 28.5789 116.51 28.5789ZM127.41 22.0026L125.203 27.4214H125.137L122.856 22.0026H120.785L124.213 29.5751L122.257 33.7889H124.264L129.547 22.0026H127.41ZM110.101 30.0001H112.026V17.5001H110.101V30.0001Z" fill="white"/>
<path d="M10.7441 7.53917C10.4416 7.84668 10.2666 8.32542 10.2666 8.94542V31.0604C10.2666 31.6804 10.4416 32.1592 10.7441 32.4667L10.8187 32.5342L23.5784 20.1467V19.8542L10.8187 7.46668L10.7441 7.53917Z" fill="url(#paint0_linear_1965_15425)"/>
<path d="M27.8276 24.2778L23.5791 20.1466V19.8541L27.8328 15.7228L27.928 15.7766L32.9655 18.5603C34.4031 19.3503 34.4031 20.6503 32.9655 21.4453L27.928 24.2241L27.8276 24.2778Z" fill="url(#paint1_linear_1965_15425)"/>
<path d="M27.9264 24.2235L23.5775 19.9997L10.7432 32.466C11.2207 32.9535 11.9993 33.0122 12.8848 32.5247L27.9264 24.2235Z" fill="url(#paint2_linear_1965_15425)"/>
<path d="M27.9264 15.7763L12.8848 7.475C11.9993 6.9925 11.2207 7.05125 10.7432 7.53875L23.5775 20L27.9264 15.7763Z" fill="url(#paint3_linear_1965_15425)"/>
<defs>
<linearGradient id="paint0_linear_1965_15425" x1="22.4455" y1="31.2907" x2="5.67027" y2="14.0184" gradientUnits="userSpaceOnUse">
<stop stop-color="#00A0FF"/>
<stop offset="0.0066" stop-color="#00A1FF"/>
<stop offset="0.2601" stop-color="#00BEFF"/>
<stop offset="0.5122" stop-color="#00D2FF"/>
<stop offset="0.7604" stop-color="#00DFFF"/>
<stop offset="1" stop-color="#00E3FF"/>
</linearGradient>
<linearGradient id="paint1_linear_1965_15425" x1="34.8375" y1="19.9989" x2="9.92364" y2="19.9989" gradientUnits="userSpaceOnUse">
<stop stop-color="#FFE000"/>
<stop offset="0.4087" stop-color="#FFBD00"/>
<stop offset="0.7754" stop-color="#FFA500"/>
<stop offset="1" stop-color="#FF9C00"/>
</linearGradient>
<linearGradient id="paint2_linear_1965_15425" x1="25.5616" y1="17.7036" x2="2.81299" y2="-5.719" gradientUnits="userSpaceOnUse">
<stop stop-color="#FF3A44"/>
<stop offset="1" stop-color="#C31162"/>
</linearGradient>
<linearGradient id="paint3_linear_1965_15425" x1="7.5125" y1="39.8238" x2="17.6708" y2="29.3646" gradientUnits="userSpaceOnUse">
<stop stop-color="#32A071"/>
<stop offset="0.0685" stop-color="#2DA771"/>
<stop offset="0.4762" stop-color="#15CF74"/>
<stop offset="0.8009" stop-color="#06E775"/>
<stop offset="1" stop-color="#00F076"/>
</linearGradient>
</defs>
</svg>
