<svg width="30" height="30" viewBox="0 0 30 30" fill="none" xmlns="http://www.w3.org/2000/svg">
<rect x="0.5" y="0.500977" width="29" height="29" rx="14.5" stroke="#E4E4E4"/>
<path d="M19.8731 11.5413C20.2636 11.1507 20.2636 10.5176 19.8731 10.127C19.4826 9.73652 18.8494 9.73652 18.4589 10.127L19.8731 11.5413ZM10.1256 18.4604C9.73505 18.8509 9.73505 19.4841 10.1256 19.8746C10.5161 20.2651 11.1493 20.2651 11.5398 19.8746L10.1256 18.4604ZM18.4589 19.8746C18.8494 20.2651 19.4826 20.2651 19.8731 19.8746C20.2636 19.4841 20.2636 18.8509 19.8731 18.4604L18.4589 19.8746ZM11.5398 10.127C11.1493 9.73652 10.5161 9.73652 10.1256 10.127C9.73505 10.5176 9.73505 11.1507 10.1256 11.5413L11.5398 10.127ZM18.4589 10.127L10.1256 18.4604L11.5398 19.8746L19.8731 11.5413L18.4589 10.127ZM19.8731 18.4604L11.5398 10.127L10.1256 11.5413L18.4589 19.8746L19.8731 18.4604Z" fill="#A7A7A7"/>
</svg>
