<svg width="20" height="20" viewBox="0 0 20 20" fill="none" xmlns="http://www.w3.org/2000/svg">
<path d="M13.4583 14.8736C13.8488 15.2641 14.4819 15.2641 14.8725 14.8736C15.263 14.4831 15.263 13.8499 14.8725 13.4594L13.4583 14.8736ZM6.53914 5.12606C6.14861 4.73554 5.51545 4.73554 5.12492 5.12606C4.7344 5.51659 4.7344 6.14975 5.12492 6.54028L6.53914 5.12606ZM5.12492 13.4594C4.7344 13.8499 4.7344 14.4831 5.12492 14.8736C5.51545 15.2641 6.14861 15.2641 6.53914 14.8736L5.12492 13.4594ZM14.8725 6.54028C15.263 6.14975 15.263 5.51659 14.8725 5.12606C14.4819 4.73554 13.8488 4.73554 13.4583 5.12606L14.8725 6.54028ZM14.8725 13.4594L6.53914 5.12606L5.12492 6.54028L13.4583 14.8736L14.8725 13.4594ZM6.53914 14.8736L14.8725 6.54028L13.4583 5.12606L5.12492 13.4594L6.53914 14.8736Z" fill="#687684"/>
</svg>
