<svg width="24" height="24" viewBox="0 0 24 24" fill="none" xmlns="http://www.w3.org/2000/svg">
<path fill-rule="evenodd" clip-rule="evenodd" d="M4.6875 6.00007C4.6875 5.92429 4.71713 5.85162 4.76988 5.79803C4.82262 5.74445 4.89416 5.71435 4.96875 5.71435H14.5312C14.6058 5.71435 14.6774 5.74445 14.7301 5.79803C14.7829 5.85162 14.8125 5.92429 14.8125 6.00007V12.286C14.8125 12.3618 14.7829 12.4345 14.7301 12.4881C14.6774 12.5416 14.6058 12.5717 14.5312 12.5717H10.5938C10.37 12.5719 10.1556 12.6624 9.9975 12.8232L6.9375 15.9319V13.4289C6.9375 13.2016 6.84861 12.9836 6.69037 12.8228C6.53214 12.662 6.31753 12.5717 6.09375 12.5717H4.96875C4.89416 12.5717 4.82262 12.5416 4.76988 12.4881C4.71713 12.4345 4.6875 12.3618 4.6875 12.286V6.00007ZM4.96875 4C4.44661 4 3.94585 4.21072 3.57663 4.58581C3.20742 4.96089 3 5.46962 3 6.00007L3 12.286C3 13.3901 3.882 14.2861 4.96875 14.2861H5.25V16.0496C5.25011 16.3788 5.34631 16.7007 5.52642 16.9744C5.70654 17.2481 5.9625 17.4615 6.26194 17.5875C6.56138 17.7135 6.89086 17.7464 7.20875 17.6822C7.52663 17.618 7.81864 17.4595 8.04787 17.2268L10.9436 14.2861H14.5312C15.0534 14.2861 15.5542 14.0754 15.9234 13.7003C16.2926 13.3252 16.5 12.8165 16.5 12.286V6.00007C16.5 5.46962 16.2926 4.96089 15.9234 4.58581C15.5542 4.21072 15.0534 4 14.5312 4H4.96875ZM19.3125 8.28587C19.3125 8.21009 19.2829 8.13742 19.2301 8.08383C19.1774 8.03025 19.1058 8.00015 19.0312 8.00015H18.4688C18.245 8.00015 18.0304 7.90984 17.8721 7.74908C17.7139 7.58833 17.625 7.37031 17.625 7.14297C17.625 6.91563 17.7139 6.69761 17.8721 6.53686C18.0304 6.37611 18.245 6.2858 18.4688 6.2858H19.0312C20.118 6.2858 21 7.18183 21 8.28587V14.5718C21 15.1023 20.7926 15.611 20.4234 15.9861C20.0542 16.3612 19.5534 16.5719 19.0312 16.5719H18.75V18.3354C18.7499 18.6646 18.6537 18.9865 18.4736 19.2602C18.2935 19.5339 18.0375 19.7473 17.7381 19.8733C17.4386 19.9993 17.1091 20.0322 16.7913 19.968C16.4734 19.9038 16.1814 19.7453 15.9521 19.5126L13.3725 16.8919C13.2896 16.8134 13.2231 16.7188 13.177 16.6136C13.1309 16.5085 13.1061 16.395 13.1041 16.2799C13.1021 16.1648 13.1229 16.0505 13.1654 15.9438C13.2078 15.837 13.271 15.7401 13.3511 15.6587C13.4312 15.5773 13.5266 15.5131 13.6317 15.47C13.7368 15.4269 13.8493 15.4057 13.9626 15.4077C14.0759 15.4098 14.1876 15.435 14.2911 15.4818C14.3946 15.5287 14.4878 15.5962 14.565 15.6804L17.0625 18.2177V15.7147C17.0625 15.4874 17.1514 15.2694 17.3096 15.1086C17.4679 14.9478 17.6825 14.8575 17.9062 14.8575H19.0312C19.1058 14.8575 19.1774 14.8274 19.2301 14.7739C19.2829 14.7203 19.3125 14.6476 19.3125 14.5718V8.28587Z" fill="#1886FF"/>
</svg>
