<svg width="18" height="20" viewBox="0 0 18 20" fill="none" xmlns="http://www.w3.org/2000/svg">
<path d="M16.0797 10.42L9.89967 16.61C9.08949 17.33 8.03482 17.7132 6.95139 17.6814C5.86797 17.6495 4.83767 17.2048 4.07124 16.4384C3.30482 15.672 2.86018 14.6417 2.82829 13.5582C2.7964 12.4748 3.17966 11.4202 3.89967 10.61L11.8997 2.60997C12.3773 2.15627 13.0109 1.9033 13.6697 1.9033C14.3284 1.9033 14.962 2.15627 15.4397 2.60997C15.905 3.08156 16.1659 3.71744 16.1659 4.37997C16.1659 5.0425 15.905 5.67838 15.4397 6.14997L8.53967 13.04C8.47138 13.1135 8.38928 13.1729 8.29805 13.2147C8.20682 13.2565 8.10824 13.2799 8.00796 13.2836C7.90767 13.2874 7.80763 13.2713 7.71356 13.2363C7.61948 13.2014 7.53321 13.1483 7.45967 13.08C7.38613 13.0117 7.32676 12.9296 7.28495 12.8383C7.24314 12.7471 7.21971 12.6485 7.216 12.5483C7.21228 12.448 7.22836 12.3479 7.2633 12.2539C7.29825 12.1598 7.35138 12.0735 7.41967 12L12.5497 6.87997C12.738 6.69166 12.8438 6.43627 12.8438 6.16997C12.8438 5.90367 12.738 5.64827 12.5497 5.45997C12.3614 5.27166 12.106 5.16588 11.8397 5.16588C11.5734 5.16588 11.318 5.27166 11.1297 5.45997L5.99967 10.6C5.74298 10.8547 5.53924 11.1577 5.4002 11.4915C5.26117 11.8253 5.18959 12.1834 5.18959 12.545C5.18959 12.9066 5.26117 13.2646 5.4002 13.5984C5.53924 13.9323 5.74298 14.2353 5.99967 14.49C6.52404 14.9895 7.22048 15.2681 7.94467 15.2681C8.66886 15.2681 9.3653 14.9895 9.88967 14.49L16.7797 7.58997C17.5746 6.73692 18.0073 5.60864 17.9867 4.44283C17.9662 3.27703 17.4939 2.16472 16.6694 1.34024C15.8449 0.515759 14.7326 0.0434872 13.5668 0.0229179C12.401 0.00234858 11.2727 0.435088 10.4197 1.22997L2.41967 9.22997C1.34087 10.4248 0.7647 11.9898 0.811205 13.5989C0.85771 15.2081 1.5233 16.7372 2.66931 17.8677C3.81532 18.9983 5.35335 19.643 6.96296 19.6677C8.57256 19.6923 10.1296 19.0949 11.3097 18L17.4997 11.82C17.5929 11.7267 17.6669 11.616 17.7173 11.4942C17.7678 11.3724 17.7938 11.2418 17.7938 11.11C17.7938 10.9781 17.7678 10.8475 17.7173 10.7257C17.6669 10.6039 17.5929 10.4932 17.4997 10.4C17.4064 10.3067 17.2957 10.2328 17.1739 10.1823C17.0521 10.1318 16.9215 10.1059 16.7897 10.1059C16.6578 10.1059 16.5272 10.1318 16.4054 10.1823C16.2836 10.2328 16.1729 10.3067 16.0797 10.4V10.42Z" fill="#7B7B7B"/>
</svg>
