<svg width="18" height="18" viewBox="0 0 18 18" fill="none" xmlns="http://www.w3.org/2000/svg">
<path d="M1.00266 8.62097C0.901636 8.8655 0.901637 9.14011 1.00266 9.38464C1.05144 9.50589 1.12351 9.61639 1.2148 9.70991L8.28586 16.781C8.4734 16.9685 8.72775 17.0739 8.99297 17.0739C9.25819 17.0739 9.51254 16.9685 9.70008 16.781C9.88761 16.5934 9.99297 16.3391 9.99297 16.0739C9.99297 15.8087 9.88761 15.5543 9.70008 15.3668L4.33314 9.99983L16.064 10.0069C16.196 10.0074 16.3269 9.98184 16.4489 9.93157C16.571 9.8813 16.6819 9.80736 16.7752 9.71401C16.8686 9.62067 16.9425 9.50976 16.9928 9.38769C17.0431 9.26563 17.0687 9.13482 17.0681 9.00281C17.0687 8.8708 17.0431 8.73998 16.9928 8.61792C16.9425 8.49585 16.8686 8.38495 16.7752 8.2916C16.6819 8.19825 16.571 8.12431 16.4489 8.07404C16.3269 8.02377 16.196 7.99817 16.064 7.99872L4.33314 8.00579L9.70008 2.63885C9.88761 2.45131 9.99297 2.19695 9.99297 1.93174C9.99297 1.66652 9.88761 1.41217 9.70008 1.22463C9.51254 1.0371 9.25819 0.931737 8.99297 0.931737C8.72775 0.931737 8.4734 1.0371 8.28586 1.22463L1.2148 8.2957C1.12351 8.38922 1.05144 8.49973 1.00266 8.62097Z" fill="#4D4D4D"/>
</svg>
