<svg width="60" height="60" viewBox="0 0 60 60" fill="none" xmlns="http://www.w3.org/2000/svg">
<path d="M30 30H32C32 28.8954 31.1046 28 30 28V30ZM30 40L28 40C28 41.1046 28.8954 42 30 42L30 40ZM32.5 42C33.6046 42 34.5 41.1046 34.5 40C34.5 38.8954 33.6046 38 32.5 38L32.5 42ZM27.5 28C26.3954 28 25.5 28.8954 25.5 30C25.5 31.1046 26.3954 32 27.5 32V28ZM30 18C28.8954 18 28 18.8954 28 20C28 21.1046 28.8954 22 30 22L30 18ZM30.025 22C31.1296 22 32.025 21.1046 32.025 20C32.025 18.8954 31.1296 18 30.025 18L30.025 22ZM28 30V40L32 40V30H28ZM30 42H32.5L32.5 38H30L30 42ZM30 28H27.5V32H30V28ZM50.5 30C50.5 41.3218 41.3218 50.5 30 50.5V54.5C43.531 54.5 54.5 43.531 54.5 30H50.5ZM30 50.5C18.6782 50.5 9.5 41.3218 9.5 30H5.5C5.5 43.531 16.469 54.5 30 54.5V50.5ZM9.5 30C9.5 18.6782 18.6782 9.5 30 9.5V5.5C16.469 5.5 5.5 16.469 5.5 30H9.5ZM30 9.5C41.3218 9.5 50.5 18.6782 50.5 30H54.5C54.5 16.469 43.531 5.5 30 5.5V9.5ZM30 22H30.025L30.025 18H30L30 22Z" fill="#E4E4E4"/>
</svg>
