<svg width="24" height="24" viewBox="0 0 24 24" fill="none" xmlns="http://www.w3.org/2000/svg">
<path d="M19 21L18.5528 21.8944C18.8628 22.0494 19.2309 22.0329 19.5257 21.8507C19.8205 21.6684 20 21.3466 20 21H19ZM5 21H4C4 21.3466 4.17945 21.6684 4.47427 21.8507C4.76909 22.0329 5.13723 22.0494 5.44721 21.8944L5 21ZM12 17.5L12.4472 16.6056C12.1657 16.4648 11.8343 16.4648 11.5528 16.6056L12 17.5ZM7 4H17V2H7V4ZM18 5V21H20V5H18ZM6 21V5H4V21H6ZM19.4472 20.1056L12.4472 16.6056L11.5528 18.3944L18.5528 21.8944L19.4472 20.1056ZM11.5528 16.6056L4.55279 20.1056L5.44721 21.8944L12.4472 18.3944L11.5528 16.6056ZM17 4C17.5523 4 18 4.44772 18 5H20C20 3.34315 18.6569 2 17 2V4ZM7 2C5.34315 2 4 3.34315 4 5H6C6 4.44772 6.44772 4 7 4V2Z" fill="#687684"/>
</svg>
