<svg width="20" height="20" viewBox="0 0 20 20" fill="none" xmlns="http://www.w3.org/2000/svg">
<path d="M3.33301 4C2.78072 4 2.33301 4.44772 2.33301 5C2.33301 5.55228 2.78072 6 3.33301 6V4ZM16.6663 6C17.2186 6 17.6663 5.55228 17.6663 5C17.6663 4.44772 17.2186 4 16.6663 4V6ZM3.33301 7.33333C2.78072 7.33333 2.33301 7.78105 2.33301 8.33333C2.33301 8.88562 2.78072 9.33333 3.33301 9.33333V7.33333ZM16.6663 9.33333C17.2186 9.33333 17.6663 8.88562 17.6663 8.33333C17.6663 7.78105 17.2186 7.33333 16.6663 7.33333V9.33333ZM3.33301 10.6667C2.78072 10.6667 2.33301 11.1144 2.33301 11.6667C2.33301 12.219 2.78072 12.6667 3.33301 12.6667V10.6667ZM16.6663 12.6667C17.2186 12.6667 17.6663 12.219 17.6663 11.6667C17.6663 11.1144 17.2186 10.6667 16.6663 10.6667V12.6667ZM3.33301 14C2.78072 14 2.33301 14.4477 2.33301 15C2.33301 15.5523 2.78072 16 3.33301 16V14ZM16.6663 16C17.2186 16 17.6663 15.5523 17.6663 15C17.6663 14.4477 17.2186 14 16.6663 14V16ZM3.33301 6H16.6663V4H3.33301V6ZM3.33301 9.33333H16.6663V7.33333H3.33301V9.33333ZM3.33301 12.6667H16.6663V10.6667H3.33301V12.6667ZM3.33301 16H16.6663V14H3.33301V16Z" fill="#687684"/>
</svg>
