<svg width="532" height="186" viewBox="0 0 532 186" fill="none" xmlns="http://www.w3.org/2000/svg">
<path d="M179 17.7139L252.34 52.7734L263.77 186L179 137.417V17.7139Z" fill="#288AF2"/>
<path d="M201.309 0L263.771 60.6522V186L201.309 133.435V0Z" fill="#2379D5"/>
<path d="M353 17.7139L275.8 52.7734L263.768 186L353 137.417V17.7139Z" fill="#25AAFF"/>
<path d="M321.77 0L263.769 60.6522V186L321.77 133.435V0Z" fill="#2A91FF"/>
<path d="M76.6602 167.125C108.984 167.125 131.055 146.812 131.055 116.93C131.055 89.4883 111.719 69.6641 84.7656 69.6641C70.4102 69.6641 59.1797 75.6211 53.418 85.0938H52.832L56.0547 46.5195H122.559V23.082H32.9102L25.9766 104.137H52.3438C57.2266 96.0312 66.4062 91.1484 77.0508 91.1484C92.2852 91.1484 102.93 102.086 102.93 117.711C102.93 133.043 92.2852 143.785 76.8555 143.785C63.1836 143.785 52.6367 135.582 50.9766 123.668H23.7305C24.6094 149.156 46.3867 167.125 76.6602 167.125Z" fill="#1886FF"/>
<path d="M457 167.125C492.449 167.125 513.934 138.707 513.934 93.1992C513.934 47.6914 492.254 19.8594 457 19.8594C421.746 19.8594 399.969 47.7891 399.969 93.2969C399.969 138.902 421.551 167.125 457 167.125ZM457 143.492C440.203 143.492 429.949 125.328 429.949 93.2969C429.949 61.5586 440.398 43.4922 457 43.4922C473.699 43.4922 483.953 61.4609 483.953 93.2969C483.953 125.426 473.797 143.492 457 143.492Z" fill="#1886FF"/>
</svg>
