<svg width="18" height="18" viewBox="0 0 18 18" fill="none" xmlns="http://www.w3.org/2000/svg">
<path d="M8.23933 0.891383C8.63855 0.42356 9.36145 0.42356 9.76067 0.891382L10.9287 2.26012C11.1568 2.52737 11.5083 2.65533 11.8548 2.5972L13.6294 2.29949C14.2359 2.19773 14.7897 2.6624 14.7948 3.27739L14.8098 5.0767C14.8127 5.42802 14.9998 5.75204 15.3026 5.93023L16.8533 6.84283C17.3834 7.15476 17.5089 7.86668 17.1175 8.34107L15.9724 9.72904C15.7488 10 15.6838 10.3685 15.8013 10.6996L16.4026 12.3955C16.6081 12.9752 16.2467 13.6012 15.6419 13.7131L13.8726 14.0402C13.5271 14.1041 13.2405 14.3446 13.1176 14.6738L12.4881 16.3594C12.273 16.9356 11.5937 17.1828 11.0585 16.8798L9.49278 15.9931C9.18707 15.8199 8.81293 15.8199 8.50722 15.9931L6.94149 16.8798C6.40634 17.1828 5.72703 16.9356 5.51189 16.3594L4.88243 14.6738C4.75953 14.3446 4.47292 14.1041 4.12745 14.0402L2.35807 13.7131C1.75331 13.6012 1.39186 12.9752 1.59739 12.3955L2.19874 10.6996C2.31615 10.3685 2.25118 10 2.0276 9.72904L0.882481 8.34107C0.49109 7.86668 0.616621 7.15476 1.14666 6.84283L2.69743 5.93023C3.00022 5.75204 3.18729 5.42802 3.19021 5.0767L3.20517 3.27739C3.21028 2.6624 3.76406 2.19773 4.37059 2.29949L6.14516 2.5972C6.49165 2.65533 6.84323 2.52737 7.07129 2.26012L8.23933 0.891383Z" fill="#F3BA2F"/>
<path d="M12.279 6.20988C12.3263 6.16167 12.3827 6.12337 12.4449 6.09723C12.5071 6.07108 12.5739 6.05762 12.6414 6.05762C12.7089 6.05762 12.7758 6.07108 12.838 6.09723C12.9002 6.12337 12.9566 6.16167 13.0039 6.20988C13.2019 6.40996 13.2046 6.73326 13.0108 6.9368L8.91717 11.776C8.87069 11.8271 8.81429 11.8681 8.75142 11.8966C8.68854 11.9251 8.62052 11.9404 8.5515 11.9417C8.48248 11.943 8.41393 11.9302 8.35003 11.9041C8.28613 11.878 8.22823 11.8391 8.17986 11.7899L5.68894 9.26573C5.59287 9.16775 5.53906 9.03601 5.53906 8.8988C5.53906 8.76159 5.59287 8.62985 5.68894 8.53188C5.73619 8.48367 5.79258 8.44537 5.85481 8.41923C5.91704 8.39308 5.98386 8.37962 6.05136 8.37962C6.11887 8.37962 6.18569 8.39308 6.24792 8.41923C6.31015 8.44537 6.36654 8.48367 6.41379 8.53188L8.52671 10.6732L12.2652 6.22511C12.2695 6.21976 12.2741 6.21467 12.279 6.20988Z" fill="white"/>
</svg>
