<svg width="14" height="18" viewBox="0 0 14 18" fill="none" xmlns="http://www.w3.org/2000/svg">
<path d="M12.8332 16.5L12.386 17.3944C12.6959 17.5494 13.0641 17.5329 13.3589 17.3507C13.6537 17.1684 13.8332 16.8466 13.8332 16.5H12.8332ZM1.1665 16.5H0.166504C0.166504 16.8466 0.345956 17.1684 0.640773 17.3507C0.935589 17.5329 1.30373 17.5494 1.61372 17.3944L1.1665 16.5ZM6.99984 13.5833L7.44705 12.6889C7.16552 12.5481 6.83415 12.5481 6.55262 12.6889L6.99984 13.5833ZM2.83317 2.5H11.1665V0.5H2.83317V2.5ZM11.8332 3.16667V16.5H13.8332V3.16667H11.8332ZM2.1665 16.5V3.16667H0.166504V16.5H2.1665ZM13.2804 15.6056L7.44705 12.6889L6.55262 14.4778L12.386 17.3944L13.2804 15.6056ZM6.55262 12.6889L0.71929 15.6056L1.61372 17.3944L7.44705 14.4778L6.55262 12.6889ZM11.1665 2.5C11.5347 2.5 11.8332 2.79848 11.8332 3.16667H13.8332C13.8332 1.69391 12.6393 0.5 11.1665 0.5V2.5ZM2.83317 0.5C1.36041 0.5 0.166504 1.69391 0.166504 3.16667H2.1665C2.1665 2.79848 2.46498 2.5 2.83317 2.5V0.5Z" fill="#687684"/>
</svg>
