<svg width="24" height="24" viewBox="0 0 24 24" fill="none" xmlns="http://www.w3.org/2000/svg">
<path d="M12 0C18.6264 0 24 5.3736 24 12C24 18.6264 18.6264 24 12 24C5.3736 24 0 18.6264 0 12C0 5.3736 5.3736 0 12 0Z" fill="url(#paint0_linear_578_5147)"/>
<path d="M16.608 8.32798C16.4568 8.50798 16.4664 8.90638 16.224 8.78398C16.224 8.78398 14.5368 8.13838 15.576 6.23998C15.8568 5.80078 16.1472 5.77198 16.104 4.70398C16.3632 5.09758 17.2128 5.88718 17.28 7.12798C17.3472 7.95598 16.8528 8.06638 16.608 8.32798Z" fill="white"/>
<path d="M15.2637 11.28C15.6789 11.1408 16.3509 10.92 16.3917 9.50399C17.0325 10.4856 19.2069 11.8632 18.1677 16.08C17.7453 17.724 16.1709 18.5232 14.6877 19.128C13.7613 19.5216 12.8157 20.1792 12.4317 21.168C12.4317 21.168 5.42137 20.2824 5.63976 13.32C5.81496 9.70799 9.19895 8.32799 10.6317 5.68799C11.3949 4.02239 11.1357 2.35199 11.1357 2.35199C11.1357 2.35199 15.5997 5.12879 13.5837 9.40799C12.9285 10.92 14.4933 11.4312 15.2637 11.28Z" fill="white"/>
<path d="M8.37598 12.528V14.856H10.848V17.328H13.176V14.856H15.648V12.528H8.37598Z" fill="url(#paint1_linear_578_5147)"/>
<defs>
<linearGradient id="paint0_linear_578_5147" x1="0" y1="12" x2="24" y2="12" gradientUnits="userSpaceOnUse">
<stop stop-color="#FFA50D"/>
<stop offset="1" stop-color="#FE5413"/>
</linearGradient>
<linearGradient id="paint1_linear_578_5147" x1="8.37598" y1="14.928" x2="15.648" y2="14.928" gradientUnits="userSpaceOnUse">
<stop stop-color="#FFA50D"/>
<stop offset="1" stop-color="#FE5413"/>
</linearGradient>
</defs>
</svg>
