<svg width="18" height="18" viewBox="0 0 18 18" fill="none" xmlns="http://www.w3.org/2000/svg">
<path d="M11.2489 2.42252C11.1244 2.31276 10.9555 2.25 10.7778 2.25H7.22231C7.04448 2.25 6.87558 2.31276 6.75119 2.42252L3.19568 5.55944C3.07113 5.6692 3 5.81821 3 5.9751V15.1618C3 15.4873 3.29777 15.75 3.66667 15.75H14.3333C14.7022 15.75 15 15.4873 15 15.1618V5.9751C15 5.8182 14.9289 5.66919 14.8045 5.55944L11.2489 2.42252ZM13.5 14.25H4.5V6.75L7.5 3.75H10.5L13.5 6.75V14.25Z" fill="#1F1F1F"/>
<path d="M9 5.25C7.75997 5.25 6.75 6.25997 6.75 7.5C6.75 8.74003 7.75997 9.75 9 9.75C10.24 9.75 11.25 8.74003 11.25 7.5C11.25 6.25997 10.24 5.25 9 5.25ZM9 8.25C8.58499 8.25 8.25 7.91501 8.25 7.5C8.25 7.08499 8.58499 6.75 9 6.75C9.41501 6.75 9.75 7.08499 9.75 7.5C9.75 7.91501 9.41501 8.25 9 8.25Z" fill="#1F1F1F"/>
</svg>
