<svg width="24" height="24" viewBox="0 0 24 24" fill="none" xmlns="http://www.w3.org/2000/svg">
<path d="M20 6C20 7.10457 19.1046 8 18 8V10C20.2091 10 22 8.20914 22 6L20 6ZM16 6C16 4.89543 16.8954 4 18 4V2C15.7909 2 14 3.79086 14 6H16ZM18 4C19.1046 4 20 4.89543 20 6L22 6C22 3.79086 20.2091 2 18 2V4ZM20 18C20 19.1046 19.1046 20 18 20V22C20.2091 22 22 20.2091 22 18H20ZM18 20C16.8954 20 16 19.1046 16 18H14C14 20.2091 15.7909 22 18 22V20ZM18 16C19.1046 16 20 16.8954 20 18H22C22 15.7909 20.2091 14 18 14V16ZM6 14C4.89543 14 4 13.1046 4 12H2C2 14.2091 3.79086 16 6 16V14ZM4 12C4 10.8954 4.89543 10 6 10L6 8C3.79086 8 2 9.79086 2 12H4ZM8 12C8 12.3234 7.924 12.6261 7.78979 12.894L9.57795 13.7898C9.84831 13.2502 10 12.6414 10 12L8 12ZM7.78979 12.894C7.46021 13.5519 6.78153 14 6 14V16C7.56744 16 8.92246 15.0983 9.57795 13.7898L7.78979 12.894ZM6 10C6.78153 10 7.46021 10.4481 7.78979 11.106L9.57795 10.2102C8.92246 8.90173 7.56744 8 6 8L6 10ZM7.78979 11.106C7.924 11.3739 8 11.6766 8 12L10 12C10 11.3586 9.84831 10.7498 9.57795 10.2102L7.78979 11.106ZM9.13108 11.5525L15.7633 8.23636L14.8689 6.44751L8.23665 9.76364L9.13108 11.5525ZM18 8C17.2185 8 16.5398 7.5519 16.2102 6.89402L14.4221 7.78984C15.0775 9.09827 16.4326 10 18 10V8ZM16.2102 6.89402C16.076 6.62613 16 6.32338 16 6H14C14 6.64136 14.1517 7.25017 14.4221 7.78984L16.2102 6.89402ZM8.23665 14.2364L14.8689 17.5525L15.7633 15.7636L9.13108 12.4475L8.23665 14.2364ZM16 18C16 17.6766 16.076 17.3739 16.2102 17.106L14.4221 16.2102C14.1517 16.7498 14 17.3586 14 18H16ZM16.2102 17.106C16.5398 16.4481 17.2185 16 18 16V14C16.4326 14 15.0775 14.9017 14.4221 16.2102L16.2102 17.106Z" fill="#687684"/>
</svg>
