<svg width="24" height="24" viewBox="0 0 24 24" fill="none" xmlns="http://www.w3.org/2000/svg">
<path d="M7 14H8C8 13.4477 7.55228 13 7 13V14ZM7 18H6C6 18.4045 6.24364 18.7691 6.61732 18.9239C6.99099 19.0787 7.42111 18.9931 7.70711 18.7071L7 18ZM11 14V13C10.7348 13 10.4804 13.1054 10.2929 13.2929L11 14ZM17 18V17C16.4477 17 16 17.4477 16 18H17ZM17 22L16.2929 22.7071C16.5789 22.9931 17.009 23.0787 17.3827 22.9239C17.7564 22.7691 18 22.4045 18 22H17ZM13 18L13.7071 17.2929C13.5196 17.1054 13.2652 17 13 17V18ZM17 7C16.4477 7 16 7.44772 16 8C16 8.55228 16.4477 9 17 9V7ZM7.58579 17.4142L6.87868 16.7071H6.87868L7.58579 17.4142ZM5 5H15V3H5V5ZM16 6V12H18V6H16ZM4 12V6H2V12H4ZM7 13H5V15H7V13ZM8 18V14H6V18H8ZM15 13H11V15H15V13ZM2 12C2 13.6569 3.34315 15 5 15V13C4.44772 13 4 12.5523 4 12H2ZM16 12C16 12.5523 15.5523 13 15 13V15C16.6569 15 18 13.6569 18 12H16ZM15 5C15.5523 5 16 5.44772 16 6H18C18 4.34315 16.6569 3 15 3V5ZM5 3C3.34315 3 2 4.34315 2 6H4C4 5.44772 4.44772 5 5 5V3ZM22 16V10H20V16H22ZM17 19H19V17H17V19ZM18 22V18H16V22H18ZM9 19H13V17H9V19ZM12.2929 18.7071L16.2929 22.7071L17.7071 21.2929L13.7071 17.2929L12.2929 18.7071ZM20 16C20 16.5523 19.5523 17 19 17V19C20.6569 19 22 17.6569 22 16H20ZM19 9C19.5523 9 20 9.44772 20 10H22C22 8.34315 20.6569 7 19 7V9ZM19 7H17V9H19V7ZM6.87868 18.1213C7.42048 18.6631 8.17185 19 9 19V17C8.72358 17 8.47495 16.8892 8.29289 16.7071L6.87868 18.1213ZM10.2929 13.2929L6.87868 16.7071L8.29289 18.1213L11.7071 14.7071L10.2929 13.2929ZM6.87868 16.7071L6.29289 17.2929L7.70711 18.7071L8.29289 18.1213L6.87868 16.7071Z" fill="#687684"/>
</svg>
