<svg width="24" height="24" viewBox="0 0 24 24" fill="none" xmlns="http://www.w3.org/2000/svg">
<g clip-path="url(#clip0_575_3153)">
<path d="M23.0813 7.23001C21.9563 6.19126 20.4001 4.60501 19.1326 3.48001L19.0576 3.42751C18.9328 3.32731 18.7921 3.24872 18.6413 3.19501C15.5851 2.62501 1.3613 -0.0337367 1.0838 1.32988e-05C1.00604 0.0109033 0.931718 0.0390953 0.866299 0.0825133L0.795049 0.138763C0.707315 0.227864 0.64068 0.335505 0.600049 0.453763L0.581299 0.502513V0.768763V0.810013C2.18255 5.26876 8.50505 19.875 9.75005 23.3025C9.82505 23.535 9.96755 23.9775 10.2338 24H10.2938C10.4363 24 11.0438 23.1975 11.0438 23.1975C11.0438 23.1975 21.9038 10.0275 23.0026 8.62501C23.1448 8.45225 23.2703 8.26643 23.3776 8.07001C23.4049 7.91634 23.392 7.75819 23.3401 7.61098C23.2882 7.46377 23.199 7.33252 23.0813 7.23001ZM13.8301 8.76376L18.4651 4.92001L21.1838 7.42501L13.8301 8.76376ZM12.0301 8.51251L4.05005 1.97251L16.9613 4.35376L12.0301 8.51251ZM12.7501 10.2263L20.9176 8.91001L11.58 20.16L12.7501 10.2263ZM2.9663 2.62501L11.3625 9.75001L10.1475 20.1675L2.9663 2.62501Z" fill="#FF060A"/>
</g>
<defs>
<clipPath id="clip0_575_3153">
<rect width="24" height="24" fill="white"/>
</clipPath>
</defs>
</svg>
