<svg width="30" height="30" viewBox="0 0 30 30" fill="none" xmlns="http://www.w3.org/2000/svg">
<path d="M15 30C23.2843 30 30 23.2843 30 15C30 6.71573 23.2843 0 15 0C6.71573 0 0 6.71573 0 15C0 23.2843 6.71573 30 15 30Z" fill="#00EF8B"/>
<path d="M21.5698 12.66H17.3398V16.89H21.5698V12.66Z" fill="white"/>
<path d="M13.1092 18.48C13.1092 19.35 12.3892 20.07 11.5192 20.07C10.6492 20.07 9.92922 19.35 9.92922 18.48C9.92922 17.61 10.6492 16.89 11.5192 16.89H13.1092V12.66H11.5192C8.30922 12.66 5.69922 15.27 5.69922 18.48C5.69922 21.69 8.30922 24.3 11.5192 24.3C14.7292 24.3 17.3392 21.69 17.3392 18.48V16.89H13.1092V18.48Z" fill="white"/>
<path d="M18.9294 10.53H23.6994V6.3H18.9294C15.7194 6.3 13.1094 8.91 13.1094 12.12V12.66H17.3394V12.12C17.3394 11.25 18.0594 10.53 18.9294 10.53Z" fill="white"/>
<path d="M17.3394 12.66H13.1094V16.89H17.3394V12.66Z" fill="#16FF99"/>
</svg>
