<svg width="14" height="14" viewBox="0 0 14 14" fill="none" xmlns="http://www.w3.org/2000/svg">
<path d="M5.04094 0C7.81962 0 10.0805 2.23646 10.0805 4.98539C10.0826 6.09411 9.7068 7.17225 9.01182 8.05124L13.7906 12.7868C14.0727 13.067 14.0693 13.5175 13.7832 13.7937C13.7155 13.8597 13.635 13.9118 13.5463 13.9473C13.4576 13.9827 13.3626 14.0006 13.2667 14C13.1709 13.9994 13.0761 13.9803 12.9879 13.9438C12.8997 13.9072 12.8199 13.8541 12.753 13.7873L7.96566 9.04199C7.11692 9.6458 6.09259 9.97132 5.04094 9.97143C2.26158 9.97207 0 7.73497 0 4.98539C0 2.23581 2.26158 0 5.04094 0ZM5.04094 8.70636C7.10537 8.70636 8.78612 7.03725 8.78612 4.98539C8.78612 2.93418 7.10603 1.26507 5.04094 1.26507C2.97584 1.26507 1.29575 2.93418 1.29575 4.98539C1.29575 7.03725 2.97517 8.70636 5.04094 8.70636ZM4.04722 2.60694C4.11495 2.57768 4.18795 2.56169 4.26203 2.55987C4.33612 2.55805 4.40986 2.57044 4.47902 2.59633C4.54818 2.62223 4.61142 2.66111 4.66513 2.71078C4.71883 2.76044 4.76195 2.8199 4.79201 2.88577C4.85339 3.01933 4.85821 3.17103 4.80541 3.30802C4.7526 3.44501 4.64644 3.55626 4.50989 3.6177C4.4694 3.63577 3.52414 4.06822 3.63765 4.89697C3.64842 4.97499 3.64194 5.05435 3.61864 5.12975C3.59534 5.20514 3.55575 5.27483 3.50253 5.33416C3.4493 5.39348 3.38367 5.44108 3.31001 5.47376C3.23636 5.50645 3.15637 5.52347 3.07541 5.52369C2.93796 5.52326 2.80535 5.47434 2.70219 5.38603C2.59903 5.29771 2.53234 5.17599 2.51449 5.04348C2.2888 3.38921 3.97486 2.63792 4.04788 2.60629L4.04722 2.60694ZM4.16538 6.07038C4.3344 6.07563 4.49469 6.1446 4.61234 6.26271C4.73 6.38082 4.79578 6.5388 4.79578 6.70323C4.79578 6.86766 4.73 7.02564 4.61234 7.14375C4.49469 7.26186 4.3344 7.33084 4.16538 7.33609C4.08 7.33635 3.99541 7.32014 3.91652 7.28841C3.83762 7.25669 3.76598 7.21006 3.70573 7.15124C3.64548 7.09242 3.59782 7.02257 3.56552 6.94572C3.53321 6.86888 3.51689 6.78657 3.5175 6.70356C3.5175 6.53703 3.5872 6.37438 3.70735 6.25756C3.7673 6.19862 3.83861 6.15175 3.9172 6.11963C3.99579 6.08751 4.08013 6.07077 4.16538 6.07038Z" fill="#7B7B7B"/>
</svg>
