<svg width="24" height="24" viewBox="0 0 24 24" fill="none" xmlns="http://www.w3.org/2000/svg">
<path d="M15.2929 3.29289L16 2.58579L16 2.58579L15.2929 3.29289ZM19.7071 7.70711L20.4142 7L19.7071 7.70711ZM10 4H14.5858V2H10V4ZM19 8.41421V15H21V8.41421H19ZM14.5858 4L19 8.41421L20.4142 7L16 2.58579L14.5858 4ZM21 8.41421C21 7.88378 20.7893 7.37507 20.4142 7L19 8.41421H19H21ZM14.5858 4L14.5858 4L16 2.58579C15.6249 2.21071 15.1162 2 14.5858 2V4ZM10 16C9.44772 16 9 15.5523 9 15H7C7 16.6569 8.34315 18 10 18V16ZM18 18C19.6569 18 21 16.6569 21 15H19C19 15.5523 18.5523 16 18 16V18ZM9 5C9 4.44772 9.44772 4 10 4V2C8.34315 2 7 3.34315 7 5H9ZM6 22H14V20H6V22ZM3 9V19H5V9H3ZM6 20C5.44772 20 5 19.5523 5 19H3C3 20.6569 4.34315 22 6 22V20ZM9 15V7H7V15H9ZM9 7V5H7V7H9ZM6 8H8V6H6V8ZM18 16H16V18H18V16ZM16 16H10V18H16V16ZM17 19V17H15V19H17ZM5 9C5 8.44772 5.44772 8 6 8V6C4.34315 6 3 7.34315 3 9H5ZM14 22C15.6569 22 17 20.6569 17 19H15C15 19.5523 14.5523 20 14 20V22Z" fill="#687684"/>
</svg>
