<svg width="24" height="24" viewBox="0 0 24 24" fill="none" xmlns="http://www.w3.org/2000/svg">
<path d="M18.125 7.30782C17.6875 7.02125 17.125 7.02125 16.625 7.30782L13.125 9.67199L10.75 11.1765L7.3125 13.5407C6.875 13.8272 6.3125 13.8272 5.8125 13.5407L3.125 11.678C2.6875 11.3914 2.375 10.8183 2.375 10.1735V6.5914C2.375 6.01826 2.625 5.44513 3.125 5.08692L5.8125 3.29587C6.25 3.00931 6.8125 3.00931 7.3125 3.29587L10 5.15856C10.4375 5.44513 10.75 6.01826 10.75 6.66304V9.02722L13.125 7.4511V5.01528C13.125 4.44214 12.875 3.86901 12.375 3.5108L7.375 0.143636C6.9375 -0.142931 6.375 -0.142931 5.875 0.143636L0.75 3.58244C0.25 3.86901 0 4.44214 0 5.01528V11.7496C0 12.3227 0.25 12.8959 0.75 13.2541L5.8125 16.6212C6.25 16.9078 6.8125 16.9078 7.3125 16.6212L10.75 14.3287L13.125 12.7526L16.5625 10.4601C17 10.1735 17.5625 10.1735 18.0625 10.4601L20.75 12.2511C21.1875 12.5377 21.5 13.1108 21.5 13.7556V17.3377C21.5 17.9108 21.25 18.4839 20.75 18.8421L18.125 20.6332C17.6875 20.9198 17.125 20.9198 16.625 20.6332L13.9375 18.8421C13.5 18.5556 13.1875 17.9824 13.1875 17.3377V15.0451L10.8125 16.6212V18.9854C10.8125 19.5586 11.0625 20.1317 11.5625 20.4899L16.625 23.8571C17.0625 24.1436 17.625 24.1436 18.125 23.8571L23.1875 20.4899C23.625 20.2033 23.9375 19.6302 23.9375 18.9854V12.1795C23.9375 11.6063 23.6875 11.0332 23.1875 10.675L18.125 7.30782Z" fill="#8247E5"/>
</svg>
