<svg width="139" height="40" viewBox="0 0 139 40" fill="none" xmlns="http://www.w3.org/2000/svg">
<path d="M139 35.9904C139 38.2056 137.211 40 134.997 40H4.00791C1.79568 40 0 38.2056 0 35.9904V4.01487C0 1.80067 1.79568 0 4.00791 0H134.996C137.211 0 138.999 1.80067 138.999 4.01487L139 35.9904Z" fill="#1F1F1F"/>
<path d="M46.9246 14.7824H44.1504V7.43018H46.9348C47.5626 7.43018 48.0699 7.59831 48.4568 7.93459C48.8471 8.27087 49.0422 8.71414 49.0422 9.26442C49.0422 9.64825 48.9183 9.99641 48.6706 10.3089C48.4263 10.618 48.1276 10.8048 47.7747 10.8694V10.9101C48.2736 10.9747 48.6706 11.17 48.9658 11.4961C49.2645 11.8222 49.4138 12.2298 49.4138 12.7189C49.4138 13.3677 49.1932 13.8738 48.7521 14.2372C48.3143 14.6007 47.7051 14.7824 46.9246 14.7824ZM45.0667 8.2403V10.5993H46.441C46.984 10.5993 47.398 10.494 47.6831 10.2834C47.9715 10.0728 48.1158 9.76883 48.1158 9.37141C48.1158 9.00796 47.9953 8.72943 47.7543 8.53581C47.5134 8.3388 47.1707 8.2403 46.7261 8.2403H45.0667ZM45.0667 13.9723H46.7872C47.3403 13.9723 47.7594 13.8619 48.0445 13.6411C48.3296 13.4203 48.4721 13.0976 48.4721 12.673C48.4721 11.8171 47.8816 11.3891 46.7006 11.3891H45.0667V13.9723Z" fill="white"/>
<path d="M53.4278 10.1612C53.0172 10.1612 52.6762 10.3038 52.4047 10.5891C52.1366 10.8711 51.989 11.2345 51.9618 11.6795H54.8378C54.8277 11.2311 54.6936 10.866 54.4357 10.584C54.1778 10.3021 53.8418 10.1612 53.4278 10.1612ZM54.8175 13.2641H55.6879C55.6099 13.7328 55.3655 14.1184 54.9549 14.4207C54.5477 14.723 54.0573 14.8741 53.4838 14.8741C52.7271 14.8741 52.1315 14.6296 51.6971 14.1404C51.2627 13.6513 51.0456 12.9889 51.0456 12.1533C51.0456 11.3245 51.2627 10.6571 51.6971 10.151C52.1349 9.64485 52.7169 9.39179 53.4431 9.39179C54.1557 9.39179 54.7191 9.63126 55.1331 10.1102C55.5471 10.5891 55.7541 11.2311 55.7541 12.0362V12.3724H51.9567V12.4234C51.9567 12.9329 52.0959 13.3405 52.3741 13.6462C52.6524 13.9519 53.0291 14.1048 53.5042 14.1048C53.8368 14.1048 54.1201 14.0283 54.3543 13.8755C54.5884 13.7226 54.7428 13.5188 54.8175 13.2641Z" fill="white"/>
<path d="M62.0384 11.2209H61.1731C61.1052 10.9152 60.9542 10.6639 60.72 10.4669C60.4893 10.2698 60.1889 10.1713 59.819 10.1713C59.3575 10.1713 58.9859 10.3497 58.7043 10.7063C58.4226 11.0596 58.2818 11.5351 58.2818 12.133C58.2818 12.741 58.4226 13.2199 58.7043 13.5698C58.9893 13.9196 59.3643 14.0946 59.8292 14.0946C60.1855 14.0946 60.4791 14.0063 60.7099 13.8296C60.944 13.6496 61.1001 13.3982 61.1782 13.0756H62.0486C61.9807 13.6054 61.7415 14.0385 61.3309 14.3748C60.9236 14.7077 60.4214 14.8741 59.8241 14.8741C59.0843 14.8741 58.4922 14.6296 58.0476 14.1404C57.6031 13.6479 57.3808 12.9787 57.3808 12.133C57.3808 11.3008 57.6031 10.6367 58.0476 10.1408C58.4922 9.64145 59.0809 9.39179 59.814 9.39179C60.4452 9.39179 60.9576 9.57012 61.3512 9.92678C61.7483 10.2834 61.9773 10.7148 62.0384 11.2209Z" fill="white"/>
<path d="M66.0474 14.8741C65.3076 14.8741 64.7137 14.6279 64.2658 14.1353C63.8178 13.6394 63.5938 12.972 63.5938 12.133C63.5938 11.294 63.8178 10.6282 64.2658 10.1357C64.7137 9.63975 65.3076 9.39179 66.0474 9.39179C66.7838 9.39179 67.3759 9.63975 67.8239 10.1357C68.2718 10.6282 68.4958 11.294 68.4958 12.133C68.4958 12.9686 68.2718 13.6343 67.8239 14.1302C67.3759 14.6262 66.7838 14.8741 66.0474 14.8741ZM64.9122 13.5749C65.1939 13.9213 65.5723 14.0946 66.0474 14.0946C66.5225 14.0946 66.8992 13.923 67.1774 13.58C67.4557 13.2335 67.5948 12.7512 67.5948 12.133C67.5948 11.5148 67.4557 11.0341 67.1774 10.691C66.8992 10.3446 66.5225 10.1713 66.0474 10.1713C65.5723 10.1713 65.1939 10.3446 64.9122 10.691C64.634 11.0375 64.4948 11.5182 64.4948 12.133C64.4948 12.7478 64.634 13.2284 64.9122 13.5749Z" fill="white"/>
<path d="M70.3821 14.7824V9.4835H71.2169V10.3293H71.2373C71.3662 10.0406 71.5614 9.81299 71.8227 9.64655C72.084 9.47671 72.3894 9.39179 72.7389 9.39179C73.0986 9.39179 73.4074 9.48011 73.6654 9.65674C73.9233 9.82997 74.1099 10.0779 74.2253 10.4006H74.2457C74.3916 10.0847 74.6105 9.83846 74.9023 9.66183C75.1975 9.48181 75.5318 9.39179 75.9051 9.39179C76.4277 9.39179 76.8451 9.54974 77.1573 9.86564C77.4729 10.1781 77.6307 10.5976 77.6307 11.1241V14.7824H76.745V11.3279C76.745 10.9645 76.6483 10.6826 76.4549 10.4821C76.2648 10.2783 75.995 10.1764 75.6455 10.1764C75.296 10.1764 75.0092 10.2936 74.7852 10.528C74.5613 10.759 74.4493 11.0545 74.4493 11.4146V14.7824H73.5635V11.2311C73.5635 10.9118 73.4651 10.6571 73.2683 10.4669C73.0715 10.2732 72.8085 10.1764 72.4793 10.1764C72.1298 10.1764 71.8396 10.2987 71.6089 10.5433C71.3815 10.7879 71.2678 11.0936 71.2678 11.4604V14.7824H70.3821Z" fill="white"/>
<path d="M81.8738 10.1612C81.4632 10.1612 81.1222 10.3038 80.8507 10.5891C80.5826 10.8711 80.435 11.2345 80.4078 11.6795H83.2838C83.2737 11.2311 83.1396 10.866 82.8817 10.584C82.6238 10.3021 82.2878 10.1612 81.8738 10.1612ZM83.2635 13.2641H84.1339C84.0559 13.7328 83.8115 14.1184 83.4009 14.4207C82.9937 14.723 82.5033 14.8741 81.9298 14.8741C81.1731 14.8741 80.5775 14.6296 80.1431 14.1404C79.7087 13.6513 79.4916 12.9889 79.4916 12.1533C79.4916 11.3245 79.7087 10.6571 80.1431 10.151C80.5809 9.64485 81.1629 9.39179 81.8891 9.39179C82.6017 9.39179 83.1651 9.63126 83.5791 10.1102C83.9931 10.5891 84.2001 11.2311 84.2001 12.0362V12.3724H80.4027V12.4234C80.4027 12.9329 80.5419 13.3405 80.8201 13.6462C81.0984 13.9519 81.4751 14.1048 81.9502 14.1048C82.2827 14.1048 82.5661 14.0283 82.8003 13.8755C83.0344 13.7226 83.1888 13.5188 83.2635 13.2641Z" fill="white"/>
<path d="M89.4998 8.20463H90.3855V9.4835H91.4137V10.2121H90.3855V13.3609C90.3855 13.6021 90.4381 13.7804 90.5433 13.8959C90.6485 14.008 90.8148 14.064 91.0421 14.064C91.1847 14.064 91.3068 14.0555 91.4086 14.0385V14.7824C91.2932 14.8096 91.1066 14.8232 90.8487 14.8232C90.3634 14.8232 90.0173 14.7145 89.8103 14.4971C89.6033 14.2797 89.4998 13.9162 89.4998 13.4067V10.2121H88.7108V9.4835H89.4998V8.20463Z" fill="white"/>
<path d="M95.3921 14.8741C94.6523 14.8741 94.0584 14.6279 93.6105 14.1353C93.1626 13.6394 92.9386 12.972 92.9386 12.133C92.9386 11.294 93.1626 10.6282 93.6105 10.1357C94.0584 9.63975 94.6523 9.39179 95.3921 9.39179C96.1285 9.39179 96.7207 9.63975 97.1686 10.1357C97.6166 10.6282 97.8406 11.294 97.8406 12.133C97.8406 12.9686 97.6166 13.6343 97.1686 14.1302C96.7207 14.6262 96.1285 14.8741 95.3921 14.8741ZM94.257 13.5749C94.5386 13.9213 94.917 14.0946 95.3921 14.0946C95.8672 14.0946 96.2439 13.923 96.5222 13.58C96.8004 13.2335 96.9396 12.7512 96.9396 12.133C96.9396 11.5148 96.8004 11.0341 96.5222 10.691C96.2439 10.3446 95.8672 10.1713 95.3921 10.1713C94.917 10.1713 94.5386 10.3446 94.257 10.691C93.9787 11.0375 93.8396 11.5182 93.8396 12.133C93.8396 12.7478 93.9787 13.2284 94.257 13.5749Z" fill="white"/>
<path d="M103.14 8.20463H104.026V9.4835H105.054V10.2121H104.026V13.3609C104.026 13.6021 104.079 13.7804 104.184 13.8959C104.289 14.008 104.455 14.064 104.683 14.064C104.825 14.064 104.947 14.0555 105.049 14.0385V14.7824C104.934 14.8096 104.747 14.8232 104.489 14.8232C104.004 14.8232 103.658 14.7145 103.451 14.4971C103.244 14.2797 103.14 13.9162 103.14 13.4067V10.2121H102.351V9.4835H103.14V8.20463Z" fill="white"/>
<path d="M108.961 10.1612C108.551 10.1612 108.21 10.3038 107.938 10.5891C107.67 10.8711 107.522 11.2345 107.495 11.6795H110.371C110.361 11.2311 110.227 10.866 109.969 10.584C109.711 10.3021 109.375 10.1612 108.961 10.1612ZM110.351 13.2641H111.221C111.143 13.7328 110.899 14.1184 110.488 14.4207C110.081 14.723 109.591 14.8741 109.017 14.8741C108.261 14.8741 107.665 14.6296 107.231 14.1404C106.796 13.6513 106.579 12.9889 106.579 12.1533C106.579 11.3245 106.796 10.6571 107.231 10.151C107.668 9.64485 108.25 9.39179 108.977 9.39179C109.689 9.39179 110.253 9.63126 110.667 10.1102C111.081 10.5891 111.288 11.2311 111.288 12.0362V12.3724H107.49V12.4234C107.49 12.9329 107.629 13.3405 107.908 13.6462C108.186 13.9519 108.563 14.1048 109.038 14.1048C109.37 14.1048 109.654 14.0283 109.888 13.8755C110.122 13.7226 110.276 13.5188 110.351 13.2641Z" fill="white"/>
<path d="M113.082 10.9458C113.082 10.4906 113.265 10.1187 113.632 9.82997C114.002 9.53785 114.477 9.39179 115.057 9.39179C115.604 9.39179 116.058 9.53785 116.422 9.82997C116.785 10.1221 116.976 10.4923 116.997 10.9407H116.152C116.121 10.6826 116.006 10.4804 115.806 10.3344C115.609 10.1883 115.349 10.1153 115.027 10.1153C114.704 10.1153 114.445 10.1883 114.248 10.3344C114.051 10.4771 113.953 10.6656 113.953 10.8999C113.953 11.26 114.246 11.5148 114.833 11.6642L115.653 11.8629C116.186 11.9988 116.561 12.1754 116.778 12.3928C116.998 12.6068 117.109 12.9091 117.109 13.2997C117.109 13.7617 116.912 14.1404 116.518 14.436C116.125 14.7281 115.619 14.8741 115.001 14.8741C114.424 14.8741 113.948 14.7315 113.571 14.4461C113.198 14.1574 112.987 13.777 112.94 13.3048H113.825C113.924 13.8687 114.334 14.1506 115.057 14.1506C115.414 14.1506 115.695 14.081 115.902 13.9417C116.113 13.7991 116.218 13.6071 116.218 13.366C116.218 13.1758 116.155 13.0246 116.03 12.9125C115.907 12.8004 115.699 12.7053 115.403 12.6272L114.472 12.3877C113.545 12.1499 113.082 11.6693 113.082 10.9458Z" fill="white"/>
<path d="M119.305 8.20463H120.191V9.4835H121.219V10.2121H120.191V13.3609C120.191 13.6021 120.244 13.7804 120.349 13.8959C120.454 14.008 120.62 14.064 120.848 14.064C120.99 14.064 121.113 14.0555 121.214 14.0385V14.7824C121.099 14.8096 120.912 14.8232 120.654 14.8232C120.169 14.8232 119.823 14.7145 119.616 14.4971C119.409 14.2797 119.305 13.9162 119.305 13.4067V10.2121H118.516V9.4835H119.305V8.20463Z" fill="white"/>
<path d="M30.5894 19.7763C30.5592 16.4269 33.3371 14.7974 33.4641 14.7215C31.8909 12.4321 29.4524 12.1193 28.5955 12.0944C26.5474 11.8793 24.5608 13.3176 23.5176 13.3176C22.4535 13.3176 20.8469 12.1152 19.1154 12.1505C16.8872 12.1848 14.8027 13.4724 13.6595 15.4719C11.3001 19.5487 13.0598 25.5398 15.3202 28.8351C16.4509 30.449 17.7722 32.251 19.5017 32.1876C21.1936 32.118 21.8256 31.111 23.8674 31.111C25.8905 31.111 26.4839 32.1876 28.2477 32.1471C30.0636 32.118 31.2068 30.5259 32.298 28.8975C33.6047 27.0477 34.1295 25.2259 34.1503 25.1324C34.1076 25.1179 30.6237 23.7908 30.5894 19.7763Z" fill="white"/>
<path d="M27.2575 9.9266C28.1676 8.79074 28.7902 7.24542 28.6173 5.67725C27.3002 5.73544 25.6531 6.58656 24.7045 7.69748C23.8653 8.67642 23.1157 10.281 23.3093 11.7899C24.7889 11.9001 26.308 11.0448 27.2575 9.9266Z" fill="white"/>
<path d="M55.0738 31.9554H52.7093L51.414 27.8931H46.9119L45.6781 31.9554H43.376L47.8365 18.1255H50.5915L55.0738 31.9554ZM51.0236 26.1888L49.8522 22.5775C49.7283 22.2086 49.4961 21.3398 49.1536 19.9722H49.1119C48.9755 20.5604 48.7558 21.4292 48.4539 22.5775L47.3034 26.1888H51.0236Z" fill="white"/>
<path d="M66.5446 26.8466C66.5446 28.5426 66.0854 29.8832 65.1671 30.8673C64.3445 31.7434 63.3231 32.1809 62.1039 32.1809C60.7878 32.1809 59.8424 31.7091 59.2666 30.7655H59.2249V36.0187H57.0051V25.2659C57.0051 24.1997 56.977 23.1054 56.9229 21.983H58.8751L58.999 23.5637H59.0406C59.7809 22.3728 60.9044 21.7783 62.412 21.7783C63.5907 21.7783 64.5746 22.2428 65.3618 23.1729C66.151 24.1041 66.5446 25.3283 66.5446 26.8466ZM64.2831 26.9276C64.2831 25.957 64.0644 25.1568 63.625 24.527C63.1451 23.8703 62.5005 23.5419 61.6926 23.5419C61.1449 23.5419 60.6472 23.7248 60.2026 24.0854C59.757 24.4491 59.4655 24.924 59.3291 25.5122C59.2603 25.7866 59.226 26.011 59.226 26.1877V27.8505C59.226 28.5758 59.4488 29.1879 59.8944 29.6878C60.3401 30.1877 60.919 30.4371 61.6312 30.4371C62.4672 30.4371 63.118 30.1149 63.5834 29.4727C64.0499 28.8294 64.2831 27.9814 64.2831 26.9276Z" fill="white"/>
<path d="M78.0367 26.8466C78.0367 28.5426 77.5775 29.8832 76.6581 30.8673C75.8366 31.7434 74.8152 32.1809 73.596 32.1809C72.2799 32.1809 71.3345 31.7091 70.7598 30.7655H70.7181V36.0187H68.4983V25.2659C68.4983 24.1997 68.4702 23.1054 68.416 21.983H70.3683L70.4922 23.5637H70.5338C71.2731 22.3728 72.3965 21.7783 73.9052 21.7783C75.0828 21.7783 76.0667 22.2428 76.856 23.1729C77.6421 24.1041 78.0367 25.3283 78.0367 26.8466ZM75.7752 26.9276C75.7752 25.957 75.5555 25.1568 75.1161 24.527C74.6361 23.8703 73.9937 23.5419 73.1847 23.5419C72.636 23.5419 72.1393 23.7248 71.6937 24.0854C71.2481 24.4491 70.9576 24.924 70.8212 25.5122C70.7535 25.7866 70.7181 26.011 70.7181 26.1877V27.8505C70.7181 28.5758 70.9409 29.1879 71.3845 29.6878C71.8301 30.1866 72.409 30.4371 73.1233 30.4371C73.9594 30.4371 74.6101 30.1149 75.0755 29.4727C75.542 28.8294 75.7752 27.9814 75.7752 26.9276Z" fill="white"/>
<path d="M90.8862 28.077C90.8862 29.2534 90.477 30.2105 89.6555 30.9494C88.7528 31.7569 87.496 32.1601 85.8811 32.1601C84.3901 32.1601 83.1948 31.8733 82.29 31.2986L82.8044 29.4519C83.779 30.0401 84.8483 30.3352 86.0134 30.3352C86.8495 30.3352 87.5002 30.1461 87.9677 29.7699C88.4331 29.3937 88.6653 28.8887 88.6653 28.2589C88.6653 27.6977 88.4737 27.2249 88.0895 26.8414C87.7074 26.4579 87.0691 26.1015 86.1779 25.7721C83.7519 24.869 82.5399 23.5461 82.5399 21.8064C82.5399 20.6695 82.9647 19.7373 83.8154 19.012C84.6629 18.2855 85.7937 17.9229 87.2076 17.9229C88.4685 17.9229 89.516 18.1421 90.352 18.5796L89.7971 20.3858C89.0162 19.9618 88.1332 19.7498 87.1451 19.7498C86.3643 19.7498 85.7541 19.942 85.3168 20.3245C84.9472 20.6664 84.7618 21.0831 84.7618 21.5767C84.7618 22.1234 84.9732 22.5754 85.398 22.9308C85.7676 23.2592 86.4392 23.6146 87.4138 23.9981C88.606 24.4772 89.4816 25.0373 90.0449 25.6796C90.6061 26.3197 90.8862 27.121 90.8862 28.077Z" fill="white"/>
<path d="M98.2244 23.6456H95.7776V28.4873C95.7776 29.7187 96.2087 30.334 97.0728 30.334C97.4695 30.334 97.7986 30.2997 98.0589 30.2311L98.1203 31.9136C97.683 32.0767 97.1072 32.1588 96.394 32.1588C95.5173 32.1588 94.8322 31.8917 94.3376 31.3586C93.8451 30.8245 93.5973 29.9287 93.5973 28.6702V23.6435H92.1396V21.9807H93.5973V20.1548L95.7776 19.498V21.9807H98.2244V23.6456Z" fill="white"/>
<path d="M109.265 26.8866C109.265 28.4194 108.825 29.6779 107.949 30.662C107.029 31.6753 105.809 32.1803 104.288 32.1803C102.822 32.1803 101.655 31.695 100.784 30.7244C99.9137 29.7537 99.4785 28.5285 99.4785 27.0518C99.4785 25.5065 99.9262 24.2407 100.825 23.2566C101.721 22.2714 102.931 21.7788 104.452 21.7788C105.918 21.7788 107.098 22.2641 107.988 23.2358C108.84 24.1784 109.265 25.3953 109.265 26.8866ZM106.962 26.9583C106.962 26.0386 106.765 25.2498 106.366 24.592C105.901 23.7959 105.235 23.3989 104.373 23.3989C103.481 23.3989 102.803 23.797 102.338 24.592C101.939 25.2508 101.742 26.0521 101.742 26.9998C101.742 27.9195 101.939 28.7083 102.338 29.3651C102.818 30.1611 103.488 30.5581 104.353 30.5581C105.201 30.5581 105.866 30.1528 106.346 29.3443C106.755 28.674 106.962 27.8769 106.962 26.9583Z" fill="white"/>
<path d="M116.48 23.9316C116.261 23.891 116.026 23.8703 115.781 23.8703C115 23.8703 114.396 24.1644 113.971 24.7536C113.601 25.2732 113.416 25.93 113.416 26.7229V31.9554H111.197L111.218 25.1236C111.218 23.9742 111.19 22.9277 111.135 21.9841H113.068L113.149 23.8921H113.211C113.445 23.2363 113.815 22.7084 114.321 22.3125C114.815 21.956 115.35 21.7783 115.925 21.7783C116.13 21.7783 116.316 21.7929 116.48 21.8188V23.9316Z" fill="white"/>
<path d="M126.409 26.4975C126.409 26.8945 126.383 27.2292 126.327 27.5025H119.668C119.694 28.4876 120.016 29.2411 120.634 29.7607C121.195 30.2252 121.921 30.458 122.812 30.458C123.798 30.458 124.698 30.3011 125.507 29.9862L125.855 31.5242C124.909 31.9358 123.793 32.1405 122.505 32.1405C120.956 32.1405 119.74 31.6853 118.855 30.776C117.972 29.8667 117.529 28.6456 117.529 27.1138C117.529 25.6101 117.941 24.3578 118.764 23.3591C119.626 22.2929 120.791 21.7598 122.257 21.7598C123.697 21.7598 124.787 22.2929 125.528 23.3591C126.114 24.2061 126.409 25.2536 126.409 26.4975ZM124.292 25.9229C124.306 25.2661 124.162 24.6987 123.861 24.2196C123.477 23.6033 122.886 23.2957 122.092 23.2957C121.366 23.2957 120.776 23.5961 120.325 24.1988C119.955 24.6779 119.736 25.2526 119.668 25.9218H124.292V25.9229Z" fill="white"/>
</svg>
