<svg width="30" height="30" viewBox="0 0 30 30" fill="none" xmlns="http://www.w3.org/2000/svg">
<path d="M29.9992 14.9985C29.9992 23.2817 23.2842 29.997 14.9996 29.997C6.71501 29.997 0 23.2817 0 14.9985C0 6.71534 6.71517 0 14.9996 0C23.2841 0 29.9992 6.7147 29.9992 14.9985Z" fill="white"/>
<path d="M14.9981 0C6.71642 0 -0.0105306 6.72484 1.23758e-05 14.998C0.00208902 16.6533 0.266062 18.2455 0.7615 19.7348H5.24928V7.11768L14.9981 16.8654L24.7465 7.11768V19.735H29.2353C29.7314 18.2458 29.994 16.6536 29.997 14.9983C30.0111 6.71646 23.2807 0.00199654 14.9981 0.00199654V0Z" fill="#F26822"/>
<path d="M12.7562 19.1062L8.50172 14.8521V22.7913H5.24901L2.17969 22.7919C4.81244 27.1107 9.57046 29.9998 14.9981 29.9998C20.4258 29.9998 25.184 27.1101 27.8172 22.7912H21.4935V14.8521L17.2389 19.1062L14.9976 21.3472L12.7563 19.1062H12.7562Z" fill="#4D4D4D"/>
</svg>
