<svg width="19" height="23" viewBox="0 0 19 23" fill="none" xmlns="http://www.w3.org/2000/svg">
<path d="M16.25 12.8275V9.25C16.2484 7.65601 15.6827 6.11403 14.6532 4.89712C13.6237 3.68021 12.1967 2.86691 10.625 2.60125V1.375C10.625 1.07663 10.5065 0.790483 10.2955 0.579505C10.0845 0.368526 9.79837 0.25 9.5 0.25C9.20163 0.25 8.91548 0.368526 8.70451 0.579505C8.49353 0.790483 8.375 1.07663 8.375 1.375V2.60125C6.80331 2.86691 5.37634 3.68021 4.34681 4.89712C3.31728 6.11403 2.75162 7.65601 2.75 9.25V12.8275C2.09351 13.0596 1.52487 13.4891 1.12206 14.0571C0.719238 14.625 0.501957 15.3037 0.5 16V18.25C0.5 18.5484 0.618527 18.8345 0.829505 19.0455C1.04048 19.2565 1.32663 19.375 1.625 19.375H5.1575C5.41657 20.3283 5.98213 21.1698 6.76692 21.7698C7.55172 22.3698 8.51213 22.6949 9.5 22.6949C10.4879 22.6949 11.4483 22.3698 12.2331 21.7698C13.0179 21.1698 13.5834 20.3283 13.8425 19.375H17.375C17.6734 19.375 17.9595 19.2565 18.1705 19.0455C18.3815 18.8345 18.5 18.5484 18.5 18.25V16C18.498 15.3037 18.2808 14.625 17.8779 14.0571C17.4751 13.4891 16.9065 13.0596 16.25 12.8275V12.8275ZM5 9.25C5 8.05652 5.47411 6.91193 6.31802 6.06802C7.16193 5.22411 8.30653 4.75 9.5 4.75C10.6935 4.75 11.8381 5.22411 12.682 6.06802C13.5259 6.91193 14 8.05652 14 9.25V12.625H5V9.25ZM9.5 20.5C9.10734 20.4976 8.72215 20.3925 8.38269 20.1952C8.04323 19.9978 7.76132 19.7151 7.565 19.375H11.435C11.2387 19.7151 10.9568 19.9978 10.6173 20.1952C10.2779 20.3925 9.89266 20.4976 9.5 20.5ZM16.25 17.125H2.75V16C2.75 15.7016 2.86853 15.4155 3.07951 15.2045C3.29048 14.9935 3.57663 14.875 3.875 14.875H15.125C15.4234 14.875 15.7095 14.9935 15.9205 15.2045C16.1315 15.4155 16.25 15.7016 16.25 16V17.125Z" fill="#7B7B7B"/>
</svg>
