<svg width="18" height="18" viewBox="0 0 18 18" fill="none" xmlns="http://www.w3.org/2000/svg">
<path d="M12.7502 7.12514H5.55767L6.53267 6.15764C6.67389 6.01641 6.75324 5.82487 6.75323 5.62514C6.75323 5.42541 6.67389 5.23387 6.53267 5.09264C6.39144 4.95141 6.19989 4.87207 6.00017 4.87207C5.80044 4.87207 5.60889 4.95141 5.46767 5.09264L3.21767 7.34264C3.14939 7.41397 3.09586 7.49808 3.06017 7.59014C2.98515 7.77274 2.98515 7.97754 3.06017 8.16014C3.09586 8.2522 3.14939 8.33631 3.21767 8.40764L5.46767 10.6576C5.53739 10.7279 5.62034 10.7837 5.71173 10.8218C5.80313 10.8599 5.90116 10.8795 6.00017 10.8795C6.09918 10.8795 6.1972 10.8599 6.2886 10.8218C6.37999 10.7837 6.46294 10.7279 6.53267 10.6576C6.60296 10.5879 6.65876 10.505 6.69684 10.4136C6.73491 10.3222 6.75452 10.2241 6.75452 10.1251C6.75452 10.0261 6.73491 9.9281 6.69684 9.83671C6.65876 9.74531 6.60296 9.66236 6.53267 9.59264L5.55767 8.62514H12.7502C12.9491 8.62514 13.1398 8.70416 13.2805 8.84481C13.4211 8.98546 13.5002 9.17623 13.5002 9.37514V12.3751C13.5002 12.5741 13.5792 12.7648 13.7198 12.9055C13.8605 13.0461 14.0513 13.1251 14.2502 13.1251C14.4491 13.1251 14.6398 13.0461 14.7805 12.9055C14.9211 12.7648 15.0002 12.5741 15.0002 12.3751V9.37514C15.0002 8.7784 14.7631 8.20611 14.3412 7.78415C13.9192 7.36219 13.3469 7.12514 12.7502 7.12514Z" fill="#1F1F1F"/>
</svg>
