<svg width="26" height="26" viewBox="0 0 26 26" fill="none" xmlns="http://www.w3.org/2000/svg">
<path d="M23.3235 7.74583C23.1588 7.65075 22.972 7.6007 22.7819 7.6007C22.5917 7.6007 22.4049 7.65075 22.2402 7.74583L18.416 9.63083C18.3852 8.7897 18.0292 7.99335 17.423 7.40939C16.8168 6.82544 16.0077 6.49943 15.166 6.5H5.41602C4.55406 6.5 3.72741 6.84241 3.11792 7.4519C2.50843 8.0614 2.16602 8.88805 2.16602 9.75V16.25C2.16602 17.112 2.50843 17.9386 3.11792 18.5481C3.72741 19.1576 4.55406 19.5 5.41602 19.5H15.166C16.0077 19.5006 16.8168 19.1746 17.423 18.5906C18.0292 18.0067 18.3852 17.2103 18.416 16.3692L22.2727 18.2975C22.4203 18.3732 22.5834 18.414 22.7493 18.4167C22.9522 18.4173 23.1511 18.361 23.3235 18.2542C23.4796 18.1566 23.6083 18.0208 23.6974 17.8597C23.7865 17.6986 23.8331 17.5174 23.8327 17.3333V8.66667C23.8331 8.48256 23.7865 8.3014 23.6974 8.14028C23.6083 7.97916 23.4796 7.84341 23.3235 7.74583ZM16.2493 16.25C16.2493 16.5373 16.1352 16.8129 15.932 17.016C15.7289 17.2192 15.4533 17.3333 15.166 17.3333H5.41602C5.1287 17.3333 4.85315 17.2192 4.64998 17.016C4.44682 16.8129 4.33268 16.5373 4.33268 16.25V9.75C4.33268 9.46268 4.44682 9.18713 4.64998 8.98397C4.85315 8.7808 5.1287 8.66667 5.41602 8.66667H15.166C15.4533 8.66667 15.7289 8.7808 15.932 8.98397C16.1352 9.18713 16.2493 9.46268 16.2493 9.75V16.25ZM21.666 15.5783L18.416 13.9533V12.0467L21.666 10.4217V15.5783Z" fill="#7B7B7B"/>
</svg>
