<svg width="24" height="24" viewBox="0 0 24 24" fill="none" xmlns="http://www.w3.org/2000/svg">
<path d="M11.9743 12.7292L8.43431 9.18922C8.24695 9.00297 7.9935 8.89843 7.72931 8.89843C7.46513 8.89843 7.21168 9.00297 7.02431 9.18922C6.93059 9.28218 6.85619 9.39279 6.80542 9.51464C6.75465 9.6365 6.72852 9.76721 6.72852 9.89922C6.72852 10.0312 6.75465 10.1619 6.80542 10.2838C6.85619 10.4057 6.93059 10.5163 7.02431 10.6092L11.2643 14.8492C11.3573 14.9429 11.4679 15.0173 11.5897 15.0681C11.7116 15.1189 11.8423 15.145 11.9743 15.145C12.1063 15.145 12.237 15.1189 12.3589 15.0681C12.4807 15.0173 12.5914 14.9429 12.6843 14.8492L16.9743 10.6092C17.067 10.5158 17.1403 10.405 17.1901 10.2831C17.2398 10.1613 17.2651 10.0308 17.2643 9.89922C17.2651 9.76761 17.2398 9.63715 17.1901 9.51531C17.1403 9.39348 17.067 9.28266 16.9743 9.18922C16.787 9.00297 16.5335 8.89843 16.2693 8.89843C16.0051 8.89843 15.7517 9.00297 15.5643 9.18922L11.9743 12.7292Z" fill="#1F1F1F"/>
</svg>
