<svg width="532" height="186" viewBox="0 0 532 186" fill="none" xmlns="http://www.w3.org/2000/svg">
<path d="M179 17.7139L252.34 52.7734L263.77 186L179 137.417V17.7139Z" fill="#288AF2"/>
<path d="M201.309 0L263.771 60.6522V186L201.309 133.435V0Z" fill="#2379D5"/>
<path d="M353 17.7139L275.8 52.7734L263.768 186L353 137.417V17.7139Z" fill="#25AAFF"/>
<path d="M321.77 0L263.769 60.6522V186L321.77 133.435V0Z" fill="#2A91FF"/>
<path d="M87.3047 164H115.332V138.902H133.691V115.27H115.332V23.082H73.7305C44.8242 65.6602 29.4922 90.3672 17.1875 113.805V138.902H87.3047V164ZM43.0664 115.367C54.4922 93.2969 66.7969 74.0586 87.3047 43.9805H87.8906V116.148H43.0664V115.367Z" fill="#1886FF"/>
<path d="M457 167.125C492.449 167.125 513.934 138.707 513.934 93.1992C513.934 47.6914 492.254 19.8594 457 19.8594C421.746 19.8594 399.969 47.7891 399.969 93.2969C399.969 138.902 421.551 167.125 457 167.125ZM457 143.492C440.203 143.492 429.949 125.328 429.949 93.2969C429.949 61.5586 440.398 43.4922 457 43.4922C473.699 43.4922 483.953 61.4609 483.953 93.2969C483.953 125.426 473.797 143.492 457 143.492Z" fill="#1886FF"/>
</svg>
