<svg width="12" height="12" viewBox="0 0 12 12" fill="none" xmlns="http://www.w3.org/2000/svg">
<path d="M4.92029 1.54249C5.44496 0.792934 6.55504 0.792934 7.07971 1.54249C7.37351 1.96222 7.88393 2.17364 8.38847 2.0846C9.28948 1.92558 10.0744 2.71052 9.9154 3.61153C9.82636 4.11607 10.0378 4.62649 10.4575 4.92029C11.2071 5.44496 11.2071 6.55504 10.4575 7.07971C10.0378 7.37351 9.82636 7.88393 9.9154 8.38847C10.0744 9.28948 9.28948 10.0744 8.38847 9.9154C7.88393 9.82636 7.37351 10.0378 7.07971 10.4575C6.55504 11.2071 5.44496 11.2071 4.92029 10.4575C4.62649 10.0378 4.11607 9.82636 3.61153 9.9154C2.71052 10.0744 1.92558 9.28948 2.0846 8.38847C2.17364 7.88393 1.96222 7.37351 1.54249 7.07971C0.792934 6.55504 0.792934 5.44496 1.54249 4.92029C1.96222 4.62649 2.17364 4.11607 2.0846 3.61153C1.92558 2.71052 2.71052 1.92558 3.61153 2.0846C4.11607 2.17364 4.62649 1.96222 4.92029 1.54249Z" fill="#1886FF"/>
<path d="M4.19922 6.6001L5.39922 7.8001" stroke="white" stroke-linecap="round"/>
<path d="M5.39844 7.80005L7.79844 4.80005" stroke="white" stroke-linecap="round"/>
</svg>
