<svg width="24" height="24" viewBox="0 0 24 24" fill="none" xmlns="http://www.w3.org/2000/svg">
<path d="M11.9753 12.7292L8.43529 9.18922C8.24793 9.00297 7.99448 8.89843 7.73029 8.89843C7.4661 8.89843 7.21265 9.00297 7.02529 9.18922C6.93156 9.28218 6.85717 9.39279 6.8064 9.51464C6.75563 9.6365 6.72949 9.76721 6.72949 9.89922C6.72949 10.0312 6.75563 10.1619 6.8064 10.2838C6.85717 10.4057 6.93156 10.5163 7.02529 10.6092L11.2653 14.8492C11.3583 14.9429 11.4689 15.0173 11.5907 15.0681C11.7126 15.1189 11.8433 15.145 11.9753 15.145C12.1073 15.145 12.238 15.1189 12.3599 15.0681C12.4817 15.0173 12.5923 14.9429 12.6853 14.8492L16.9753 10.6092C17.068 10.5158 17.1413 10.405 17.1911 10.2831C17.2408 10.1613 17.2661 10.0308 17.2653 9.89922C17.2661 9.76761 17.2408 9.63715 17.1911 9.51531C17.1413 9.39348 17.068 9.28266 16.9753 9.18922C16.7879 9.00297 16.5345 8.89843 16.2703 8.89843C16.0061 8.89843 15.7527 9.00297 15.5653 9.18922L11.9753 12.7292Z" fill="#1886FF"/>
</svg>
