<svg width="20" height="20" viewBox="0 0 20 20" fill="none" xmlns="http://www.w3.org/2000/svg">
<path d="M16.8898 3.11019L17.5969 2.40309V2.40309L16.8898 3.11019ZM5.41667 17.5296V18.5296C5.68188 18.5296 5.93624 18.4242 6.12377 18.2367L5.41667 17.5296ZM2.5 17.5296H1.5C1.5 18.0819 1.94772 18.5296 2.5 18.5296V17.5296ZM2.5 14.5537L1.79289 13.8466C1.60536 14.0341 1.5 14.2885 1.5 14.5537H2.5ZM13.4006 3.65309C13.0101 3.26256 12.3769 3.26256 11.9864 3.65309C11.5959 4.04361 11.5959 4.67678 11.9864 5.0673L13.4006 3.65309ZM14.9327 8.01358C15.3232 8.4041 15.9563 8.4041 16.3469 8.01358C16.7374 7.62305 16.7374 6.98989 16.3469 6.59937L14.9327 8.01358ZM14.6506 3.8173C15.0737 3.39423 15.7596 3.39423 16.1827 3.8173L17.5969 2.40309C16.3928 1.19897 14.4405 1.19897 13.2364 2.40309L14.6506 3.8173ZM16.1827 3.8173C16.6057 4.24037 16.6057 4.9263 16.1827 5.34937L17.5969 6.76358C18.801 5.55946 18.801 3.6072 17.5969 2.40309L16.1827 3.8173ZM16.1827 5.34937L4.70956 16.8225L6.12377 18.2367L17.5969 6.76358L16.1827 5.34937ZM5.41667 16.5296H2.5V18.5296H5.41667V16.5296ZM13.2364 2.40309L1.79289 13.8466L3.20711 15.2608L14.6506 3.8173L13.2364 2.40309ZM1.5 14.5537V17.5296H3.5V14.5537H1.5ZM11.9864 5.0673L14.9327 8.01358L16.3469 6.59937L13.4006 3.65309L11.9864 5.0673Z" fill="#A7A7A7"/>
</svg>
