<svg width="24" height="24" viewBox="0 0 24 24" fill="none" xmlns="http://www.w3.org/2000/svg">
<path d="M10.2929 16.7071C10.6834 17.0976 11.3166 17.0976 11.7071 16.7071C12.0976 16.3166 12.0976 15.6834 11.7071 15.2929L10.2929 16.7071ZM7 12L6.29289 11.2929C5.90237 11.6834 5.90237 12.3166 6.29289 12.7071L7 12ZM11.7071 8.70711C12.0976 8.31658 12.0976 7.68342 11.7071 7.29289C11.3166 6.90237 10.6834 6.90237 10.2929 7.29289L11.7071 8.70711ZM21 13C21.5523 13 22 12.5523 22 12C22 11.4477 21.5523 11 21 11V13ZM17 16C17 15.4477 16.5523 15 16 15C15.4477 15 15 15.4477 15 16H17ZM15 8C15 8.55228 15.4477 9 16 9C16.5523 9 17 8.55228 17 8H15ZM4 17V7H2V17H4ZM2 17C2 19.2091 3.79086 21 6 21V19C4.89543 19 4 18.1046 4 17H2ZM4 7C4 5.89543 4.89543 5 6 5V3C3.79086 3 2 4.79086 2 7H4ZM11.7071 15.2929L7.70711 11.2929L6.29289 12.7071L10.2929 16.7071L11.7071 15.2929ZM7.70711 12.7071L11.7071 8.70711L10.2929 7.29289L6.29289 11.2929L7.70711 12.7071ZM7 13L21 13V11L7 11V13ZM6 21H13V19H6V21ZM17 17V16H15V17H17ZM6 5H13V3H6V5ZM15 7V8H17V7H15ZM13 5C14.1046 5 15 5.89543 15 7H17C17 4.79086 15.2091 3 13 3V5ZM13 21C15.2091 21 17 19.2091 17 17H15C15 18.1046 14.1046 19 13 19V21Z" fill="#1F1F1F"/>
</svg>
