<svg width="24" height="24" viewBox="0 0 24 24" fill="none" xmlns="http://www.w3.org/2000/svg">
<path d="M4 5C3.44772 5 3 5.44772 3 6C3 6.55228 3.44772 7 4 7V5ZM20 7C20.5523 7 21 6.55228 21 6C21 5.44772 20.5523 5 20 5V7ZM6 11C5.44772 11 5 11.4477 5 12C5 12.5523 5.44772 13 6 13V11ZM18 13C18.5523 13 19 12.5523 19 12C19 11.4477 18.5523 11 18 11V13ZM8 17C7.44772 17 7 17.4477 7 18C7 18.5523 7.44772 19 8 19V17ZM16 19C16.5523 19 17 18.5523 17 18C17 17.4477 16.5523 17 16 17V19ZM4 7H20V5H4V7ZM6 13H18V11H6V13ZM8 19H16V17H8V19Z" fill="#687684"/>
</svg>
