<svg width="30" height="30" viewBox="0 0 30 30" fill="none" xmlns="http://www.w3.org/2000/svg">
<rect x="29.5" y="29.5" width="29" height="29" rx="14.5" transform="rotate(-180 29.5 29.5)" stroke="#A7A7A7"/>
<path d="M14.3921 14.9793L17.3421 12.0293C17.4973 11.8732 17.5844 11.662 17.5844 11.4418C17.5844 11.2217 17.4973 11.0105 17.3421 10.8543C17.2646 10.7762 17.1724 10.7142 17.0709 10.6719C16.9693 10.6296 16.8604 10.6078 16.7504 10.6078C16.6404 10.6078 16.5315 10.6296 16.4299 10.6719C16.3284 10.7142 16.2362 10.7762 16.1587 10.8543L12.6254 14.3877C12.5473 14.4652 12.4853 14.5573 12.443 14.6589C12.4007 14.7604 12.3789 14.8693 12.3789 14.9793C12.3789 15.0894 12.4007 15.1983 12.443 15.2998C12.4853 15.4014 12.5473 15.4935 12.6254 15.571L16.1587 19.146C16.2366 19.2232 16.329 19.2844 16.4305 19.3258C16.532 19.3673 16.6407 19.3883 16.7504 19.3877C16.8601 19.3883 16.9688 19.3673 17.0703 19.3258C17.1719 19.2844 17.2642 19.2232 17.3421 19.146C17.4973 18.9899 17.5844 18.7787 17.5844 18.5585C17.5844 18.3384 17.4973 18.1272 17.3421 17.971L14.3921 14.9793Z" fill="#A7A7A7"/>
</svg>
