<svg width="24" height="24" viewBox="0 0 24 24" fill="none" xmlns="http://www.w3.org/2000/svg">
<path d="M14.4472 10.8944C14.9412 10.6474 15.1414 10.0468 14.8944 9.55279C14.6474 9.05881 14.0468 8.85858 13.5528 9.10557L14.4472 10.8944ZM20 7H21C21 6.62123 20.786 6.27496 20.4472 6.10557L20 7ZM17.5528 7.10557C17.0588 7.35256 16.8586 7.95324 17.1056 8.44721C17.3526 8.94119 17.9532 9.14142 18.4472 8.89443L17.5528 7.10557ZM18.4472 5.10557C17.9532 4.85858 17.3526 5.05881 17.1056 5.55279C16.8586 6.04676 17.0588 6.64744 17.5528 6.89443L18.4472 5.10557ZM12 3L12.4472 2.10557C12.1657 1.96481 11.8343 1.96481 11.5528 2.10557L12 3ZM13.5528 4.89443C14.0468 5.14142 14.6474 4.94119 14.8944 4.44721C15.1414 3.95324 14.9412 3.35256 14.4472 3.10557L13.5528 4.89443ZM9.55279 3.10557C9.05881 3.35256 8.85858 3.95324 9.10557 4.44721C9.35256 4.94119 9.95324 5.14142 10.4472 4.89443L9.55279 3.10557ZM4 7L3.55279 6.10557C3.214 6.27496 3 6.62123 3 7H4ZM6.44721 6.89443C6.94119 6.64744 7.14142 6.04676 6.89443 5.55279C6.64744 5.05881 6.04676 4.85858 5.55279 5.10557L6.44721 6.89443ZM5.55279 8.89443C6.04676 9.14142 6.64744 8.94119 6.89443 8.44721C7.14142 7.95324 6.94119 7.35256 6.44721 7.10557L5.55279 8.89443ZM10.4472 9.10557C9.95324 8.85858 9.35256 9.05881 9.10557 9.55279C8.85858 10.0468 9.05881 10.6474 9.55279 10.8944L10.4472 9.10557ZM12 21L11.5528 21.8944C11.8343 22.0352 12.1657 22.0352 12.4472 21.8944L12 21ZM10.4472 19.1056C9.95324 18.8586 9.35256 19.0588 9.10557 19.5528C8.85858 20.0468 9.05881 20.6474 9.55279 20.8944L10.4472 19.1056ZM5.55279 18.8944C6.04676 19.1414 6.64744 18.9412 6.89443 18.4472C7.14142 17.9532 6.94119 17.3526 6.44721 17.1056L5.55279 18.8944ZM4 17H3C3 17.3788 3.214 17.725 3.55279 17.8944L4 17ZM20 17L20.4472 17.8944C20.786 17.725 21 17.3788 21 17H20ZM17.5528 17.1056C17.0588 17.3526 16.8586 17.9532 17.1056 18.4472C17.3526 18.9412 17.9532 19.1414 18.4472 18.8944L17.5528 17.1056ZM14.4472 20.8944C14.9412 20.6474 15.1414 20.0468 14.8944 19.5528C14.6474 19.0588 14.0468 18.8586 13.5528 19.1056L14.4472 20.8944ZM19 9.5C19 10.0523 19.4477 10.5 20 10.5C20.5523 10.5 21 10.0523 21 9.5H19ZM21 14.5C21 13.9477 20.5523 13.5 20 13.5C19.4477 13.5 19 13.9477 19 14.5H21ZM3 9.5C3 10.0523 3.44772 10.5 4 10.5C4.55228 10.5 5 10.0523 5 9.5H3ZM5 14.5C5 13.9477 4.55228 13.5 4 13.5C3.44772 13.5 3 13.9477 3 14.5H5ZM11 13.5C11 14.0523 11.4477 14.5 12 14.5C12.5523 14.5 13 14.0523 13 13.5H11ZM13 18.5C13 17.9477 12.5523 17.5 12 17.5C11.4477 17.5 11 17.9477 11 18.5H13ZM13.5528 9.10557L11.5528 10.1056L12.4472 11.8944L14.4472 10.8944L13.5528 9.10557ZM19.5528 6.10557L17.5528 7.10557L18.4472 8.89443L20.4472 7.89443L19.5528 6.10557ZM17.5528 6.89443L19.5528 7.89443L20.4472 6.10557L18.4472 5.10557L17.5528 6.89443ZM11.5528 3.89443L13.5528 4.89443L14.4472 3.10557L12.4472 2.10557L11.5528 3.89443ZM10.4472 4.89443L12.4472 3.89443L11.5528 2.10557L9.55279 3.10557L10.4472 4.89443ZM4.44721 7.89443L6.44721 6.89443L5.55279 5.10557L3.55279 6.10557L4.44721 7.89443ZM6.44721 7.10557L4.44721 6.10557L3.55279 7.89443L5.55279 8.89443L6.44721 7.10557ZM12.4472 10.1056L10.4472 9.10557L9.55279 10.8944L11.5528 11.8944L12.4472 10.1056ZM12.4472 20.1056L10.4472 19.1056L9.55279 20.8944L11.5528 21.8944L12.4472 20.1056ZM6.44721 17.1056L4.44721 16.1056L3.55279 17.8944L5.55279 18.8944L6.44721 17.1056ZM19.5528 16.1056L17.5528 17.1056L18.4472 18.8944L20.4472 17.8944L19.5528 16.1056ZM13.5528 19.1056L11.5528 20.1056L12.4472 21.8944L14.4472 20.8944L13.5528 19.1056ZM21 9.5V7H19V9.5H21ZM21 17V14.5H19V17H21ZM5 9.5V7H3V9.5H5ZM5 17V14.5H3V17H5ZM11 11V13.5H13V11H11ZM11 18.5V21H13V18.5H11Z" fill="#1886FF"/>
</svg>
