<svg width="20" height="20" viewBox="0 0 20 20" fill="none" xmlns="http://www.w3.org/2000/svg">
<path d="M11.0007 4.16665C11.0007 3.61436 10.5529 3.16665 10.0007 3.16665C9.44837 3.16665 9.00065 3.61436 9.00065 4.16665L11.0007 4.16665ZM9.00065 4.17498C9.00065 4.72726 9.44837 5.17498 10.0007 5.17498C10.5529 5.17498 11.0007 4.72726 11.0007 4.17498L9.00065 4.17498ZM11.0006 9.99998C11.0006 9.44769 10.5529 8.99998 10.0006 8.99998C9.44837 8.99998 9.00065 9.44769 9.00065 9.99998L11.0006 9.99998ZM9.00065 10.0083C9.00065 10.5606 9.44837 11.0083 10.0006 11.0083C10.5529 11.0083 11.0006 10.5606 11.0006 10.0083L9.00065 10.0083ZM11.0006 15.8333C11.0006 15.281 10.5529 14.8333 10.0006 14.8333C9.44836 14.8333 9.00065 15.281 9.00065 15.8333L11.0006 15.8333ZM9.00065 15.8416C9.00065 16.3939 9.44836 16.8416 10.0006 16.8416C10.5529 16.8416 11.0006 16.3939 11.0006 15.8416L9.00065 15.8416ZM10.0007 3.99998C10.0927 3.99998 10.1673 4.0746 10.1673 4.16665L8.16732 4.16665C8.16732 5.17917 8.98813 5.99998 10.0007 5.99998L10.0007 3.99998ZM10.1673 4.16665C10.1673 4.25869 10.0927 4.33331 10.0007 4.33331L10.0007 2.33331C8.98813 2.33331 8.16732 3.15412 8.16732 4.16665L10.1673 4.16665ZM10.0007 4.33331C9.9086 4.33331 9.83398 4.25869 9.83398 4.16665L11.834 4.16665C11.834 3.15412 11.0132 2.33331 10.0007 2.33331L10.0007 4.33331ZM9.83398 4.16665C9.83398 4.0746 9.9086 3.99998 10.0007 3.99998L10.0007 5.99998C11.0132 5.99998 11.834 5.17917 11.834 4.16665L9.83398 4.16665ZM10.0006 9.83331C10.0927 9.83331 10.1673 9.90793 10.1673 9.99998L8.16732 9.99998C8.16732 11.0125 8.98813 11.8333 10.0006 11.8333L10.0006 9.83331ZM10.1673 9.99998C10.1673 10.092 10.0927 10.1666 10.0006 10.1666L10.0007 8.16665C8.98813 8.16665 8.16732 8.98746 8.16732 9.99998L10.1673 9.99998ZM10.0006 10.1666C9.9086 10.1666 9.83398 10.092 9.83398 9.99998L11.834 9.99998C11.834 8.98746 11.0132 8.16665 10.0007 8.16665L10.0006 10.1666ZM9.83398 9.99998C9.83398 9.90793 9.9086 9.83331 10.0006 9.83331L10.0006 11.8333C11.0132 11.8333 11.834 11.0125 11.834 9.99998L9.83398 9.99998ZM10.0006 15.6666C10.0927 15.6666 10.1673 15.7413 10.1673 15.8333L8.16732 15.8333C8.16732 16.8458 8.98813 17.6666 10.0006 17.6666L10.0006 15.6666ZM10.1673 15.8333C10.1673 15.9254 10.0927 16 10.0006 16L10.0006 14C8.98813 14 8.16732 14.8208 8.16732 15.8333L10.1673 15.8333ZM10.0006 16C9.9086 16 9.83398 15.9254 9.83398 15.8333L11.834 15.8333C11.834 14.8208 11.0132 14 10.0006 14L10.0006 16ZM9.83398 15.8333C9.83398 15.7413 9.9086 15.6666 10.0006 15.6666L10.0006 17.6666C11.0132 17.6666 11.834 16.8458 11.834 15.8333L9.83398 15.8333ZM9.00065 4.16665L9.00065 4.17498L11.0007 4.17498L11.0007 4.16665L9.00065 4.16665ZM9.00065 9.99998L9.00065 10.0083L11.0006 10.0083L11.0006 9.99998L9.00065 9.99998ZM9.00065 15.8333L9.00065 15.8416L11.0006 15.8416L11.0006 15.8333L9.00065 15.8333Z" fill="#E4E4E4"/>
</svg>
