<svg width="24" height="24" viewBox="0 0 24 24" fill="none" xmlns="http://www.w3.org/2000/svg">
<path d="M8.17157 10.1716L8.87868 10.8787L8.17157 10.1716ZM13.1213 10.8787C13.5118 11.2692 14.145 11.2692 14.5355 10.8787C14.9261 10.4882 14.9261 9.85499 14.5355 9.46447L13.1213 10.8787ZM9.82843 19.8284L9.12132 19.1213H9.12132L9.82843 19.8284ZM4.17157 19.8284L3.46447 20.5355H3.46447L4.17157 19.8284ZM4.17157 14.1716L4.87868 14.8787L4.17157 14.1716ZM11.6371 19.434C12.0276 19.0434 12.0276 18.4103 11.6371 18.0198C11.2466 17.6292 10.6134 17.6292 10.2229 18.0198L11.6371 19.434ZM14.1716 4.17157L13.4645 3.46447V3.46447L14.1716 4.17157ZM19.8284 4.17157L19.1213 4.87868V4.87868L19.8284 4.17157ZM19.8284 9.82843L19.1213 9.12132V9.12132L19.8284 9.82843ZM15.8284 13.8284L15.1213 13.1213L15.8284 13.8284ZM10.8787 13.1213C10.4882 12.7308 9.85499 12.7308 9.46447 13.1213C9.07394 13.5118 9.07394 14.145 9.46447 14.5355L10.8787 13.1213ZM12.3649 4.56408C11.9743 4.9546 11.9743 5.58777 12.3649 5.97829C12.7554 6.36881 13.3885 6.36881 13.7791 5.97829L12.3649 4.56408ZM8.87868 10.8787C10.0503 9.70711 11.9497 9.70711 13.1213 10.8787L14.5355 9.46447C12.5829 7.51184 9.41709 7.51184 7.46447 9.46447L8.87868 10.8787ZM9.12132 19.1213C7.94975 20.2929 6.05025 20.2929 4.87868 19.1213L3.46447 20.5355C5.41709 22.4882 8.58291 22.4882 10.5355 20.5355L9.12132 19.1213ZM4.87868 19.1213C3.70711 17.9497 3.70711 16.0503 4.87868 14.8787L3.46447 13.4645C1.51184 15.4171 1.51184 18.5829 3.46447 20.5355L4.87868 19.1213ZM4.87868 14.8787L8.87868 10.8787L7.46447 9.46447L3.46447 13.4645L4.87868 14.8787ZM10.2229 18.0198L9.12132 19.1213L10.5355 20.5355L11.6371 19.434L10.2229 18.0198ZM14.8787 4.87868C16.0503 3.70711 17.9497 3.70711 19.1213 4.87868L20.5355 3.46447C18.5829 1.51184 15.4171 1.51184 13.4645 3.46447L14.8787 4.87868ZM19.1213 4.87868C20.2929 6.05025 20.2929 7.94975 19.1213 9.12132L20.5355 10.5355C22.4882 8.58291 22.4882 5.41709 20.5355 3.46447L19.1213 4.87868ZM15.1213 13.1213C13.9497 14.2929 12.0503 14.2929 10.8787 13.1213L9.46447 14.5355C11.4171 16.4882 14.5829 16.4882 16.5355 14.5355L15.1213 13.1213ZM19.1213 9.12132L15.1213 13.1213L16.5355 14.5355L20.5355 10.5355L19.1213 9.12132ZM13.7791 5.97829L14.8787 4.87868L13.4645 3.46447L12.3649 4.56408L13.7791 5.97829Z" fill="#ffffff"/>
</svg>
