<svg width="160" height="46" viewBox="0 0 160 46" fill="none" xmlns="http://www.w3.org/2000/svg">
<path d="M160 41.3889C160 43.9365 157.94 46 155.393 46H4.61342C2.06697 46 0 43.9365 0 41.3889V4.6171C0 2.07077 2.06697 0 4.61342 0H155.391C157.94 0 159.999 2.07077 159.999 4.6171L160 41.3889Z" fill="#687684"/>
<path d="M54.3008 17.1406C56.1699 17.1406 57.4238 16.209 57.8105 14.5391H56.7441C56.4395 15.5703 55.5488 16.168 54.3066 16.168C52.6367 16.168 51.5762 14.8438 51.5762 12.7695C51.5762 10.7129 52.6484 9.37695 54.3008 9.37695C55.5078 9.37695 56.4746 10.1035 56.7441 11.2109H57.8105C57.541 9.52344 56.1406 8.4043 54.3008 8.4043C51.9863 8.4043 50.4922 10.1152 50.4922 12.7695C50.4922 15.4473 51.9688 17.1406 54.3008 17.1406ZM62.5658 17.1055C64.2474 17.1055 65.3841 15.8926 65.3841 13.9531C65.3841 12.0078 64.2474 10.8008 62.5658 10.8008C60.8783 10.8008 59.7416 12.0078 59.7416 13.9531C59.7416 15.8926 60.8783 17.1055 62.5658 17.1055ZM62.5658 16.209C61.4877 16.209 60.7787 15.3887 60.7787 13.9531C60.7787 12.5176 61.4877 11.6973 62.5658 11.6973C63.6439 11.6973 64.347 12.5176 64.347 13.9531C64.347 15.3887 63.6439 16.209 62.5658 16.209ZM67.5554 17H68.5749V13.1797C68.5749 12.3359 69.1609 11.7031 69.9695 11.7031C70.7253 11.7031 71.2175 12.1836 71.2175 12.916V17H72.237V13.127C72.237 12.3008 72.8054 11.7031 73.614 11.7031C74.4167 11.7031 74.8796 12.1953 74.8796 13.0273V17H75.8991V12.793C75.8991 11.5859 75.1198 10.8008 73.9128 10.8008C73.0573 10.8008 72.3425 11.2344 72.0027 11.9609H71.9792C71.7155 11.2227 71.1003 10.8008 70.2683 10.8008C69.448 10.8008 68.8269 11.2344 68.5398 11.8789H68.5163V10.9062H67.5554V17ZM78.3927 17H79.4122V10.9062H78.3927V17ZM78.9024 9.88086C79.254 9.88086 79.5411 9.59375 79.5411 9.24805C79.5411 8.89648 79.254 8.61523 78.9024 8.61523C78.5567 8.61523 78.2696 8.89648 78.2696 9.24805C78.2696 9.59375 78.5567 9.88086 78.9024 9.88086ZM81.9291 17H82.9487V13.4141C82.9487 12.3828 83.5756 11.7031 84.5366 11.7031C85.4741 11.7031 85.937 12.2422 85.937 13.2266V17H86.9565V13.0449C86.9565 11.6621 86.183 10.8008 84.8471 10.8008C83.9037 10.8008 83.2534 11.2227 82.9135 11.8789H82.8901V10.9062H81.9291V17ZM91.8758 16.1504C90.827 16.1504 90.1414 15.2949 90.1414 13.9297C90.1414 12.5645 90.827 11.6973 91.8758 11.6973C92.9363 11.6973 93.6453 12.5879 93.6453 13.9297C93.6453 15.2715 92.9363 16.1504 91.8758 16.1504ZM91.9109 19.2969C93.5926 19.2969 94.6648 18.3301 94.6648 16.877V10.9062H93.6922V11.9316H93.6746C93.2703 11.2227 92.5555 10.8008 91.6941 10.8008C90.118 10.8008 89.0984 12.0195 89.0984 13.9297C89.0984 15.8223 90.118 17.0469 91.6707 17.0469C92.5262 17.0469 93.2469 16.6133 93.6219 15.9512H93.6453V16.9121C93.6453 17.8203 93.0066 18.4297 91.952 18.4297C91.1902 18.4297 90.5867 18.0605 90.3875 17.5039H89.3387C89.5086 18.541 90.5691 19.2969 91.9109 19.2969ZM100.63 12.5879C100.63 13.4199 101.158 13.9707 102.23 14.2461L103.302 14.5215C103.988 14.7031 104.24 14.9375 104.24 15.3711C104.24 15.9219 103.73 16.2734 102.904 16.2734C102.078 16.2734 101.597 15.9336 101.486 15.3008H100.466C100.572 16.3789 101.503 17.1055 102.839 17.1055C104.263 17.1055 105.265 16.3555 105.265 15.2949C105.265 14.3984 104.82 13.9531 103.589 13.6426L102.646 13.4141C101.955 13.2383 101.632 12.957 101.632 12.5352C101.632 12.002 102.125 11.6328 102.869 11.6328C103.619 11.6328 104.093 11.9961 104.164 12.582H105.136C105.089 11.5508 104.164 10.8008 102.904 10.8008C101.562 10.8008 100.63 11.5449 100.63 12.5879ZM109.991 17.1055C111.673 17.1055 112.809 15.8926 112.809 13.9531C112.809 12.0078 111.673 10.8008 109.991 10.8008C108.304 10.8008 107.167 12.0078 107.167 13.9531C107.167 15.8926 108.304 17.1055 109.991 17.1055ZM109.991 16.209C108.913 16.209 108.204 15.3887 108.204 13.9531C108.204 12.5176 108.913 11.6973 109.991 11.6973C111.069 11.6973 111.772 12.5176 111.772 13.9531C111.772 15.3887 111.069 16.209 109.991 16.209ZM117.506 17.1055C119.188 17.1055 120.324 15.8926 120.324 13.9531C120.324 12.0078 119.188 10.8008 117.506 10.8008C115.819 10.8008 114.682 12.0078 114.682 13.9531C114.682 15.8926 115.819 17.1055 117.506 17.1055ZM117.506 16.209C116.428 16.209 115.719 15.3887 115.719 13.9531C115.719 12.5176 116.428 11.6973 117.506 11.6973C118.584 11.6973 119.287 12.5176 119.287 13.9531C119.287 15.3887 118.584 16.209 117.506 16.209ZM122.496 17H123.515V13.4141C123.515 12.3828 124.142 11.7031 125.103 11.7031C126.041 11.7031 126.504 12.2422 126.504 13.2266V17H127.523V13.0449C127.523 11.6621 126.75 10.8008 125.414 10.8008C124.47 10.8008 123.82 11.2227 123.48 11.8789H123.457V10.9062H122.496V17Z" fill="white"/>
<path d="M35.2109 22.7425C35.1762 18.8907 38.3738 17.0167 38.52 16.9295C36.7091 14.2967 33.9022 13.937 32.9158 13.9083C30.5584 13.6609 28.2716 15.3149 27.0707 15.3149C25.8458 15.3149 23.9966 13.9322 22.0034 13.9728C19.4387 14.0123 17.0393 15.493 15.7233 17.7924C13.0075 22.4807 15.033 29.3705 17.6349 33.1601C18.9365 35.0161 20.4574 37.0884 22.4481 37.0155C24.3957 36.9354 25.1231 35.7774 27.4734 35.7774C29.8021 35.7774 30.4852 37.0155 32.5155 36.9689C34.6057 36.9354 35.9216 35.1045 37.1777 33.2318C38.6818 31.1046 39.2858 29.0096 39.3098 28.902C39.2607 28.8853 35.2505 27.3591 35.2109 22.7425Z" fill="white"/>
<path d="M31.3757 11.4153C32.4232 10.1091 33.1399 8.33197 32.941 6.52856C31.4249 6.59549 29.5288 7.57428 28.437 8.85183C27.471 9.97762 26.6081 11.8228 26.831 13.5581C28.5341 13.6848 30.2827 12.7012 31.3757 11.4153Z" fill="white"/>
<path d="M63.3949 36.7484H60.6731L59.1821 32.0767H53.9998L52.5796 36.7484H49.9297L55.0641 20.844H58.2353L63.3949 36.7484ZM58.7327 30.1168L57.3844 25.9638C57.2417 25.5395 56.9745 24.5404 56.5802 22.9677H56.5322C56.3752 23.6441 56.1223 24.6432 55.7748 25.9638L54.4504 30.1168H58.7327Z" fill="white"/>
<path d="M76.5988 30.8732C76.5988 32.8236 76.0703 34.3652 75.0132 35.497C74.0664 36.5045 72.8906 37.0076 71.4872 37.0076C69.9723 37.0076 68.884 36.465 68.2213 35.3799H68.1733V41.4211H65.6181V29.0554C65.6181 27.8293 65.5858 26.5708 65.5234 25.2801H67.7706L67.9132 27.0979H67.9612C68.8133 25.7283 70.1065 25.0447 71.8419 25.0447C73.1986 25.0447 74.3312 25.5789 75.2373 26.6485C76.1458 27.7193 76.5988 29.1271 76.5988 30.8732ZM73.9956 30.9664C73.9956 29.8502 73.744 28.9299 73.2382 28.2057C72.6857 27.4504 71.9438 27.0728 71.0138 27.0728C70.3834 27.0728 69.8105 27.2831 69.2987 27.6978C68.7858 28.1161 68.4502 28.6622 68.2932 29.3387C68.2141 29.6542 68.1745 29.9123 68.1745 30.1155V32.0276C68.1745 32.8618 68.431 33.5657 68.944 34.1406C69.4569 34.7154 70.1233 35.0022 70.9431 35.0022C71.9055 35.0022 72.6545 34.6318 73.1903 33.8932C73.7272 33.1534 73.9956 32.1782 73.9956 30.9664Z" fill="white"/>
<path d="M89.8281 30.8732C89.8281 32.8236 89.2995 34.3652 88.2412 35.497C87.2956 36.5045 86.1199 37.0076 84.7165 37.0076C83.2015 37.0076 82.1133 36.465 81.4517 35.3799H81.4038V41.4211H78.8486V29.0554C78.8486 27.8293 78.8162 26.5708 78.7539 25.2801H81.0011L81.1437 27.0979H81.1917C82.0426 25.7283 83.3358 25.0447 85.0724 25.0447C86.4279 25.0447 87.5605 25.5789 88.469 26.6485C89.3738 27.7193 89.8281 29.1271 89.8281 30.8732ZM87.2249 30.9664C87.2249 29.8502 86.972 28.9299 86.4663 28.2057C85.9138 27.4504 85.1743 27.0728 84.243 27.0728C83.6114 27.0728 83.0398 27.2831 82.5268 27.6978C82.0138 28.1161 81.6794 28.6622 81.5224 29.3387C81.4445 29.6542 81.4038 29.9123 81.4038 30.1155V32.0276C81.4038 32.8618 81.6603 33.5657 82.1708 34.1406C82.6838 34.7142 83.3502 35.0022 84.1723 35.0022C85.1347 35.0022 85.8838 34.6318 86.4195 33.8932C86.9565 33.1534 87.2249 32.1782 87.2249 30.9664Z" fill="white"/>
<path d="M104.617 32.2884C104.617 33.6412 104.146 34.7419 103.201 35.5916C102.162 36.5202 100.715 36.9839 98.8563 36.9839C97.14 36.9839 95.7642 36.6541 94.7227 35.9932L95.3147 33.8695C96.4365 34.5459 97.6674 34.8853 99.0085 34.8853C99.9709 34.8853 100.72 34.6678 101.258 34.2352C101.794 33.8026 102.061 33.2218 102.061 32.4975C102.061 31.8522 101.841 31.3084 101.398 30.8674C100.958 30.4264 100.224 30.0165 99.1979 29.6377C96.4054 28.5991 95.0103 27.0778 95.0103 25.0772C95.0103 23.7697 95.4993 22.6977 96.4785 21.8635C97.454 21.0282 98.7556 20.6111 100.383 20.6111C101.835 20.6111 103.04 20.8632 104.003 21.3664L103.364 23.4435C102.465 22.9559 101.449 22.7121 100.311 22.7121C99.4124 22.7121 98.7101 22.9332 98.2067 23.373C97.7812 23.7661 97.5679 24.2454 97.5679 24.8131C97.5679 25.4417 97.8112 25.9615 98.3002 26.3703C98.7257 26.7479 99.4987 27.1566 100.62 27.5976C101.993 28.1486 103.001 28.7927 103.649 29.5313C104.295 30.2675 104.617 31.1889 104.617 32.2884Z" fill="white"/>
<path d="M113.065 27.1925H110.248V32.7605C110.248 34.1766 110.744 34.8841 111.739 34.8841C112.196 34.8841 112.574 34.8447 112.874 34.7658L112.945 36.7007C112.441 36.8883 111.779 36.9827 110.958 36.9827C109.948 36.9827 109.16 36.6756 108.591 36.0625C108.024 35.4482 107.738 34.4181 107.738 32.9708V27.1901H106.061V25.2779H107.738V23.1782L110.248 22.4229V25.2779H113.065V27.1925Z" fill="white"/>
<path d="M125.773 30.9196C125.773 32.6823 125.267 34.1296 124.258 35.2614C123.199 36.4266 121.795 37.0074 120.044 37.0074C118.356 37.0074 117.013 36.4493 116.011 35.3331C115.009 34.2168 114.508 32.8078 114.508 31.1096C114.508 29.3325 115.023 27.8768 116.057 26.7451C117.089 25.6121 118.482 25.0457 120.233 25.0457C121.921 25.0457 123.278 25.6038 124.303 26.7212C125.284 27.8051 125.773 29.2046 125.773 30.9196ZM123.121 31.002C123.121 29.9444 122.895 29.0373 122.436 28.2808C121.9 27.3653 121.134 26.9088 120.142 26.9088C119.115 26.9088 118.335 27.3665 117.799 28.2808C117.34 29.0385 117.113 29.9599 117.113 31.0498C117.113 32.1075 117.34 33.0146 117.799 33.7699C118.351 34.6853 119.123 35.1418 120.119 35.1418C121.095 35.1418 121.861 34.6758 122.413 33.746C122.884 32.9751 123.121 32.0585 123.121 31.002Z" fill="white"/>
<path d="M134.079 27.5209C133.826 27.4743 133.556 27.4504 133.274 27.4504C132.375 27.4504 131.68 27.7886 131.191 28.4662C130.765 29.0638 130.552 29.8191 130.552 30.731V36.7483H127.998L128.022 28.8917C128.022 27.5699 127.989 26.3665 127.926 25.2813H130.151L130.245 27.4755H130.316C130.585 26.7214 131.011 26.1143 131.593 25.659C132.163 25.249 132.777 25.0447 133.44 25.0447C133.676 25.0447 133.89 25.0614 134.079 25.0913V27.5209Z" fill="white"/>
<path d="M145.506 30.4719C145.506 30.9284 145.476 31.3132 145.412 31.6275H137.747C137.777 32.7605 138.147 33.6269 138.859 34.2245C139.505 34.7587 140.34 35.0264 141.366 35.0264C142.501 35.0264 143.537 34.8459 144.468 34.4838L144.868 36.2526C143.78 36.7258 142.495 36.9613 141.013 36.9613C139.229 36.9613 137.83 36.4378 136.811 35.3921C135.795 34.3464 135.285 32.9422 135.285 31.1806C135.285 29.4513 135.759 28.0112 136.707 26.8627C137.699 25.6365 139.04 25.0234 140.728 25.0234C142.385 25.0234 143.64 25.6365 144.492 26.8627C145.167 27.8367 145.506 29.0414 145.506 30.4719ZM143.069 29.811C143.086 29.0557 142.92 28.4032 142.573 27.8522C142.131 27.1435 141.451 26.7898 140.537 26.7898C139.702 26.7898 139.022 27.1352 138.503 27.8283C138.078 28.3793 137.825 29.0402 137.747 29.8098H143.069V29.811Z" fill="white"/>
</svg>
