<svg width="20" height="20" viewBox="0 0 20 20" fill="none" xmlns="http://www.w3.org/2000/svg">
<path d="M8.38044 2.31373C9.16745 1.1894 10.8326 1.1894 11.6196 2.31373L11.8798 2.68549C12.3205 3.31509 13.0861 3.63222 13.8429 3.49866L14.2898 3.41979C15.6413 3.18126 16.8187 4.35867 16.5802 5.71019L16.5013 6.15707C16.3678 6.91388 16.6849 7.67952 17.3145 8.12022L17.6863 8.38044C18.8106 9.16745 18.8106 10.8326 17.6863 11.6196L17.3145 11.8798C16.6849 12.3205 16.3678 13.0861 16.5013 13.8429L16.5802 14.2898C16.8187 15.6413 15.6413 16.8187 14.2898 16.5802L13.8429 16.5013C13.0861 16.3678 12.3205 16.6849 11.8798 17.3145L11.6196 17.6863C10.8326 18.8106 9.16745 18.8106 8.38044 17.6863L8.12022 17.3145C7.67952 16.6849 6.91388 16.3678 6.15707 16.5013L5.71019 16.5802C4.35867 16.8187 3.18126 15.6413 3.41979 14.2898L3.49866 13.8429C3.63222 13.0861 3.31509 12.3205 2.68549 11.8798L2.31373 11.6196C1.1894 10.8326 1.1894 9.16745 2.31373 8.38044L2.68549 8.12022C3.31509 7.67952 3.63222 6.91388 3.49866 6.15707L3.41979 5.71019C3.18126 4.35867 4.35867 3.18126 5.71019 3.41979L6.15707 3.49866C6.91388 3.63222 7.67952 3.31509 8.12022 2.68549L8.38044 2.31373Z" fill="#1886FF"/>
<path d="M7 11L9 13" stroke="white" stroke-width="1.5" stroke-linecap="round"/>
<path d="M9 13L13 8" stroke="white" stroke-width="1.5" stroke-linecap="round"/>
</svg>
