<svg width="24" height="24" viewBox="0 0 24 24" fill="none" xmlns="http://www.w3.org/2000/svg">
<path d="M11.9763 12.7307L8.43627 9.19069C8.2489 9.00443 7.99545 8.89989 7.73127 8.89989C7.46708 8.89989 7.21363 9.00444 7.02627 9.19069C6.93254 9.28365 6.85814 9.39425 6.80738 9.51611C6.75661 9.63797 6.73047 9.76867 6.73047 9.90069C6.73047 10.0327 6.75661 10.1634 6.80738 10.2853C6.85814 10.4071 6.93254 10.5177 7.02627 10.6107L11.2663 14.8507C11.3592 14.9444 11.4698 15.0188 11.5917 15.0696C11.7135 15.1203 11.8443 15.1465 11.9763 15.1465C12.1083 15.1465 12.239 15.1203 12.3608 15.0696C12.4827 15.0188 12.5933 14.9444 12.6863 14.8507L16.9763 10.6107C17.0689 10.5172 17.1423 10.4064 17.192 10.2846C17.2418 10.1628 17.267 10.0323 17.2663 9.90069C17.267 9.76908 17.2418 9.63862 17.192 9.51678C17.1423 9.39494 17.0689 9.28413 16.9763 9.19069C16.7889 9.00443 16.5355 8.89989 16.2713 8.89989C16.0071 8.89989 15.7536 9.00443 15.5663 9.19069L11.9763 12.7307Z" fill="#1F1F1F"/>
</svg>
