<svg width="18" height="18" viewBox="0 0 18 18" fill="none" xmlns="http://www.w3.org/2000/svg">
<path d="M4.71967 12.2197C4.42678 12.5126 4.42678 12.9874 4.71967 13.2803C5.01256 13.5732 5.48744 13.5732 5.78033 13.2803L4.71967 12.2197ZM13.2803 5.78033C13.5732 5.48744 13.5732 5.01256 13.2803 4.71967C12.9874 4.42678 12.5126 4.42678 12.2197 4.71967L13.2803 5.78033ZM5.78033 4.71967C5.48744 4.42678 5.01256 4.42678 4.71967 4.71967C4.42678 5.01256 4.42678 5.48744 4.71967 5.78033L5.78033 4.71967ZM12.2197 13.2803C12.5126 13.5732 12.9874 13.5732 13.2803 13.2803C13.5732 12.9874 13.5732 12.5126 13.2803 12.2197L12.2197 13.2803ZM5.78033 13.2803L13.2803 5.78033L12.2197 4.71967L4.71967 12.2197L5.78033 13.2803ZM4.71967 5.78033L12.2197 13.2803L13.2803 12.2197L5.78033 4.71967L4.71967 5.78033Z" fill="#687684"/>
</svg>
