<svg width="20" height="20" viewBox="0 0 20 20" fill="none" xmlns="http://www.w3.org/2000/svg">
<path d="M16.8295 5.90458C16.8688 5.3537 16.4542 4.87522 15.9033 4.83587C15.3524 4.79653 14.8739 5.2112 14.8346 5.76209L16.8295 5.90458ZM15.1093 15.9521L14.1118 15.8808L14.1118 15.8808L15.1093 15.9521ZM4.88813 15.9521L5.88559 15.8808L5.88559 15.8808L4.88813 15.9521ZM5.16282 5.76209C5.12347 5.2112 4.645 4.79653 4.09412 4.83587C3.54324 4.87522 3.12856 5.3537 3.16791 5.90458L5.16282 5.76209ZM9.33203 9.16667C9.33203 8.61438 8.88432 8.16667 8.33203 8.16667C7.77975 8.16667 7.33203 8.61438 7.33203 9.16667H9.33203ZM7.33203 14.1667C7.33203 14.719 7.77975 15.1667 8.33203 15.1667C8.88432 15.1667 9.33203 14.719 9.33203 14.1667H7.33203ZM12.6654 9.16667C12.6654 8.61438 12.2176 8.16667 11.6654 8.16667C11.1131 8.16667 10.6654 8.61438 10.6654 9.16667H12.6654ZM10.6654 14.1667C10.6654 14.719 11.1131 15.1667 11.6654 15.1667C12.2176 15.1667 12.6654 14.719 12.6654 14.1667H10.6654ZM11.4987 5.83333C11.4987 6.38562 11.9464 6.83333 12.4987 6.83333C13.051 6.83333 13.4987 6.38562 13.4987 5.83333H11.4987ZM6.4987 5.83333C6.4987 6.38562 6.94641 6.83333 7.4987 6.83333C8.05098 6.83333 8.4987 6.38562 8.4987 5.83333H6.4987ZM3.33203 4.83333C2.77975 4.83333 2.33203 5.28105 2.33203 5.83333C2.33203 6.38562 2.77975 6.83333 3.33203 6.83333V4.83333ZM16.6654 6.83333C17.2176 6.83333 17.6654 6.38562 17.6654 5.83333C17.6654 5.28105 17.2176 4.83333 16.6654 4.83333V6.83333ZM14.8346 5.76209L14.1118 15.8808L16.1067 16.0233L16.8295 5.90458L14.8346 5.76209ZM13.4468 16.5H6.55056V18.5H13.4468V16.5ZM5.88559 15.8808L5.16282 5.76209L3.16791 5.90458L3.89067 16.0233L5.88559 15.8808ZM6.55056 16.5C6.2008 16.5 5.91051 16.2297 5.88559 15.8808L3.89067 16.0233C3.99035 17.4188 5.15153 18.5 6.55056 18.5V16.5ZM14.1118 15.8808C14.0869 16.2297 13.7966 16.5 13.4468 16.5V18.5C14.8459 18.5 16.007 17.4188 16.1067 16.0233L14.1118 15.8808ZM7.33203 9.16667V14.1667H9.33203V9.16667H7.33203ZM10.6654 9.16667V14.1667H12.6654V9.16667H10.6654ZM8.33203 3.5H11.6654V1.5H8.33203V3.5ZM11.4987 3.33333V5.83333H13.4987V3.33333H11.4987ZM8.4987 5.83333V3.33333H6.4987V5.83333H8.4987ZM11.6654 3.5C11.5733 3.5 11.4987 3.42538 11.4987 3.33333H13.4987C13.4987 2.32081 12.6779 1.5 11.6654 1.5V3.5ZM8.33203 1.5C7.31951 1.5 6.4987 2.32081 6.4987 3.33333H8.4987C8.4987 3.42538 8.42408 3.5 8.33203 3.5V1.5ZM3.33203 6.83333H16.6654V4.83333H3.33203V6.83333Z" fill="#687684"/>
</svg>
