<svg width="24" height="24" viewBox="0 0 24 24" fill="none" xmlns="http://www.w3.org/2000/svg">
<path d="M12 20L11.2929 20.7071C11.6834 21.0976 12.3166 21.0976 12.7071 20.7071L12 20ZM8 16L8.70711 15.2929C8.51957 15.1054 8.26522 15 8 15V16ZM16 16V15C15.7348 15 15.4804 15.1054 15.2929 15.2929L16 16ZM5 5H19V3H5V5ZM20 6V14H22V6H20ZM4 14V6H2V14H4ZM12.7071 19.2929L8.70711 15.2929L7.29289 16.7071L11.2929 20.7071L12.7071 19.2929ZM8 15H5V17H8V15ZM19 15H16V17H19V15ZM15.2929 15.2929L11.2929 19.2929L12.7071 20.7071L16.7071 16.7071L15.2929 15.2929ZM2 14C2 15.6569 3.34315 17 5 17V15C4.44772 15 4 14.5523 4 14H2ZM20 14C20 14.5523 19.5523 15 19 15V17C20.6569 17 22 15.6569 22 14H20ZM19 5C19.5523 5 20 5.44772 20 6H22C22 4.34315 20.6569 3 19 3V5ZM5 3C3.34315 3 2 4.34315 2 6H4C4 5.44772 4.44772 5 5 5V3Z" fill="#1F1F1F"/>
<path d="M9.29289 11.2929C8.90237 11.6834 8.90237 12.3166 9.29289 12.7071C9.68342 13.0976 10.3166 13.0976 10.7071 12.7071L9.29289 11.2929ZM14.7071 8.70711C15.0976 8.31658 15.0976 7.68342 14.7071 7.29289C14.3166 6.90237 13.6834 6.90237 13.2929 7.29289L14.7071 8.70711ZM10.7071 7.29289C10.3166 6.90237 9.68342 6.90237 9.29289 7.29289C8.90237 7.68342 8.90237 8.31658 9.29289 8.70711L10.7071 7.29289ZM13.2929 12.7071C13.6834 13.0976 14.3166 13.0976 14.7071 12.7071C15.0976 12.3166 15.0976 11.6834 14.7071 11.2929L13.2929 12.7071ZM10.7071 12.7071L12.7071 10.7071L11.2929 9.29289L9.29289 11.2929L10.7071 12.7071ZM12.7071 10.7071L14.7071 8.70711L13.2929 7.29289L11.2929 9.29289L12.7071 10.7071ZM9.29289 8.70711L11.2929 10.7071L12.7071 9.29289L10.7071 7.29289L9.29289 8.70711ZM11.2929 10.7071L13.2929 12.7071L14.7071 11.2929L12.7071 9.29289L11.2929 10.7071Z" fill="#1F1F1F"/>
</svg>
