<svg width="217" height="80" viewBox="0 0 217 80" fill="none" xmlns="http://www.w3.org/2000/svg">
<path d="M0.5 7.61963L34.2197 22.6989L39.4747 80L0.5 59.1045V7.61963Z" fill="#288AF2"/>
<path d="M10.7559 0L39.4741 26.0867V79.9994L10.7559 57.3908V0Z" fill="#2379D5"/>
<path d="M80.5 7.61963L45.0056 22.6989L39.474 80L80.5 59.1045V7.61963Z" fill="#25AAFF"/>
<path d="M66.1392 0L39.4723 26.0867V79.9994L66.1392 57.3908V0Z" fill="#2A91FF"/>
<path d="M110.035 43.2148H114.816V40.2266H110.035V35.1641H106.965V40.2266H102.184V43.2148H106.965V48.3359H110.035V43.2148Z" fill="#687684"/>
<g clip-path="url(#clip0_3351_29771)">
<path d="M207.251 8.41957C207.251 8.41957 192.031 12.5588 186.298 14.1707C180.566 15.7825 176.987 27.9127 176.956 28.0262L160.096 32.6952C160.096 32.6952 153.965 33.8984 153.965 40.1565C153.965 46.0968 160.096 43.8569 160.096 43.8569C160.096 43.8569 163.031 43.1001 168.764 41.4808C174.496 39.8614 176.933 28.1322 176.956 28.0262L207.251 19.7023C207.251 19.7023 213.382 18.4007 213.382 12.1351C213.413 6.18724 207.251 8.41957 207.251 8.41957Z" fill="#FF671D"/>
<path d="M146.669 70.4405C146.669 70.4405 163.024 65.9002 168.756 64.2808C174.488 62.6614 176.925 50.9474 176.956 50.8339L193.816 46.1649C193.816 46.1649 199.947 44.9617 199.947 38.7036C199.947 32.7633 193.816 34.8746 193.816 34.8746C193.816 34.8746 190.881 35.6313 185.149 37.2583C179.416 38.8852 176.979 50.7279 176.956 50.8339L146.669 59.1578C146.669 59.1578 140.538 60.4594 140.538 66.725C140.5 72.6729 146.669 70.4405 146.669 70.4405Z" fill="#FF671D"/>
</g>
<defs>
<clipPath id="clip0_3351_29771">
<rect width="73" height="63" fill="white" transform="translate(140.5 8)"/>
</clipPath>
</defs>
</svg>
