<svg width="81" height="80" viewBox="0 0 81 80" fill="none" xmlns="http://www.w3.org/2000/svg">
<path d="M64.0789 0H16.9211C7.91083 0 0.5 7.41068 0.5 16.4211V63.5789C0.5 72.5898 7.91068 80 16.9211 80H64.0789C73.0898 80 80.5 72.5893 80.5 63.5789V16.4211C80.5 7.41083 73.0893 0 64.0789 0ZM36.1211 20.4632C36.1211 18.0214 38.0577 16.0841 40.5002 16.0841C42.942 16.0841 44.8792 18.0208 44.8792 20.4632V42.4421C44.8792 44.8839 42.9426 46.8212 40.5002 46.8212C38.0583 46.8212 36.1211 44.8845 36.1211 42.4421V20.4632ZM40.5002 63.9158C37.3 63.9158 34.7741 61.3054 34.7741 58.1898C34.7741 54.9896 37.3845 52.4638 40.5002 52.4638C43.7003 52.4638 46.2262 55.0741 46.2262 58.1898C46.2262 61.3893 43.7003 63.9158 40.5002 63.9158Z" fill="#F3BA2F"/>
</svg>
