<svg width="23" height="25" viewBox="0 0 23 25" fill="none" xmlns="http://www.w3.org/2000/svg">
<path d="M9.08333 19.7501C9.4038 19.7501 9.71115 19.6228 9.93775 19.3962C10.1644 19.1696 10.2917 18.8622 10.2917 18.5417V11.2917C10.2917 10.9713 10.1644 10.6639 9.93775 10.4373C9.71115 10.2107 9.4038 10.0834 9.08333 10.0834C8.76286 10.0834 8.45552 10.2107 8.22891 10.4373C8.00231 10.6639 7.875 10.9713 7.875 11.2917V18.5417C7.875 18.8622 8.00231 19.1696 8.22891 19.3962C8.45552 19.6228 8.76286 19.7501 9.08333 19.7501ZM21.1667 5.25008H16.3333V4.04175C16.3333 3.08034 15.9514 2.15831 15.2716 1.47849C14.5918 0.798667 13.6697 0.416748 12.7083 0.416748H10.2917C9.33026 0.416748 8.40822 0.798667 7.7284 1.47849C7.04858 2.15831 6.66667 3.08034 6.66667 4.04175V5.25008H1.83333C1.51286 5.25008 1.20552 5.37739 0.978913 5.60399C0.752306 5.8306 0.625 6.13794 0.625 6.45841C0.625 6.77888 0.752306 7.08623 0.978913 7.31284C1.20552 7.53944 1.51286 7.66675 1.83333 7.66675H3.04167V20.9584C3.04167 21.9198 3.42359 22.8419 4.1034 23.5217C4.78322 24.2015 5.70526 24.5834 6.66667 24.5834H16.3333C17.2947 24.5834 18.2168 24.2015 18.8966 23.5217C19.5764 22.8419 19.9583 21.9198 19.9583 20.9584V7.66675H21.1667C21.4871 7.66675 21.7945 7.53944 22.0211 7.31284C22.2477 7.08623 22.375 6.77888 22.375 6.45841C22.375 6.13794 22.2477 5.8306 22.0211 5.60399C21.7945 5.37739 21.4871 5.25008 21.1667 5.25008ZM9.08333 4.04175C9.08333 3.72128 9.21064 3.41393 9.43725 3.18733C9.66385 2.96072 9.9712 2.83341 10.2917 2.83341H12.7083C13.0288 2.83341 13.3361 2.96072 13.5628 3.18733C13.7894 3.41393 13.9167 3.72128 13.9167 4.04175V5.25008H9.08333V4.04175ZM17.5417 20.9584C17.5417 21.2789 17.4144 21.5862 17.1878 21.8128C16.9611 22.0394 16.6538 22.1667 16.3333 22.1667H6.66667C6.3462 22.1667 6.03885 22.0394 5.81225 21.8128C5.58564 21.5862 5.45833 21.2789 5.45833 20.9584V7.66675H17.5417V20.9584ZM13.9167 19.7501C14.2371 19.7501 14.5445 19.6228 14.7711 19.3962C14.9977 19.1696 15.125 18.8622 15.125 18.5417V11.2917C15.125 10.9713 14.9977 10.6639 14.7711 10.4373C14.5445 10.2107 14.2371 10.0834 13.9167 10.0834C13.5962 10.0834 13.2889 10.2107 13.0622 10.4373C12.8356 10.6639 12.7083 10.9713 12.7083 11.2917V18.5417C12.7083 18.8622 12.8356 19.1696 13.0622 19.3962C13.2889 19.6228 13.5962 19.7501 13.9167 19.7501Z" fill="#1886FF"/>
</svg>
