<svg width="24" height="24" viewBox="0 0 24 24" fill="none" xmlns="http://www.w3.org/2000/svg">
<mask id="mask0_575_3148" style="mask-type:alpha" maskUnits="userSpaceOnUse" x="0" y="0" width="24" height="24">
<path d="M0 11C0 4.92487 4.92487 0 11 0H13C19.0751 0 24 4.92487 24 11V13C24 19.0751 19.0751 24 13 24H11C4.92487 24 0 19.0751 0 13V11Z" fill="#7B7B7B"/>
</mask>
<g mask="url(#mask0_575_3148)">
</g>
<g clip-path="url(#clip0_575_3148)">
<path d="M18.125 7.30763C17.6875 7.02106 17.125 7.02106 16.625 7.30763L13.125 9.67181L10.75 11.1763L7.3125 13.5405C6.875 13.827 6.3125 13.827 5.8125 13.5405L3.125 11.6778C2.6875 11.3912 2.375 10.8181 2.375 10.1733V6.59121C2.375 6.01808 2.625 5.44495 3.125 5.08674L5.8125 3.29569C6.25 3.00912 6.8125 3.00912 7.3125 3.29569L10 5.15838C10.4375 5.44494 10.75 6.01808 10.75 6.66286V9.02703L13.125 7.45092V5.01509C13.125 4.44196 12.875 3.86883 12.375 3.51062L7.375 0.143453C6.9375 -0.143114 6.375 -0.143114 5.875 0.143453L0.75 3.58226C0.25 3.86883 0 4.44196 0 5.01509V11.7494C0 12.3226 0.25 12.8957 0.75 13.2539L5.8125 16.6211C6.25 16.9076 6.8125 16.9076 7.3125 16.6211L10.75 14.3285L13.125 12.7524L16.5625 10.4599C17 10.1733 17.5625 10.1733 18.0625 10.4599L20.75 12.2509C21.1875 12.5375 21.5 13.1106 21.5 13.7554V17.3375C21.5 17.9106 21.25 18.4837 20.75 18.842L18.125 20.633C17.6875 20.9196 17.125 20.9196 16.625 20.633L13.9375 18.842C13.5 18.5554 13.1875 17.9823 13.1875 17.3375V15.0449L10.8125 16.6211V18.9852C10.8125 19.5584 11.0625 20.1315 11.5625 20.4897L16.625 23.8569C17.0625 24.1434 17.625 24.1434 18.125 23.8569L23.1875 20.4897C23.625 20.2032 23.9375 19.63 23.9375 18.9852V12.1793C23.9375 11.6061 23.6875 11.033 23.1875 10.6748L18.125 7.30763Z" fill="#8247E5"/>
</g>
<defs>
<clipPath id="clip0_575_3148">
<rect width="24" height="24" fill="white"/>
</clipPath>
</defs>
</svg>
