<svg width="24" height="24" viewBox="0 0 24 24" fill="none" xmlns="http://www.w3.org/2000/svg">
<path d="M19 13C19.5523 13 20 12.5523 20 12C20 11.4477 19.5523 11 19 11L19 13ZM18.99 11C18.4377 11 17.99 11.4477 17.99 12C17.99 12.5523 18.4377 13 18.99 13L18.99 11ZM12 13C12.5523 13 13 12.5523 13 12C13 11.4477 12.5523 11 12 11L12 13ZM11.99 11C11.4377 11 10.99 11.4477 10.99 12C10.99 12.5523 11.4377 13 11.99 13L11.99 11ZM5 13C5.55229 13 6 12.5523 6 12C6 11.4477 5.55229 11 5 11L5 13ZM4.99 11C4.43771 11 3.99 11.4477 3.99 12C3.99 12.5523 4.43771 13 4.99 13L4.99 11ZM19 12L19 10C17.8954 10 17 10.8954 17 12L19 12ZM19 12L21 12C21 10.8954 20.1046 10 19 10L19 12ZM19 12L19 14C20.1046 14 21 13.1046 21 12L19 12ZM19 12L17 12C17 13.1046 17.8954 14 19 14L19 12ZM12 12L12 10C10.8954 10 10 10.8954 10 12L12 12ZM12 12L14 12C14 10.8954 13.1046 10 12 10L12 12ZM12 12L12 14C13.1046 14 14 13.1046 14 12L12 12ZM12 12L10 12C10 13.1046 10.8954 14 12 14L12 12ZM5 12L5 10C3.89543 10 3 10.8954 3 12L5 12ZM5 12L7 12C7 10.8954 6.10457 10 5 10L5 12ZM5 12L5 14C6.10457 14 7 13.1046 7 12L5 12ZM5 12L3 12C3 13.1046 3.89543 14 5 14L5 12ZM19 11L18.99 11L18.99 13L19 13L19 11ZM12 11L11.99 11L11.99 13L12 13L12 11ZM5 11L4.99 11L4.99 13L5 13L5 11Z" fill="#687684"/>
</svg>
