<svg width="24" height="24" viewBox="0 0 24 24" fill="none" xmlns="http://www.w3.org/2000/svg">
<path d="M4.5 21H3.5C3.5 21.5523 3.94772 22 4.5 22V21ZM19.5 21V22C20.0523 22 20.5 21.5523 20.5 21H19.5ZM15 7C15 8.65685 13.6569 10 12 10V12C14.7614 12 17 9.76142 17 7H15ZM12 10C10.3431 10 9 8.65685 9 7H7C7 9.76142 9.23858 12 12 12V10ZM9 7C9 5.34315 10.3431 4 12 4V2C9.23858 2 7 4.23858 7 7H9ZM12 4C13.6569 4 15 5.34315 15 7H17C17 4.23858 14.7614 2 12 2V4ZM5.5 21C5.5 17.7728 8.59565 15 12 15V13C7.67236 13 3.5 16.4952 3.5 21H5.5ZM12 15C15.4044 15 18.5 17.7728 18.5 21H20.5C20.5 16.4952 16.3276 13 12 13V15ZM4.5 22H19.5V20H4.5V22Z" fill="#1886FF"/>
</svg>
