<svg width="18" height="18" viewBox="0 0 18 18" fill="none" xmlns="http://www.w3.org/2000/svg">
<path d="M8.4377 2.76933C8.1636 3.07988 8.19315 3.55384 8.5037 3.82794C8.81425 4.10204 9.28821 4.07248 9.5623 3.76193L8.4377 2.76933ZM9.5623 6.73807C9.28821 6.42752 8.81425 6.39796 8.5037 6.67206C8.19315 6.94616 8.1636 7.42012 8.4377 7.73067L9.5623 6.73807ZM2.25 15.75H1.5C1.5 16.1642 1.83579 16.5 2.25 16.5V15.75ZM15.75 15.75V16.5C16.1642 16.5 16.5 16.1642 16.5 15.75H15.75ZM8.62446 10.4528C8.26591 10.6602 8.14339 11.119 8.3508 11.4776C8.5582 11.8361 9.017 11.9586 9.37555 11.7512L8.62446 10.4528ZM9 5.25C9 6.49264 7.99264 7.5 6.75 7.5V9C8.82107 9 10.5 7.32107 10.5 5.25H9ZM6.75 7.5C5.50736 7.5 4.5 6.49264 4.5 5.25H3C3 7.32107 4.67893 9 6.75 9V7.5ZM4.5 5.25C4.5 4.00736 5.50736 3 6.75 3V1.5C4.67893 1.5 3 3.17893 3 5.25H4.5ZM6.75 3C7.99264 3 9 4.00736 9 5.25H10.5C10.5 3.17893 8.82107 1.5 6.75 1.5V3ZM9.5623 3.76193C9.97568 3.29358 10.5781 3 11.25 3V1.5C10.1299 1.5 9.12373 1.99206 8.4377 2.76933L9.5623 3.76193ZM11.25 3C12.4926 3 13.5 4.00736 13.5 5.25H15C15 3.17893 13.3211 1.5 11.25 1.5V3ZM13.5 5.25C13.5 6.49264 12.4926 7.5 11.25 7.5V9C13.3211 9 15 7.32107 15 5.25H13.5ZM11.25 7.5C10.5781 7.5 9.97569 7.20642 9.5623 6.73807L8.4377 7.73067C9.12373 8.50794 10.1299 9 11.25 9V7.5ZM3 15C3 12.9289 4.67893 11.25 6.75 11.25V9.75C3.8505 9.75 1.5 12.1005 1.5 15H3ZM6.75 11.25C8.82107 11.25 10.5 12.9289 10.5 15H12C12 12.1005 9.64949 9.75 6.75 9.75V11.25ZM1.5 15V15.75H3V15H1.5ZM2.25 16.5H11.25V15H2.25V16.5ZM12 15.75V15H10.5V15.75H12ZM11.25 16.5H15.75V15H11.25V16.5ZM16.5 15.75V15H15V15.75H16.5ZM16.5 15C16.5 12.1005 14.1495 9.75 11.25 9.75V11.25C13.3211 11.25 15 12.9289 15 15H16.5ZM11.25 9.75C10.295 9.75 9.39743 10.0057 8.62446 10.4528L9.37555 11.7512C9.92636 11.4326 10.5657 11.25 11.25 11.25V9.75Z" fill="#A7A7A7"/>
</svg>
