<svg width="50" height="50" viewBox="0 0 50 50" fill="none" xmlns="http://www.w3.org/2000/svg">
<path d="M33.334 22.9167V24.4167H34.834V22.9167H33.334ZM16.6673 22.9167H15.1673V24.4167H16.6673V22.9167ZM26.5007 31.25C26.5007 30.4216 25.8291 29.75 25.0007 29.75C24.1722 29.75 23.5007 30.4216 23.5007 31.25H26.5007ZM23.5007 35.4167C23.5007 36.2451 24.1722 36.9167 25.0007 36.9167C25.8291 36.9167 26.5007 36.2451 26.5007 35.4167H23.5007ZM12.5007 24.4167H37.5007V21.4167H12.5007V24.4167ZM40.1673 27.0833V39.5833H43.1673V27.0833H40.1673ZM37.5007 42.25H12.5007V45.25H37.5007V42.25ZM9.83398 39.5833V27.0833H6.83398V39.5833H9.83398ZM12.5007 42.25C11.0279 42.25 9.83398 41.0561 9.83398 39.5833H6.83398C6.83398 42.7129 9.37104 45.25 12.5007 45.25V42.25ZM40.1673 39.5833C40.1673 41.0561 38.9734 42.25 37.5007 42.25V45.25C40.6303 45.25 43.1673 42.7129 43.1673 39.5833H40.1673ZM37.5007 24.4167C38.9734 24.4167 40.1673 25.6106 40.1673 27.0833H43.1673C43.1673 23.9537 40.6303 21.4167 37.5007 21.4167V24.4167ZM12.5007 21.4167C9.37104 21.4167 6.83398 23.9537 6.83398 27.0833H9.83398C9.83398 25.6106 11.0279 24.4167 12.5007 24.4167V21.4167ZM31.834 14.5833V22.9167H34.834V14.5833H31.834ZM33.334 21.4167H16.6673V24.4167H33.334V21.4167ZM18.1673 22.9167V14.5833H15.1673V22.9167H18.1673ZM25.0007 7.75C28.7746 7.75 31.834 10.8094 31.834 14.5833H34.834C34.834 9.15253 30.4315 4.75 25.0007 4.75V7.75ZM25.0007 4.75C19.5699 4.75 15.1673 9.15253 15.1673 14.5833H18.1673C18.1673 10.8094 21.2267 7.75 25.0007 7.75V4.75ZM23.5007 31.25V35.4167H26.5007V31.25H23.5007Z" fill="#687684"/>
</svg>
