<svg width="30" height="30" viewBox="0 0 30 30" fill="none" xmlns="http://www.w3.org/2000/svg">
<path d="M21.818 3.4799C22.7337 3.4799 23.4779 2.69887 23.4779 1.73933C23.4779 0.779784 22.7337 0 21.818 0C20.9022 0.00495888 20.158 0.784743 20.158 1.74429C20.158 2.70383 20.9022 3.4799 21.818 3.4799ZM22.3077 8.0024C22.6833 7.99945 23.0424 7.84251 23.3059 7.5661C23.5695 7.28969 23.716 6.91645 23.7131 6.52849C23.7131 5.71772 23.0842 5.05447 22.3077 5.05447C21.5311 5.05447 20.9022 5.71276 20.9022 6.52849C20.9022 7.34423 21.5299 8.0024 22.3077 8.0024ZM26.1664 8.57887C26.9394 8.57887 27.5683 7.92058 27.5683 7.10856C27.5683 6.29654 26.9394 5.63825 26.1664 5.63825C25.3935 5.63825 24.7646 6.29654 24.7646 7.10856C24.7646 7.92058 25.3947 8.57887 26.1664 8.57887ZM25.7031 12.448C26.3657 12.448 26.9022 11.8852 26.9022 11.1922C26.9022 10.4992 26.3657 9.93636 25.7031 9.93636C25.0406 9.93636 24.5041 10.4992 24.5041 11.1922C24.5041 11.8852 25.0406 12.448 25.7031 12.448ZM28.7926 13.7026C29.4599 13.7026 30 13.1361 30 12.4381C30 11.7402 29.4599 11.1736 28.7926 11.1736C28.6329 11.1747 28.475 11.2083 28.3279 11.2725C28.1808 11.3367 28.0474 11.4301 27.9353 11.5476C27.8232 11.665 27.7345 11.8041 27.6744 11.9569C27.6144 12.1097 27.584 12.2732 27.5851 12.4381C27.5851 13.1361 28.1264 13.7026 28.7926 13.7026ZM21.8204 11.9249C21.9827 11.9239 22.1433 11.8899 22.2929 11.8248C22.4425 11.7598 22.5783 11.6649 22.6924 11.5456C22.8065 11.4264 22.8968 11.285 22.9581 11.1297C23.0193 10.9744 23.0504 10.8082 23.0494 10.6405V10.638C23.0494 9.92768 22.5009 9.35121 21.8204 9.35121C21.1398 9.35121 20.5913 9.92644 20.5913 10.638C20.5913 11.3447 21.141 11.9249 21.8204 11.9249ZM20.7065 15.0031C21.2767 15.0031 21.7363 14.5196 21.7363 13.9258C21.7386 13.6424 21.6317 13.3697 21.4393 13.1676C21.2469 12.9656 20.9846 12.8508 20.7103 12.8485H20.7065C20.1364 12.8485 19.6767 13.332 19.6767 13.9258C19.6767 14.5196 20.1364 15.0031 20.7065 15.0031ZM24.5713 15.5473C24.7064 15.5464 24.8399 15.518 24.9644 15.4637C25.0888 15.4094 25.2017 15.3304 25.2965 15.231C25.3913 15.1317 25.4663 15.0141 25.5171 14.8848C25.568 14.7555 25.5937 14.6172 25.5927 14.4777V14.4751C25.5927 13.8825 25.1366 13.4027 24.5713 13.4027C24.006 13.4027 23.5499 13.8825 23.5499 14.4751C23.5482 14.6141 23.5729 14.7521 23.6228 14.8812C23.6727 15.0104 23.7468 15.1281 23.8407 15.2276C23.9346 15.3272 24.0466 15.4067 24.1703 15.4615C24.294 15.5164 24.4269 15.5455 24.5615 15.5473H24.5713ZM27.6523 16.797C28.2224 16.797 28.6821 16.3135 28.6821 15.7159C28.6821 15.1184 28.2224 14.6349 27.6523 14.6349C27.0822 14.6349 26.6225 15.1184 26.6225 15.7159C26.6196 15.9997 26.726 16.273 26.9182 16.4757C27.1104 16.6784 27.3727 16.794 27.6474 16.797H27.6523ZM26.1304 19.1326C26.6117 19.1326 27.0006 18.7223 27.0006 18.2214C27.0006 17.7206 26.6117 17.3102 26.1304 17.3102C25.6491 17.3102 25.2603 17.7206 25.2603 18.2214C25.2603 18.7223 25.6491 19.1326 26.1304 19.1326ZM23.035 17.9028C23.5247 17.9028 23.9256 17.4838 23.9256 16.9693C23.9256 16.4548 23.5283 16.0358 23.035 16.0358C22.5417 16.0358 22.1444 16.4548 22.1444 16.9693C22.1444 17.4838 22.5453 17.9028 23.035 17.9028ZM19.175 17.3325C19.41 17.3287 19.634 17.2297 19.7989 17.0568C19.9638 16.8839 20.0563 16.651 20.0565 16.4083C20.0566 16.1656 19.9644 15.9326 19.7998 15.7595C19.6351 15.5863 19.4112 15.487 19.1762 15.4829H19.175C18.9401 15.4867 18.716 15.5857 18.5511 15.7586C18.3862 15.9315 18.2937 16.1644 18.2936 16.4071C18.2934 16.6498 18.3856 16.8828 18.5503 17.0559C18.715 17.2291 18.9389 17.3284 19.1738 17.3325H19.175ZM21.3211 19.5268C21.7471 19.5268 22.0892 19.1648 22.0892 18.7247C22.0911 18.514 22.0119 18.3111 21.869 18.1607C21.7261 18.0103 21.5312 17.9246 21.3272 17.9226H21.3211C20.895 17.9226 20.5529 18.2846 20.5529 18.7247C20.5507 18.9352 20.6294 19.1379 20.7719 19.2883C20.9144 19.4387 21.1088 19.5245 21.3125 19.5268H21.3211ZM24.4153 20.7777C24.8414 20.7777 25.1918 20.4157 25.1918 19.9669C25.1918 19.5182 24.8462 19.1562 24.4153 19.1562C24.2071 19.1562 24.0074 19.2416 23.8602 19.3936C23.713 19.5457 23.6303 19.7519 23.6303 19.9669C23.6303 20.182 23.713 20.3882 23.8602 20.5402C24.0074 20.6923 24.2071 20.7777 24.4153 20.7777ZM22.6725 21.7162C23.0098 21.7162 23.2847 21.4286 23.2847 21.0753C23.2856 20.9065 23.2217 20.7442 23.1069 20.624C22.9922 20.5039 22.8359 20.4356 22.6725 20.4343C22.3353 20.4343 22.0604 20.7219 22.0604 21.0753C22.0601 21.2438 22.1242 21.4058 22.2388 21.5258C22.3535 21.6458 22.5093 21.7142 22.6725 21.7162ZM21.021 22.2195C21.0941 22.219 21.1664 22.2037 21.2338 22.1744C21.3012 22.145 21.3623 22.1023 21.4137 22.0485C21.4651 21.9948 21.5057 21.9311 21.5333 21.8612C21.5608 21.7912 21.5748 21.7163 21.5743 21.6408V21.6393C21.5743 21.317 21.3247 21.0591 21.021 21.0591C20.9479 21.0596 20.8756 21.0749 20.8082 21.1043C20.7408 21.1336 20.6797 21.1764 20.6283 21.2301C20.5769 21.2839 20.5363 21.3475 20.5087 21.4175C20.4812 21.4874 20.4672 21.5623 20.4677 21.6378V21.6393C20.4652 21.7905 20.5209 21.9366 20.6226 22.0454C20.7243 22.1542 20.8637 22.2168 21.0101 22.2194L21.021 22.2195ZM19.5747 20.5508C19.9384 20.5508 20.2336 20.2409 20.2336 19.8616C20.2336 19.4822 19.9384 19.1723 19.5747 19.1723C19.211 19.1723 18.9158 19.4822 18.9158 19.8616C18.9154 20.043 18.9845 20.2172 19.1079 20.3463C19.2313 20.4754 19.3991 20.5489 19.5747 20.5508ZM17.4527 18.9702C17.8752 18.9702 18.2208 18.6132 18.2208 18.1681C18.2208 17.723 17.8788 17.366 17.4527 17.366C17.0302 17.366 16.6845 17.723 16.6845 18.1681C16.6842 18.3794 16.7648 18.5823 16.9087 18.7326C17.0525 18.8828 17.2481 18.9682 17.4527 18.9702ZM23.7455 29.0194C24.6577 29.0194 25.3971 28.2433 25.3971 27.2875C25.3971 26.3317 24.6577 25.5556 23.7455 25.5556C22.8334 25.5556 22.094 26.3317 22.094 27.2875C22.094 28.2433 22.8334 29.0194 23.7455 29.0194ZM19.5507 26.8276C20.3105 26.8276 20.9274 26.1817 20.9274 25.3845C20.9274 24.5874 20.3105 23.9415 19.5507 23.9415C18.791 23.9415 18.174 24.5874 18.174 25.3845C18.174 26.1817 18.7898 26.8276 19.5507 26.8276ZM17.1538 30C17.922 30 18.5425 29.3504 18.5425 28.5433C18.5425 27.7412 17.922 27.0867 17.1538 27.0867C16.3857 27.0867 15.7652 27.7363 15.7652 28.5433C15.7623 28.9267 15.907 29.2955 16.1674 29.5687C16.4278 29.8419 16.7826 29.997 17.1537 30H17.1538ZM16.4325 24.1547C16.5917 24.1536 16.7491 24.1201 16.8958 24.0561C17.0424 23.9921 17.1754 23.8989 17.2872 23.7819C17.399 23.6648 17.4874 23.5261 17.5473 23.3738C17.6072 23.2214 17.6374 23.0584 17.6363 22.8939C17.6374 22.7295 17.6072 22.5664 17.5473 22.4141C17.4874 22.2617 17.399 22.1231 17.2872 22.006C17.1754 21.8889 17.0424 21.7957 16.8958 21.7318C16.7491 21.6678 16.5917 21.6343 16.4325 21.6331C16.2733 21.6343 16.1159 21.6678 15.9692 21.7318C15.8226 21.7957 15.6895 21.8889 15.5778 22.006C15.466 22.1231 15.3776 22.2617 15.3177 22.4141C15.2578 22.5664 15.2275 22.7295 15.2286 22.8939C15.2298 23.5882 15.77 24.1547 16.4325 24.1547ZM14.0416 27.3706C14.7041 27.3706 15.2406 26.8077 15.2406 26.1147C15.2406 25.4217 14.7041 24.8589 14.0416 24.8589C13.3791 24.8589 12.8426 25.4217 12.8426 26.1147C12.8394 26.4445 12.9632 26.762 13.1867 26.9975C13.4101 27.233 13.715 27.3672 14.0343 27.3706H14.0416ZM11.4647 29.5525C12.1272 29.5525 12.6601 28.9896 12.6601 28.3003C12.6601 27.6073 12.1236 27.0482 11.4647 27.0482C10.8022 27.0482 10.2693 27.6111 10.2693 28.3003C10.2693 28.9896 10.8058 29.5525 11.4647 29.5525ZM9.31986 26.7123C9.59227 26.7097 9.85261 26.5958 10.044 26.3956C10.2354 26.1953 10.3423 25.925 10.3413 25.6436C10.3413 25.0548 9.88518 24.575 9.31986 24.575C9.0482 24.5793 8.78906 24.6937 8.59841 24.8937C8.40776 25.0936 8.3009 25.363 8.3009 25.6436C8.3009 25.9243 8.40776 26.1936 8.59841 26.3936C8.78906 26.5935 9.0482 26.708 9.31986 26.7123ZM11.9016 24.5204C12.1742 24.5185 12.4349 24.4048 12.6264 24.2044C12.8179 24.0041 12.9246 23.7334 12.923 23.4518C12.923 22.8592 12.4669 22.3832 11.9016 22.3832C11.6299 22.3869 11.3705 22.5009 11.1795 22.7005C10.9885 22.9001 10.8812 23.1693 10.8807 23.45C10.8802 23.7306 10.9867 24.0002 11.177 24.2005C11.3673 24.4008 11.6263 24.5157 11.898 24.5204H11.9016ZM14.3105 21.3058C14.4455 21.3049 14.5791 21.2765 14.7035 21.2222C14.8279 21.1679 14.9408 21.0889 15.0356 20.9895C15.1305 20.8902 15.2055 20.7726 15.2563 20.6433C15.3071 20.514 15.3328 20.3757 15.3319 20.2362V20.2336C15.3319 19.641 14.8758 19.1612 14.3105 19.1612C14.1754 19.1622 14.0418 19.1906 13.9174 19.2449C13.793 19.2992 13.6801 19.3782 13.5853 19.4776C13.4904 19.5769 13.4155 19.6945 13.3646 19.8238C13.3138 19.953 13.2881 20.0914 13.2891 20.2309V20.2335C13.2891 20.8261 13.7451 21.3058 14.3105 21.3058ZM10.6257 21.7484C11.1154 21.7484 11.5127 21.3344 11.5127 20.8199C11.5127 20.3054 11.1154 19.8913 10.6257 19.8913C10.136 19.8913 9.73875 20.3054 9.73875 20.8199C9.73875 21.3344 10.136 21.7484 10.6257 21.7484ZM8.05721 23.9316C8.17322 23.9309 8.28797 23.9067 8.3949 23.8602C8.50184 23.8138 8.59887 23.746 8.68045 23.6608C8.76203 23.5756 8.82657 23.4747 8.87038 23.3637C8.9142 23.2528 8.93642 23.134 8.93579 23.0142V23.0117C8.93803 22.7701 8.84724 22.5374 8.6834 22.3649C8.51956 22.1924 8.29608 22.0941 8.06213 22.0918H8.05721C7.9412 22.0925 7.82646 22.1167 7.71952 22.1632C7.61259 22.2096 7.51556 22.2774 7.43397 22.3626C7.35239 22.4478 7.28785 22.5487 7.24404 22.6597C7.20023 22.7706 7.178 22.8894 7.17864 23.0092V23.0117C7.17784 23.1317 7.19994 23.2507 7.24367 23.3618C7.28739 23.473 7.35189 23.5742 7.43347 23.6596C7.51506 23.745 7.61213 23.813 7.71915 23.8597C7.82617 23.9063 7.94105 23.9308 8.05721 23.9316ZM7.46669 21.3728C7.66916 21.3711 7.86275 21.2868 8.00513 21.1381C8.14751 20.9894 8.22709 20.7885 8.22645 20.5794C8.22645 20.1393 7.88438 19.7859 7.46669 19.7859C7.04901 19.7859 6.70694 20.143 6.70694 20.5794C6.70694 21.0195 7.04901 21.3728 7.46669 21.3728ZM7.44509 19.1277C7.53131 19.1268 7.61653 19.1085 7.69588 19.0737C7.77523 19.0388 7.84717 18.9882 7.90758 18.9247C7.96798 18.8611 8.01568 18.7859 8.04795 18.7033C8.08021 18.6207 8.09641 18.5324 8.09562 18.4433C8.09562 18.0677 7.80396 17.759 7.44509 17.759C7.08622 17.759 6.79456 18.064 6.79456 18.4433C6.79456 18.8227 7.08622 19.1277 7.44509 19.1277ZM7.80276 17.2606C8.11122 17.2606 8.35607 16.9991 8.35607 16.6804C8.35607 16.3618 8.10642 16.1003 7.80276 16.1003C7.4943 16.1003 7.24945 16.3618 7.24945 16.6804C7.24945 16.9991 7.4943 17.2606 7.80276 17.2606ZM10.0172 16.9482C10.3809 16.9482 10.6761 16.6383 10.6761 16.2589C10.6761 15.8796 10.3809 15.5697 10.0172 15.5697C9.65353 15.5697 9.35827 15.8796 9.35827 16.2589C9.35763 16.4404 9.42658 16.6148 9.55005 16.744C9.67352 16.8732 9.84148 16.9466 10.0172 16.9482ZM12.4477 15.9701C12.8702 15.9701 13.2158 15.6081 13.2158 15.168C13.2178 14.9572 13.1386 14.7543 12.9956 14.6039C12.8527 14.4535 12.6578 14.3679 12.4538 14.3659H12.4477C12.0252 14.3659 11.6795 14.7279 11.6795 15.168C11.6787 15.2725 11.6979 15.3762 11.7359 15.473C11.7739 15.5699 11.83 15.6581 11.901 15.7326C11.972 15.8071 12.0565 15.8664 12.1497 15.9071C12.2429 15.9479 12.3429 15.9693 12.4441 15.9701H12.4477ZM13.0262 18.5165C13.2573 18.516 13.4788 18.4207 13.642 18.2516C13.8052 18.0826 13.8967 17.8535 13.8965 17.6148C13.8963 17.376 13.8043 17.1471 13.6407 16.9784C13.4772 16.8097 13.2555 16.7149 13.0244 16.7149C12.7933 16.7149 12.5716 16.8097 12.4081 16.9784C12.2445 17.1471 12.1525 17.376 12.1523 17.6148C12.1521 17.8535 12.2436 18.0826 12.4068 18.2516C12.57 18.4207 12.7915 18.516 13.0226 18.5165H13.0262ZM10.0484 19.1946C10.4709 19.1946 10.8082 18.8376 10.8082 18.3962C10.8082 17.9549 10.4661 17.5978 10.0484 17.5978C9.94801 17.5985 9.84872 17.6195 9.7562 17.6598C9.66368 17.7001 9.57975 17.7588 9.5092 17.8326C9.43865 17.9063 9.38286 17.9938 9.34502 18.0898C9.30718 18.1859 9.28802 18.2887 9.28866 18.3924V18.3962C9.28723 18.4996 9.30552 18.6022 9.3425 18.6983C9.37947 18.7943 9.4344 18.8819 9.50415 18.956C9.5739 19.0302 9.6571 19.0894 9.749 19.1303C9.8409 19.1712 9.9397 19.193 10.0398 19.1945H10.0484V19.1946ZM1.64673 18.0107C2.55411 18.0107 3.29346 17.2383 3.29346 16.2875C3.29346 15.3366 2.55411 14.5642 1.64673 14.5642C0.739348 14.5642 0 15.3378 0 16.2887C0 17.2396 0.739348 18.0107 1.64673 18.0107ZM5.38428 14.9337C6.16563 14.9337 6.79456 14.2704 6.79456 13.4547C6.79456 12.639 6.16083 11.9757 5.38428 11.9757C5.00772 11.9783 4.64759 12.1353 4.38311 12.4122C4.11864 12.6891 3.97147 13.0631 3.97399 13.4521V13.4547C3.97399 14.2754 4.60772 14.9337 5.38428 14.9337ZM3.92599 11.1401C4.70254 11.1401 5.32787 10.4818 5.32787 9.66982C5.32787 8.8578 4.69894 8.19951 3.92599 8.19951C3.74063 8.2008 3.55734 8.23978 3.38657 8.31423C3.2158 8.38869 3.06091 8.49716 2.93073 8.63345C2.80055 8.76974 2.69764 8.93118 2.62787 9.10856C2.5581 9.28593 2.52284 9.47577 2.5241 9.66722V9.66982C2.5203 10.0558 2.66508 10.4275 2.9266 10.7033C3.18813 10.979 3.54498 11.1361 3.91866 11.1401H3.92599ZM7.52911 9.34254C8.19164 9.34254 8.73295 8.7797 8.73295 8.08174C8.73295 7.38378 8.19284 6.82094 7.52911 6.82094C6.86537 6.82094 6.32526 7.38378 6.32526 8.08174C6.32526 8.7797 6.86657 9.34254 7.52911 9.34254ZM9.0018 13.1274C9.66913 13.1274 10.2092 12.5609 10.2092 11.8629C10.2092 11.1649 9.66913 10.5984 9.0018 10.5984C8.33447 10.5984 7.79436 11.1649 7.79436 11.8629C7.79436 12.5609 8.33447 13.1274 9.0018 13.1274ZM12.2809 12.3414C12.5552 12.3391 12.8175 12.2243 13.0099 12.0223C13.2023 11.8203 13.3092 11.5476 13.3071 11.2642C13.3091 11.125 13.2846 10.9868 13.235 10.8574C13.1853 10.7279 13.1114 10.6099 13.0176 10.51C12.9238 10.41 12.8118 10.3302 12.6881 10.2749C12.5644 10.2197 12.4313 10.1902 12.2966 10.188C12.1618 10.1859 12.028 10.2112 11.9027 10.2625C11.7774 10.3138 11.6631 10.3901 11.5663 10.487C11.4696 10.5839 11.3923 10.6996 11.3388 10.8274C11.2853 10.9551 11.2567 11.0925 11.2547 11.2317C11.2547 11.2427 11.2547 11.2534 11.2547 11.2642C11.2515 11.5466 11.357 11.8188 11.5481 12.0208C11.7392 12.2228 12.0001 12.3382 12.2735 12.3415L12.2809 12.3414ZM15.1134 12.3513C15.6031 12.3513 16.0004 11.9373 16.0004 11.4265C16.0004 10.9157 15.6031 10.5017 15.1134 10.5017C14.876 10.5017 14.6482 10.5991 14.4803 10.7726C14.3124 10.946 14.218 11.1812 14.218 11.4265C14.218 11.6718 14.3124 11.907 14.4803 12.0805C14.6482 12.2539 14.876 12.3513 15.1134 12.3513ZM17.4539 12.908C17.8632 12.908 18.2016 12.5596 18.2016 12.1269C18.2016 11.6943 17.868 11.3459 17.4539 11.3459C17.2546 11.3475 17.064 11.4306 16.9239 11.577C16.7838 11.7233 16.7055 11.9211 16.7061 12.1269C16.7109 12.5547 17.0434 12.908 17.4539 12.908ZM17.7588 10.0591C17.9324 10.0578 18.0984 9.98542 18.2203 9.85781C18.3423 9.7302 18.4103 9.55781 18.4093 9.37849C18.4093 9.00285 18.1176 8.69788 17.7588 8.69788C17.3999 8.69788 17.1082 9.00285 17.1082 9.37849C17.1072 9.55781 17.1752 9.7302 17.2972 9.85781C17.4191 9.98542 17.5851 10.0578 17.7588 10.0591ZM15.9584 9.12682C16.1571 9.12632 16.3474 9.04438 16.4876 8.89901C16.6278 8.75364 16.7064 8.55674 16.7062 8.35154C16.706 8.14634 16.6269 7.94963 16.4863 7.80462C16.3457 7.65962 16.1552 7.57817 15.9565 7.57817C15.7579 7.57817 15.5673 7.65962 15.4268 7.80462C15.2862 7.94963 15.2071 8.14634 15.2069 8.35154C15.2066 8.55674 15.2852 8.75364 15.4254 8.89901C15.5657 9.04438 15.756 9.12632 15.9547 9.12682H15.9584ZM13.6455 8.56151C13.88 8.55955 14.1042 8.46161 14.2689 8.28917C14.4336 8.11673 14.5254 7.88386 14.5241 7.64164C14.5241 7.13087 14.1316 6.72177 13.6455 6.72177C13.1594 6.72177 12.767 7.13583 12.767 7.64164C12.766 7.76146 12.7879 7.88031 12.8314 7.99138C12.875 8.10246 12.9392 8.2036 13.0206 8.28901C13.1019 8.37443 13.1988 8.44246 13.3056 8.48922C13.4124 8.53597 13.5271 8.56054 13.6431 8.56151H13.6455ZM10.8178 8.56523C11.3879 8.56523 11.8476 8.08174 11.8476 7.48791C11.8476 6.89409 11.3879 6.4106 10.8178 6.4106C10.2476 6.4106 9.78796 6.89409 9.78796 7.48791C9.78699 7.77158 9.89476 8.04412 10.0877 8.24598C10.2807 8.44784 10.5431 8.56261 10.8178 8.56523ZM7.0094 5.87132C7.65513 5.87132 8.17483 5.32584 8.17483 4.65019C8.17483 3.97454 7.65153 3.42907 7.0094 3.42907C6.36367 3.42907 5.84397 3.97454 5.84397 4.65019C5.84397 5.32584 6.36727 5.87132 7.0094 5.87132ZM10.2873 5.1312C10.8574 5.1312 11.3171 4.64771 11.3171 4.05389C11.3171 3.46006 10.8574 2.97657 10.2873 2.97657C9.71714 2.97657 9.25745 3.46006 9.25745 4.05389C9.25745 4.64771 9.71714 5.1312 10.2873 5.1312ZM13.1186 5.14484C13.6083 5.14484 14.0056 4.73077 14.0056 4.21629C14.0056 3.70181 13.6083 3.28774 13.1186 3.28774C13.0015 3.28839 12.8857 3.31286 12.7777 3.35975C12.6698 3.40664 12.5718 3.47504 12.4894 3.56103C12.4071 3.64702 12.3419 3.74893 12.2977 3.86094C12.2535 3.97294 12.231 4.09285 12.2316 4.21381V4.21629C12.2307 4.46073 12.3234 4.69563 12.4896 4.86963C12.6558 5.04363 12.882 5.14258 13.1186 5.14484ZM15.4423 5.69776C15.8564 5.69776 16.19 5.3494 16.19 4.91673C16.19 4.48407 15.8564 4.13571 15.4423 4.13571C15.2417 4.13571 15.0494 4.21799 14.9076 4.36447C14.7658 4.51094 14.6861 4.70959 14.6861 4.91673C14.6861 5.12387 14.7658 5.32253 14.9076 5.469C15.0494 5.61547 15.2417 5.69776 15.4423 5.69776ZM17.227 6.65482C17.4051 6.65351 17.5754 6.57928 17.7005 6.44842C17.8256 6.31756 17.8953 6.14077 17.8944 5.95686C17.8944 5.56883 17.5943 5.2589 17.227 5.2589C16.8598 5.2589 16.5597 5.57254 16.5597 5.95686C16.5597 6.34117 16.8598 6.65482 17.227 6.65482ZM18.5365 7.75321C18.609 7.75273 18.6807 7.73749 18.7475 7.70838C18.8143 7.67928 18.8749 7.63686 18.9259 7.58356C18.9768 7.53026 19.0171 7.46712 19.0444 7.39774C19.0717 7.32837 19.0855 7.25411 19.085 7.17922V7.17798C19.0856 7.10309 19.072 7.02881 19.0448 6.95937C19.0177 6.88993 18.9775 6.8267 18.9267 6.77328C18.8759 6.71987 18.8154 6.67731 18.7486 6.64805C18.6819 6.61879 18.6102 6.6034 18.5377 6.60275H18.5365C18.464 6.60324 18.3923 6.61847 18.3255 6.64758C18.2587 6.67669 18.1981 6.71911 18.1472 6.77241C18.0962 6.82571 18.056 6.88885 18.0286 6.95822C18.0013 7.0276 17.9875 7.10185 17.988 7.17674V7.17798C17.9869 7.25238 18 7.32627 18.0265 7.39544C18.0531 7.46462 18.0925 7.52771 18.1427 7.58111C18.1929 7.63452 18.2527 7.6772 18.3188 7.7067C18.385 7.73621 18.4561 7.75198 18.5281 7.75309H18.5367L18.5365 7.75321Z" fill="black"/>
</svg>
