<svg width="30" height="30" viewBox="0 0 30 30" fill="none" xmlns="http://www.w3.org/2000/svg">
<path d="M18.9948 7.80311C19.8653 6.93264 21.2953 6.93264 22.1658 7.80311C23.0363 8.67358 23.0363 10.1036 22.1658 10.9741C21.6529 11.487 20.9689 11.7047 20.2694 11.6114C20.2383 11.6114 20.2073 11.6114 20.1606 11.6114C19.9585 11.5803 19.7409 11.6114 19.5233 11.7047C19.228 11.8446 19.0259 12.0777 18.9171 12.3575C18.8083 12.6373 18.8238 12.9482 18.9482 13.228C19.6943 14.8446 19.3523 16.8031 18.0777 18.0622C16.8031 19.3368 14.8601 19.6788 13.2435 18.9326C12.9482 18.7927 12.6373 18.7927 12.3575 18.9016C12.0777 19.0104 11.8446 19.2124 11.7202 19.4922C11.6425 19.6788 11.5959 19.8653 11.6114 20.0674C11.6114 20.0984 11.6114 20.1451 11.6114 20.1762C11.7358 20.8912 11.487 21.6218 10.9896 22.1347C10.1192 23.0052 8.68912 23.0052 7.81865 22.1347C7.39896 21.715 7.1658 21.1554 7.1658 20.5492C7.1658 19.9585 7.39896 19.3834 7.81865 18.9637C8.33161 18.4508 9.01554 18.2332 9.71503 18.3264C9.73057 18.3264 9.73057 18.3264 9.74611 18.3264C9.82383 18.342 9.90155 18.3575 9.97927 18.3575C10.1503 18.3575 10.3057 18.3264 10.4611 18.2487C10.7565 18.1088 10.9585 17.8756 11.0518 17.6114C11.1606 17.3316 11.1606 17.0052 11.0207 16.7098C10.2746 15.0777 10.6166 13.1347 11.8912 11.8756C13.1658 10.601 15.1088 10.2591 16.7254 11.0052C17.0052 11.1451 17.3316 11.1451 17.6114 11.0363C17.8912 10.9275 18.1244 10.7254 18.2642 10.4456C18.3731 10.228 18.3886 9.97927 18.3575 9.74611C18.2487 9.04663 18.4819 8.31606 18.9948 7.80311ZM16.772 16.7565C17.7358 15.7927 17.7358 14.2228 16.772 13.2435C15.8083 12.2798 14.2383 12.2798 13.2591 13.2435C12.2953 14.2073 12.2953 15.7772 13.2591 16.7565C14.2383 17.7202 15.8083 17.7202 16.772 16.7565ZM15 0C23.285 0 30 6.71503 30 15C30 23.285 23.285 30 15 30C6.71503 30 0 23.285 0 15C0 6.71503 6.71503 0 15 0ZM22.9896 11.8135C24.3109 10.4922 24.3109 8.34715 22.9896 7.01036C21.6684 5.68912 19.5233 5.68912 18.1865 7.01036C17.6891 7.50777 17.3938 8.11399 17.2539 8.73575C14.8446 7.8342 12.0933 8.40933 10.2591 10.2435C8.42487 12.0777 7.84974 14.8446 8.76684 17.2539C8.12953 17.3782 7.52332 17.6891 7.02591 18.1865C5.70466 19.5078 5.70466 21.6528 7.02591 22.9896C8.34715 24.3109 10.4922 24.3109 11.829 22.9896C12.3264 22.4922 12.6373 21.8705 12.7617 21.2332C13.5078 21.513 14.285 21.6529 15.0622 21.6529C16.7876 21.6529 18.4819 20.9845 19.7409 19.7254C21.5751 17.8912 22.1503 15.1554 21.2642 12.7617C21.886 12.6062 22.4922 12.2953 22.9896 11.8135Z" fill="#38A2FF"/>
</svg>
