<svg width="24" height="24" viewBox="0 0 24 24" fill="none" xmlns="http://www.w3.org/2000/svg">
<path d="M11 3C11 1.89543 11.8954 1 13 1C14.1046 1 15 1.89543 15 3V4C15 4.55228 15.4477 5 16 5H19C19.5523 5 20 5.44772 20 6V9C20 9.55228 19.5523 10 19 10H18C16.8954 10 16 10.8954 16 12C16 13.1046 16.8954 14 18 14H19C19.5523 14 20 14.4477 20 15V18C20 18.5523 19.5523 19 19 19H16C15.4477 19 15 18.5523 15 18V17C15 15.8954 14.1046 15 13 15C11.8954 15 11 15.8954 11 17V18C11 18.5523 10.5523 19 10 19H7C6.44772 19 6 18.5523 6 18V15C6 14.4477 5.55228 14 5 14H4C2.89543 14 2 13.1046 2 12C2 10.8954 2.89543 10 4 10H5C5.55228 10 6 9.55228 6 9V6C6 5.44772 6.44772 5 7 5H10C10.5523 5 11 4.55228 11 4V3Z" stroke="white" stroke-width="2" stroke-linecap="round" stroke-linejoin="round"/>
</svg>
