<svg width="30" height="30" viewBox="0 0 30 30" fill="none" xmlns="http://www.w3.org/2000/svg">
<mask id="mask0_106_3165" style="mask-type:alpha" maskUnits="userSpaceOnUse" x="0" y="0" width="30" height="30">
<path d="M0 11C0 4.92487 4.92487 0 11 0H19C25.0751 0 30 4.92487 30 11V19C30 25.0751 25.0751 30 19 30H11C4.92487 30 0 25.0751 0 19V11Z" fill="#7B7B7B"/>
</mask>
<g mask="url(#mask0_106_3165)">
</g>
<path d="M15 30C23.2843 30 30 23.2843 30 15C30 6.71573 23.2843 0 15 0C6.71573 0 0 6.71573 0 15C0 23.2843 6.71573 30 15 30Z" fill="#627EEA"/>
<path d="M15.4668 3.75V12.0656L22.4951 15.2062L15.4668 3.75Z" fill="white" fill-opacity="0.602"/>
<path d="M15.4669 3.75L8.4375 15.2062L15.4669 12.0656V3.75Z" fill="white"/>
<path d="M15.4668 20.5951V26.2455L22.4999 16.5151L15.4668 20.5951Z" fill="white" fill-opacity="0.602"/>
<path d="M15.4669 26.2455V20.5942L8.4375 16.5151L15.4669 26.2455Z" fill="white"/>
<path d="M15.4668 19.2871L22.4951 15.2061L15.4668 12.0674V19.2871Z" fill="white" fill-opacity="0.2"/>
<path d="M8.4375 15.2061L15.4669 19.2871V12.0674L8.4375 15.2061Z" fill="white" fill-opacity="0.602"/>
</svg>
