<svg width="24" height="24" viewBox="0 0 24 24" fill="none" xmlns="http://www.w3.org/2000/svg">
<path d="M7.61284 13.8577L6.42084 19.0183C6.38392 19.1746 6.395 19.3383 6.45263 19.4882C6.51026 19.6381 6.61175 19.7671 6.74385 19.8584C6.87596 19.9497 7.03253 19.999 7.19312 20C7.35371 20.0009 7.51086 19.9535 7.64404 19.8637L12.0001 16.9603L16.3561 19.8637C16.4924 19.9542 16.6531 20.0007 16.8166 19.9972C16.9801 19.9936 17.1386 19.94 17.2708 19.8437C17.403 19.7473 17.5025 19.6128 17.5559 19.4583C17.6093 19.3037 17.6142 19.1365 17.5697 18.9791L16.1065 13.8601L19.7353 10.5951C19.8515 10.4905 19.9345 10.3541 19.974 10.2028C20.0136 10.0515 20.0079 9.89195 19.9576 9.74386C19.9074 9.59578 19.8149 9.46566 19.6915 9.3696C19.5681 9.27354 19.4192 9.21575 19.2633 9.20337L14.7025 8.84024L12.7289 4.47228C12.6659 4.33163 12.5636 4.2122 12.4343 4.1284C12.305 4.04459 12.1542 4 12.0001 4C11.846 4 11.6951 4.04459 11.5658 4.1284C11.4365 4.2122 11.3342 4.33163 11.2713 4.47228L9.29765 8.84024L4.73683 9.20257C4.58359 9.21471 4.43709 9.27073 4.31487 9.36393C4.19264 9.45713 4.09986 9.58356 4.04762 9.7281C3.99538 9.87263 3.98589 10.0292 4.0203 10.1789C4.0547 10.3287 4.13154 10.4654 4.24162 10.5727L7.61284 13.8577ZM9.89526 10.3975C10.0381 10.3863 10.1752 10.3368 10.2923 10.2544C10.4094 10.1719 10.5022 10.0595 10.5609 9.92883L12.0001 6.74465L13.4393 9.92883C13.498 10.0595 13.5907 10.1719 13.7078 10.2544C13.8249 10.3368 13.9621 10.3863 14.1049 10.3975L17.2825 10.6495L14.6657 13.0042C14.4385 13.209 14.3481 13.5241 14.4313 13.8185L15.4337 17.3258L12.4449 15.3334C12.3137 15.2454 12.1593 15.1984 12.0013 15.1984C11.8433 15.1984 11.6889 15.2454 11.5577 15.3334L8.43445 17.4154L9.27445 13.7793C9.30525 13.6456 9.30112 13.5062 9.26245 13.3745C9.22378 13.2428 9.15187 13.1233 9.05365 13.0274L6.62324 10.6583L9.89526 10.3975Z" fill="#1886FF"/>
</svg>
