<svg width="24" height="24" viewBox="0 0 24 24" fill="none" xmlns="http://www.w3.org/2000/svg">
<path fill-rule="evenodd" clip-rule="evenodd" d="M5 4C3.34315 4 2 5.34315 2 7V17C2 18.6569 3.34315 20 5 20C6.65685 20 8 18.6569 8 17V7C8 5.34315 6.65685 4 5 4ZM5 6C4.44772 6 4 6.44772 4 7V17C4 17.5523 4.44772 18 5 18C5.55228 18 6 17.5523 6 17V7C6 6.44772 5.55228 6 5 6Z" fill="#687684"/>
<path fill-rule="evenodd" clip-rule="evenodd" d="M12 4C10.3431 4 9 5.34315 9 7V17C9 18.6569 10.3431 20 12 20C13.6569 20 15 18.6569 15 17V7C15 5.34315 13.6569 4 12 4ZM12 6C11.4477 6 11 6.44772 11 7V17C11 17.5523 11.4477 18 12 18C12.5523 18 13 17.5523 13 17V7C13 6.44772 12.5523 6 12 6Z" fill="#687684"/>
<path fill-rule="evenodd" clip-rule="evenodd" d="M19 4C17.3431 4 16 5.34315 16 7V17C16 18.6569 17.3431 20 19 20C20.6569 20 22 18.6569 22 17V7C22 5.34315 20.6569 4 19 4ZM19 6C18.4477 6 18 6.44772 18 7V17C18 17.5523 18.4477 18 19 18C19.5523 18 20 17.5523 20 17V7C20 6.44772 19.5523 6 19 6Z" fill="#687684"/>
</svg>
