<svg width="20" height="20" viewBox="0 0 20 20" fill="none" xmlns="http://www.w3.org/2000/svg">
<path d="M10.9997 4.16634C10.9997 3.61406 10.552 3.16634 9.99967 3.16634C9.44739 3.16634 8.99967 3.61406 8.99967 4.16634L10.9997 4.16634ZM8.99967 4.17467C8.99967 4.72696 9.44739 5.17467 9.99967 5.17467C10.552 5.17467 10.9997 4.72696 10.9997 4.17467L8.99967 4.17467ZM10.9997 9.99967C10.9997 9.44739 10.552 8.99967 9.99967 8.99967C9.44739 8.99967 8.99967 9.44739 8.99967 9.99967L10.9997 9.99967ZM8.99967 10.008C8.99967 10.5603 9.44739 11.008 9.99967 11.008C10.552 11.008 10.9997 10.5603 10.9997 10.008L8.99967 10.008ZM10.9997 15.833C10.9997 15.2807 10.552 14.833 9.99967 14.833C9.44739 14.833 8.99967 15.2807 8.99967 15.833L10.9997 15.833ZM8.99967 15.8413C8.99967 16.3936 9.44739 16.8413 9.99967 16.8413C10.552 16.8413 10.9997 16.3936 10.9997 15.8413L8.99967 15.8413ZM9.99967 3.99967C10.0917 3.99967 10.1663 4.07429 10.1663 4.16634L8.16634 4.16634C8.16634 5.17886 8.98715 5.99967 9.99967 5.99967L9.99967 3.99967ZM10.1663 4.16634C10.1663 4.25839 10.0917 4.33301 9.99967 4.33301L9.99967 2.33301C8.98715 2.33301 8.16634 3.15382 8.16634 4.16634L10.1663 4.16634ZM9.99967 4.33301C9.90763 4.33301 9.83301 4.25839 9.83301 4.16634L11.833 4.16634C11.833 3.15382 11.0122 2.33301 9.99967 2.33301L9.99967 4.33301ZM9.83301 4.16634C9.83301 4.07429 9.90763 3.99967 9.99967 3.99967L9.99967 5.99967C11.0122 5.99967 11.833 5.17886 11.833 4.16634L9.83301 4.16634ZM9.99967 9.83301C10.0917 9.83301 10.1663 9.90763 10.1663 9.99967L8.16634 9.99967C8.16634 11.0122 8.98715 11.833 9.99967 11.833L9.99967 9.83301ZM10.1663 9.99967C10.1663 10.0917 10.0917 10.1663 9.99967 10.1663L9.99967 8.16634C8.98715 8.16634 8.16634 8.98715 8.16634 9.99967L10.1663 9.99967ZM9.99967 10.1663C9.90763 10.1663 9.83301 10.0917 9.83301 9.99967L11.833 9.99967C11.833 8.98715 11.0122 8.16634 9.99967 8.16634L9.99967 10.1663ZM9.83301 9.99967C9.83301 9.90763 9.90763 9.83301 9.99967 9.83301L9.99967 11.833C11.0122 11.833 11.833 11.0122 11.833 9.99967L9.83301 9.99967ZM9.99967 15.6663C10.0917 15.6663 10.1663 15.741 10.1663 15.833L8.16634 15.833C8.16634 16.8455 8.98715 17.6663 9.99967 17.6663L9.99967 15.6663ZM10.1663 15.833C10.1663 15.9251 10.0917 15.9997 9.99967 15.9997L9.99967 13.9997C8.98715 13.9997 8.16634 14.8205 8.16634 15.833L10.1663 15.833ZM9.99967 15.9997C9.90763 15.9997 9.83301 15.9251 9.83301 15.833L11.833 15.833C11.833 14.8205 11.0122 13.9997 9.99967 13.9997L9.99967 15.9997ZM9.83301 15.833C9.83301 15.741 9.90763 15.6663 9.99967 15.6663L9.99967 17.6663C11.0122 17.6663 11.833 16.8455 11.833 15.833L9.83301 15.833ZM8.99967 4.16634L8.99967 4.17467L10.9997 4.17467L10.9997 4.16634L8.99967 4.16634ZM8.99967 9.99967L8.99967 10.008L10.9997 10.008L10.9997 9.99967L8.99967 9.99967ZM8.99967 15.833L8.99967 15.8413L10.9997 15.8413L10.9997 15.833L8.99967 15.833Z" fill="#687684"/>
</svg>
