<svg width="20" height="20" viewBox="0 0 20 20" fill="none" xmlns="http://www.w3.org/2000/svg">
<path d="M5.00065 4.33301H6.66732V2.33301H5.00065V4.33301ZM7.33398 4.99967V6.66634H9.33398V4.99967H7.33398ZM6.66732 7.33301H5.00065V9.33301H6.66732V7.33301ZM4.33398 6.66634V4.99967H2.33398V6.66634H4.33398ZM5.00065 7.33301C4.63246 7.33301 4.33398 7.03453 4.33398 6.66634H2.33398C2.33398 8.1391 3.52789 9.33301 5.00065 9.33301V7.33301ZM7.33398 6.66634C7.33398 7.03453 7.03551 7.33301 6.66732 7.33301V9.33301C8.14008 9.33301 9.33398 8.1391 9.33398 6.66634H7.33398ZM6.66732 4.33301C7.03551 4.33301 7.33398 4.63148 7.33398 4.99967H9.33398C9.33398 3.52692 8.14008 2.33301 6.66732 2.33301V4.33301ZM5.00065 2.33301C3.52789 2.33301 2.33398 3.52692 2.33398 4.99967H4.33398C4.33398 4.63148 4.63246 4.33301 5.00065 4.33301V2.33301ZM13.334 4.33301H15.0007V2.33301H13.334V4.33301ZM15.6673 4.99967V6.66634H17.6673V4.99967H15.6673ZM15.0007 7.33301H13.334V9.33301H15.0007V7.33301ZM12.6673 6.66634V4.99967H10.6673V6.66634H12.6673ZM13.334 7.33301C12.9658 7.33301 12.6673 7.03453 12.6673 6.66634H10.6673C10.6673 8.1391 11.8612 9.33301 13.334 9.33301V7.33301ZM15.6673 6.66634C15.6673 7.03453 15.3688 7.33301 15.0007 7.33301V9.33301C16.4734 9.33301 17.6673 8.1391 17.6673 6.66634H15.6673ZM15.0007 4.33301C15.3688 4.33301 15.6673 4.63148 15.6673 4.99967H17.6673C17.6673 3.52692 16.4734 2.33301 15.0007 2.33301V4.33301ZM13.334 2.33301C11.8612 2.33301 10.6673 3.52692 10.6673 4.99967H12.6673C12.6673 4.63148 12.9658 4.33301 13.334 4.33301V2.33301ZM5.00065 12.6663H6.66732V10.6663H5.00065V12.6663ZM7.33398 13.333V14.9997H9.33398V13.333H7.33398ZM6.66732 15.6663H5.00065V17.6663H6.66732V15.6663ZM4.33398 14.9997V13.333H2.33398V14.9997H4.33398ZM5.00065 15.6663C4.63246 15.6663 4.33398 15.3679 4.33398 14.9997H2.33398C2.33398 16.4724 3.52789 17.6663 5.00065 17.6663V15.6663ZM7.33398 14.9997C7.33398 15.3679 7.03551 15.6663 6.66732 15.6663V17.6663C8.14008 17.6663 9.33398 16.4724 9.33398 14.9997H7.33398ZM6.66732 12.6663C7.03551 12.6663 7.33398 12.9648 7.33398 13.333H9.33398C9.33398 11.8602 8.14008 10.6663 6.66732 10.6663V12.6663ZM5.00065 10.6663C3.52789 10.6663 2.33398 11.8602 2.33398 13.333H4.33398C4.33398 12.9648 4.63246 12.6663 5.00065 12.6663V10.6663ZM13.334 12.6663H15.0007V10.6663H13.334V12.6663ZM15.6673 13.333V14.9997H17.6673V13.333H15.6673ZM15.0007 15.6663H13.334V17.6663H15.0007V15.6663ZM12.6673 14.9997V13.333H10.6673V14.9997H12.6673ZM13.334 15.6663C12.9658 15.6663 12.6673 15.3679 12.6673 14.9997H10.6673C10.6673 16.4724 11.8612 17.6663 13.334 17.6663V15.6663ZM15.6673 14.9997C15.6673 15.3679 15.3688 15.6663 15.0007 15.6663V17.6663C16.4734 17.6663 17.6673 16.4724 17.6673 14.9997H15.6673ZM15.0007 12.6663C15.3688 12.6663 15.6673 12.9648 15.6673 13.333H17.6673C17.6673 11.8602 16.4734 10.6663 15.0007 10.6663V12.6663ZM13.334 10.6663C11.8612 10.6663 10.6673 11.8602 10.6673 13.333H12.6673C12.6673 12.9648 12.9658 12.6663 13.334 12.6663V10.6663Z" fill="#687684"/>
</svg>
