<svg width="24" height="24" viewBox="0 0 24 24" fill="none" xmlns="http://www.w3.org/2000/svg">
<path d="M2.45703 12L1.50298 11.7003C1.44171 11.8954 1.44171 12.1045 1.50298 12.2996L2.45703 12ZM21.5414 12L22.4955 12.2997C22.5567 12.1046 22.5567 11.8955 22.4955 11.7004L21.5414 12ZM13.9988 12C13.9988 13.1046 13.1033 14 11.9988 14V16C14.2079 16 15.9988 14.2091 15.9988 12H13.9988ZM11.9988 14C10.8942 14 9.99878 13.1046 9.99878 12H7.99878C7.99878 14.2091 9.78964 16 11.9988 16V14ZM9.99878 12C9.99878 10.8954 10.8942 10 11.9988 10V8C9.78964 8 7.99878 9.79086 7.99878 12H9.99878ZM11.9988 10C13.1033 10 13.9988 10.8954 13.9988 12H15.9988C15.9988 9.79086 14.2079 8 11.9988 8V10ZM3.41108 12.2996C4.55821 8.64733 7.97086 6 11.9992 6V4C7.07231 4 2.9044 7.23842 1.50298 11.7003L3.41108 12.2996ZM11.9992 6C16.0276 6 19.4403 8.64737 20.5874 12.2997L22.4955 11.7004C21.0941 7.23846 16.9261 4 11.9992 4V6ZM20.5874 11.7004C19.4402 15.3527 16.0276 18 11.9992 18V20C16.9261 20 21.0941 16.7616 22.4955 12.2997L20.5874 11.7004ZM11.9992 18C7.97086 18 4.55819 15.3526 3.41108 11.7003L1.50298 12.2996C2.90438 16.7615 7.07231 20 11.9992 20V18Z" fill="#1F1F1F"/>
</svg>
