<svg width="30" height="30" viewBox="0 0 30 30" fill="none" xmlns="http://www.w3.org/2000/svg">
<g clip-path="url(#clip0_811_6391)">
<path d="M23.5283 -1.33015e-05C21.8148 -0.00134714 20.1708 0.679116 18.9572 1.89201C17.7435 3.1049 17.0594 4.7511 17.055 6.46926V13.6421C16.3883 13.6873 15.7067 13.7157 15 13.7157C14.2933 13.7157 13.615 13.7441 12.945 13.7842V6.46926C12.9177 4.766 12.2238 3.14175 11.013 1.94691C9.8021 0.752064 8.17135 0.0824108 6.4725 0.0824108C4.77365 0.0824108 3.1429 0.752064 1.93203 1.94691C0.721168 3.14175 0.0272584 4.766 0 6.46926V23.6126C0.0272584 25.3159 0.721168 26.9401 1.93203 28.135C3.1429 29.3298 4.77365 29.9995 6.4725 29.9995C8.17135 29.9995 9.8021 29.3298 11.013 28.135C12.2238 26.9401 12.9177 25.3159 12.945 23.6126V16.4397C13.6117 16.3946 14.2933 16.3662 15 16.3662C15.7067 16.3662 16.385 16.3378 17.055 16.2977V23.6126C17.0823 25.3159 17.7762 26.9401 18.987 28.135C20.1979 29.3298 21.8287 29.9995 23.5275 29.9995C25.2263 29.9995 26.8571 29.3298 28.068 28.135C29.2788 26.9401 29.9727 25.3159 30 23.6126V6.46926C29.9956 4.75139 29.3117 3.10544 28.0984 1.8926C26.8851 0.679754 25.2415 -0.00090428 23.5283 -1.33015e-05ZM6.47167 2.65054C7.48291 2.65009 8.45303 3.0519 9.16918 3.76781C9.88533 4.48373 10.289 5.45526 10.2917 6.46926V14.0649C8.39797 14.3401 6.54871 14.8644 4.79167 15.6242C4.03039 15.9592 3.31375 16.3881 2.65833 16.901V6.46926C2.66098 5.45642 3.06375 4.48589 3.77846 3.77017C4.49317 3.05445 5.46158 2.65186 6.47167 2.65054ZM10.2917 23.6126C10.2917 24.6285 9.8892 25.6028 9.17282 26.3211C8.45643 27.0395 7.48479 27.443 6.47167 27.443C5.45854 27.443 4.48691 27.0395 3.77052 26.3211C3.05413 25.6028 2.65167 24.6285 2.65167 23.6126V21.8929C2.65167 20.3738 3.85167 18.9349 5.86333 18.0391C7.28079 17.4259 8.76806 16.9898 10.2917 16.7406V23.6126ZM23.5283 27.4313C22.5171 27.4318 21.547 27.03 20.8308 26.3141C20.1147 25.5981 19.711 24.6266 19.7083 23.6126V16.0169C21.602 15.7418 23.4513 15.2175 25.2083 14.4577C25.9696 14.1227 26.6863 13.6937 27.3417 13.1809V23.6126C27.339 24.6254 26.9363 25.596 26.2215 26.3117C25.5068 27.0274 24.5384 27.43 23.5283 27.4313ZM24.1367 12.0327C22.7192 12.6459 21.2319 13.0821 19.7083 13.3313V6.46926C19.7083 5.45337 20.1108 4.47909 20.8272 3.76074C21.5436 3.0424 22.5152 2.63884 23.5283 2.63884C24.5415 2.63884 25.5131 3.0424 26.2295 3.76074C26.9459 4.47909 27.3483 5.45337 27.3483 6.46926V8.18895C27.3483 9.7014 26.1483 11.1403 24.1367 12.0327Z" fill="url(#paint0_linear_811_6391)"/>
</g>
<defs>
<linearGradient id="paint0_linear_811_6391" x1="1.9" y1="27.7644" x2="28" y2="1.66441" gradientUnits="userSpaceOnUse">
<stop stop-color="#00AEE9"/>
<stop offset="1" stop-color="#69FABD"/>
</linearGradient>
<clipPath id="clip0_811_6391">
<rect width="30" height="30" fill="white"/>
</clipPath>
</defs>
</svg>
